<svg xmlns="http://www.w3.org/2000/svg" width="120" height="118.282" viewBox="0 0 120 118.282">
  <g id="Group_2510" data-name="Group 2510" transform="translate(-1011 -297)">
    <path id="Path_32730" data-name="Path 32730" d="M210.793,0h83.135a36.864,36.864,0,0,1,36.864,36.864v81.417C328.18,118.281,210.793,0,210.793,0Z" transform="translate(800.207 297)" fill="#e84312"/>
    <g id="star-icon" transform="matrix(0.719, 0.695, -0.695, 0.719, 1102.707, 307.032)">
      <path id="icon" d="M14.467,14.416a1,1,0,0,1,.377-1.113l1.58-1.119a1,1,0,0,1,1.156,1.632l-.987.7L18.519,20.7a1,1,0,0,1-1.564,1.09L12,17.992l-4.954,3.8A1,1,0,0,1,5.485,20.7L7.419,14.49,2.4,10.671A1,1,0,0,1,3,8.875L9.15,8.89l1.9-6.183a1,1,0,0,1,1.912,0l1.9,6.183L21,8.875a1,1,0,0,1,0,2l-6.886.016a1,1,0,0,1-.958-.707L12,6.41l-1.158,3.774a1,1,0,0,1-.958.707l-3.908-.009,3.209,2.44a1,1,0,0,1,.349,1.093L8.331,18.288l3.062-2.35a1,1,0,0,1,1.218,0l3.062,2.35Z" fill="#fff"/>
    </g>
    <text id="Popular_" data-name="Popular
" transform="translate(1060.191 303.599) rotate(45)" fill="#fff" font-size="15" font-family="Poppins-Light, Poppins" font-weight="300"><tspan x="21.65" y="16">Popular</tspan></text>
  </g>
</svg>
