<svg xmlns="http://www.w3.org/2000/svg" width="15.759" height="18.889" viewBox="0 0 15.759 18.889">
  <g id="Group_575" data-name="Group 575" transform="translate(-789 -335)">
    <path id="Path_29348" data-name="Path 29348" d="M863.175,344.1a4.551,4.551,0,1,0-3.217-1.333,4.4,4.4,0,0,0,3.217,1.333Zm0,0" transform="translate(-66.414)"/>
    <path id="Path_29349" data-name="Path 29349" d="M804.721,538.253a11.208,11.208,0,0,0-.153-1.193,9.383,9.383,0,0,0-.293-1.2,5.93,5.93,0,0,0-.493-1.119,4.219,4.219,0,0,0-.744-.969,3.281,3.281,0,0,0-1.069-.671,3.692,3.692,0,0,0-1.364-.247,1.384,1.384,0,0,0-.739.314c-.222.145-.481.312-.77.5a4.411,4.411,0,0,1-1,.439,3.868,3.868,0,0,1-2.438,0,4.4,4.4,0,0,1-1-.439c-.287-.183-.546-.35-.771-.5a1.384,1.384,0,0,0-.739-.314,3.688,3.688,0,0,0-1.364.247,3.278,3.278,0,0,0-1.069.672,4.222,4.222,0,0,0-.744.969,5.941,5.941,0,0,0-.493,1.119,9.386,9.386,0,0,0-.293,1.2,11.172,11.172,0,0,0-.153,1.194c-.025.361-.038.737-.038,1.115a3.137,3.137,0,0,0,.932,2.373,3.354,3.354,0,0,0,2.4.875h9.1a3.353,3.353,0,0,0,2.4-.875,3.136,3.136,0,0,0,.932-2.373c0-.381-.013-.756-.038-1.116Zm0,0" transform="translate(0 -188.728)"/>
  </g>
</svg>
