<svg xmlns="http://www.w3.org/2000/svg" width="591.122" height="555.858" viewBox="0 0 591.122 555.858">
  <g id="Group_534" data-name="Group 534" transform="translate(-91.711 -5541.986)">
    <g id="Skael_Character_Design_20200511-22" transform="translate(94.511 5857.189)">
      <path id="Path_16185" data-name="Path 16185" d="M114.15,35.86c0,1.155,3.007,26.145,3.007,26.145L150.016,99.06s7.428-17.959,13.891-20.682L150.016,55.542Z" transform="translate(-25.433 -18.013)" fill="#e84312"/>
      <ellipse id="Ellipse_13" data-name="Ellipse 13" cx="65.251" cy="11.272" rx="65.251" ry="11.272" transform="translate(23.018 215.694)" fill="#31a8a8"/>
      <path id="Path_16186" data-name="Path 16186" d="M146,239.69a75.713,75.713,0,0,1,9.919,31.928h11.556" transform="translate(-29.836 -46.195)" fill="none" stroke="#ff65a7" stroke-linecap="round" stroke-linejoin="round" stroke-width="5.4"/>
      <path id="Path_16187" data-name="Path 16187" d="M80.5,238.22c-5.748,11.246-11.409,20.3-11.5,32.04H58.24" transform="translate(-17.703 -45.991)" fill="none" stroke="#ff65a7" stroke-linecap="round" stroke-linejoin="round" stroke-width="5.4"/>
      <path id="Path_16188" data-name="Path 16188" d="M65.524,187.168s-41.95-19.691-52.368,2.982c-8.979,19.544,15.46,25.137,22.405,26.3a14.581,14.581,0,0,1,5.713,2.223c1.93,1.3,3.731,3.266,3.188,5.877-.922,4.481-2.93,6.032-8.066,5.334" transform="translate(-11.199 -37.836)" fill="none" stroke="#ff65a7" stroke-linecap="round" stroke-linejoin="round" stroke-width="5.4"/>
      <path id="Path_16189" data-name="Path 16189" d="M143.66,181.587s41.958-19.691,52.368,2.973c8.979,19.544-15.451,25.137-22.405,26.309a14.564,14.564,0,0,0-5.756,2.223c-1.93,1.31-3.723,3.275-3.18,5.886.922,4.481,2.93,6.075,8.057,5.334" transform="translate(-29.513 -37.065)" fill="none" stroke="#ff65a7" stroke-linecap="round" stroke-linejoin="round" stroke-width="5.4"/>
      <path id="Path_16190" data-name="Path 16190" d="M79.632,57.625c-34.814,6.48-55.151,49.18-31.79,76.428,4.1,4.145,15.175,13.9,11.5,17.14-54.979,48.447,11,81.116,51.411,75.4,33.332-4.714,65.363-52.5,28.886-72.085-5.317-2.852-22-6.584-10.617-14.6C178.19,105.27,114.447,51.144,79.632,57.625Z" transform="translate(-14.88 -20.949)" fill="#ff65a7"/>
      <path id="Path_16191" data-name="Path 16191" d="M81.7,110.8s-7.221,10.755-16.132,10.755-16.132-10.72-16.132-10.72,7.221-10.729,16.132-10.729S81.7,110.8,81.7,110.8Z" transform="translate(-16.486 -26.896)" fill="#fff"/>
      <path id="Path_16192" data-name="Path 16192" d="M60.12,72.51S96,104.093,146.854,96.639" transform="translate(-17.963 -23.081)" fill="none" stroke="#12122f" stroke-linecap="round" stroke-linejoin="round" stroke-width="2.53"/>
      <path id="Path_16193" data-name="Path 16193" d="M113.782,98.45l18.278,2.9,18.234-.414c-2.482,8.393-6.575,19.381-15.942,21.974-4.541,1.258-9.729,1.017-13.71-1.723-4.55-3.1-5.567-7.8-6.3-12.969a47.8,47.8,0,0,1-.56-9.764Z" transform="translate(-25.375 -26.667)" fill="#12122f"/>
      <path id="Path_16194" data-name="Path 16194" d="M52,97.023s10.513-6.747,24.689-1.25" transform="translate(-16.84 -25.999)" fill="none" stroke="#12122f" stroke-linecap="round" stroke-linejoin="round" stroke-width="2.53"/>
      <path id="Path_16195" data-name="Path 16195" d="M94.138,174.55l-.922,5.3L90.6,194.758l-1.172,6.7c-.155.862-.586,1.922-.664,2.792s.707,2.068,1.094,2.835c.81,1.594,1.723,3.137,2.68,4.653s1.973,3.068,3.085,4.507a5.05,5.05,0,0,0,2.456,2.154c1.094.284,1.723-.4,2.482-1.069a32.419,32.419,0,0,0,4.214-4.679,59.767,59.767,0,0,0,3.671-5.257c.474-.767,1.723-2.266,1.551-3.249a22.316,22.316,0,0,0-.862-2.706l-1.8-6.325-4.128-14.52-1.723-6.032Z" transform="translate(-21.923 -37.188)" fill="#96e2b9"/>
      <path id="Path_16196" data-name="Path 16196" d="M94.688,173.644l-2.008-3.068L98.238,168l6.713,2.827-2.921,2.818Z" transform="translate(-22.464 -36.283)" fill="#96e2b9"/>
      <path id="Path_16197" data-name="Path 16197" d="M118.18,160.8l-2.749,14.322-19.656-8.247-17.812,8.247-1.853-12.6a141.5,141.5,0,0,0,19.2.862A132.44,132.44,0,0,0,118.18,160.8Z" transform="translate(-20.173 -35.287)" fill="#12122f" stroke="#12122f" stroke-linecap="round" stroke-linejoin="round" stroke-width="2.89"/>
      <ellipse id="Ellipse_14" data-name="Ellipse 14" cx="6.067" cy="4.033" rx="6.067" ry="4.033" transform="translate(116.445 92.475) rotate(-10.74)" fill="#96e2b9"/>
      <ellipse id="Ellipse_15" data-name="Ellipse 15" cx="4.033" cy="6.067" rx="4.033" ry="6.067" transform="translate(25.131 98.157) rotate(-79.26)" fill="#96e2b9"/>
      <path id="Path_16198" data-name="Path 16198" d="M115.994,161.83s-11.978,2.43-19.734,2.344-17.08-.862-17.08-.862" transform="translate(-20.598 -35.43)" fill="none" stroke="#12122f" stroke-linecap="round" stroke-linejoin="round" stroke-width="2.53"/>
      <path id="Path_16199" data-name="Path 16199" d="M88.1,227.145a100.108,100.108,0,0,1-47.964-12c7.678,22.474,44.7,34.961,70.939,31.247,22.345-3.163,44.113-25.689,45.035-46.086C139.5,216.752,115.2,227.145,88.1,227.145Z" transform="translate(-15.2 -40.75)" fill="#e84f98"/>
      <path id="Path_16200" data-name="Path 16200" d="M150.208,60.995a7.307,7.307,0,0,0-3.447.9A14.8,14.8,0,0,0,138.35,39.3a13.311,13.311,0,0,0,.086-1.56A14.908,14.908,0,0,0,114.7,25.68c-2.042-6.032-9.272-10.53-17.916-10.53-9.031,0-16.537,4.895-18.166,11.358a21.061,21.061,0,0,0-18.1-10c-11.539.034-20.914,9.005-20.914,20.053a19.2,19.2,0,0,0,.5,4.309,15.149,15.149,0,0,0,5.257,29.36,15.511,15.511,0,0,0,3.369-.388c3.749,3.99,10.272,6.635,17.7,6.635,9.876,0,18.1-4.671,20.423-10.953A15.617,15.617,0,0,0,112.713,48a14.813,14.813,0,0,0,7.058,4.154,12.868,12.868,0,0,0-.078,1.422,14.787,14.787,0,0,0,23.827,11.72,7.394,7.394,0,1,0,6.713-4.309ZM104.639,41.83a19.82,19.82,0,0,0,4.093-1.982,14.8,14.8,0,0,0,2.3,6.084A15.511,15.511,0,0,0,104.639,41.83Z" transform="translate(-13.828 -15.15)" fill="#e84312"/>
      <circle id="Ellipse_16" data-name="Ellipse 16" cx="5.188" cy="5.188" r="5.188" transform="translate(43.898 78.72)" fill="#12122f"/>
    </g>
    <g id="Group_533" data-name="Group 533" transform="translate(216.684 5800.947)">
      <path id="Path_29059" data-name="Path 29059" d="M688.94,349.56S742.6,324.641,744.984,278" transform="translate(-484.058 -199.959)" fill="none" stroke="#ffbf46" stroke-linecap="round" stroke-linejoin="round" stroke-width="23"/>
      <path id="Path_29060" data-name="Path 29060" d="M110.894,349.56S57.225,324.641,54.85,278" transform="translate(-54.85 -199.959)" fill="none" stroke="#ffbf46" stroke-linecap="round" stroke-linejoin="round" stroke-width="23"/>
      <ellipse id="Ellipse_46" data-name="Ellipse 46" cx="78.93" cy="13.988" rx="78.93" ry="13.988" transform="translate(59.805 268.922)" fill="#e84312" opacity="0.3"/>
      <path id="Path_29061" data-name="Path 29061" d="M221.441,240.235c8.824.107,19.71-3.748,19,11.354s-2.362,37.759-5.9,46-16.042,12.123-21.458,6.462-13.836-14.088-13.836-30.1S214.679,240.142,221.441,240.235Z" transform="translate(-152.593 -174.15)" fill="#abbbf9"/>
      <path id="Path_29062" data-name="Path 29062" d="M214.246,223.349c-3.137,4.74-6.226,9.451-9.012,14.188-11.131,18.934-19.794,41.281-14.333,62.554,4.524,17.661,18.308,31.768,34.033,40.993,42.945,25.2,122.831,22.056,138.615-34.8,11.441-41.21-23.91-59.537-33.335-94.707-4.31-16.1-.275-34.011-6.966-49.278-9.2-21-37.875-29.044-58.583-19.212-17.374,8.252-31.833,21.2-36.68,38.234C223.849,195.859,222.754,210.492,214.246,223.349Z" transform="translate(-145.804 -105.818)" fill="#ffbf46"/>
      <path id="Path_29063" data-name="Path 29063" d="M519.955,815.852a3.664,3.664,0,0,1-3.112-1.735,91.837,91.837,0,0,1-13.067-38.3,3.654,3.654,0,1,1,7.268-.769,84.46,84.46,0,0,0,10.908,33.374l8.659-.5a3.652,3.652,0,1,1,.42,7.293l-10.866.627Z" transform="translate(-358.709 -534.192)" fill="#ffbf46"/>
      <path id="Path_29064" data-name="Path 29064" d="M391.208,814.956H378.623a3.654,3.654,0,0,1,0-7.306h8.95l.271-37.252a3.654,3.654,0,0,1,3.654-3.628h.032a3.654,3.654,0,0,1,3.625,3.683l-.3,40.89A3.651,3.651,0,0,1,391.208,814.956Z" transform="translate(-271.608 -530.802)" fill="#ffbf46"/>
      <path id="Path_29065" data-name="Path 29065" d="M528.721,230.381h-30.7a1.716,1.716,0,1,1,0-3.431h30.7a1.716,1.716,0,0,1,0,3.431Z" transform="translate(-353.669 -165.404)" fill="#12122f"/>
      <path id="Path_29066" data-name="Path 29066" d="M276.86,110.957s.669-74.487,60.05-74.487c53.162,0,63.42,62.26,63.078,80.726H389.044s-12.3-60.522-50.254-60.522-48.467,32.056-51.869,56.677A28.637,28.637,0,0,1,276.86,110.957Z" transform="translate(-205.126 -36.47)" fill="#abbbf9"/>
      <path id="Path_29067" data-name="Path 29067" d="M272.889,496.444c-85.476-11.771-84.717-65.491-83.234-71.3,9.312-16.156,28.906-33.31,24.043-60.991l3.732-6.081s6.7,51.478,46.312,51.947c54.183.646,60.2-43.148,65.954-63.815,7.58,2.585,3.709,3.2,3.709,3.2s6.947,40.089,13.655,51.866a219.732,219.732,0,0,0,18.954,27.965s1.767,73.482-93.121,67.207Z" transform="translate(-145.858 -246.123)" fill="#e84312"/>
      <path id="Path_29068" data-name="Path 29068" d="M279.609,642.1c-37.426,0-75.931-12.828-88.442-39.258a5.805,5.805,0,0,1-1.176-2.7c-.229-.582-.443-1.173-.646-1.767-.646,12.278,5.493,58.011,83.55,68.761,86.171,5.69,92.63-54.386,93.092-65.469C355.434,629.425,318.127,642.1,279.609,642.1Z" transform="translate(-145.86 -416.82)" fill="#da3f10"/>
      <path id="Path_29069" data-name="Path 29069" d="M627.161,349.786V349.4s3.877-.6-3.709-3.2c-.052.194-.107.4-.162.595Q625.264,348.249,627.161,349.786Z" transform="translate(-439.621 -246.123)" fill="#da3f10"/>
      <path id="Path_29070" data-name="Path 29070" d="M340.037,579.453a6.492,6.492,0,0,1-6.462-6.071l-.191-3.16a6.485,6.485,0,0,1,6.075-6.866l4.543-.281a6.482,6.482,0,0,1,6.869,6.078l.194,3.157a6.5,6.5,0,0,1-6.078,6.873h0l-4.543.275C340.3,579.449,340.163,579.453,340.037,579.453Zm4.847-2Zm-.481-10.986h-.191l-4.543.278a3.057,3.057,0,0,0-2.863,3.231l.194,3.163A3.1,3.1,0,0,0,340.231,576l4.546-.278a3.057,3.057,0,0,0,2.863-3.231l-.194-3.16a3.056,3.056,0,0,0-3.047-2.869Z" transform="translate(-243.378 -392.914)" fill="#12122f"/>
      <path id="Path_29071" data-name="Path 29071" d="M361.711,578.6a1.716,1.716,0,0,1-.1-3.428l3.677-.223a3.2,3.2,0,0,0,1.977-.811,1.774,1.774,0,0,0,.6-1.36l-.323-5.247a1.767,1.767,0,0,0-.766-1.292,3.231,3.231,0,0,0-2.061-.565l-4.714.288a1.716,1.716,0,1,1-.213-3.422l4.717-.287a6.521,6.521,0,0,1,4.317,1.231,5.17,5.17,0,0,1,2.145,3.845l.323,5.247a5.17,5.17,0,0,1-1.661,4.052,6.542,6.542,0,0,1-4.126,1.745l-3.68.226Z" transform="translate(-260.121 -392.354)" fill="#12122f"/>
      <path id="Path_29072" data-name="Path 29072" d="M416.888,577.52H411.2a6.491,6.491,0,0,1-6.485-6.485v-4.2a6.491,6.491,0,0,1,6.485-6.485h5.684a6.491,6.491,0,0,1,6.485,6.485v4.2A6.491,6.491,0,0,1,416.888,577.52ZM411.2,563.791a3.057,3.057,0,0,0-3.053,3.057v4.2A3.056,3.056,0,0,0,411.2,574.1h5.684a3.056,3.056,0,0,0,3.057-3.053v-4.2a3.06,3.06,0,0,0-3.057-3.057Z" transform="translate(-291.673 -391.079)" fill="#12122f"/>
      <path id="Path_29073" data-name="Path 29073" d="M442.07,577.544h-3.354a1.716,1.716,0,0,1,0-3.432h3.354a2.307,2.307,0,0,0,2.307-2.307v-5.68a2.31,2.31,0,0,0-2.307-2.31h-4.3a1.716,1.716,0,1,1,0-3.428h4.3a5.745,5.745,0,0,1,5.738,5.738v5.68A5.745,5.745,0,0,1,442.07,577.544Z" transform="translate(-312.832 -391.102)" fill="#12122f"/>
      <rect id="Rectangle_171" data-name="Rectangle 171" width="12.705" height="14.091" rx="6.352" transform="translate(139.577 183.588) rotate(-84.77)" fill="#12122f"/>
      <path id="Path_29074" data-name="Path 29074" d="M493.908,578.061a4.757,4.757,0,0,1-.6-.026l-4.523-.417a6.481,6.481,0,0,1-5.868-7.047l.291-3.153a6.485,6.485,0,0,1,7.047-5.865l4.524.414a6.485,6.485,0,0,1,5.868,7.05l-.288,3.15A6.485,6.485,0,0,1,493.908,578.061Zm-4.262-13.105a3.06,3.06,0,0,0-3.037,2.776l-.288,3.154a3.047,3.047,0,0,0,2.74,3.318l4.524.417h0a3.067,3.067,0,0,0,2.262-.695,3.034,3.034,0,0,0,1.089-2.068l.288-3.154a3.057,3.057,0,0,0-2.763-3.318l-4.524-.417a2.823,2.823,0,0,0-.3-.013Z" transform="translate(-344.582 -391.874)" fill="#12122f"/>
      <path id="Path_29075" data-name="Path 29075" d="M518.438,579.348a3.815,3.815,0,0,1-.507-.023l-3.089-.281a1.717,1.717,0,0,1,.323-3.419l3.092.285a2.081,2.081,0,0,0,1.47-.456,2.007,2.007,0,0,0,.714-1.36l.478-5.234a2.007,2.007,0,0,0-1.816-2.184l-3.971-.365a1.716,1.716,0,1,1,.323-3.415l3.948.349a5.441,5.441,0,0,1,4.918,5.916l-.465,5.244a5.438,5.438,0,0,1-5.406,4.944Z" transform="translate(-365.16 -392.794)" fill="#12122f"/>
      <rect id="Rectangle_172" data-name="Rectangle 172" width="14.091" height="12.705" rx="6.352" transform="translate(89.893 191.698)" fill="#12122f"/>
      <path id="Path_29076" data-name="Path 29076" d="M338.788,640.586h-4.553a6.494,6.494,0,0,1-6.485-6.485v-3.167a6.491,6.491,0,0,1,6.485-6.485h4.553a6.491,6.491,0,0,1,6.491,6.485V634.1A6.491,6.491,0,0,1,338.788,640.586Zm-4.553-12.7a3.057,3.057,0,0,0-3.053,3.053V634.1a3.057,3.057,0,0,0,3.053,3.053h4.553a3.057,3.057,0,0,0,3.057-3.053v-3.167a3.057,3.057,0,0,0-3.057-3.053Z" transform="translate(-239.572 -434.467)" fill="#12122f"/>
      <path id="Path_29077" data-name="Path 29077" d="M362.6,640.586h-3.105a1.716,1.716,0,1,1,0-3.431H362.6a2.013,2.013,0,0,0,2.01-2.01v-5.257a2.01,2.01,0,0,0-2.01-2.006h-3.981a1.716,1.716,0,1,1,0-3.431H362.6a5.444,5.444,0,0,1,5.438,5.438v5.257A5.448,5.448,0,0,1,362.6,640.586Z" transform="translate(-259.304 -434.467)" fill="#12122f"/>
      <path id="Path_29078" data-name="Path 29078" d="M415.7,642.441h-6.611a6.494,6.494,0,0,1-6.485-6.485v-5.021a6.491,6.491,0,0,1,6.485-6.485H415.7a6.491,6.491,0,0,1,6.485,6.485v5.021A6.494,6.494,0,0,1,415.7,642.441Zm-6.611-14.559a3.057,3.057,0,0,0-3.053,3.053v5.021a3.057,3.057,0,0,0,3.053,3.053H415.7a3.057,3.057,0,0,0,3.053-3.053v-5.021a3.057,3.057,0,0,0-3.053-3.053Z" transform="translate(-290.238 -434.467)" fill="#12122f"/>
      <path id="Path_29079" data-name="Path 29079" d="M442.285,642.461h-3.554a1.716,1.716,0,0,1,0-3.432h3.554a2.553,2.553,0,0,0,2.553-2.553v-6.013a2.553,2.553,0,0,0-2.553-2.552h-4.559a1.716,1.716,0,0,1,0-3.431h4.559a5.99,5.99,0,0,1,6,5.984v6.023A5.99,5.99,0,0,1,442.285,642.461Z" transform="translate(-312.852 -434.487)" fill="#12122f"/>
      <path id="Path_29080" data-name="Path 29080" d="M345.874,704.457h-.229L341.1,704.3a6.462,6.462,0,0,1-6.255-6.7l.116-3.36a6.459,6.459,0,0,1,6.7-6.255l4.549.158a6.485,6.485,0,0,1,6.255,6.7l-.116,3.36A6.485,6.485,0,0,1,345.874,704.457Zm-4.439-13.06a3.06,3.06,0,0,0-3.053,2.95l-.116,3.36a3.063,3.063,0,0,0,2.947,3.16l4.55.159a.611.611,0,0,0,.11,0,3.053,3.053,0,0,0,3.05-2.95l.116-3.36a3.056,3.056,0,0,0-2.947-3.16l-4.546-.158Z" transform="translate(-244.369 -477.462)" fill="#12122f"/>
      <path id="Path_29081" data-name="Path 29081" d="M368.193,704.865h-.223l-3.435-.129a1.716,1.716,0,0,1,.116-3.428l3.428.12a2.662,2.662,0,0,0,1.771-.595,1.919,1.919,0,0,0,.7-1.386l.184-5.335a2.257,2.257,0,0,0-2.326-2.152l-4.394-.152a1.716,1.716,0,0,1,.116-3.428l4.4.152a5.677,5.677,0,0,1,5.635,5.7l-.174,5.338a5.332,5.332,0,0,1-1.9,3.877A5.987,5.987,0,0,1,368.193,704.865Z" transform="translate(-263.03 -477.741)" fill="#12122f"/>
      <path id="Path_29082" data-name="Path 29082" d="M419.308,708.456h-4.553a6.492,6.492,0,0,1-6.485-6.485V698.8a6.491,6.491,0,0,1,6.485-6.485h4.553a6.491,6.491,0,0,1,6.485,6.485v3.167A6.491,6.491,0,0,1,419.308,708.456Zm-4.553-12.7A3.057,3.057,0,0,0,411.7,698.8v3.167a3.06,3.06,0,0,0,3.053,3.057h4.553a3.063,3.063,0,0,0,3.057-3.057V698.8a3.06,3.06,0,0,0-3.057-3.053Z" transform="translate(-294.076 -480.407)" fill="#12122f"/>
      <path id="Path_29083" data-name="Path 29083" d="M443.116,708.456h-3.105a1.716,1.716,0,1,1,0-3.428h3.105a2.01,2.01,0,0,0,2.007-2.01v-5.257a2.01,2.01,0,0,0-2.007-2.01h-3.981a1.716,1.716,0,0,1,0-3.431h3.981a5.444,5.444,0,0,1,5.438,5.441v5.257A5.444,5.444,0,0,1,443.116,708.456Z" transform="translate(-313.807 -480.407)" fill="#12122f"/>
      <path id="Path_29084" data-name="Path 29084" d="M489.985,664.892h-.4l-4.543-.271a6.482,6.482,0,0,1-6.071-6.873l1.477-24.692a6.462,6.462,0,0,1,6.843-6.081l4.543.271a6.5,6.5,0,0,1,6.088,6.86l-1.477,24.7a6.485,6.485,0,0,1-6.462,6.1Zm-3.079-34.505a3.06,3.06,0,0,0-3.05,2.872l-1.477,24.692a3.057,3.057,0,0,0,2.869,3.231l4.543.272h0a3.041,3.041,0,0,0,3.231-2.866L494.5,633.9a3.06,3.06,0,0,0-2.866-3.231l-4.546-.271Z" transform="translate(-341.925 -436.168)" fill="#12122f"/>
      <path id="Path_29085" data-name="Path 29085" d="M514.918,665.725h-.323l-3.1-.184a1.713,1.713,0,0,1-1.615-1.813,1.732,1.732,0,0,1,1.813-1.616l3.1.184a2.013,2.013,0,0,0,2.123-1.887l1.616-26.78a2.016,2.016,0,0,0-1.887-2.126l-3.971-.239a1.709,1.709,0,0,1-1.615-1.813,1.742,1.742,0,0,1,1.813-1.616l3.971.236a5.447,5.447,0,0,1,5.105,5.751l-1.615,26.783a5.445,5.445,0,0,1-5.422,5.118Z" transform="translate(-362.855 -436.758)" fill="#12122f"/>
      <path id="Path_29086" data-name="Path 29086" d="M613.308,227.883c-8.824.11-16.156-3.3-21.474,10.853-7.025,18.7,1.648,41.455,7.945,49.145,5.7,6.95,17.81,6.023,23.981,1.2,10.317-8.078,14.088-17.548,14.088-33.565S620.064,227.8,613.308,227.883Z" transform="translate(-416.559 -165.843)" fill="#abbbf9"/>
      <path id="Path_29087" data-name="Path 29087" d="M324.211,230.381h-30.7a1.716,1.716,0,1,1,0-3.431h30.7a1.716,1.716,0,1,1,0,3.431Z" transform="translate(-215.238 -165.404)" fill="#12122f"/>
      <path id="Path_29088" data-name="Path 29088" d="M400.4,378.811a10.986,10.986,0,0,1-10.957-10.957,1.716,1.716,0,0,1,3.431,0,7.528,7.528,0,1,0,15.055,0,1.716,1.716,0,1,1,3.427,0A10.986,10.986,0,0,1,400.4,378.811Z" transform="translate(-281.33 -259.558)" fill="#12122f"/>
      <path id="Path_29089" data-name="Path 29089" d="M428.54,267.469s14.088,21.648,31.468,21.648,31.465-21.648,31.465-21.648-14.088-21.649-31.465-21.649S428.54,267.469,428.54,267.469Z" transform="translate(-307.796 -178.177)" fill="#fff"/>
      <path id="Path_29090" data-name="Path 29090" d="M484.168,280.686a12.723,12.723,0,0,0,.249,2.924,2.532,2.532,0,0,0,2.456,2.142,2.827,2.827,0,0,0,2.019-1.532c.443-.756.711-1.616,1.176-2.355a5.332,5.332,0,0,1,7.454-1.344c1.512,1.163,2.242,3.047,3.335,4.611s3.008,2.94,4.795,2.262a3.7,3.7,0,0,0,2.116-3.312c.368-6.869-3.635-18.582-11.994-18.582C488.9,265.513,484.326,273.995,484.168,280.686Z" transform="translate(-345.446 -191.498)" fill="#12122f"/>
      <path id="Path_29091" data-name="Path 29091" d="M233.77,267.469s14.088,21.648,31.468,21.648S296.7,267.469,296.7,267.469s-14.088-21.649-31.465-21.649S233.77,267.469,233.77,267.469Z" transform="translate(-175.959 -178.177)" fill="#fff"/>
      <path id="Path_29092" data-name="Path 29092" d="M289.4,280.686a12.553,12.553,0,0,0,.249,2.924,2.532,2.532,0,0,0,2.456,2.142,2.833,2.833,0,0,0,2.02-1.532c.446-.756.711-1.616,1.176-2.355a5.332,5.332,0,0,1,7.454-1.344c1.512,1.163,2.242,3.047,3.335,4.611s3,2.94,4.795,2.262A3.7,3.7,0,0,0,313,284.082c.365-6.869-3.635-18.582-11.994-18.582C294.13,265.513,289.555,273.995,289.4,280.686Z" transform="translate(-213.607 -191.498)" fill="#12122f"/>
      <path id="Path_29093" data-name="Path 29093" d="M592.39,605.8l30.162,39.358-19.874.491-3.257,20.275L569.21,616.9Z" transform="translate(-403.014 -421.843)" fill="#2852f0"/>
      <path id="Path_29094" data-name="Path 29094" d="M500.162,605.8,470,645.158l19.875.491,3.257,20.275L523.343,616.9Z" transform="translate(-335.86 -421.843)" fill="#2852f0"/>
      <path id="Path_29095" data-name="Path 29095" d="M541.659,509.144l4.711-1.535a4.782,4.782,0,0,1,5.344,1.735l2.908,4.01a4.763,4.763,0,0,0,2.391,1.738l4.714,1.531a4.769,4.769,0,0,1,3.286,4.54v4.953a4.785,4.785,0,0,0,.915,2.815l2.907,4a4.776,4.776,0,0,1,0,5.619l-2.908,4.007a4.776,4.776,0,0,0-.915,2.821v4.944a4.776,4.776,0,0,1-3.3,4.546L557,556.4a4.782,4.782,0,0,0-2.391,1.738l-2.908,4.01a4.772,4.772,0,0,1-5.344,1.735l-4.711-1.532a4.765,4.765,0,0,0-2.956,0l-4.695,1.532a4.769,4.769,0,0,1-5.344-1.735l-2.908-4.01a4.8,4.8,0,0,0-2.391-1.738l-4.714-1.525a4.782,4.782,0,0,1-3.3-4.546v-4.944a4.75,4.75,0,0,0-.911-2.811l-2.908-4.007a4.775,4.775,0,0,1,0-5.619l2.908-4a4.761,4.761,0,0,0,.911-2.814v-4.963a4.779,4.779,0,0,1,3.3-4.54l4.714-1.528a4.778,4.778,0,0,0,2.391-1.738l2.908-4.01a4.779,4.779,0,0,1,5.344-1.738l4.708,1.535A4.767,4.767,0,0,0,541.659,509.144Z" transform="translate(-363.343 -355.221)" fill="#fff"/>
      <path id="Path_29096" data-name="Path 29096" d="M556.623,530.528l3.538-1.154a3.583,3.583,0,0,1,4.013,1.292l2.188,3.011a3.587,3.587,0,0,0,1.8,1.292l3.554,1.147a3.593,3.593,0,0,1,2.481,3.415v3.722a3.6,3.6,0,0,0,.685,2.113l2.191,3.011a3.59,3.59,0,0,1,0,4.22l-2.22,3.028a3.6,3.6,0,0,0-.685,2.113v3.722a3.587,3.587,0,0,1-2.481,3.415l-3.554,1.147a3.606,3.606,0,0,0-1.8,1.292l-2.145,3.034a3.577,3.577,0,0,1-4.013,1.292l-3.551-1.154a3.581,3.581,0,0,0-2.223,0l-3.554,1.15a3.583,3.583,0,0,1-4.016-1.292l-2.184-3.015a3.608,3.608,0,0,0-1.8-1.292l-3.554-1.147a3.586,3.586,0,0,1-2.482-3.415v-3.732a3.578,3.578,0,0,0-.688-2.113l-2.187-3.008a3.577,3.577,0,0,1,0-4.22l2.188-3.011a3.578,3.578,0,0,0,.688-2.113v-3.722a3.593,3.593,0,0,1,2.482-3.415L542.849,535a3.587,3.587,0,0,0,1.8-1.292l2.184-3.011a3.59,3.59,0,0,1,4.016-1.292l3.554,1.154A3.58,3.58,0,0,0,556.623,530.528Z" transform="translate(-378.672 -369.991)" fill="#fff" stroke="#2852f0" stroke-miterlimit="10" stroke-width="7"/>
      <path id="Path_29097" data-name="Path 29097" d="M576.665,559.37l3.758,7.619,8.407,1.221-6.084,5.926,1.438,8.372-7.519-3.952-7.519,3.952,1.438-8.372L564.5,568.21l8.4-1.221Z" transform="translate(-399.826 -390.415)" fill="#2852f0"/>
    </g>
    <g id="Skael_Character_Design_20200528-16" transform="translate(373.932 5541.986)">
      <ellipse id="Ellipse_6" data-name="Ellipse 6" cx="84.835" cy="15.085" rx="84.835" ry="15.085" transform="translate(69.425 523.445)" fill="#85d3a6"/>
      <path id="Path_16162" data-name="Path 16162" d="M108.141,310s1.946,46.391,0,47.365-13.625-3.082-19.141.162" transform="translate(30.223 179.543)" fill="none" stroke="#c1b6fc" stroke-linecap="round" stroke-linejoin="round" stroke-width="4"/>
      <path id="Path_16163" data-name="Path 16163" d="M133.741,310s1.947,46.391,0,47.365-13.625-3.082-19.141.162" transform="translate(46.148 179.543)" fill="none" stroke="#c1b6fc" stroke-linecap="round" stroke-linejoin="round" stroke-width="4"/>
      <path id="Path_16164" data-name="Path 16164" d="M173.785,256.877s-21.574-70.723-61.152-82.077C109.875,208.539,101.6,252.335,75,273.585,131.611,276.018,173.785,256.877,173.785,256.877Z" transform="translate(21.514 95.438)" fill="#3bbabc"/>
      <path id="Path_16165" data-name="Path 16165" d="M130.041,207.022l-4.542,2.109-3.244-3.731.487,5.028-4.542,1.946,4.866.973.649,5.028,2.433-4.38,4.866.973-3.406-3.731Z" transform="translate(48.388 114.474)" fill="#12122f"/>
      <path id="Path_16166" data-name="Path 16166" d="M111.59,182.024l-4.7,3.244-4.7-3.569,1.622,5.677-4.7,3.244,5.839.162,1.622,5.677,1.946-5.515h5.839l-4.7-3.406Z" transform="translate(36.506 99.731)" fill="#12122f"/>
      <path id="Path_16167" data-name="Path 16167" d="M106.414,203.862l-5.028,3.406-4.7-3.569,1.784,5.677L93.6,212.784l5.839.162,1.784,5.677,1.946-5.677,6,.162-4.866-3.569Z" transform="translate(33.084 113.416)" fill="#12122f"/>
      <path id="Path_16168" data-name="Path 16168" d="M120.748,198.423a12.019,12.019,0,0,1,2.109,1.947,8.977,8.977,0,0,0-11.192,6.164,9.59,9.59,0,0,0,1.46,8.11,12.554,12.554,0,0,1-2.6-1.135,9.157,9.157,0,0,1-2.433-12.652,8.962,8.962,0,0,1,12.652-2.433Z" transform="translate(41.135 109.123)" fill="#12122f"/>
      <path id="Path_16169" data-name="Path 16169" d="M150.713,212.209C114.378,210.263,48.522,326.079,55.5,355.763c7.462,31.631,57.259,27.575,92.945,28.873,33.415,1.3,61.8,6.813,75.265-6.488C254.85,347.977,172.449,213.507,150.713,212.209Z" transform="translate(9.062 118.695)" fill="#c1b6fc"/>
      <path id="Path_16170" data-name="Path 16170" d="M223.589,303.1c-13.463,13.139-42.012,7.624-75.265,6.488-32.928-1.3-78.022,2.271-90.512-22.385-2.6,9.246-3.569,17.032-2.433,22.06,7.462,31.631,57.259,27.575,92.945,28.873,33.415,1.3,61.8,6.813,75.265-6.488,7.624-7.3,8.435-20.925,5.191-36.983A20.941,20.941,0,0,1,223.589,303.1Z" transform="translate(9.017 165.36)" fill="#9f98e5"/>
      <path id="Path_16171" data-name="Path 16171" d="M83.644,320.652C27.682,291.779,20.058,241.494,66.288,175.8" transform="translate(-2.702 96.06)" fill="none" stroke="#c1b6fc" stroke-linecap="round" stroke-linejoin="round" stroke-width="4"/>
      <path id="Path_16172" data-name="Path 16172" d="M143.4,290.635s32.117-1.784,43.147-42.012c8.273-30.171-15.248-58.882-19.789-54.015" transform="translate(64.064 107.423)" fill="none" stroke="#c1b6fc" stroke-linecap="round" stroke-linejoin="round" stroke-width="4"/>
      <path id="Path_16173" data-name="Path 16173" d="M112.5,242.1s25.629-42.174,49.311.811C154.836,249.072,136.182,254.263,112.5,242.1Z" transform="translate(44.842 125.79)" fill="#fff"/>
      <path id="Path_16174" data-name="Path 16174" d="M75.3,244.642s18.816-39.741,49.96-6.975C120.069,247.724,97.036,256.645,75.3,244.642Z" transform="translate(21.7 126.49)" fill="#fff"/>
      <path id="Path_16175" data-name="Path 16175" d="M107.1,220.157s-16.383-8.435-25.3,9.57" transform="translate(25.744 122.426)" fill="none" stroke="#12122f" stroke-linecap="round" stroke-linejoin="round" stroke-width="2"/>
      <path id="Path_16176" data-name="Path 16176" d="M147.953,225.006s-8.11-16.545-25.953-7.462" transform="translate(50.752 120.334)" fill="none" stroke="#12122f" stroke-linecap="round" stroke-linejoin="round" stroke-width="2"/>
      <ellipse id="Ellipse_7" data-name="Ellipse 7" cx="6.813" cy="8.435" rx="6.813" ry="8.435" transform="matrix(0.989, -0.146, 0.146, 0.989, 173.848, 347.236)" fill="#12122f"/>
      <ellipse id="Ellipse_8" data-name="Ellipse 8" cx="6.813" cy="8.435" rx="6.813" ry="8.435" transform="matrix(0.989, -0.146, 0.146, 0.989, 117.887, 348.703)" fill="#12122f"/>
      <path id="Path_16177" data-name="Path 16177" d="M183.052,289.322s-17.843-5.353-49.149-43.309c-9.57-11.679-25.791-2.92-23.52,8.921,1.135,5.353,11.03,17.356,29.2,26.764C158.721,291.593,183.052,289.322,183.052,289.322Z" transform="translate(43.391 136.311)" fill="#12122f" stroke="#12122f" stroke-linecap="round" stroke-linejoin="round" stroke-width="0.98"/>
      <path id="Path_16178" data-name="Path 16178" d="M47.7,300.668s48.5-9.895,74.616-51.582c7.948-12.814,25.3-6.326,24.493,5.677-.324,5.515-8.759,18.654-25.467,30.333C103.5,297.586,47.7,300.668,47.7,300.668Z" transform="translate(4.531 137.293)" fill="#12122f" stroke="#12122f" stroke-linecap="round" stroke-linejoin="round" stroke-width="0.98"/>
      <line id="Line_7" data-name="Line 7" y1="65.856" x2="7.299" transform="translate(232.606 242.988)" fill="none" stroke="#fff" stroke-linecap="round" stroke-linejoin="round" stroke-width="4"/>
      <path id="Path_16179" data-name="Path 16179" d="M150,158.021l13.788,10.057L158.435,184.3l13.788-9.895,13.788,10.057L180.82,168.24l13.95-10.057H177.575L172.385,141.8l-5.353,16.221Z" transform="translate(68.17 74.91)" fill="#3bbabc"/>
      <path id="Path_16180" data-name="Path 16180" d="M36.624,61.136a24.2,24.2,0,0,1,1.46,12.652c-.324,4.055-1.135,7.786-1.3,11.679a12.186,12.186,0,0,0,.649,5.353A3.516,3.516,0,0,0,39.057,92.6a2.815,2.815,0,0,0,2.271.487A6.426,6.426,0,0,0,44.9,89.522a20.784,20.784,0,0,0,1.784-5.353,37.034,37.034,0,0,0,.324-11.192,18.753,18.753,0,0,0-1.3-5.191,8.739,8.739,0,0,0-1.135-2.109,17.181,17.181,0,0,0-1.622-1.946,25.474,25.474,0,0,0-3.893-3.406,15.225,15.225,0,0,0-4.217-2.271,1.462,1.462,0,0,0-.811-.162c-.162,0-.324,0,.162-.162a1.959,1.959,0,0,0,1.135-1.135v-.162h0v.162a9.494,9.494,0,0,0,.324,2.109Zm-5.028,2.6c-.487-.973-.973-1.784-1.46-2.92A13.112,13.112,0,0,1,29,57.243V55.3a7.025,7.025,0,0,1,.162-.811c.162-.324.162-.649.487-.973.162-.324.487-.649.649-.973A3.893,3.893,0,0,1,32.244,51.4a6.507,6.507,0,0,1,3.082-.162,9.144,9.144,0,0,1,1.946.649A19.155,19.155,0,0,1,42.95,55.62a39.629,39.629,0,0,1,4.38,4.7,12.724,12.724,0,0,1,1.784,2.92,19.082,19.082,0,0,1,1.135,3.244,20.863,20.863,0,0,1,.487,6.326,47.571,47.571,0,0,1-1.946,11.841,20.779,20.779,0,0,1-2.271,5.515A9.45,9.45,0,0,1,44.734,92.6a5.267,5.267,0,0,1-2.92,1.622,5.566,5.566,0,0,1-5.677-2.92,19.141,19.141,0,0,1-1.46-6c-.324-4.055-.162-7.948-.487-11.679a21.431,21.431,0,0,0-2.6-9.895Z" transform="translate(-7.102 18.509)" fill="#ff65a7"/>
      <path id="Path_16181" data-name="Path 16181" d="M65.917,96.687a8.05,8.05,0,0,1,2.109-.487h1.135a2.306,2.306,0,0,1,.973.324,6.117,6.117,0,0,1,2.6,1.947A21.162,21.162,0,0,1,75,102.688a20.945,20.945,0,0,0,4.217,6.813,27.111,27.111,0,0,1,5.028,7.137,9.055,9.055,0,0,1,.649,5.028,6.009,6.009,0,0,1-1.3,2.92,4.373,4.373,0,0,1-1.3,1.135,4.858,4.858,0,0,1-1.622.649,4.462,4.462,0,0,1-2.92-.324,9.2,9.2,0,0,1-2.109-1.3,18.223,18.223,0,0,1-2.92-3.244,25.816,25.816,0,0,1-2.109-3.569c-.324-.649-.487-1.3-.811-1.946-.162-.324-.162-.649-.324-.973s-.162-.649-.324-.973c-.973-2.433-2.92-4.217-4.7-6.488a11.338,11.338,0,0,1-2.109-4.7A5.447,5.447,0,0,1,63,98.958a6.351,6.351,0,0,1,1.3-1.622A4.857,4.857,0,0,0,65.917,96.687Zm2.758,5.84a.159.159,0,0,1-.162.162v-.162c0-.162-.162-.324-.162,0a6.7,6.7,0,0,0,.324,3.082,50.274,50.274,0,0,1,1.784,8.273v2.109a8.63,8.63,0,0,0,2.758,5.028,9.147,9.147,0,0,0,3.244,1.784,2.982,2.982,0,0,0,2.6-.324,1.23,1.23,0,0,0,.324-.649v-.811a7.577,7.577,0,0,0-.487-2.758,28.563,28.563,0,0,0-2.433-7.137,32.064,32.064,0,0,0-4.217-6.813,9.205,9.205,0,0,0-2.92-1.946q-.73-.243-.973,0C68.188,102.526,68.675,102.526,68.675,102.526Z" transform="translate(13.565 46.543)" fill="#ff65a7"/>
      <path id="Path_16182" data-name="Path 16182" d="M28.936,8.362a5.482,5.482,0,0,1,1.946.973,3.538,3.538,0,0,1,.811.649c.162.324.487.487.649.811a5.188,5.188,0,0,1,.811,3.082,15.926,15.926,0,0,1-.811,4.7,22.155,22.155,0,0,0-.811,7.948,22.783,22.783,0,0,1-.324,8.759,10.7,10.7,0,0,1-2.6,4.542,5.033,5.033,0,0,1-2.92,1.46H23.907a3.13,3.13,0,0,1-1.622-.487,6.6,6.6,0,0,1-2.271-1.947,5.449,5.449,0,0,1-.811-2.271,13.257,13.257,0,0,1-.162-4.38,17.323,17.323,0,0,1,.487-4.055,9.145,9.145,0,0,1,.649-1.946l.487-.973c.162-.324.162-.649.324-.811.811-2.433.162-5.028.324-7.948a13.374,13.374,0,0,1,1.135-5.028,5.725,5.725,0,0,1,2.92-2.6,8.142,8.142,0,0,1,1.946-.324C27.8,8.038,28.287,8.2,28.936,8.362Zm-1.3,6.326c-.162,0-.162.162-.324,0h0s0-.324-.162-.162a7.064,7.064,0,0,0-1.622,2.6,46.452,46.452,0,0,1-3.569,7.624l-.649.811a2.848,2.848,0,0,1-.649.811,6,6,0,0,0-.811,1.784,7.928,7.928,0,0,0-.162,3.893,6.457,6.457,0,0,0,1.46,3.406,2.589,2.589,0,0,0,2.271,1.3,1.23,1.23,0,0,0,.649-.324,2.239,2.239,0,0,0,.487-.649,17.729,17.729,0,0,0,1.3-2.433,28.562,28.562,0,0,0,2.433-7.137,27.056,27.056,0,0,0,.811-8.11,8.474,8.474,0,0,0-1.135-3.406c-.324-.324-.649-.649-.649-.487S27.476,14.688,27.638,14.688Z" transform="translate(-13.364 -8.2)" fill="#ff65a7"/>
      <path id="Path_16183" data-name="Path 16183" d="M200.761,34.027a7.875,7.875,0,0,1,4.38-.811,8.121,8.121,0,0,1,3.893,1.46,16.872,16.872,0,0,1,4.542,5.028,33.173,33.173,0,0,1,3.893,11.03,44.675,44.675,0,0,1,.811,11.355,38.954,38.954,0,0,1-2.109,11.192,21.153,21.153,0,0,1-2.6,5.028,31.393,31.393,0,0,1-3.731,4.38,25.691,25.691,0,0,0-6.164,8.273,5.445,5.445,0,0,0,.162,4.217c.649,1.46,1.622,2.758,2.6,4.7a10.622,10.622,0,0,1,1.135,6.651,7.45,7.45,0,0,1-1.784,3.569,8.471,8.471,0,0,1-3.082,2.271,11.523,11.523,0,0,1-6.975.649,13.9,13.9,0,0,1-6.326-3.244,11.355,11.355,0,0,1-3.244-6.326,23.953,23.953,0,0,1-.162-3.406,20.056,20.056,0,0,0,.324-2.92,42.346,42.346,0,0,1,3.406-10.868c1.46-3.406,3.244-6.651,5.028-9.895.811-1.622,1.784-3.244,2.433-4.7a12,12,0,0,0,1.3-4.7A31.206,31.206,0,0,0,196.219,56.9c-1.135-3.406-2.758-6.651-3.082-11.192a10.9,10.9,0,0,1,1.946-6.975A16.922,16.922,0,0,1,200.761,34.027Zm2.758,5.839a8.643,8.643,0,0,0-3.244,2.109,6.263,6.263,0,0,0-1.3,3.244c-.162,2.92.811,6.488,1.622,10.057a38.187,38.187,0,0,1,1.3,11.355,24.782,24.782,0,0,1-1.135,5.84c-.649,1.784-1.46,3.406-2.109,5.191a67.279,67.279,0,0,0-6.164,20.114c0,.811-.162,1.784-.162,2.433a7.9,7.9,0,0,0,.162,1.946,5.641,5.641,0,0,0,1.622,3.244,7.334,7.334,0,0,0,6.975,1.784,2.843,2.843,0,0,0,2.109-1.946,6.654,6.654,0,0,0,.162-1.784,4.49,4.49,0,0,0-.487-2.109,44.712,44.712,0,0,1-1.946-5.191,7.17,7.17,0,0,1-.324-3.244,9.786,9.786,0,0,1,.973-3.082,20.017,20.017,0,0,1,3.569-4.7,46.2,46.2,0,0,1,4.217-3.731,13.27,13.27,0,0,0,3.244-4.055,19.674,19.674,0,0,0,1.784-4.866,38.738,38.738,0,0,0-1.3-20.6,30.465,30.465,0,0,0-4.38-8.921,9.431,9.431,0,0,0-2.92-2.758,3.007,3.007,0,0,0-1.135-.324Z" transform="translate(90.565 7.336)" fill="#ff65a7"/>
      <path id="Path_16184" data-name="Path 16184" d="M131.491,69.735a12.223,12.223,0,0,1,5.353-1.135,11.036,11.036,0,0,1,5.028,1.784,21.368,21.368,0,0,1,6,6.65,49.572,49.572,0,0,1,5.515,15.085,63.349,63.349,0,0,1,1.46,15.572,55.777,55.777,0,0,1-2.6,15.41,27.824,27.824,0,0,1-3.406,6.975,35.257,35.257,0,0,1-5.028,6c-1.784,1.784-3.569,3.569-5.191,5.515a21.59,21.59,0,0,0-3.731,6.164,8.528,8.528,0,0,0,0,6.326c.811,2.109,2.271,4.055,3.569,6.651a20.336,20.336,0,0,1,1.46,4.055,11.49,11.49,0,0,1,0,4.7,10.036,10.036,0,0,1-2.271,4.542,10.417,10.417,0,0,1-4.055,2.92,15.81,15.81,0,0,1-9.084.811,17,17,0,0,1-8.11-4.217,15.045,15.045,0,0,1-4.217-8.273,20.913,20.913,0,0,1-.162-4.542c.162-1.46.324-2.6.487-4.055a70.287,70.287,0,0,1,4.542-15.085,138.7,138.7,0,0,1,6.813-13.95c1.135-2.271,2.433-4.542,3.406-6.651a16.792,16.792,0,0,0,1.622-6.813,43.086,43.086,0,0,0-2.92-14.274c-.811-2.433-1.622-4.7-2.433-7.3a27.724,27.724,0,0,1-1.622-8.11,13.458,13.458,0,0,1,2.6-8.921A14.351,14.351,0,0,1,131.491,69.735Zm2.758,5.839a15.331,15.331,0,0,0-5.028,3.406,8.85,8.85,0,0,0-1.784,5.353c-.162,4.38,1.46,9.246,2.758,14.112a50.679,50.679,0,0,1,1.947,15.572,26.675,26.675,0,0,1-1.622,7.948c-.973,2.433-1.946,4.866-3.082,7.137a95.487,95.487,0,0,0-8.921,28.224,26.525,26.525,0,0,0-.324,3.569,19.631,19.631,0,0,0,.162,3.082,8.414,8.414,0,0,0,2.6,5.028,11.045,11.045,0,0,0,11.03,2.6,5.354,5.354,0,0,0,3.569-3.406,5.957,5.957,0,0,0,.162-2.92,10.591,10.591,0,0,0-.811-3.244c-.811-2.109-2.109-4.38-2.92-7.137a10.156,10.156,0,0,1-.487-4.38,13.614,13.614,0,0,1,1.135-4.217,22.9,22.9,0,0,1,4.7-6.488c1.784-1.784,3.731-3.569,5.677-5.191,3.893-3.082,6-7.786,7.3-12.49a50.115,50.115,0,0,0,1.3-14.761,62.778,62.778,0,0,0-2.6-14.436,42.956,42.956,0,0,0-6-12.977,16.074,16.074,0,0,0-4.38-4.38,4.65,4.65,0,0,0-4.38,0Z" transform="translate(44.505 29.374)" fill="#ff65a7"/>
      <ellipse id="Ellipse_9" data-name="Ellipse 9" cx="4.704" cy="3.893" rx="4.704" ry="3.893" transform="translate(288.892 46.391)" fill="#3bbabc"/>
      <ellipse id="Ellipse_10" data-name="Ellipse 10" cx="6.002" cy="4.866" rx="6.002" ry="4.866" transform="translate(90.999 218.981)" fill="#3bbabc"/>
      <ellipse id="Ellipse_11" data-name="Ellipse 11" cx="6.002" cy="4.866" rx="6.002" ry="4.866" transform="translate(0 68.127)" fill="#3bbabc"/>
      <ellipse id="Ellipse_12" data-name="Ellipse 12" cx="6.002" cy="4.866" rx="6.002" ry="4.866" transform="translate(230.335 117.439)" fill="#3bbabc"/>
    </g>
  </g>
</svg>
