<svg xmlns="http://www.w3.org/2000/svg" width="543.392" height="504.677" viewBox="0 0 543.392 504.677">
  <g id="Group_1780" data-name="Group 1780" transform="translate(-1169.338 -3368.99)">
    <g id="Group_1770" data-name="Group 1770" transform="translate(1169.338 3764.735)">
      <rect id="Rectangle_819" data-name="Rectangle 819" width="267.013" height="44.853" fill="#e0e1e3"/>
      <text id="Business_Rules_Engine" data-name="Business Rules Engine" transform="translate(8.458 28.546)" fill="#1a1818" font-size="15" font-family="Helvetica-Bold, Helvetica" font-weight="700"><tspan x="0" y="0">Business Rules Engine</tspan></text>
    </g>
    <g id="Group_1771" data-name="Group 1771" transform="translate(1169.338 3714.746)">
      <rect id="Rectangle_820" data-name="Rectangle 820" width="267.013" height="44.853" fill="#e0e1e3"/>
      <text id="Low-Code_Development" data-name="Low-Code Development" transform="translate(8.458 28.546)" fill="#1a1818" font-size="15" font-family="Helvetica-Bold, Helvetica" font-weight="700"><tspan x="0" y="0">Low-Code Development</tspan></text>
    </g>
    <g id="Group_1772" data-name="Group 1772" transform="translate(1169.338 3664.757)">
      <rect id="Rectangle_821" data-name="Rectangle 821" width="267.013" height="44.853" fill="#e0e1e3"/>
      <text id="iBPMS" transform="translate(8.458 28.546)" fill="#1a1818" font-size="15" font-family="Helvetica-Bold, Helvetica" font-weight="700"><tspan x="0" y="0">iBPMS</tspan></text>
    </g>
    <g id="Group_1773" data-name="Group 1773" transform="translate(1169.338 3614.767)">
      <rect id="Rectangle_822" data-name="Rectangle 822" width="267.013" height="44.853" fill="#e0e1e3"/>
      <text id="Process-Mining" transform="translate(8.458 28.546)" fill="#1a1818" font-size="15" font-family="Helvetica-Bold, Helvetica" font-weight="700"><tspan x="0" y="0">Process-Mining</tspan></text>
    </g>
    <g id="Group_1774" data-name="Group 1774" transform="translate(1169.338 3564.778)">
      <rect id="Rectangle_823" data-name="Rectangle 823" width="267.013" height="44.853" fill="#e0e1e3"/>
      <text id="Process_Discovery" data-name="Process Discovery" transform="translate(8.458 28.546)" fill="#1a1818" font-size="15" font-family="Helvetica-Bold, Helvetica" font-weight="700"><tspan x="0" y="0">Process Discovery</tspan></text>
    </g>
    <g id="Group_1775" data-name="Group 1775" transform="translate(1169.338 3514.789)">
      <rect id="Rectangle_824" data-name="Rectangle 824" width="267.013" height="44.853" fill="#e0e1e3"/>
      <text id="RPA" transform="translate(8.458 28.546)" fill="#1a1818" font-size="15" font-family="Helvetica-Bold, Helvetica" font-weight="700"><tspan x="0" y="0">RPA</tspan></text>
    </g>
    <g id="Group_1776" data-name="Group 1776" transform="translate(1169.338 3464.8)">
      <rect id="Rectangle_825" data-name="Rectangle 825" width="267.013" height="44.853" fill="#e0e1e3"/>
      <text id="Natural_Language_Processing" data-name="Natural Language Processing" transform="translate(8.458 28.546)" fill="#1a1818" font-size="15" font-family="Helvetica-Bold, Helvetica" font-weight="700"><tspan x="0" y="0">Natural Language Processing</tspan></text>
    </g>
    <g id="Group_1777" data-name="Group 1777" transform="translate(1169.338 3414.811)">
      <rect id="Rectangle_826" data-name="Rectangle 826" width="267.013" height="44.853" fill="#e0e1e3"/>
      <text id="Natural_Language_Generation" data-name="Natural Language Generation" transform="translate(8.458 28.546)" fill="#1a1818" font-size="15" font-family="Helvetica-Bold, Helvetica" font-weight="700"><tspan x="0" y="0">Natural Language Generation</tspan></text>
    </g>
    <g id="Group_1778" data-name="Group 1778" transform="translate(1169.338 3368.99)">
      <rect id="Rectangle_827" data-name="Rectangle 827" width="266.537" height="40.684" fill="#e0e1e3"/>
      <text id="Natural_Language_Understanding" data-name="Natural Language Understanding" transform="translate(7.934 26.462)" fill="#1a1818" font-size="15" font-family="Helvetica-Bold, Helvetica" font-weight="700"><tspan x="0" y="0">Natural Language Understanding</tspan></text>
    </g>
    <rect id="Rectangle_828" data-name="Rectangle 828" width="293.925" height="64.08" rx="5.829" transform="translate(1418.805 3809.588)" fill="#0d988c"/>
    <text id="Digital_Employee" data-name="Digital Employee" transform="translate(1561.264 3848.095)" fill="#fff" font-size="24" font-family="Helvetica-Bold, Helvetica" font-weight="700"><tspan x="-96.691" y="0">Digital Employee</tspan></text>
    <g id="Skael_Character_Design_20200511-18" transform="translate(1394.823 3393.719)">
      <path id="Path_31784" data-name="Path 31784" d="M59.86,331.33c-.71,0-7-.14-9.93-5.08a9.71,9.71,0,0,1-1-7l-1.78-.51c-11.18-3.19-32-9.13-38.77-24.18-3.43-7.6-2.85-16.32,1.71-25.91,17.48-36.7,51.53-55.25,53-56a5.026,5.026,0,1,1,4.75,8.86h0c-.32.17-32.62,17.84-48.64,51.48-3.29,6.9-3.82,12.61-1.63,17.45,4.88,10.8,22.76,15.91,32.37,18.66,3.83,1.09,6.35,1.81,8,2.75a5,5,0,0,1,1.91,6.84,9.32,9.32,0,0,0-1,2.4,4.669,4.669,0,0,0,1.07.2,5.025,5.025,0,1,1,0,10.05Z" fill="#7860fa"/>
      <path id="Path_31785" data-name="Path 31785" d="M185.21,227.05a4.93,4.93,0,0,1-3-1,5,5,0,0,1-1-7c.24-.31,23.53-31.23,35.18-67.4,11.53-35.81,7.69-116.3,4.4-124.66a5,5,0,0,1,2-6.71,9,9,0,0,0,2.13-1.51,4.781,4.781,0,0,0-.86-.76A5.06,5.06,0,0,1,222.54,11a5,5,0,0,1,6.84-1.61c.61.37,5.93,3.81,5.81,9.52-.07,2.93-1.47,5.55-4.18,7.82,4.1,20.54,5.6,94.83-5.06,127.91-12.18,37.85-35.74,69.09-36.73,70.4a5,5,0,0,1-4.01,2.01ZM220.81,27a.16.16,0,0,1,0,.07Z" fill="#7860fa"/>
      <path id="Path_31786" data-name="Path 31786" d="M248.52,413.62a5,5,0,0,1-3.23-1.18L186.42,363a5.025,5.025,0,1,1,6.46-7.7l58.87,49.41a5,5,0,0,1-3.23,8.88Z" fill="#7860fa"/>
      <path id="Path_31787" data-name="Path 31787" d="M132.86,411.48a5,5,0,0,1-2.71-.8c-8.45-5.43-17.63-12.12-19.71-22.74-1.32-6.76.56-14.18,5.3-20.86,3.9-5.5,8.93-9.61,13.8-13.58a5.028,5.028,0,1,1,6.36,7.79c-4.35,3.54-8.85,7.21-12,11.6S119.53,382,120.31,386c1.32,6.74,8.27,11.71,15.28,16.22a5,5,0,0,1-2.73,9.25Z" fill="#7860fa"/>
      <path id="Path_31788" data-name="Path 31788" d="M60.56,302.52c-31.79-65.11-13.58-154.38,46-197.9,21.37-15.59,52.6-23.43,73.54-7.26,22,17,21.67,51.59,14.37,75.83-8.39,27.9-6.34,46.45,14,66,11.31,10.87,22.83,22,29.93,36a71.59,71.59,0,0,1-2.71,68.45C204,395.56,133.39,379,94.27,346a132.47,132.47,0,0,1-33.71-43.48Z" fill="#7860fa"/>
      <path id="Path_31789" data-name="Path 31789" d="M110.66,172.49s12.94,19.89,28.9,19.89,28.9-19.89,28.9-19.89-12.94-19.89-28.9-19.89S110.66,172.49,110.66,172.49Z" fill="#fff"/>
      <path id="Path_31790" data-name="Path 31790" d="M127.17,172.4a12.17,12.17,0,0,0,.23,2.68,2.33,2.33,0,0,0,2.26,2,2.58,2.58,0,0,0,1.85-1.41c.41-.69.65-1.47,1.08-2.16a4.91,4.91,0,0,1,6.85-1.23c1.39,1.07,2.06,2.79,3.06,4.23s2.76,2.7,4.4,2.09a3.37,3.37,0,0,0,1.95-3c.33-6.31-3.34-17.07-11-17.07C131.52,158.46,127.32,166.25,127.17,172.4Z" fill="#12122f"/>
      <path id="Path_31791" data-name="Path 31791" d="M52.87,172.49s12.94,19.89,28.9,19.89,28.89-19.89,28.89-19.89S97.73,152.6,81.77,152.6,52.87,172.49,52.87,172.49Z" fill="#fff"/>
      <path id="Path_31792" data-name="Path 31792" d="M69.38,172.4a11.59,11.59,0,0,0,.23,2.68,2.31,2.31,0,0,0,2.25,2,2.6,2.6,0,0,0,1.86-1.41c.4-.69.65-1.47,1.08-2.16a4.89,4.89,0,0,1,6.84-1.23c1.39,1.07,2.06,2.79,3.06,4.23s2.77,2.7,4.41,2.09a3.38,3.38,0,0,0,1.94-3c.34-6.31-3.34-17.07-11-17.07C73.72,158.46,69.52,166.25,69.38,172.4Z" fill="#12122f"/>
      <path id="Path_31793" data-name="Path 31793" d="M219.63,38.6s14.12-3,15.47-3.06,0-9.35,0-9.35,5.39-10.87,2.07-15.91C231.74,2,221.7,3.71,219.63,7s-3,7.1-.72,8.45,1.89,4,.72,4.59-2.42,2.47-2.42,6.38S219.63,38.6,219.63,38.6Z" fill="#e84312"/>
      <path id="Path_31794" data-name="Path 31794" d="M116.33,414.51H144s-.18-13.94-4.4-18.07a16.46,16.46,0,0,0-9.45-4.5l-12.58,11.28,2.52,2.66S111.56,407.94,116.33,414.51Z" fill="#e84312"/>
      <path id="Path_31795" data-name="Path 31795" d="M230.51,404.62l13.4-11.06,14.65,8.54s16.37-2,15.65,13.49H245.85Z" fill="#e84312"/>
      <path id="Path_31796" data-name="Path 31796" d="M238.43,275.24a82,82,0,0,0-7.56-12c-11.78,85.37-63.24,86.82-115.82,81.11-8.74-.95-17.36-.94-25.63-2.69,1.57,1.47,3.18,2.92,4.85,4.32,39.12,33,109.74,49.54,141.45-2.33A71.59,71.59,0,0,0,238.43,275.24Z" fill="#6858db"/>
      <path id="Path_31797" data-name="Path 31797" d="M62.1,314.46l14.66,19.41,145.51-81.1-12.98-19.85Z" fill="#12122f"/>
      <path id="Path_31798" data-name="Path 31798" d="M76.76,336.23a2.37,2.37,0,0,1-1.89-.94L60.22,315.88A2.36,2.36,0,0,1,61,312.4l147.19-81.55a2.34,2.34,0,0,1,3.11.78l13,19.85a2.35,2.35,0,0,1,.32,1.86,2.38,2.38,0,0,1-1.14,1.49L77.91,335.93A2.3,2.3,0,0,1,76.76,336.23Zm-11.13-21,11.77,15.6,141.51-78.87L208.52,236Z" fill="#12122f"/>
      <path id="Path_31799" data-name="Path 31799" d="M41.26,306.08c-1.12,3.61-2.52,8.81-3.33,10.25s5.93,2.6,6.65,2.78a4.87,4.87,0,0,1,3.78,5.67c-.45,4.49,2.07,7.91,5.93,8.72s9.62.36,11.51-1.89,6.74-6.52,2.34-9-7.53-3.35-6.42-4.43,1.65-7.55-.51-9.26S42.1,303.34,41.26,306.08Z" fill="#e84312"/>
      <path id="Path_31800" data-name="Path 31800" d="M84.62,114.32C90,104.65,94.75,94.58,100.5,85.09c5-8.19,7.67-16.65,16.45-21.63a31.54,31.54,0,0,1,12.63-4c7.42-.67,15.93,2,23.19,3.6a202.058,202.058,0,0,1,21.28,5.39C187.82,73,200.52,80.7,207.18,94.06c7.08,14.17-2.69,36.42-6.09,50.77" fill="#e84312"/>
      <path id="Path_31801" data-name="Path 31801" d="M183.82,141.91s5.08-20,22.8-16.62l-6,21.75Z" fill="#7860fa"/>
      <path id="Path_31802" data-name="Path 31802" d="M200.24,148.83a2.271,2.271,0,0,1-.63-.08L33.73,102.62A2.362,2.362,0,1,1,35,98.07L200.87,144.2a2.36,2.36,0,0,1-.63,4.63Z"/>
      <path id="Path_31803" data-name="Path 31803" d="M143.45,81S122,66,116.6,78.06s7.86,10.38,14.31,17.58c4.87,5.44-14.74-2.47-15.47-3.14s-6.93,10.84-6.93,10.84,23.51,15.94,32.84,1.86-15.92-18.6-15-21.61,13.88,3.14,13.88,3.14Z" fill="#12122f"/>
      <path id="Path_31804" data-name="Path 31804" d="M182.72,238.92l.75-4.67a2.66,2.66,0,0,0-.92-2.52l-5.27-4.47a1.33,1.33,0,0,0-1.43-.3l-2.19.82a1.35,1.35,0,0,0-.89,1.17l-1,6.83a2.65,2.65,0,0,0,.95,2.5l3.64,3L186,266.75l6.38-2.39Z" fill="#abbbf9"/>
      <path id="Path_31805" data-name="Path 31805" d="M186,266.75l-5.22,1.95a1.37,1.37,0,0,0-.8,1.76l1.51,4a1.35,1.35,0,0,0,1.3.89,2.73,2.73,0,0,1,1.81,4.81,1.31,1.31,0,0,0-.4,1.51l6.05,16.15a10.2,10.2,0,0,0,19.11-7.16l-6-16.15a1.33,1.33,0,0,0-1.3-.88,2.72,2.72,0,0,1-1.8-4.81,1.34,1.34,0,0,0,.4-1.52l-1.51-4a1.36,1.36,0,0,0-1.76-.79l-5,1.86" fill="#abbbf9"/>
      <path id="Path_31806" data-name="Path 31806" d="M123.49,321.06a6.29,6.29,0,1,1-8.62-2.17,6.29,6.29,0,0,1,8.62,2.17ZM120,311.15a5.43,5.43,0,0,1-4-2.66L104.31,289a5.43,5.43,0,0,1-.23-5.31,16.06,16.06,0,0,0-17-22.86,1.36,1.36,0,0,0-1.09.9,1.38,1.38,0,0,0,.26,1.39l7.44,8.59a1.42,1.42,0,0,1-.14,2l-7.39,6.39a1.39,1.39,0,0,1-2-.14l-7.44-8.6a1.38,1.38,0,0,0-1.34-.45,1.36,1.36,0,0,0-1,.95A16.05,16.05,0,0,0,89,292.7a5.45,5.45,0,0,1,4.56,2.72l11.67,19.52a5.38,5.38,0,0,1,.45,4.78A13.28,13.28,0,1,0,120,311.15Z" fill="#abbbf9" fill-rule="evenodd"/>
      <path id="Path_31807" data-name="Path 31807" d="M166.8,310.63,134,242.44l1.4-.67a2.49,2.49,0,0,0,1.18-3.3l-1.83-3.86a2.42,2.42,0,0,1-.07-2,2.38,2.38,0,0,1,1.39-1.39c4.58-1.82,8.55-2.39,10-1.4a1.19,1.19,0,0,0,1.24.11l1.43-.68a1.24,1.24,0,0,0,.51-1.79c-4.19-6.46-13.33-6.55-19.55-3.6l-14.57,6.92a2.48,2.48,0,0,0-1.18,3.3l-3.37,1.6a2.49,2.49,0,0,0-3.3-1.18l-3.36,1.6a2.48,2.48,0,0,0-1.18,3.31l5.85,12.33a2.5,2.5,0,0,0,3.31,1.18l3.36-1.6a2.5,2.5,0,0,0,1.18-3.31l3.36-1.59a2.49,2.49,0,0,0,3.31,1.17l.84-.39,32.78,68.19a5.59,5.59,0,1,0,10.1-4.79Z" fill="#abbbf9"/>
    </g>
  </g>
</svg>
