<svg xmlns="http://www.w3.org/2000/svg" width="93.781" height="84.92" viewBox="0 0 93.781 84.92">
  <g id="Group_542" data-name="Group 542" transform="translate(-897.256 -259)">
    <rect id="Rectangle_29" data-name="Rectangle 29" width="93.781" height="84.92" rx="5" transform="translate(897.256 259)" fill="#3bbabc"/>
    <g id="Group_541" data-name="Group 541" transform="translate(924.389 275.984)">
      <path id="Path_29327" data-name="Path 29327" d="M948.306,398.191a.743.743,0,0,0-.743.743V440.8H925.426a.743.743,0,0,0,0,1.486h22.88a.743.743,0,0,0,.743-.743V398.934a.743.743,0,0,0-.743-.743Zm0,0" transform="translate(-909.534 -391.561)" fill="#fff"/>
      <path id="Path_29328" data-name="Path 29328" d="M848.772,348H814.746a.743.743,0,0,0-.743.743v3.06h-1.659a2.344,2.344,0,1,0,0,4.689H814v1.716h-1.659a2.344,2.344,0,1,0,0,4.689H814v1.716h-1.659a2.344,2.344,0,1,0,0,4.689H814v1.716h-1.659a2.344,2.344,0,1,0,0,4.689H814v1.716h-1.659a2.344,2.344,0,1,0,0,4.689H814v1.716h-1.659a2.344,2.344,0,1,0,0,4.689H814v1.716h-1.659a2.344,2.344,0,1,0,0,4.689H814v3.059a.743.743,0,0,0,.743.743h7.668a.743.743,0,1,0,0-1.486h-6.925V394.92h.658a2.344,2.344,0,0,0,0-4.689h-.658v-1.716h.658a2.344,2.344,0,0,0,0-4.689h-.658V382.11h.658a2.344,2.344,0,0,0,0-4.689h-.658v-1.716h.658a2.344,2.344,0,0,0,0-4.689h-.658V369.3h.658a2.344,2.344,0,0,0,0-4.689h-.658V362.9h.658a2.344,2.344,0,0,0,0-4.689h-.658v-1.716h.658a2.344,2.344,0,0,0,0-4.689h-.658v-2.317h32.539V351.9a.743.743,0,1,0,1.486,0v-3.152a.743.743,0,0,0-.743-.743Zm-31.766,44.576a.859.859,0,0,1-.858.858h-3.8a.858.858,0,1,1,0-1.717h3.8a.859.859,0,0,1,.858.859Zm0-6.4a.859.859,0,0,1-.858.858h-3.8a.858.858,0,1,1,0-1.717h3.8a.859.859,0,0,1,.858.859Zm0-6.4a.859.859,0,0,1-.858.858h-3.8a.858.858,0,1,1,0-1.716h3.8a.859.859,0,0,1,.858.858Zm0-6.4a.859.859,0,0,1-.858.858h-3.8a.858.858,0,1,1,0-1.716h3.8a.859.859,0,0,1,.858.858Zm0-6.4a.859.859,0,0,1-.858.858h-3.8a.858.858,0,1,1,0-1.716h3.8a.859.859,0,0,1,.858.858Zm0-6.4a.859.859,0,0,1-.858.859h-3.8a.858.858,0,1,1,0-1.717h3.8a.859.859,0,0,1,.858.858Zm0-6.4a.859.859,0,0,1-.858.859h-3.8a.858.858,0,1,1,0-1.717h3.8a.859.859,0,0,1,.858.858Zm0,0" transform="translate(-810 -348)" fill="#fff"/>
      <path id="Path_29329" data-name="Path 29329" d="M930.82,388.91H916.809a.743.743,0,1,0,0,1.486H930.82a.743.743,0,0,0,0-1.486Zm0,0" transform="translate(-902.056 -383.506)" fill="#fff"/>
      <path id="Path_29330" data-name="Path 29330" d="M952.52,425.277H936.508a.743.743,0,1,0,0,1.486H952.52a.743.743,0,0,0,0-1.486Zm0,0" transform="translate(-919.153 -415.069)" fill="#fff"/>
      <path id="Path_29331" data-name="Path 29331" d="M936.508,451.009h10.007a.743.743,0,1,0,0-1.486H936.508a.743.743,0,1,0,0,1.486Zm0,0" transform="translate(-919.153 -436.113)" fill="#fff"/>
      <path id="Path_29332" data-name="Path 29332" d="M889.621,425.277a2.344,2.344,0,1,0,2.345,2.344,2.347,2.347,0,0,0-2.345-2.344Zm0,3.2a.858.858,0,1,1,.859-.859.859.859,0,0,1-.859.859Zm0,0" transform="translate(-877.069 -415.069)" fill="#fff"/>
      <path id="Path_29333" data-name="Path 29333" d="M952.52,473.766H936.508a.743.743,0,1,0,0,1.486H952.52a.743.743,0,0,0,0-1.486Zm0,0" transform="translate(-919.153 -457.153)" fill="#fff"/>
      <path id="Path_29334" data-name="Path 29334" d="M936.508,499.494h10.007a.743.743,0,1,0,0-1.486H936.508a.743.743,0,1,0,0,1.486Zm0,0" transform="translate(-919.153 -478.193)" fill="#fff"/>
      <path id="Path_29335" data-name="Path 29335" d="M889.621,473.766a2.344,2.344,0,1,0,2.345,2.344,2.347,2.347,0,0,0-2.345-2.344Zm0,3.2a.858.858,0,1,1,.859-.858.859.859,0,0,1-.859.858Zm0,0" transform="translate(-877.069 -457.153)" fill="#fff"/>
      <path id="Path_29336" data-name="Path 29336" d="M952.52,522.254H936.508a.743.743,0,1,0,0,1.486H952.52a.743.743,0,0,0,0-1.486Zm0,0" transform="translate(-919.153 -499.237)" fill="#fff"/>
      <path id="Path_29337" data-name="Path 29337" d="M936.508,547.982h10.007a.743.743,0,1,0,0-1.486H936.508a.743.743,0,1,0,0,1.486Zm0,0" transform="translate(-919.153 -520.276)" fill="#fff"/>
      <path id="Path_29338" data-name="Path 29338" d="M889.621,522.254a2.344,2.344,0,1,0,2.345,2.344,2.347,2.347,0,0,0-2.345-2.344Zm0,3.2a.858.858,0,1,1,.859-.858.859.859,0,0,1-.859.858Zm0,0" transform="translate(-877.069 -499.237)" fill="#fff"/>
      <path id="Path_29339" data-name="Path 29339" d="M952.52,570.742H936.508a.743.743,0,0,0,0,1.486H952.52a.743.743,0,0,0,0-1.486Zm0,0" transform="translate(-919.153 -541.32)" fill="#fff"/>
      <path id="Path_29340" data-name="Path 29340" d="M936.508,596.47h10.007a.743.743,0,1,0,0-1.486H936.508a.743.743,0,1,0,0,1.486Zm0,0" transform="translate(-919.153 -562.36)" fill="#fff"/>
      <path id="Path_29341" data-name="Path 29341" d="M889.621,570.742a2.344,2.344,0,1,0,2.345,2.344,2.347,2.347,0,0,0-2.345-2.344Zm0,3.2a.858.858,0,1,1,.859-.858.859.859,0,0,1-.859.858Zm0,0" transform="translate(-877.069 -541.32)" fill="#fff"/>
      <path id="Path_29342" data-name="Path 29342" d="M952.52,619.227H936.508a.743.743,0,1,0,0,1.486H952.52a.743.743,0,0,0,0-1.486Zm0,0" transform="translate(-919.153 -583.4)" fill="#fff"/>
      <path id="Path_29343" data-name="Path 29343" d="M936.508,644.959h10.007a.743.743,0,1,0,0-1.486H936.508a.743.743,0,1,0,0,1.486Zm0,0" transform="translate(-919.153 -604.444)" fill="#fff"/>
      <path id="Path_29344" data-name="Path 29344" d="M889.621,619.227a2.344,2.344,0,1,0,2.345,2.345,2.347,2.347,0,0,0-2.345-2.345Zm0,3.2a.858.858,0,1,1,.859-.858.859.859,0,0,1-.859.858Zm0,0" transform="translate(-877.069 -583.4)" fill="#fff"/>
      <path id="Path_29345" data-name="Path 29345" d="M953.264,668.458a.743.743,0,0,0-.743-.743H936.508a.743.743,0,1,0,0,1.486H952.52a.743.743,0,0,0,.744-.743Zm0,0" transform="translate(-919.153 -625.483)" fill="#fff"/>
      <path id="Path_29346" data-name="Path 29346" d="M936.508,691.961a.743.743,0,1,0,0,1.486h10.007a.743.743,0,1,0,0-1.486Zm0,0" transform="translate(-919.153 -646.527)" fill="#fff"/>
      <path id="Path_29347" data-name="Path 29347" d="M889.621,667.715a2.344,2.344,0,1,0,2.345,2.345,2.347,2.347,0,0,0-2.345-2.345Zm0,3.2a.858.858,0,1,1,.859-.858.859.859,0,0,1-.859.858Zm0,0" transform="translate(-877.069 -625.483)" fill="#fff"/>
    </g>
  </g>
</svg>
