<svg xmlns="http://www.w3.org/2000/svg" width="119" height="137" viewBox="0 0 119 137">
  <g id="Group_613" data-name="Group 613" transform="translate(-1228 -1631)">
    <g id="Group_593" data-name="Group 593" transform="translate(658.184 785.183)">
      <path id="Path_100" data-name="Path 100" d="M2623.092,550a45.092,45.092,0,1,0,45.092,45.092A45.092,45.092,0,0,0,2623.092,550Z" transform="translate(-1994.184 295.817)" fill="#fff"/>
      <path id="Path_100-2" data-name="Path 100" d="M2617,550a39,39,0,1,0,39,39A39,39,0,0,0,2617,550Z" transform="translate(-1988 301)" fill="#7860fa"/>
      <path id="Path_101" data-name="Path 101" d="M2606.055,606.518,2584.31,620.5a1.553,1.553,0,0,1-2.394-1.306V591.233a1.553,1.553,0,0,1,2.394-1.306l21.746,13.979a1.553,1.553,0,0,1,0,2.612Z" transform="translate(-1963.044 285.665)" fill="#fff"/>
    </g>
    <text id="Watch_Video" data-name="Watch Video" transform="translate(1228 1762)" fill="#0b0b09" font-size="18" font-family="Poppins-Bold, Poppins" font-weight="700"><tspan x="0" y="0">Watch Video</tspan></text>
  </g>
</svg>
