<svg xmlns="http://www.w3.org/2000/svg" width="21.875" height="25" viewBox="0 0 21.875 25"><path d="M15.625,21.875v1.953A1.172,1.172,0,0,1,14.453,25H1.172A1.172,1.172,0,0,1,0,23.828V5.859A1.172,1.172,0,0,1,1.172,4.688H4.688V19.141a2.737,2.737,0,0,0,2.734,2.734Zm0-16.8V0h-8.2A1.172,1.172,0,0,0,6.25,1.172V19.141a1.172,1.172,0,0,0,1.172,1.172H20.7a1.172,1.172,0,0,0,1.172-1.172V6.25H16.8A1.175,1.175,0,0,1,15.625,5.078Zm5.907-1.515L18.312.343A1.172,1.172,0,0,0,17.483,0h-.3V4.688h4.688v-.3a1.172,1.172,0,0,0-.343-.829Z"/></svg>