<svg xmlns="http://www.w3.org/2000/svg" width="25" height="25" viewBox="0 0 25 25"><path d="M22.321,2.25H2.679A2.679,2.679,0,0,0,0,4.929V24.571A2.679,2.679,0,0,0,2.679,27.25H22.321A2.679,2.679,0,0,0,25,24.571V4.929A2.679,2.679,0,0,0,22.321,2.25Zm-2.729,8.862c.011.156.011.318.011.474A10.342,10.342,0,0,1,9.191,22a10.365,10.365,0,0,1-5.619-1.641,7.711,7.711,0,0,0,.882.045A7.338,7.338,0,0,0,9,18.84,3.665,3.665,0,0,1,5.575,16.3a3.944,3.944,0,0,0,1.652-.067A3.66,3.66,0,0,1,4.3,12.641V12.6a3.657,3.657,0,0,0,1.652.463,3.652,3.652,0,0,1-1.629-3.047,3.614,3.614,0,0,1,.5-1.847,10.392,10.392,0,0,0,7.545,3.828A3.668,3.668,0,0,1,18.6,8.651a7.172,7.172,0,0,0,2.321-.882,3.65,3.65,0,0,1-1.607,2.015,7.283,7.283,0,0,0,2.109-.569A7.7,7.7,0,0,1,19.593,11.112Z" transform="translate(0 -2.25)"/></svg>