<svg xmlns="http://www.w3.org/2000/svg" width="352.719" height="433.591" viewBox="0 0 352.719 433.591">
  <g id="Skael_Character_Design_20200511-19" transform="translate(-64.594 -64.993)">
    <path id="Path_16249" data-name="Path 16249" d="M88.5,193.69s-68.87,58.038-76.77,107.022,36.864,63.031,72.378,2.454S88.5,193.69,88.5,193.69Z" transform="translate(53.781 50.804)" fill="#e84312"/>
    <path id="Path_16251" data-name="Path 16251" d="M237.337,193.69s68.833,58.025,76.77,107.022-36.8,63.031-72.378,2.454S237.337,193.69,237.337,193.69Z" transform="translate(102.28 50.804)" fill="#e84312"/>
    <path id="Path_16252" data-name="Path 16252" d="M79.26,196.669s38.839-23.75,95.883-22.683,95.282,20.168,105.4,27.614-13.494,249.73-13.494,249.73S163.6,456.875,74.77,440.829c0,0-.981-69.262-3.239-127.729S79.26,196.669,79.26,196.669Z" transform="translate(67.472 46.328)" fill="#2852f0"/>
    <path id="Path_16253" data-name="Path 16253" d="M186.1,181.111l-2.282-42.936s-7.949,5.557-15.163,6.894-14.218-2.883-14.3-2.932l-8.4-4.907-2.613,43.881h0l-12.648,5.03s7.949,13.494,34.423,12.157,34.656-13.053,34.656-13.053Z" transform="translate(80.962 38.001)" fill="#be7f41"/>
    <path id="Path_16254" data-name="Path 16254" d="M138.54,138.308s13.494,16.524,29.209,14.144C184.212,150,186.6,136.1,186.6,136.1Z" transform="translate(82.742 37.745)" fill="#12122f"/>
    <path id="Path_16255" data-name="Path 16255" d="M208.044,102.753c0,10.035-1.141,31.025-8.354,43.488-6.772,11.7-17.972,18-32.656,18.4s-25.627-4.465-34.349-19.628-8.354-42.028-8.354-42.028,2.711-39.256,44.163-39.256C212.055,63.718,208.044,102.753,208.044,102.753Z" transform="translate(79.52 21.335)" fill="#be7f41"/>
    <path id="Path_16256" data-name="Path 16256" d="M148.75,102.205a3.815,3.815,0,1,1-3.815-3.815A3.815,3.815,0,0,1,148.75,102.205Z" transform="translate(83.327 29.195)" fill="#12122f"/>
    <path id="Path_16257" data-name="Path 16257" d="M177.52,102.205a3.815,3.815,0,1,1-3.815-3.815,3.815,3.815,0,0,1,3.815,3.815Z" transform="translate(89.853 29.195)" fill="#12122f"/>
    <path id="Path_16258" data-name="Path 16258" d="M157.06,106.23v7.643a2,2,0,0,0,2.38,2.012l2.736-.577" transform="translate(86.942 30.972)" fill="none" stroke="#000" stroke-linecap="round" stroke-linejoin="round" stroke-width="0.95"/>
    <path id="Path_16259" data-name="Path 16259" d="M166.47,90.716l22.008,5.68s-1.006-6.134-10-8.415S166.47,90.716,166.47,90.716Z" transform="translate(89.077 26.699)" fill="#12122f"/>
    <path id="Path_16260" data-name="Path 16260" d="M152.806,90.444l-22,5.692s1.006-6.134,10-8.416S152.806,90.444,152.806,90.444Z" transform="translate(80.989 26.64)" fill="#12122f"/>
    <path id="Path_16261" data-name="Path 16261" d="M215.67,84.723c-.368,11.9-6.551,35.146-8.759,34.226-2.454-1.03,0-15.69-.1-20.131L201.182,86.8l6.526-4.735s-15.948-9.053-39.182-7.986c-24.044,1.092-37.6,8.1-37.6,8.1L137.06,86.8c-.429,3.68-7.643,18.033-7.643,18.033-.343,1.656-1.129,13.58-2.319,13.249-2.319-.626-5.864-22.266-7.483-26.056a22.781,22.781,0,0,1-1.362-9.814c.589-8.391,5.741-20.045,26.5-27.97,25.222-9.63,66.551-3.57,70.747,26.78A22.6,22.6,0,0,1,215.67,84.723Z" transform="translate(78.126 18.228)" fill="#12122f"/>
    <path id="Path_16262" data-name="Path 16262" d="M209.807,86.675l-9.52,2.135,2.368-5.005a62.294,62.294,0,0,0-35.183-8.44c-21.591,1.153-33.76,8.587-33.76,8.587l2.454,4.907-13.838-4.907c-1.349-8.182,3.827-23.787,22.45-32.153,22.658-10.182,62.11-3.987,64.858,30.9A35.407,35.407,0,0,1,209.807,86.675Z" transform="translate(79.023 17.625)" fill="#12122f"/>
    <path id="Path_16263" data-name="Path 16263" d="M169.713,121.7s-2.453,3.889-8.673,2.785" transform="translate(87.846 34.48)" fill="none" stroke="#000" stroke-linecap="round" stroke-linejoin="round" stroke-width="0.95"/>
    <path id="Path_16264" data-name="Path 16264" d="M182.181,175.334s-27.86,154.656-10.955,231.672a15.052,15.052,0,0,0,15.212,11.814c22.351-.736,69.127-2.454,74.832-4.183,7.594-2.282,22.732-186.184,2.981-216.779C264.3,197.857,231.938,174.475,182.181,175.334Z" transform="translate(88.922 46.636)" fill="#ffd17a"/>
    <path id="Path_16265" data-name="Path 16265" d="M308.48,316.191c-6.293,10.5-26.89,22.523-45.022,26.387-8.048,1.717-15.592,1.852-21.211-.454,0,0-2.956-29.381-19.9-45.549a18.711,18.711,0,0,1,2.907-5.165c4.907-6.44,17.027-16.254,45.132-13.322C311.314,282.382,317.607,301.041,308.48,316.191Z" transform="translate(101.747 69.82)" fill="#e84312"/>
    <path id="Path_16266" data-name="Path 16266" d="M201.884,179.329s-11.36,16.6-25.762,24.241a47.661,47.661,0,0,1-.589-5.876c0-.92-.074-1.951-.074-3.067a50.783,50.783,0,0,1,.319-5.925c.135-1.227.294-2.368.527-3.582,1.46-7.863,5.214-16.07,14.083-19.849a13.8,13.8,0,0,1,5.03,2.748,16.753,16.753,0,0,1,1.9,1.852,18.882,18.882,0,0,1,2.453,3.545A17.786,17.786,0,0,1,201,176.09,22.355,22.355,0,0,1,201.884,179.329Z" transform="translate(91.115 44.36)" fill="#e84312"/>
    <path id="Path_16267" data-name="Path 16267" d="M147.97,175.335s15.567,152.645-2.2,229.4A15.3,15.3,0,0,1,130.207,416.6c-19.113-.785-54.615-2.454-59.068-4.1C65,410.209,61.116,223.277,79.076,192.6,79.076,192.62,107.033,174.477,147.97,175.335Z" transform="translate(66.294 46.635)" fill="#ffd17a"/>
    <path id="Path_16268" data-name="Path 16268" d="M114,179.329s11.36,16.6,25.762,24.241a47.656,47.656,0,0,0,.589-5.876c0-.92.074-1.951.074-3.067a50.763,50.763,0,0,0-.319-5.925,35.5,35.5,0,0,0-.528-3.582c-1.46-7.863-5.214-16.07-14.083-19.849a13.8,13.8,0,0,0-5.03,2.748,17.839,17.839,0,0,0-1.9,1.852,19.47,19.47,0,0,0-2.454,3.545,19.127,19.127,0,0,0-1.227,2.674A22.36,22.36,0,0,0,114,179.329Z" transform="translate(77.18 44.36)" fill="#e84312"/>
    <path id="Path_16269" data-name="Path 16269" d="M219.36,290.35a88.472,88.472,0,0,1,24.707,51.094" transform="translate(101.07 72.722)" fill="none" stroke="#000" stroke-linecap="round" stroke-linejoin="round" stroke-width="1.88"/>
    <ellipse id="Ellipse_25" data-name="Ellipse 25" cx="14.586" cy="14.586" rx="14.586" ry="14.586" transform="translate(211.812 119.23)" fill="none" stroke="#fff" stroke-miterlimit="10" stroke-width="2.02"/>
    <ellipse id="Ellipse_26" data-name="Ellipse 26" cx="14.586" cy="14.586" rx="14.586" ry="14.586" transform="translate(247.658 119.23)" fill="none" stroke="#fff" stroke-miterlimit="10" stroke-width="2.02"/>
    <path id="Path_16270" data-name="Path 16270" d="M154.6,103.735s3.459-3.226,6.661,0" transform="translate(86.386 30.081)" fill="none" stroke="#fff" stroke-miterlimit="10" stroke-width="2.02"/>
    <line id="Line_8" data-name="Line 8" x1="7.103" y1="0.123" transform="translate(204.697 133.694)" fill="none" stroke="#fff" stroke-miterlimit="10" stroke-width="2.02"/>
    <line id="Line_9" data-name="Line 9" y1="0.098" x2="10.427" transform="translate(276.83 133.718)" fill="none" stroke="#fff" stroke-miterlimit="10" stroke-width="2.02"/>
    <path id="Path_16271" data-name="Path 16271" d="M132.472,125.085c-7.287,6.293-22.621-18.622-15.568-25.332s12.047,4.208,12.047,4.208l1.435,7.876,2.122,10.6.552,2.38Z" transform="translate(77.429 29.009)" fill="#be7f41"/>
    <path id="Path_16272" data-name="Path 16272" d="M119.15,106.547s2.981-6.453,9.924,4.907" transform="translate(78.348 30.63)" fill="none" stroke="#000" stroke-linecap="round" stroke-linejoin="round" stroke-width="0.97"/>
    <path id="Path_16273" data-name="Path 16273" d="M187.279,124.331c7.361,6.134,22.3-19.015,15.138-25.6s-11.973,4.416-11.973,4.416l-1.3,7.888-1.938,10.587L186.69,124Z" transform="translate(93.66 28.795)" fill="#be7f41"/>
    <path id="Path_16274" data-name="Path 16274" d="M198.814,105.549S195.723,99.157,189,110.6" transform="translate(94.186 30.414)" fill="none" stroke="#000" stroke-linecap="round" stroke-linejoin="round" stroke-width="0.97"/>
    <path id="Path_16275" data-name="Path 16275" d="M17.232,316.191c6.306,10.5,26.9,22.523,45.034,26.387,8.047,1.717,15.592,1.852,21.2-.454,0,0,2.969-29.381,19.91-45.549a18.709,18.709,0,0,0-2.907-5.165c-4.907-6.44-17.027-16.254-45.144-13.322C14.4,282.382,8.154,301.041,17.232,316.191Z" transform="translate(54.415 69.82)" fill="#e84312"/>
    <path id="Path_16276" data-name="Path 16276" d="M94.339,290.35A88.485,88.485,0,0,0,69.62,341.444" transform="translate(67.115 72.722)" fill="none" stroke="#000" stroke-linecap="round" stroke-linejoin="round" stroke-width="1.88"/>
    <path id="Path_16277" data-name="Path 16277" d="M223.605,215.7s-29.442-7.3-30.289,7.949,12.807,7.974,22.781,13.1c7.52,3.864-16.978,3.435-18.058,3.005s-3.006,14.611-3.006,14.611,32.055,7.52,36.324-11.605-24.94-13.494-25.161-17.175,16.328-2.368,16.328-2.368Z" transform="translate(95.157 55.399)" fill="#12122f"/>
  </g>
</svg>
