<svg xmlns="http://www.w3.org/2000/svg" width="166.769" height="222.15" viewBox="0 0 166.769 222.15">
  <g id="Group_1216" data-name="Group 1216" transform="matrix(0.966, 0.259, -0.259, 0.966, 29.584, -3.529)">
    <path id="Path_29281" data-name="Path 29281" d="M15.428,44.135a2.7,2.7,0,0,1-1.72-4.785c.1-.083,9.639-8.085,8.214-16.952-1.06-6.587-7.856-12.369-20.2-17.184A2.7,2.7,0,0,1,3.682.184c14.275,5.563,22.2,12.761,23.576,21.389,1.9,11.929-9.626,21.545-10.12,21.949A2.688,2.688,0,0,1,15.428,44.135Z" transform="translate(116.977 56.846)" fill="#ffbf46"/>
    <path id="Path_29282" data-name="Path 29282" d="M23.241,44.137l-.146,0c-.636-.033-15.62-.954-21.144-11.687-4-7.76-1.849-18.258,6.385-31.2a2.7,2.7,0,1,1,4.556,2.9C5.772,15.339,3.7,24.023,6.746,29.958c4.086,7.979,16.515,8.774,16.641,8.781a2.7,2.7,0,0,1-.146,5.4Z" transform="translate(5.549 90.875)" fill="#ffbf46"/>
    <path id="Path_29283" data-name="Path 29283" d="M11.767.178C5.571,2.265-2.978,2.067,1.031,12.537s10.5,25.846,14.745,30.982,14.083,4.8,16.568-.431a29.821,29.821,0,0,0,2.783-24.355C31.417,7.5,16.473-1.38,11.767.178Z" transform="translate(90.779 34.052)" fill="#abbbf9"/>
    <path id="Path_29284" data-name="Path 29284" d="M93.041,45.044c3.314,2.618,6.627,5.2,9.609,7.919,12.194,10.8,23.427,24.421,24.388,40.624.895,13.453-5.534,26.508-14.447,36.648C88.2,157.87,31.343,174.107,7.12,137.79-10.441,111.448,10.2,90.407,8.678,63.5,8.015,51.207,1.024,39.544,2.051,27.25,3.674,10.385,21.932-1.909,38.8.245,52.914,2.034,66.068,7.8,73.391,18.635,79.919,27.946,83.962,37.986,93.041,45.044Z" transform="translate(21.666 25.237)" fill="#ffbf46"/>
    <path id="Path_29285" data-name="Path 29285" d="M2.7,36.183a2.7,2.7,0,0,1-.686-5.312l6.2-1.637A63.343,63.343,0,0,0,8.179,3.26,2.7,2.7,0,0,1,13.46,2.14a68.791,68.791,0,0,1-.345,29.908,2.7,2.7,0,0,1-1.938,1.991L3.39,36.094A2.632,2.632,0,0,1,2.7,36.183Zm7.79-4.755h0Z" transform="translate(76.021 173.085)" fill="#ffbf46"/>
    <path id="Path_29286" data-name="Path 29286" d="M12.378,34.1A2.7,2.7,0,0,1,9.82,32.256L.141,3.561A2.7,2.7,0,0,1,5.26,1.838l8.817,26.15,6.266-2.074a2.7,2.7,0,1,1,1.7,5.129L13.23,33.959A2.743,2.743,0,0,1,12.378,34.1Z" transform="translate(103.986 165.265)" fill="#ffbf46"/>
    <path id="Path_29287" data-name="Path 29287" d="M1.276,9.644a1.276,1.276,0,0,1-.4-2.488L22.45.065a1.276,1.276,0,1,1,.8,2.426L1.674,9.581A1.292,1.292,0,0,1,1.276,9.644Z" transform="translate(25.953 48.394)" fill="#12122f"/>
    <path id="Path_29288" data-name="Path 29288" d="M88.679,40.791S71.15-11.4,29.4,2.287C-7.977,14.548-.787,60.705,3.686,73.595l7.687-2.518s-5.3-45.4,21.372-54.143S74.232,28.266,82.449,44.8A21.77,21.77,0,0,0,88.679,40.791Z" transform="translate(13.636 0)" fill="#abbbf9"/>
    <path id="Path_29289" data-name="Path 29289" d="M81.083,109.943c57.391-28,44.567-65.575,42.082-69.319C112.893,31.412,95.132,23.891,92.183,3.314L88.14,0S95.331,37.708,67.6,47.185C29.557,60.041,15.309,30.65,6.362,17.462c-4.738,3.579-1.856,3.082-1.856,3.082S8.847,50.366,6.859,60.307A161.766,161.766,0,0,1,0,84.33s15.706,52.056,80.95,25.746Z" transform="translate(23.054 67.2)" fill="#e84312"/>
    <path id="Path_29290" data-name="Path 29290" d="M70.148,51.559c26.31-8.648,50.4-26.508,53.017-48.013a4.189,4.189,0,0,0,.232-2.154V0c3.314,8.483,9.543,42.049-42.877,67.6C21.273,91.487,2.883,50.764,0,43.076,13.917,60.141,43.043,60.439,70.148,51.559Z" transform="translate(23.518 109.547)" fill="#d84020"/>
    <path id="Path_29291" data-name="Path 29291" d="M5.4,12.748A4.8,4.8,0,0,1,.761,9.173l-.6-2.306a4.783,4.783,0,0,1,3.42-5.845h0l3.3-.865a4.79,4.79,0,0,1,5.845,3.42l.606,2.31a4.787,4.787,0,0,1-3.423,5.842l-3.3.868A4.9,4.9,0,0,1,5.4,12.748ZM4.224,3.49a2.24,2.24,0,0,0-1.6,2.73l.6,2.306a2.24,2.24,0,0,0,2.734,1.6l3.3-.865a2.239,2.239,0,0,0,1.6-2.727l-.606-2.31a2.239,2.239,0,0,0-2.727-1.6Z" transform="translate(100.625 113.675)" fill="#12122f"/>
    <path id="Path_29292" data-name="Path 29292" d="M5.085,12.549A4.32,4.32,0,0,1,1.059,9.693L.032,5.809A4.331,4.331,0,0,1,3.475.919L6.7.044a1.275,1.275,0,0,1,.666,2.462L4.048,3.4A1.8,1.8,0,0,0,2.534,5.349l.961,3.589a1.733,1.733,0,0,0,2.18.944l2.77-.7a1.275,1.275,0,0,1,.616,2.475L6.41,12.32A3.888,3.888,0,0,1,5.085,12.549Z" transform="translate(98.2 114.467)" fill="#12122f"/>
    <path id="Path_29293" data-name="Path 29293" d="M5.76,13.863a4.783,4.783,0,0,1-4.546-3.294L.242,7.61A4.787,4.787,0,0,1,3.3,1.566l.4,1.213L3.3,1.566,7.327.241A4.792,4.792,0,0,1,13.371,3.3l.971,2.959A4.785,4.785,0,0,1,11.287,12.3L7.257,13.624A4.864,4.864,0,0,1,5.76,13.863ZM4.093,3.988A2.238,2.238,0,0,0,2.665,6.812l.974,2.959a2.2,2.2,0,0,0,1.117,1.3,2.228,2.228,0,0,0,1.706.129l4.029-1.322a2.231,2.231,0,0,0,1.425-2.82l-.971-2.962A2.238,2.238,0,0,0,8.122,2.666Z" transform="translate(83.463 118.177)" fill="#12122f"/>
    <path id="Path_29294" data-name="Path 29294" d="M5.549,13.344a4.262,4.262,0,0,1-4.043-2.913L.211,6.408A4.231,4.231,0,0,1,2.921,1.06L5.93.066a1.277,1.277,0,0,1,.8,2.425l-3.015.994A1.68,1.68,0,0,0,2.626,5.6L3.932,9.636a1.7,1.7,0,0,0,2.151,1.074l2.369-.769a1.275,1.275,0,1,1,.789,2.426l-2.353.762A4.283,4.283,0,0,1,5.549,13.344Z" transform="translate(80.976 119.633)" fill="#12122f"/>
    <rect id="Rectangle_220" data-name="Rectangle 220" width="10.438" height="9.41" rx="1.06" transform="translate(66.627 128.67) rotate(-23.41)" fill="#12122f"/>
    <path id="Path_29295" data-name="Path 29295" d="M5.738,13.124a4.8,4.8,0,0,1-4.4-2.889L.393,8.047a4.793,4.793,0,0,1,2.5-6.3v0L6.02.393a4.794,4.794,0,0,1,6.3,2.5l.948,2.187a4.789,4.789,0,0,1-2.492,6.3L7.636,12.729A4.815,4.815,0,0,1,5.738,13.124ZM3.9,4.091A2.241,2.241,0,0,0,2.736,7.033l.951,2.19a2.234,2.234,0,0,0,2.939,1.163L9.757,9.032A2.239,2.239,0,0,0,10.92,6.089L9.973,3.9A2.244,2.244,0,0,0,7.03,2.736Z" transform="translate(66.456 124.353)" fill="#12122f"/>
    <path id="Path_29296" data-name="Path 29296" d="M5.546,12.561a3.885,3.885,0,0,1-1.491-.295,3.969,3.969,0,0,1-2.174-2.147L.33,6.557A4.035,4.035,0,0,1,2.414,1.265L5.141.1a1.275,1.275,0,1,1,1,2.346L3.425,3.608a1.479,1.479,0,0,0-.755,1.935L4.227,9.115A1.439,1.439,0,0,0,6.119,9.9L8.3,8.979a1.276,1.276,0,0,1,.991,2.353l-2.124.895A4.122,4.122,0,0,1,5.546,12.561Z" transform="translate(64.167 126.032)" fill="#12122f"/>
    <rect id="Rectangle_221" data-name="Rectangle 221" width="10.438" height="9.41" rx="1.06" transform="translate(106.824 130.6) rotate(-18.18)" fill="#12122f"/>
    <path id="Path_29297" data-name="Path 29297" d="M5.538,12.91A4.8,4.8,0,0,1,.982,9.616L.24,7.35A4.794,4.794,0,0,1,3.3,1.306h0L6.539.242A4.781,4.781,0,0,1,12.58,3.3l.746,2.266A4.788,4.788,0,0,1,10.27,11.6L7.026,12.672A4.848,4.848,0,0,1,5.538,12.91ZM4.09,3.728A2.244,2.244,0,0,0,2.662,6.551l.746,2.27a2.236,2.236,0,0,0,2.823,1.425L9.471,9.182A2.238,2.238,0,0,0,10.9,6.359l-.742-2.266a2.211,2.211,0,0,0-1.117-1.3,2.244,2.244,0,0,0-1.706-.129Z" transform="translate(106.468 126.986)" fill="#12122f"/>
    <path id="Path_29298" data-name="Path 29298" d="M5.211,12.289A4.078,4.078,0,0,1,1.357,9.635L.145,5.868A4.053,4.053,0,0,1,2.7.96l2.81-.9a1.276,1.276,0,1,1,.782,2.429L3.5,3.379a1.475,1.475,0,0,0-.911,1.769L3.77,8.8a1.509,1.509,0,0,0,1.793.908l2.088-.7a1.275,1.275,0,1,1,.809,2.419l-2.187.729A4.364,4.364,0,0,1,5.211,12.289Z" transform="translate(104.201 128.289)" fill="#12122f"/>
    <path id="Path_29299" data-name="Path 29299" d="M5.955,14.679a4.788,4.788,0,0,1-4.543-3.3L.242,7.826A4.787,4.787,0,0,1,3.3,1.782L7.986.242A4.783,4.783,0,0,1,14.03,3.3L15.2,6.855A4.781,4.781,0,0,1,12.145,12.9L7.453,14.437A4.755,4.755,0,0,1,5.955,14.679ZM4.093,4.2A2.225,2.225,0,0,0,2.8,5.321a2.2,2.2,0,0,0-.129,1.706l1.166,3.559a2.238,2.238,0,0,0,2.823,1.428l4.692-1.541a2.24,2.24,0,0,0,1.425-2.823L11.608,4.092A2.24,2.24,0,0,0,8.785,2.667L4.093,4.2ZM3.7,3h0Z" transform="translate(88.046 132.58)" fill="#12122f"/>
    <path id="Path_29300" data-name="Path 29300" d="M5.91,13.935a4.6,4.6,0,0,1-4.318-2.966L.18,6.714a4.625,4.625,0,0,1,2.787-5.6L6.35.057A1.277,1.277,0,0,1,7.106,2.5L3.792,3.523A2.038,2.038,0,0,0,2.619,5.966L4,10.121a2.042,2.042,0,0,0,2.449,1.2l2.445-.785a1.276,1.276,0,0,1,.775,2.432l-2.485.8A4.693,4.693,0,0,1,5.91,13.935Z" transform="translate(85.414 134.116)" fill="#12122f"/>
    <path id="Path_29301" data-name="Path 29301" d="M5.652,13.122a4.8,4.8,0,0,1-4.49-3.138L.294,7.618A4.792,4.792,0,0,1,3.137,1.475h0L6.341.3a4.783,4.783,0,0,1,6.147,2.843L13.356,5.5a4.791,4.791,0,0,1-2.843,6.147l-3.2,1.176A4.776,4.776,0,0,1,5.652,13.122ZM4.018,3.867A2.241,2.241,0,0,0,2.69,6.74L3.558,9.1a2.235,2.235,0,0,0,2.87,1.329l3.2-1.176a2.235,2.235,0,0,0,1.329-2.87L10.092,4.02a2.235,2.235,0,0,0-2.87-1.329Z" transform="translate(109.582 141.957)" fill="#12122f"/>
    <path id="Path_29302" data-name="Path 29302" d="M5.445,12.859a4.168,4.168,0,0,1-3.854-2.585L.216,6.517a4.2,4.2,0,0,1,2.7-5.331l3-1.107a1.276,1.276,0,0,1,.881,2.4L3.745,3.6a1.663,1.663,0,0,0-1.12,2.081L3.97,9.353a1.617,1.617,0,0,0,2.081.835l2.485-.9a1.276,1.276,0,1,1,.868,2.4l-2.386.862A4.125,4.125,0,0,1,5.445,12.859Z" transform="translate(107.294 143.197)" fill="#12122f"/>
    <path id="Path_29303" data-name="Path 29303" d="M5.528,12.914a4.794,4.794,0,0,1-4.543-3.3L.242,7.35A4.792,4.792,0,0,1,3.294,1.307h0L6.538.243A4.787,4.787,0,0,1,12.582,3.3l.746,2.266a4.8,4.8,0,0,1-3.055,6.044L7.029,12.672A4.79,4.79,0,0,1,5.528,12.914ZM4.093,3.732a2.236,2.236,0,0,0-1.428,2.82l.746,2.27a2.23,2.23,0,0,0,1.117,1.3,2.206,2.206,0,0,0,1.7.129L9.474,9.183A2.239,2.239,0,0,0,10.9,6.36l-.746-2.266A2.241,2.241,0,0,0,7.333,2.665Z" transform="translate(93.261 148.397)" fill="#12122f"/>
    <path id="Path_29304" data-name="Path 29304" d="M5.118,12.355a3.82,3.82,0,0,1-1.763-.421,3.986,3.986,0,0,1-2-2.343L.157,5.913A4,4,0,0,1,2.722,1L5.505.068a1.275,1.275,0,1,1,.805,2.419l-2.78.928A1.439,1.439,0,0,0,2.6,5.171L3.776,8.8a1.475,1.475,0,0,0,.736.855,1.456,1.456,0,0,0,1.123.086l.02-.007,2.187-.7a1.276,1.276,0,0,1,.775,2.432l-2.187.7a1.33,1.33,0,0,1-.248.053A4.451,4.451,0,0,1,5.118,12.355Z" transform="translate(90.971 149.689)" fill="#12122f"/>
    <path id="Path_29305" data-name="Path 29305" d="M11.583,27.892a4.8,4.8,0,0,1-4.46-3.019L.343,7.832A4.791,4.791,0,0,1,3.027,1.609L6.2.343a4.8,4.8,0,0,1,6.226,2.681L19.2,20.065a4.791,4.791,0,0,1-2.681,6.226l-3.171,1.262A4.747,4.747,0,0,1,11.583,27.892ZM7.971,2.556a2.231,2.231,0,0,0-.828.159L3.968,3.978h0A2.239,2.239,0,0,0,2.716,6.887L9.5,23.926a2.238,2.238,0,0,0,1.2,1.233,2.211,2.211,0,0,0,1.713.023l3.171-1.262a2.245,2.245,0,0,0,1.256-2.909L10.052,3.971A2.237,2.237,0,0,0,7.971,2.556ZM3.5,2.8h0Z" transform="translate(72.08 138.807)" fill="#12122f"/>
    <path id="Path_29306" data-name="Path 29306" d="M11.344,27.471a4.038,4.038,0,0,1-3.738-2.525L.28,6.417A4.039,4.039,0,0,1,2.56,1.178L5.3.088a1.276,1.276,0,0,1,.941,2.372L3.494,3.554a1.475,1.475,0,0,0-.845,1.912L9.975,24a1.474,1.474,0,0,0,1.915.812l2.134-.832a1.274,1.274,0,0,1,.928,2.373l-2.121.828A3.927,3.927,0,0,1,11.344,27.471Z" transform="translate(69.038 140.746)" fill="#12122f"/>
    <path id="Path_29307" data-name="Path 29307" d="M11.689,2.694C17.918.739,22.292-3.37,29.284,5.345c9.278,11.531,8.416,29.524,5.766,36.449-2.386,6.2-11.134,8.35-16.568,6.4C9.369,44.875,4.532,39.11.82,27.844S6.917,4.284,11.689,2.694Z" transform="translate(0 58.21)" fill="#abbbf9"/>
    <path id="Path_29308" data-name="Path 29308" d="M0,20.609s13.254,10.57,23.957,7.025S39.067,7.752,39.067,7.752,25.813-2.818,15.11.727,0,20.609,0,20.609Z" transform="translate(26.335 56.599)" fill="#fff"/>
    <ellipse id="Ellipse_58" data-name="Ellipse 58" cx="11.995" cy="11.995" rx="11.995" ry="11.995" transform="translate(34.254 58.618)" fill="#12122f"/>
    <path id="Path_29309" data-name="Path 29309" d="M0,20.536s13.254,10.57,23.957,7.025S39.067,7.68,39.067,7.68,25.912-2.659,15.143.655,0,20.536,0,20.536Z" transform="translate(70.902 41.958)" fill="#fff"/>
    <ellipse id="Ellipse_59" data-name="Ellipse 59" cx="11.995" cy="11.995" rx="11.995" ry="11.995" transform="translate(78.424 44.105)" fill="#12122f"/>
    <path id="Path_29310" data-name="Path 29310" d="M1.276,9.61a1.276,1.276,0,0,1-.4-2.488L22.45.063a1.276,1.276,0,0,1,.8,2.426L1.671,9.547A1.257,1.257,0,0,1,1.276,9.61Z" transform="translate(72.409 33.153)" fill="#12122f"/>
    <path id="Path_29311" data-name="Path 29311" d="M7.777,11.5A8.124,8.124,0,0,1,.063,5.914a1.276,1.276,0,0,1,2.426-.8A5.556,5.556,0,1,0,13.053,1.669,1.276,1.276,0,0,1,15.478.877,8.108,8.108,0,0,1,7.777,11.5Z" transform="translate(69.195 72.088)" fill="#12122f"/>
    <path id="Path_29312" data-name="Path 29312" d="M.869,3.38v-.3S-2.014,3.579,2.724,0l.265.365A35.546,35.546,0,0,0,.869,3.38Z" transform="translate(26.891 84.662)" fill="#d8d8dd"/>
  </g>
</svg>
