<svg id="Skael_Character_Design_20200511-18" xmlns="http://www.w3.org/2000/svg" width="137.496" height="210.976" viewBox="0 0 137.496 210.976">
  <path id="Path_29374" data-name="Path 29374" d="M33.713,273.234c-.364,0-3.591-.072-5.093-2.606a4.981,4.981,0,0,1-.513-3.591l-.913-.262c-5.735-1.636-16.414-4.683-19.887-12.4-1.759-3.9-1.462-8.371.877-13.29,8.966-18.825,26.432-28.34,27.186-28.725a2.578,2.578,0,1,1,2.436,4.545h0c-.164.087-16.732,9.151-24.949,26.406-1.688,3.539-1.959,6.468-.836,8.951,2.5,5.54,11.674,8.161,16.6,9.571a20.887,20.887,0,0,1,4.1,1.411,2.565,2.565,0,0,1,.98,3.508,4.782,4.782,0,0,0-.513,1.231,2.4,2.4,0,0,0,.549.1,2.578,2.578,0,0,1,0,5.155Z" transform="translate(-6.177 -105.479)" fill="#7860fa"/>
  <path id="Path_29375" data-name="Path 29375" d="M182.775,120.679a2.529,2.529,0,0,1-1.539-.513,2.565,2.565,0,0,1-.513-3.591c.123-.159,12.069-16.019,18.045-34.572,5.914-18.368,3.944-59.655,2.257-63.943a2.565,2.565,0,0,1,1.026-3.442,4.616,4.616,0,0,0,1.093-.775,2.453,2.453,0,0,0-.441-.39,2.6,2.6,0,0,1-.78-3.6,2.565,2.565,0,0,1,3.508-.826c.313.19,3.042,1.954,2.98,4.883a5.333,5.333,0,0,1-2.144,4.011c2.1,10.536,2.872,48.642-2.6,65.61-6.248,19.415-18.332,35.439-18.84,36.111A2.565,2.565,0,0,1,182.775,120.679ZM201.035,18.066a.082.082,0,0,1,0,.036Z" transform="translate(-90.942 -6.412)" fill="#7860fa"/>
  <path id="Path_29376" data-name="Path 29376" d="M217.4,384.642a2.565,2.565,0,0,1-1.657-.605l-30.2-25.36a2.578,2.578,0,0,1,3.314-3.95l30.2,25.344a2.565,2.565,0,0,1-1.657,4.555Z" transform="translate(-93.092 -174.676)" fill="#7860fa"/>
  <path id="Path_29377" data-name="Path 29377" d="M121.74,382.688a2.564,2.564,0,0,1-1.39-.41c-4.334-2.785-9.043-6.217-10.11-11.664a13.977,13.977,0,0,1,2.719-10.7,36.354,36.354,0,0,1,7.079-6.966,2.579,2.579,0,0,1,3.262,4,33.093,33.093,0,0,0-6.155,5.95,8.874,8.874,0,0,0-1.841,6.725c.677,3.457,4.242,6.007,7.838,8.32a2.565,2.565,0,0,1-1.4,4.745Z" transform="translate(-56.759 -173.82)" fill="#7860fa"/>
  <path id="Path_29378" data-name="Path 29378" d="M53.036,198.246c-16.306-33.4-6.966-79.187,23.6-101.51,10.961-8,26.981-12.018,37.721-3.724,11.285,8.72,11.115,26.462,7.371,38.9-4.3,14.311-3.252,23.826,7.181,33.854,5.8,5.576,11.71,11.285,15.352,18.466a36.721,36.721,0,0,1-1.39,35.111c-16.255,26.632-52.474,18.137-72.54,1.211a67.949,67.949,0,0,1-17.291-22.3Z" transform="translate(-25.141 -45.268)" fill="#7860fa"/>
  <path id="Path_29379" data-name="Path 29379" d="M110.66,162.8S117.3,173,125.484,173s14.824-10.2,14.824-10.2-6.637-10.2-14.824-10.2S110.66,162.8,110.66,162.8Z" transform="translate(-57.067 -76.522)" fill="#fff"/>
  <path id="Path_29380" data-name="Path 29380" d="M127.168,165.644a6.243,6.243,0,0,0,.118,1.375,1.2,1.2,0,0,0,1.159,1.026,1.323,1.323,0,0,0,.949-.723c.21-.354.333-.754.554-1.108a2.519,2.519,0,0,1,3.514-.631,8.8,8.8,0,0,1,1.57,2.17,2.109,2.109,0,0,0,2.257,1.072,1.729,1.729,0,0,0,1-1.539c.169-3.237-1.713-8.756-5.642-8.756C129.4,158.494,127.245,162.49,127.168,165.644Z" transform="translate(-65.106 -79.41)" fill="#12122f"/>
  <path id="Path_29381" data-name="Path 29381" d="M52.87,162.8S59.507,173,67.694,173s14.819-10.2,14.819-10.2-6.632-10.2-14.819-10.2S52.87,162.8,52.87,162.8Z" transform="translate(-28.92 -76.522)" fill="#fff"/>
  <path id="Path_29382" data-name="Path 29382" d="M69.377,165.644a5.945,5.945,0,0,0,.118,1.375,1.185,1.185,0,0,0,1.154,1.026,1.334,1.334,0,0,0,.954-.723c.205-.354.333-.754.554-1.108a2.508,2.508,0,0,1,3.508-.631,8.8,8.8,0,0,1,1.57,2.17,2.116,2.116,0,0,0,2.262,1.072,1.734,1.734,0,0,0,1-1.539c.174-3.237-1.713-8.756-5.642-8.756C71.6,158.494,69.449,162.49,69.377,165.644Z" transform="translate(-36.958 -79.41)" fill="#12122f"/>
  <path id="Path_29383" data-name="Path 29383" d="M218.451,21.884s7.243-1.539,7.935-1.57,0-4.8,0-4.8,2.765-5.576,1.062-8.161c-2.785-4.247-7.935-3.37-9-1.682s-1.539,3.642-.369,4.334a1.412,1.412,0,0,1,.369,2.354c-.6.3-1.241,1.267-1.241,3.273A32.828,32.828,0,0,0,218.451,21.884Z" transform="translate(-108.963 -4.281)" fill="#e84312"/>
  <path id="Path_29384" data-name="Path 29384" d="M115.624,403.517h14.193s-.092-7.15-2.257-9.269a8.443,8.443,0,0,0-4.847-2.308l-6.453,5.786,1.293,1.364S113.177,400.147,115.624,403.517Z" transform="translate(-59.122 -193.095)" fill="#e84312"/>
  <path id="Path_29385" data-name="Path 29385" d="M230.51,399.233l6.873-5.673,7.515,4.38s8.4-1.026,8.027,6.92H238.378Z" transform="translate(-115.441 -193.884)" fill="#e84312"/>
  <path id="Path_29386" data-name="Path 29386" d="M165.853,269.4a42.063,42.063,0,0,0-3.878-6.155c-6.042,43.789-32.438,44.533-59.408,41.6-4.483-.487-8.9-.482-13.147-1.38.805.754,1.631,1.5,2.488,2.216,20.066,16.927,56.29,25.411,72.555-1.2a36.721,36.721,0,0,0,1.39-35.09Z" transform="translate(-46.722 -130.41)" fill="#6858db"/>
  <path id="Path_29387" data-name="Path 29387" d="M62.1,274.745l7.52,9.956,74.638-41.6L137.6,232.92Z" transform="translate(-33.415 -115.642)" fill="#12122f"/>
  <path id="Path_29388" data-name="Path 29388" d="M68.479,284.759a1.216,1.216,0,0,1-.969-.482L60,274.32a1.211,1.211,0,0,1,.4-1.785l75.5-41.83a1.2,1.2,0,0,1,1.6.4l6.668,10.182a1.205,1.205,0,0,1,.164.954,1.221,1.221,0,0,1-.585.764L69.069,284.6A1.18,1.18,0,0,1,68.479,284.759ZM62.77,273.987l6.037,8,72.586-40.455-5.329-8.186Z" transform="translate(-32.275 -114.489)" fill="#12122f"/>
  <path id="Path_29389" data-name="Path 29389" d="M39.605,305.616a51.712,51.712,0,0,1-1.708,5.258c-.415.739,3.042,1.334,3.411,1.426a2.5,2.5,0,0,1,1.939,2.908,3.912,3.912,0,0,0,3.042,4.473c1.98.415,4.934.185,5.9-.969s3.457-3.344,1.2-4.616-3.862-1.718-3.293-2.272.846-3.873-.262-4.75S40.036,304.211,39.605,305.616Z" transform="translate(-21.61 -150.812)" fill="#e84312"/>
  <path id="Path_29390" data-name="Path 29390" d="M84.62,87.548c2.76-4.96,5.2-10.125,8.145-14.993,2.565-4.2,3.934-8.54,8.438-11.095a16.178,16.178,0,0,1,6.478-2.052c3.806-.344,8.171,1.026,11.9,1.847a103.643,103.643,0,0,1,10.915,2.765c7.063,2.334,13.577,6.283,16.994,13.136,3.632,7.268-1.38,18.681-3.124,26.042" transform="translate(-44.384 -31.105)" fill="#e84312"/>
  <path id="Path_29391" data-name="Path 29391" d="M183.82,133.628s2.606-10.259,11.695-8.525l-3.078,11.156Z" transform="translate(-92.7 -63.032)" fill="#7860fa"/>
  <path id="Path_29392" data-name="Path 29392" d="M118.3,124.064a1.165,1.165,0,0,1-.323-.041L32.889,100.361a1.212,1.212,0,1,1,.651-2.334l85.081,23.662a1.211,1.211,0,0,1-.323,2.375Z" transform="translate(-18.756 -49.919)" fill="#fff"/>
  <path id="Path_29393" data-name="Path 29393" d="M126.432,77.283s-11-7.694-13.772-1.508,4.032,5.324,7.34,9.017c2.5,2.79-7.561-1.267-7.935-1.611s-3.555,5.56-3.555,5.56,12.059,8.176,16.845.954-8.166-9.541-7.694-11.085,7.12,1.611,7.12,1.611Z" transform="translate(-56.02 -37.931)" fill="#12122f"/>
  <path id="Path_29394" data-name="Path 29394" d="M177.369,233.05l.385-2.4a1.365,1.365,0,0,0-.472-1.293l-2.7-2.293a.682.682,0,0,0-.734-.154l-1.123.421a.692.692,0,0,0-.457.6l-.513,3.5a1.359,1.359,0,0,0,.487,1.282l1.867,1.539,4.945,13.065,3.273-1.226Z" transform="translate(-86.813 -112.694)" fill="#abbbf9"/>
  <path id="Path_29395" data-name="Path 29395" d="M183.026,264.641l-2.678,1a.7.7,0,0,0-.41.9l.775,2.052a.692.692,0,0,0,.667.457,1.4,1.4,0,0,1,.928,2.467.672.672,0,0,0-.205.775l3.1,8.284a5.234,5.234,0,0,0,9.8-3.673l-3.078-8.284a.682.682,0,0,0-.667-.451,1.4,1.4,0,0,1-.923-2.467.687.687,0,0,0,.205-.78l-.775-2.052a.7.7,0,0,0-.9-.405l-2.565.954" transform="translate(-90.788 -130.011)" fill="#abbbf9"/>
  <path id="Path_29396" data-name="Path 29396" d="M99.212,291.625a3.226,3.226,0,1,1-4.422-1.113A3.226,3.226,0,0,1,99.212,291.625Zm-1.79-5.083a2.785,2.785,0,0,1-2.052-1.364l-6-10a2.785,2.785,0,0,1-.118-2.724,8.238,8.238,0,0,0-8.72-11.726.7.7,0,0,0-.559.462.708.708,0,0,0,.133.713l3.816,4.406a.728.728,0,0,1-.072,1.026l-3.791,3.278a.713.713,0,0,1-1.026-.072l-3.816-4.411a.708.708,0,0,0-.687-.231.7.7,0,0,0-.513.487,8.233,8.233,0,0,0,7.5,10.69,2.8,2.8,0,0,1,2.339,1.4l5.986,10.013a2.76,2.76,0,0,1,.231,2.452,6.812,6.812,0,1,0,7.345-4.4Z" transform="translate(-39.038 -129.137)" fill="#abbbf9" fill-rule="evenodd"/>
  <path id="Path_29397" data-name="Path 29397" d="M135.481,267.458l-16.824-34.977.718-.344a1.277,1.277,0,0,0,.605-1.693l-.939-1.98a1.241,1.241,0,0,1-.036-1.026,1.221,1.221,0,0,1,.713-.713c2.349-.934,4.386-1.226,5.129-.718a.61.61,0,0,0,.636.056l.734-.349a.636.636,0,0,0,.262-.918c-2.149-3.314-6.837-3.36-10.028-1.847l-7.474,3.55a1.272,1.272,0,0,0-.605,1.693l-1.729.821a1.277,1.277,0,0,0-1.693-.605l-1.723.821a1.272,1.272,0,0,0-.605,1.7l3,6.325a1.282,1.282,0,0,0,1.7.605l1.723-.821a1.282,1.282,0,0,0,.605-1.7l1.723-.816a1.277,1.277,0,0,0,1.7.6l.431-.2L130.316,269.9a2.867,2.867,0,1,0,5.181-2.457Z" transform="translate(-53.092 -110.32)" fill="#abbbf9"/>
</svg>
