<svg width="24" height="24" xmlns="http://www.w3.org/2000/svg">
 <defs>
  <radialGradient fy="0.5" fx="0.5" r="0.01" cy="0.5" cx="0.5" gradientTransform="rotate(-90,0.5,0.5) translate(0.495,0) scale(0.01,1)" spreadMethod="pad" id="svg_8">
   <stop offset="0" stop-color="#000000"/>
   <stop offset="1" stop-color="#ffffff"/>
  </radialGradient>
 </defs>
 <g>
  <title>background</title>
  <rect fill="url(#svg_8)" id="canvas_background" height="26" width="26" y="-1" x="-1"/>
 </g>
 <g>
  <title>Layer 1</title>
  <path stroke="null" opacity="0.8" id="svg_3" fill="#515151" d="m13.69077,15.970127c-1.493182,0 -2.897349,-0.575109 -3.95331,-1.619194c-0.482601,-0.477173 -0.482601,-1.251176 0,-1.728348c0.482601,-0.477173 1.265408,-0.477173 1.748009,0c0.589069,0.582444 1.372313,0.903004 2.205301,0.903004c0.832988,0 1.616232,-0.32056 2.205301,-0.903435l3.289189,-3.252194c1.216101,-1.202423 1.216101,-3.158572 0,-4.360995c-1.216101,-1.202423 -3.194501,-1.202423 -4.410602,0l-1.408094,1.392257c-0.482601,0.477173 -1.265408,0.477173 -1.748009,0c-0.482601,-0.477173 -0.482601,-1.251176 0,-1.728348l1.40853,-1.391825c2.179993,-2.155474 5.726627,-2.155043 7.90662,0c2.179993,2.155474 2.179993,5.662218 0,7.817692l-3.289189,3.252194c-1.056398,1.044085 -2.460128,1.619194 -3.953746,1.619194z"/>
  <path stroke="null" opacity="0.8" id="svg_5" fill="#515151" d="m7.938116,21.866039c-1.471409,0 -2.8551,-0.57317 -3.895664,-1.613733c-2.148205,-2.148205 -2.148205,-5.643122 0,-7.791327l3.241227,-3.241227c2.148205,-2.147775 5.643122,-2.147775 7.791327,0c0.475563,0.475564 0.475563,1.246957 0,1.72252c-0.475563,0.475563 -1.246956,0.475563 -1.722519,0c-1.198368,-1.198368 -3.14792,-1.198368 -4.346288,0l-3.241226,3.241226c-1.198368,1.198369 -1.198368,3.14792 0,4.346288c0.58048,0.58048 1.352303,0.900388 2.173144,0.900388c0.820841,0 1.592664,-0.319479 2.173144,-0.899958l1.387562,-1.387562c0.475563,-0.475563 1.246956,-0.475563 1.722519,0c0.475563,0.475563 0.475563,1.246956 0,1.722519l-1.387561,1.387562c-1.040564,1.040134 -2.423825,1.613303 -3.895664,1.613303z"/>
 </g>
</svg>