<svg xmlns="http://www.w3.org/2000/svg" xmlns:xlink="http://www.w3.org/1999/xlink" width="106" height="51" viewBox="0 0 106 51">
  <defs>
    <clipPath id="clip-path">
      <rect id="Rectangle_811" data-name="Rectangle 811" width="106" height="51" transform="translate(0 0.173)" fill="#1448a6"/>
    </clipPath>
  </defs>
  <g id="Group_1724" data-name="Group 1724" transform="translate(874 498.173) rotate(180)">
    <g id="Group_1722" data-name="Group 1722" transform="translate(768 447)">
      <g id="Group_1721" data-name="Group 1721" clip-path="url(#clip-path)">
        <path id="Path_31760" data-name="Path 31760" d="M869.859,468.531h-87.69l14.526-14.455a4.141,4.141,0,0,0-5.842-5.87l-21.635,21.531s0,0,0,0a4.144,4.144,0,0,0,0,5.862l0,0,21.636,21.531a4.141,4.141,0,0,0,5.842-5.87l-14.526-14.456h87.69a4.141,4.141,0,0,0,0-8.281Zm0,0" transform="translate(-768 -446.999)" fill="#1448a6"/>
      </g>
    </g>
  </g>
</svg>
