<svg id="iconfinder_calendar_285670" xmlns="http://www.w3.org/2000/svg" width="32.53" height="37.865" viewBox="0 0 32.53 37.865">
  <path id="Path_29419" data-name="Path 29419" d="M6.606,1032.4A3.612,3.612,0,0,0,3,1036.006v25.243a3.611,3.611,0,0,0,3.606,3.606H31.849a3.611,3.611,0,0,0,3.606-3.606v-25.243a3.611,3.611,0,0,0-3.606-3.606H6.606Z" transform="translate(-3 -1026.991)" fill="#3969bf"/>
  <path id="Path_29420" data-name="Path 29420" d="M6.606,3A3.606,3.606,0,0,0,3,6.606V31.849a3.606,3.606,0,0,0,3.606,3.606H31.849a3.605,3.605,0,0,0,3.606-3.606V6.606A3.606,3.606,0,0,0,31.849,3H6.606Z" transform="translate(-3 0.606)" fill="#fcfdff"/>
  <path id="Path_29421" data-name="Path 29421" d="M6.606,1031.4A3.612,3.612,0,0,0,3,1035.006v5.409H35.455v-5.409a3.611,3.611,0,0,0-3.606-3.606H6.606Z" transform="translate(-3 -1027.794)" fill="#1448a6"/>
  <path id="Path_29423" data-name="Path 29423" d="M6.8,1A1.8,1.8,0,0,0,5,2.8V8.212a1.8,1.8,0,0,0,3.606,0V2.8A1.8,1.8,0,0,0,6.8,1Z" transform="translate(-1.394 -1)" fill="#3969bf"/>
  <g id="Group_1217" data-name="Group 1217" transform="translate(3.606 0)">
    <path id="Path_29425" data-name="Path 29425" d="M18.8,1029.4a1.751,1.751,0,0,0-1.8,1.8v5.409a1.8,1.8,0,1,0,3.606,0V1031.2A1.751,1.751,0,0,0,18.8,1029.4Z" transform="translate(4.637 -1029.4)" fill="#3969bf"/>
    <path id="Path_29426" data-name="Path 29426" d="M5,1039.4v3.606H8.606V1039.4Zm5.409,0v3.606h3.606V1039.4Zm5.409,0v3.606h3.606V1039.4Zm5.409,0v3.606h3.606V1039.4Zm5.409,0v3.606h3.606V1039.4Z" transform="translate(-5 -1021.369)" fill="#3969bf"/>
    <path id="Path_29427" data-name="Path 29427" d="M5,1042.4v3.606H8.606V1042.4Zm5.409,0v3.606h3.606V1042.4Zm5.409,0v3.606h3.606V1042.4Zm5.409,0v3.606h3.606V1042.4Zm5.409,0v3.606h3.606V1042.4Z" transform="translate(-5 -1018.96)" fill="#3969bf"/>
    <path id="Path_29428" data-name="Path 29428" d="M5,1045.4v3.606H8.606V1045.4Zm5.409,0v3.606h3.606V1045.4Zm5.409,0v3.606h3.606V1045.4Zm5.409,0v3.606h3.606V1045.4Zm5.409,0v3.606h3.606V1045.4Z" transform="translate(-5 -1016.551)" fill="#3969bf"/>
  </g>
  <rect id="Rectangle_348" data-name="Rectangle 348" width="32.431" height="1.802" transform="translate(0.099 12.156)" fill="#3969bf"/>
</svg>
