<svg id="gallup" xmlns="http://www.w3.org/2000/svg" width="197.201" height="49.147" viewBox="0 0 197.201 49.147">
  <path id="Path_29761" data-name="Path 29761" d="M0,.024,197.114,0l.087,49.147L0,49.1Z" fill="#1448a6"/>
  <path id="Path_29762" data-name="Path 29762" d="M26.258,24.846v3.5a7.089,7.089,0,0,1-7.183,7.43c-6.623,0-11.414-6.306-11.414-15.7,0-9.254,5.352-15.423,11.978-15.423a10.47,10.47,0,0,1,10.849,9.392h.987L31.332,4.8h-.844c-.421,1.26-.705,1.681-1.549,1.681-1.41,0-4.649-3.086-10.283-3.086A16.067,16.067,0,0,0,7.525,7.883a16.426,16.426,0,0,0-4.795,12.2c0,5.744,1.833,10.093,5.78,13.315a15.181,15.181,0,0,0,9.862,3.784c4.226,0,8.175-1.819,12.683-4.341V25.405c0-2.665.28-3.222,3.1-3.222h.423V20.921H22.6v1.262c.421,0,.562-.282.987-.282,2.252,0,2.67.562,2.67,2.945m7.19,11.493h8.877v-.98l-.705-.28c-1.977-.143-2.82-.562-2.82-1.685a8.315,8.315,0,0,1,.705-2.665l2.538-6.583H52.892L55.713,32a2.658,2.658,0,0,1,.421,1.4c0,1.262-.846,1.542-2.4,1.685l-1.41.28v.98h12.26v-.98c-2.113,0-2.675-.7-3.526-2.665L49.649,3.114h-.425A9.364,9.364,0,0,1,45.7,6.621l.418.841c.143.277.425.423.425.839s-.282.562-.282.839L39.5,27.088C37.671,32,37.25,34.656,35.274,34.934l-1.829.423v.982Zm8.877-13.461L47.113,9.707l5.213,13.172h-10M65.994,36.339H92.2l2.82-10.372H93.9c-3.949,7.011-6.2,9.395-12.4,9.395H78.4c-3.526,0-4.228-.7-4.228-3.507V8.865c0-3.222.425-3.645,4.228-3.925V3.96h-12.4V5.22h.425c2.816,0,3.1.559,3.1,3.084V32c0,2.522-.284,3.363-3.1,3.363h-.425v.978m31.42,0h26.207l2.82-10.372h-1.131c-3.942,7.011-6.2,9.395-12.4,9.395h-3.1c-3.521,0-4.224-.7-4.224-3.507V8.865c0-3.222.425-3.645,4.224-3.925V3.96h-12.4V5.22h.425c2.816,0,3.1.559,3.1,3.084V32c0,2.522-.282,3.363-3.1,3.363h-.425v.978M129.4,22.463c0,3.782,0,6.727,1.269,9.392,1.695,3.084,5.354,5.326,10.99,5.326,8.034,0,11.978-4.485,11.978-13.031V9.286c0-2.665.423-4.346,3.1-4.346h.844V3.96h-9.442v.98h.71c2.957,0,3.516,1.681,3.516,4.346v14.3c0,8.273-3.1,12.2-9.719,12.2-4.936,0-8.454-3.361-8.454-8.548V7.885c0-2.527.139-2.945,2.675-2.945h.99V3.96H125.879v.98c3.378.28,3.519.7,3.519,3.227v14.3m40.3,9.954V22.463h2.538c9.3,0,13.668-2.665,13.668-9.392,0-6.588-4.508-9.108-14.086-9.108H161.526V5.22h.841c1.833,0,2.677.559,2.677,2.1V32c0,2.522-.284,3.363-3.1,3.363h-.421v.98h12.4v-.98C170.542,35.359,169.693,34.936,169.693,32.417Zm0-11.077V8.3c0-2.522.848-3.363,3.526-3.363,5.075,0,7.893,2.945,7.893,8.13,0,5.888-2.82,8.412-9.3,8.412-.564,0-1.269-.141-2.118-.141" transform="translate(3.687 4.205)" fill="#fff"/>
</svg>
