<svg xmlns="http://www.w3.org/2000/svg" xmlns:xlink="http://www.w3.org/1999/xlink" width="138.688" height="125.571" viewBox="0 0 138.688 125.571">
  <defs>
    <clipPath id="clip-path">
      <rect id="Rectangle_644" data-name="Rectangle 644" width="138.688" height="125.571" transform="translate(0 0)" fill="none"/>
    </clipPath>
    <clipPath id="clip-path-2">
      <path id="Path_30470" data-name="Path 30470" d="M328.649,56.322c.087,3.376-.4,4.541-1.626,6.057s-2.725.2-2.984,1.693.783,1.576.419,2.569-2.747,1.445-2.723,2.408,2.037,1.506,1.8,2.33-3.091,1.767-2.354,3.049,2.3.591,2.778,2.787-1.917,3.319-1.9,4.284,2.458,2.443,1.558,4.3-2.358,1.415-3.94,2.778-.926,2.53-1.4,4.753-2.469,1.491-3.656,2.247-.428,1.365-1.324,2.65-1.945.143-2.947.926-.993,2.037-3.138,1.667-2.665-1.615-3.98-.5c-.806.683-2.643-.076-4.028-2.428-1.126-1.917-1.986.741-4.117.117-2.223-.654-.832-2.923-2.778-4.26-2-1.372-3.2,1.406-5.751.667-2.721-.787-1.463-4.48-5.023-5.742-2.054-.726-2.656-1.852-2.206-3.89s-.054-1.913-1.984-4.075-.556-3.956.661-5.471-.113-1.558-.565-3.941,1.385-2.449,2.124-3.376-1.035-1.235-.633-2.991,2.056-1.708,3.8-2.365,2.26-1.578,2.113-2.947-1.687-3.558.067-5.371,5.01-.091,6.027-.971.828-1.793,1.285-3.347c2.037-6.9,6.444-2.237,8.744-1.684,1.906.457,4.425.7,5.416-1.685.511-1.237,1.339-3.289,3.867-3.106,2.089.15,3.775,1.871,4.669.585s.109-3.215,1.767-4.464,3.8-1.582,10.065,1.043,7.875,7.964,9.305,6.7Z" transform="translate(-276.391 -38.637)" fill="none"/>
    </clipPath>
    <clipPath id="clip-path-3">
      <path id="Path_30478" data-name="Path 30478" d="M321.739,358.82c3.541-11.472,1.852-19.976-1.011-25.317a19.509,19.509,0,0,0-6.3-7.09l-.035.167a38.875,38.875,0,0,0-8.52-5.316l-13.66-6.251a3.5,3.5,0,0,0-.865-.263l.035-.041s-15.79-4.084-29.7,6.688c0,0,2.223,9.076,7.964,15l1.817-1.141L265.563,359.1c8.657,7.535,15.992,12.906,31.024,15.021l7.7-10.154c1.948-2.573,3.764-5.24,5.471-7.964A36.61,36.61,0,0,0,321.739,358.82Z" transform="translate(-261.69 -313.949)" fill="none"/>
    </clipPath>
  </defs>
  <g id="SKAEL_full_video_deck_20200525_old_tired_person_PNG" data-name="SKAEL_full_video_deck_20200525_old tired person PNG" clip-path="url(#clip-path)">
    <path id="Path_30454" data-name="Path 30454" d="M101.042,584.6l21.818,4.6s1.732,7.357-7.038,52.294c0,0-5.927,28.708-10,35.906a16.122,16.122,0,0,1-10.987,8.1L50.38,692.975l5.742-27.692,28.5-.524s5.907.011,6.066-7.57-.294-53.381-.294-53.381Z" transform="translate(-40.393 -479.836)" fill="#e84312"/>
    <path id="Path_30455" data-name="Path 30455" d="M503.631,463.274c-1.769,7.622-4.445,17.084-7.36,25.949a6.545,6.545,0,0,1-8.931,3.919l-.115-.054a6.549,6.549,0,0,1-3.686-7.353c3.173-14.632,6.429-31.846,8.655-35.191.741-1.124,2.778-1.754,5-2.1Z" transform="translate(-393.201 -368.895)" fill="#ffd17a"/>
    <path id="Path_30456" data-name="Path 30456" d="M514.46,509.4,500.713,498.76l-2.493,7.347.722,3.832.245.039-.176.806-.52,2.436c1.076-.335,2.408-1.987,3.1-2.963A53.3,53.3,0,0,0,514.46,509.4Z" transform="translate(-405.286 -409.895)" fill="#12122f"/>
    <path id="Path_30457" data-name="Path 30457" d="M517.7,584.545,491.13,597.166a6.608,6.608,0,0,1-9.013-3.63h0a6.607,6.607,0,0,1,4.334-8.683l30.142-8.763Z" transform="translate(-391.817 -472.903)" fill="#ffd17a"/>
    <path id="Path_30458" data-name="Path 30458" d="M671.711,556.341a7.409,7.409,0,1,1-.715-5.629A7.409,7.409,0,0,1,671.711,556.341Z" transform="translate(-534.783 -449.183)" fill="#ffd17a"/>
    <path id="Path_30459" data-name="Path 30459" d="M653.85,556.769s-2.2-1.928-3.506,1.735-.761,8.092,6.26,10.607Z" transform="translate(-528.775 -456.747)" fill="#ffd17a"/>
    <path id="Path_30460" data-name="Path 30460" d="M623.92,581.037s6.153-2.6,11.872,3.214c0,0,2.508,3.732,10.618,1.713" transform="translate(-507.704 -476.46)" fill="none" stroke="#261a44" stroke-linecap="round" stroke-linejoin="round" stroke-width="13"/>
    <line id="Line_34" data-name="Line 34" y1="153.001" x2="1.269" transform="translate(129.777 109.653)" fill="none" stroke="#261a44" stroke-linecap="round" stroke-linejoin="round" stroke-width="13"/>
    <path id="Path_30461" data-name="Path 30461" d="M660.546,560.728s-3.428,6.366,3.8,9.535c0,0,7.049,2.913,9.331-3.117l.4-3.315L666.9,559.7Z" transform="translate(-536.885 -459.548)" fill="#ffd17a"/>
    <path id="Path_30462" data-name="Path 30462" d="M200.618,554.82s-18.336,18.988-15.882,29.549c0,0-1.574,8.85,22.411,37.112l12.965,17.8s1.595,41.372,4.84,61.929l31.965-7.342s-19.453-64.325-21.8-69.554L217.447,586.27l5.032-20.916Z" transform="translate(-149.68 -455.572)" fill="#e84312"/>
    <path id="Path_30463" data-name="Path 30463" d="M328.649,56.322c.087,3.376-.4,4.541-1.626,6.057s-2.725.2-2.984,1.693.783,1.576.419,2.569-2.747,1.445-2.723,2.408,2.037,1.506,1.8,2.33-3.091,1.767-2.354,3.049,2.3.591,2.778,2.787-1.917,3.319-1.9,4.284,2.458,2.443,1.558,4.3-2.358,1.415-3.94,2.778-.926,2.53-1.4,4.753-2.469,1.491-3.656,2.247-.428,1.365-1.324,2.65-1.945.143-2.947.926-.993,2.037-3.138,1.667-2.665-1.615-3.98-.5c-.806.683-2.643-.076-4.028-2.428-1.126-1.917-1.986.741-4.117.117-2.223-.654-.832-2.923-2.778-4.26-2-1.372-3.2,1.406-5.751.667-2.721-.787-1.463-4.48-5.023-5.742-2.054-.726-2.656-1.852-2.206-3.89s-.054-1.913-1.984-4.075-.556-3.956.661-5.471-.113-1.558-.565-3.941,1.385-2.449,2.124-3.376-1.035-1.235-.633-2.991,2.056-1.708,3.8-2.365,2.26-1.578,2.113-2.947-1.687-3.558.067-5.371,5.01-.091,6.027-.971.828-1.793,1.285-3.347c2.037-6.9,6.444-2.237,8.744-1.684,1.906.457,4.425.7,5.416-1.685.511-1.237,1.339-3.289,3.867-3.106,2.089.15,3.775,1.871,4.669.585s.109-3.215,1.767-4.464,3.8-1.582,10.065,1.043,7.875,7.964,9.305,6.7Z" transform="translate(-224.543 -34.994)" fill="#ffb4d6"/>
    <path id="Path_30464" data-name="Path 30464" d="M473.693,53.733c-1.219,3.149-1.15,4.412-.507,6.251s2.5,1.111,2.237,2.593-1.269,1.221-1.26,2.278,2.1,2.286,1.752,3.186-2.432.73-2.484,1.585,2.315,2.706,1.189,3.664-2.363-.219-3.56,1.687.691,3.771.343,4.669-3.136,1.482-2.917,3.528,1.745,2.128,2.778,3.94.013,2.691-.282,4.945,1.821,2.237,2.684,3.347-.056,1.432.354,2.943,1.784.789,2.461,1.867.25,2.252,2.393,2.625,3.054-.622,3.915.872c.528.917,2.515.821,4.612-.926,1.706-1.424,1.619,1.369,3.838,1.5,2.315.133,1.767-2.474,4.054-3.075,2.349-.617,2.534,2.408,5.186,2.565,2.828.176,2.888-3.725,6.668-3.7,2.18,0,3.125-.85,3.388-2.919s.689-1.78,3.228-3.169,1.861-3.534,1.221-5.371.632-1.426,1.852-3.519-.48-2.778-.861-3.89,1.391-.815,1.606-2.593-1.363-2.3-2.778-3.508-1.595-2.247-1-3.488,2.789-2.778,1.747-5.075-4.688-1.774-5.349-2.945-.174-1.967-.082-3.584c.413-7.181-5.314-4.278-7.666-4.532-1.948-.209-4.4-.828-4.53-3.412-.065-1.337-.152-3.549-2.593-4.228-2.019-.556-4.184.491-4.593-1.021s.98-3.063-.159-4.8-3.041-2.778-9.828-2.408-10.092,4.827-11.017,3.16Z" transform="translate(-381.05 -35.728)" fill="#ffb4d6"/>
    <path id="Path_30465" data-name="Path 30465" d="M408.16,72.237l1.576-4.612a3.132,3.132,0,0,1,1.033-1.456l4.645-3.638A3.149,3.149,0,0,0,416.5,59.2l-1.3-4.521a3.138,3.138,0,0,1,.574-2.839l1.965-2.432a3.138,3.138,0,0,0-.233-4.2l-3.293-3.258a3.132,3.132,0,0,1-.908-2.613l.543-4.41a3.136,3.136,0,0,0-2.273-3.4l-5.431-1.511a3.149,3.149,0,0,1-1.93-1.554l-3.351-6.325a3.138,3.138,0,0,0-3.7-1.528l-4.934,1.528A3.137,3.137,0,0,1,390,21.99l-6.057-2.737a3.136,3.136,0,0,0-3.749.908l-3.4,4.278a3.134,3.134,0,0,1-2.408,1.185l-5.421.089a3.149,3.149,0,0,0-2.937,2.184l-1.893,5.942a3.132,3.132,0,0,1-.98,1.458l-4.388,3.654a3.136,3.136,0,0,0-1.085,2.938l.741,4.373a3.119,3.119,0,0,1-.126,1.548l-1.134,3.3a3.149,3.149,0,0,0,.572,3.047l2.462,2.908a3.137,3.137,0,0,1,.741,2.2l-.333,5.864a3.138,3.138,0,0,0,2.945,3.31l1.973.117a7.576,7.576,0,0,1,5.036,2.191,13.013,13.013,0,0,0,3.373,2.593,10.682,10.682,0,0,0,1.722.524c.813.2,1.5.652,2.326.795A79.131,79.131,0,0,0,388.2,76.623c1.821.226,3.852.333,5.292-.8.9-.709,1.417-1.8,2.295-2.536,2.391-1.991,5.927.119,8.444.926a3.136,3.136,0,0,0,3.932-1.973Z" transform="translate(-290.22 -18.973)" fill="#ffb4d6"/>
    <g id="Group_1344" data-name="Group 1344" transform="translate(51.848 3.643)" clip-path="url(#clip-path-2)">
      <path id="Path_30466" data-name="Path 30466" d="M282.427,86.537s-8.29-15.143-13.458-17.394L258.584,64.82l-8.011,8.194s-3.562,12.754-5.534,13.011-.446,18.336-.446,18.336l6.84,1.239s3.558,1.052,28.708-10.3Z" transform="translate(-250.023 -59.97)" fill="#fff"/>
      <path id="Path_30467" data-name="Path 30467" d="M194.749,133.11s15.2,17.184,28.081,12.248l.741,2.665s-1.582,4.427-34.635,4.975-10.985-16.782-10.985-16.782Z" transform="translate(-190.304 -115.612)" fill="#ffb4d6"/>
      <path id="Path_30468" data-name="Path 30468" d="M337.283,72.524s4.76,15.28,19.2,19.424l-.728,1.3s-15.28-3.862-20.711-17.3S337.283,72.524,337.283,72.524Z" transform="translate(-322.598 -63.325)" fill="#ffb4d6"/>
      <path id="Path_30469" data-name="Path 30469" d="M357.025,83.46s14.89,16.955,18.136,20.879-.28-.556-.28-.556.782,3.243-19.2-19.427Z" transform="translate(-340.994 -75.158)" fill="#ffb4d6"/>
    </g>
    <path id="Path_30471" data-name="Path 30471" d="M313.624,377.391l7.7-10.154a107.774,107.774,0,0,0,15.4-28.32l.393-1.083a2.921,2.921,0,0,0-.506-2.873h0A38.9,38.9,0,0,0,322.9,324.534l-13.652-6.251c-2.186-.995-4.888.506-6.686,2.095l-10.557,10.509h0a14.662,14.662,0,0,0-3.1,6.018L282.6,362.37C291.257,369.9,298.592,375.276,313.624,377.391Z" transform="translate(-229.602 -262.585)" fill="#f6bca3"/>
    <path id="Path_30472" data-name="Path 30472" d="M131.331,351.979c3.467-.232,9.459,8.225,9.833,8.631,1.908,2.078-18.853,11.424-38.06,18.129a6.546,6.546,0,0,1-8.54-4.706c-.011-.043-.02-.083-.03-.124a6.553,6.553,0,0,1,3.6-7.4C111.671,360.138,127.321,352.25,131.331,351.979Z" transform="translate(-76.233 -290.297)" fill="#ffd17a"/>
    <path id="Path_30473" data-name="Path 30473" d="M260.21,358.32s1.936,11.82,5.8,13.6l3.8-1.786-7.322-12.815Z" transform="translate(-211.359 -294.652)" fill="#12122f"/>
    <path id="Path_30474" data-name="Path 30474" d="M160.218,453.494l-.808-7.974,4.914,6.447Z" transform="translate(-129.229 -366.516)" fill="#12122f"/>
    <path id="Path_30475" data-name="Path 30475" d="M109.694,464.807,94.84,439.422a6.609,6.609,0,0,1,2.843-9.285h0a6.609,6.609,0,0,1,9.024,3.575l11.322,29.272Z" transform="translate(-75.885 -353.452)" fill="#ffd17a"/>
    <path id="Path_30476" data-name="Path 30476" d="M291.382,314.709S275.6,310.625,261.69,321.4c0,0,2.223,9.076,7.964,15l6.451-4.06Z" transform="translate(-212.565 -259.314)" fill="#f6bca3"/>
    <g id="Group_1345" data-name="Group 1345" transform="translate(49.125 54.635)" clip-path="url(#clip-path-3)">
      <path id="Path_30477" data-name="Path 30477" d="M504.642,381.24a19.435,19.435,0,0,1,6.3,7.09c2.867,5.342,4.553,13.845,1.011,25.317,0,0-9.553-.307-16.8-5.538l5.034-6.034Z" transform="translate(-451.91 -368.777)" fill="#f6bca3"/>
      <rect id="Rectangle_632" data-name="Rectangle 632" width="75.457" height="1.084" transform="translate(7.702 -6.424) rotate(25.28)" fill="#ff65a7"/>
      <rect id="Rectangle_633" data-name="Rectangle 633" width="75.457" height="1.084" transform="translate(5.206 -1.143) rotate(25.28)" fill="#ff65a7"/>
      <rect id="Rectangle_634" data-name="Rectangle 634" width="75.457" height="1.084" transform="translate(2.714 4.137) rotate(25.28)" fill="#ff65a7"/>
      <rect id="Rectangle_635" data-name="Rectangle 635" width="75.457" height="1.084" transform="translate(0.219 9.416) rotate(25.28)" fill="#ff65a7"/>
      <rect id="Rectangle_636" data-name="Rectangle 636" width="75.457" height="1.084" transform="translate(-2.274 14.696) rotate(25.28)" fill="#ff65a7"/>
      <rect id="Rectangle_637" data-name="Rectangle 637" width="75.457" height="1.084" transform="translate(-4.769 19.979) rotate(25.28)" fill="#ff65a7"/>
      <rect id="Rectangle_638" data-name="Rectangle 638" width="75.457" height="1.084" transform="translate(-7.263 25.259) rotate(25.28)" fill="#ff65a7"/>
      <rect id="Rectangle_639" data-name="Rectangle 639" width="75.457" height="1.084" transform="translate(-9.755 30.54) rotate(25.28)" fill="#ff65a7"/>
      <rect id="Rectangle_640" data-name="Rectangle 640" width="75.457" height="1.084" transform="translate(-12.25 35.82) rotate(25.28)" fill="#ff65a7"/>
    </g>
    <rect id="Rectangle_641" data-name="Rectangle 641" width="40.018" height="27.099" rx="9.37" transform="translate(19.858 99.694) rotate(-26.11)" fill="#372e60"/>
    <rect id="Rectangle_642" data-name="Rectangle 642" width="40.018" height="27.099" rx="5.76" transform="translate(67.173 105.309) rotate(153.89)" fill="#261a44"/>
    <rect id="Rectangle_643" data-name="Rectangle 643" width="32.889" height="22.665" transform="translate(61.833 105.459) rotate(153.89)" fill="#3bbabc"/>
    <path id="Path_30479" data-name="Path 30479" d="M156.507,562.489l-29.531,14.475L117,556.61" transform="translate(-94.674 -457.031)" fill="#96e2b9" opacity="0.38"/>
    <path id="Path_30480" data-name="Path 30480" d="M311.847,524.2a.926.926,0,1,0-1.235-.424A.926.926,0,0,0,311.847,524.2Z" transform="translate(-252.348 -429.191)" fill="#3d376d"/>
    <path id="Path_30481" data-name="Path 30481" d="M109.694,464.807,94.84,439.422a6.609,6.609,0,0,1,2.843-9.285h0a6.609,6.609,0,0,1,9.024,3.575l11.322,29.272Z" transform="translate(-75.885 -353.452)" fill="#ffd17a"/>
    <path id="Path_30482" data-name="Path 30482" d="M181.4,590.823a7.409,7.409,0,1,0,5.552,1.171A7.409,7.409,0,0,0,181.4,590.823Z" transform="translate(-142.223 -484.803)" fill="#ffd17a"/>
    <path id="Path_30483" data-name="Path 30483" d="M188.082,641.809s1.743,2.349-2.015,3.354-8.127.109-10.066-7.1Z" transform="translate(-142.746 -523.395)" fill="#ffd17a"/>
    <path id="Path_30484" data-name="Path 30484" d="M449.086,297.245l4.09-13.654a9.13,9.13,0,0,1-4.858.4,7.786,7.786,0,0,1-4.021-2.862c-.02-.028-1.154-2.319-1.154-2.319l-6.91,12.965a3,3,0,0,1-.252.454v.411a7.5,7.5,0,0,0,12.873,5.116l.078-.08A3.044,3.044,0,0,1,449.086,297.245Z" transform="translate(-354.574 -230.684)" fill="#ffd17a"/>
    <path id="Path_30485" data-name="Path 30485" d="M463,290.48s2.332,8.414,6.892,8.149c4.762-.269,5.9-6.951,5.9-6.951Z" transform="translate(-376.589 -240.192)" fill="#12122f"/>
    <path id="Path_30486" data-name="Path 30486" d="M467.985,123.951c-1.511,8.705-9.511,14.589-17.87,13.139s-13.908-9.685-12.4-18.392,9.314-13.454,17.671-12S469.5,115.245,467.985,123.951Z" transform="translate(-355.788 -90.236)" fill="#ffb4d6"/>
    <path id="Path_30487" data-name="Path 30487" d="M562.383,188.14s10.324,31.487,18.707,32.942c0,0-3.667,1.037-5.31,3.032,0,0-3.26,3.343-17.72-31.127Z" transform="translate(-454.043 -156.807)" fill="#fff"/>
    <path id="Path_30488" data-name="Path 30488" d="M470.758,130.869a62.3,62.3,0,0,1-1.965,13.582c-.854,3.276-3.036,5.518-6.071,7.279l-.556.322a10.111,10.111,0,0,1-10.42-.22h0c-3.165-2.013-5.344-4.6-5.927-8.168a91.021,91.021,0,0,1-.971-13.626s-.759-13.939,13.2-13.224S470.758,130.869,470.758,130.869Z" transform="translate(-361.793 -98.669)" fill="#ffd17a"/>
    <path id="Path_30489" data-name="Path 30489" d="M464.7,121.958a13.182,13.182,0,0,0-3.747-8.64,11.269,11.269,0,0,0-5.986-4.33s-8.579-3.564-13.449,2.549a11.707,11.707,0,0,0-4.5,5.618c-2.061,5.319-.422,8.077-.422,8.077s7.831-3.965,9.724-9.631c2.317,2.708,6.729,4.708,17.157,6.371,1.03,3.7-.754,7.868-.754,7.868S464.853,127.66,464.7,121.958Z" transform="translate(-354.577 -91.473)" fill="#ffb4d6"/>
    <path id="Path_30490" data-name="Path 30490" d="M529.686,230.63l.037,2.593a1.015,1.015,0,0,1-1.187,1.033l-1.385-.269" transform="translate(-428.858 -191.427)" fill="none" stroke="#12122f" stroke-linecap="round" stroke-linejoin="round" stroke-width="2"/>
    <path id="Path_30491" data-name="Path 30491" d="M562.011,191.062s-3-2.313-3.865-1.045c0,0-.556.874,2.087,2.839s3.5,2.223,4.284,1.571S563.491,192.033,562.011,191.062Z" transform="translate(-454.073 -158.027)" fill="#3d376d"/>
    <path id="Path_30492" data-name="Path 30492" d="M481.409,177.689s3.621-1.111,3.986.38c0,0,.22,1.017-2.951,1.924s-4.06.856-4.564-.035S479.682,178.078,481.409,177.689Z" transform="translate(-388.656 -147.967)" fill="#3d376d"/>
    <path id="Path_30493" data-name="Path 30493" d="M497.238,270.087l-8.3-1.439C490.174,265.968,496.495,266.707,497.238,270.087Z" transform="translate(-397.725 -221.079)" fill="#fff"/>
    <path id="Path_30494" data-name="Path 30494" d="M554.536,233s-.619,2.141,2.778,3.019" transform="translate(-451.136 -193.358)" fill="none" stroke="#12122f" stroke-linecap="round" stroke-linejoin="round" stroke-width="2"/>
    <path id="Path_30495" data-name="Path 30495" d="M492.737,223.43s-.139,2.223-3.627,1.908" transform="translate(-397.863 -185.561)" fill="none" stroke="#12122f" stroke-linecap="round" stroke-linejoin="round" stroke-width="2"/>
    <path id="Path_30496" data-name="Path 30496" d="M434.265,192.882c-2.791,1.667-6.46-7.511-3.723-9.34s3.769,2.1,3.769,2.1l.02,2.7.1,3.652.046.822Z" transform="translate(-349.356 -152.664)" fill="#ffd17a"/>
    <path id="Path_30497" data-name="Path 30497" d="M437.87,199.71s1.367-1.978,3.021,2.2" transform="translate(-356.114 -165.852)" fill="none" stroke="#12122f" stroke-linecap="round" stroke-linejoin="round" stroke-width="2"/>
    <path id="Path_30498" data-name="Path 30498" d="M494.23,119.394s4.76,6.912,17.64,9.468c0,0-5.334.028-14.115-9.979C497.755,118.883,495.171,118.014,494.23,119.394Z" transform="translate(-402.035 -100.158)" fill="#fff"/>
    <path id="Path_30499" data-name="Path 30499" d="M460.52,119.76s-2.912,9.916-8.52,12.982c0,0,3.376-1.124,7.477-12.754Z" transform="translate(-367.627 -101.092)" fill="#fff"/>
    <path id="Path_30500" data-name="Path 30500" d="M557.685,219.391a1.411,1.411,0,0,0-.03.346.3.3,0,0,0,.243.3.341.341,0,0,0,.267-.139c.067-.08.115-.172.185-.25a.632.632,0,0,1,.9,0,2.158,2.158,0,0,1,.3.6c.1.206.291.4.513.37a.437.437,0,0,0,.315-.343c.185-.795-.048-2.241-1.022-2.408C558.545,217.717,557.839,218.623,557.685,219.391Z" transform="translate(-453.712 -181.018)" fill="#12122f"/>
    <path id="Path_30501" data-name="Path 30501" d="M494.59,204.81a1.535,1.535,0,0,1-.089.335.3.3,0,0,1-.33.2.334.334,0,0,1-.2-.219c-.037-.1-.05-.2-.091-.3a.63.63,0,0,0-.841-.307,2.22,2.22,0,0,0-.482.47.532.532,0,0,1-.606.169.43.43,0,0,1-.185-.43c.1-.808.8-2.093,1.774-1.924C494.345,202.945,494.706,204.026,494.59,204.81Z" transform="translate(-400.02 -168.743)" fill="#12122f"/>
    <path id="Path_30502" data-name="Path 30502" d="M382.71,34.22s4.278,1.376,4.76,7.635-2.063,3.858-2.063,3.858S384.616,34.5,382.71,34.22Z" transform="translate(-311.17 -31.395)" fill="#ffb4d6"/>
    <path id="Path_30503" data-name="Path 30503" d="M372.18,59.278s2.9-.117,4.588,3.578-.4,2.8-.4,2.8S373.4,59.02,372.18,59.278Z" transform="translate(-302.591 -51.806)" fill="#ffb4d6"/>
    <path id="Path_30504" data-name="Path 30504" d="M670.6,303.19s-1.721,6.177-10.615,7.223-5.6-2.732-5.6-2.732S670.313,305.933,670.6,303.19Z" transform="translate(-532.041 -250.548)" fill="#ffb4d6"/>
  </g>
</svg>
