<svg xmlns="http://www.w3.org/2000/svg" width="124.319" height="36.048" viewBox="0 0 124.319 36.048">
  <g id="hubspot" transform="translate(0)">
    <path id="Path_29398" data-name="Path 29398" d="M.06,27.679H4.395V37.31h9.143V27.679h4.34V51.32h-4.34V41.487H4.395V51.32H.06ZM31.611,43.62a3.591,3.591,0,0,1-7.181,0V33.441H20.318V43.62a7.7,7.7,0,0,0,15.4,0V33.441h-4.11V43.62M47.2,33.561A6.318,6.318,0,0,0,42.359,35.5V27.679H38.235v14.5c0,5.427,3.924,9.143,8.331,9.143A9.028,9.028,0,0,0,55.76,42.44a8.725,8.725,0,0,0-8.564-8.88ZM47.3,47.5a5.066,5.066,0,0,1,0-10.129c2.368,0,4.506,2.335,4.506,5.065S49.667,47.5,47.3,47.5ZM62.687,34.6c0-2.073,1.381-2.731,2.894-2.731a6.178,6.178,0,0,1,3.88,2.039l2.7-3.157a8.517,8.517,0,0,0-6.313-3.059c-4.473,0-7.7,2.6-7.7,6.907,0,7.991,9.834,5.458,9.834,9.932a2.83,2.83,0,0,1-2.893,2.6c-2.435,0-3.224-1.184-4.342-2.434l-2.993,3.091a8.844,8.844,0,0,0,7.1,3.52c4.242,0,7.663-2.631,7.663-6.742,0-8.879-9.833-6.116-9.833-9.964m20.691-1.271c-4.407,0-8.331,3.714-8.331,9.142V57.006h4.124v-7.86a6.321,6.321,0,0,0,4.838,1.941,8.725,8.725,0,0,0,8.564-8.879,9.028,9.028,0,0,0-9.194-8.879Zm.733,13.944a5.067,5.067,0,0,1,0-10.13c2.368,0,4.506,2.335,4.506,5.065S86.479,47.273,84.111,47.273Zm38.819.231c-2.433,0-3.123-1.052-3.123-2.664V37.7h3.781V34.087h-3.781V29.318l-4.175,1.874V45.728c0,3.717,2.564,5.591,6.082,5.591a8.445,8.445,0,0,0,1.646-.131l1.02-3.749c-.46.032-.986.065-1.448.065" transform="translate(-0.06 -20.958)" fill="#1448a6"/>
    <path id="Path_29399" data-name="Path 29399" d="M364.739,16.958a9.07,9.07,0,0,0-3.293-3.272,8.843,8.843,0,0,0-3.331-1.154V8.21a3.191,3.191,0,0,0,1.968-2.988,3.281,3.281,0,1,0-6.563,0,3.153,3.153,0,0,0,1.924,2.988v4.324a9.51,9.51,0,0,0-2.9.908c-1.879-1.427-8.039-6.108-11.643-8.842a3.574,3.574,0,0,0,.151-.961,3.669,3.669,0,1,0-1.769,3.108l.76.577,10.45,7.529a8.76,8.76,0,0,0-1.479,1.732,8.08,8.08,0,0,0-1.344,4.356v.33a9.128,9.128,0,0,0,.571,3.148,8.263,8.263,0,0,0,1.354,2.352l-3.468,3.477a2.8,2.8,0,1,0,1.718,1.793l3.585-3.585a9.212,9.212,0,0,0,1.593.872,9.314,9.314,0,0,0,3.727.783H357a8.927,8.927,0,0,0,7.588-4.214,8.236,8.236,0,0,0,1.294-4.436V21.38a8.7,8.7,0,0,0-1.147-4.422Zm-4.38,7.521A4.559,4.559,0,0,1,357,26.226H356.8a4.536,4.536,0,0,1-2.12-.563,4.9,4.9,0,0,1-1.857-1.692,3.945,3.945,0,0,1-.773-2.3V21.42a4.717,4.717,0,0,1,.545-2.293,4.966,4.966,0,0,1,1.729-1.891,4.232,4.232,0,0,1,2.4-.722h.081a4.854,4.854,0,0,1,2.252.519,4.771,4.771,0,0,1,1.769,1.609,5.119,5.119,0,0,1,.793,2.261c.013.17.02.344.02.51a4.473,4.473,0,0,1-1.271,3.066Z" transform="translate(-252.745 -0.002)" fill="#1448a6"/>
  </g>
</svg>
