<svg xmlns="http://www.w3.org/2000/svg" width="114.077" height="48.471" viewBox="0 0 114.077 48.471">
  <g id="Group_1707" data-name="Group 1707" transform="translate(-193.566 -7093.684)">
    <path id="Path_31723" data-name="Path 31723" d="M877.253,560.574c-.365,0-.365-.073-.219-.219l2.263-3.212c.511-.657.584-.8.657-.8v.438l-.219,3.5c-.073.292-.073.292-.365.292Zm4.307,4.38c-.876-.073-.876-.073-.8-1.825l.365-5.986c.073-1.387.146-2.117.146-2.335,0-.073-.146-.146-.219-.146a3.631,3.631,0,0,1-1.168.511,5.213,5.213,0,0,1-1.022,1.679l-2.92,3.869c-1.241,1.752-2.263,3.066-2.7,3.577a1.525,1.525,0,0,1-1.241.657l-.438.073a.461.461,0,0,0,0,.438,14.606,14.606,0,0,1,1.825-.073,11.8,11.8,0,0,1,1.679.073.274.274,0,0,0,0-.438l-.584-.073c-.292-.073-.365-.146-.365-.219,0-.146.146-.365.73-1.241l1.241-1.825c.292-.438.292-.438.8-.438H879.3c.365,0,.365,0,.365.365l-.146,2.117c-.073.73-.146.949-.219,1.022a.947.947,0,0,1-.657.219l-.511.073a.274.274,0,0,0,0,.438,15.241,15.241,0,0,1,1.971-.073,13.465,13.465,0,0,1,1.825.073c.146-.073.219-.365.073-.438l-.438-.073Z" transform="translate(-677.938 6572.529)" fill="#1448a6" fill-rule="evenodd"/>
    <path id="Path_31724" data-name="Path 31724" d="M891.127,564.614l.073.073c1.168-1.752,2.847-3.5,4.088-3.5a.773.773,0,0,1,.876.876,3.606,3.606,0,0,1-.219,1.095c-.292.8-1.533,3.358-1.533,3.5-.073.146-.073.292,0,.292a3.263,3.263,0,0,0,1.533-1.022c.292-.073.292.073.292.219a4.044,4.044,0,0,1-2.847,1.752.469.469,0,0,1-.365-.366c0-.146,0-.291.365-1.094.365-.73.949-2.336,1.314-3.139a3.231,3.231,0,0,0,.365-1.1c0-.219,0-.438-.219-.438-.438,0-1.386.8-2.335,1.9a22.845,22.845,0,0,0-2.482,4.015c-.146.146-.219.219-.365.219s-.583-.073-.437-.438c.073-.219,1.825-4.745,1.9-4.964s.073-.365-.073-.365a2.458,2.458,0,0,0-1.46.8c-.146,0-.219-.145-.219-.292a3.733,3.733,0,0,1,2.482-1.46.449.449,0,0,1,.438.657l-1.168,2.774Z" transform="translate(-684.147 6570.24)" fill="#1448a6" fill-rule="evenodd"/>
    <path id="Path_31725" data-name="Path 31725" d="M905.652,561.852a.757.757,0,0,1,.8.511,7.1,7.1,0,0,1-2.189,3.431c-.95.876-1.46,1.022-1.606,1.022a.267.267,0,0,1-.292-.292,6.771,6.771,0,0,1,2.117-4.088c.511-.437.729-.583,1.168-.583Zm1.241-.219a.65.65,0,0,0-.365-.291.556.556,0,0,0-.365-.146,3.127,3.127,0,0,0-1.533.511,8.1,8.1,0,0,0-3.577,5.11c0,.438.219.876.73.876.73,0,2.409-1.1,3.577-2.482h.073l-.511,1.46a3.234,3.234,0,0,0-.219.584.486.486,0,0,0,.511.438,4.329,4.329,0,0,0,2.774-1.752.194.194,0,0,0-.219-.219c-.95.8-1.461,1.022-1.679,1.022-.146,0-.219-.073-.146-.365.511-1.386,1.971-4.89,2.19-5.474-.073-.219-.511-.365-.8-.292l-.438,1.022Z" transform="translate(-688.307 6570.448)" fill="#1448a6" fill-rule="evenodd"/>
    <path id="Path_31726" data-name="Path 31726" d="M914.288,564.054c-.146.365-.146.511.073.511.365,0,1.1-.8,1.9-1.606a.193.193,0,0,1,.219.219c-.438.8-1.46,2.117-2.847,2.117-.511,0-.657-.219-.657-.511a10.064,10.064,0,0,1,.365-1.314l2.7-7.518c.365-1.1.219-1.241-.073-1.387l-.292-.073a.223.223,0,0,1,0-.292,8.667,8.667,0,0,1,2.117-.438l.073.073c-.219.584-.365,1.022-.949,2.7l-2.628,7.519Z" transform="translate(-692.49 6572.845)" fill="#1448a6" fill-rule="evenodd"/>
    <path id="Path_31727" data-name="Path 31727" d="M920.817,563.884a20.419,20.419,0,0,1-.219,3.5h.073a15.691,15.691,0,0,0,1.387-2.7,16.126,16.126,0,0,0,.583-2.992c.073-.438.292-.438.438-.438a1.5,1.5,0,0,1,.438.146.38.38,0,0,1,.146.292,12.992,12.992,0,0,1-1.9,4.818,23.739,23.739,0,0,1-2.774,3.8c-1.241,1.387-2.044,1.606-2.555,1.606-.584,0-.876-.292-.876-.73a.654.654,0,0,1,.657-.658.519.519,0,0,1,.438.219.526.526,0,0,0,.511.292,1.344,1.344,0,0,0,.876-.438,4.947,4.947,0,0,0,1.461-2.336,16.1,16.1,0,0,0,.365-3.65c-.073-1.752-.365-2.336-.657-2.336-.365,0-.658.511-.949,1.168-.219.073-.292-.073-.365-.219.365-1.022,1.1-2.044,1.9-2.044.876,0,1.022,1.607,1.022,2.7Z" transform="translate(-693.398 6570.24)" fill="#1448a6" fill-rule="evenodd"/>
    <path id="Path_31728" data-name="Path 31728" d="M932.193,562.132c0,.219-.146.438-.292.438-.073.073-.219,0-.292-.073a1.277,1.277,0,0,0-1.022-.511.642.642,0,0,0-.657.584,2.5,2.5,0,0,0,.584,1.46,2.805,2.805,0,0,1,.584,1.752,2,2,0,0,1-.876,1.533,2.406,2.406,0,0,1-1.606.584.84.84,0,0,1-.8-1.387.468.468,0,0,1,.438,0,2.06,2.06,0,0,0,1.168.657.877.877,0,0,0,.8-.876,3.277,3.277,0,0,0-.657-1.461,2.919,2.919,0,0,1-.583-1.46A2.144,2.144,0,0,1,930,561.694a2.557,2.557,0,0,1,1.241-.512.965.965,0,0,1,.949.949Z" transform="translate(-697.62 6570.24)" fill="#1448a6" fill-rule="evenodd"/>
    <path id="Path_31729" data-name="Path 31729" d="M939.4,561.694a.341.341,0,0,1,.365.365,1.984,1.984,0,0,1-.657,1.095,5.561,5.561,0,0,1-2.19,1.168,6.265,6.265,0,0,1,1.241-1.9,2.02,2.02,0,0,1,1.241-.729Zm.291-.512a3.317,3.317,0,0,0-1.971.8,5.732,5.732,0,0,0-2.482,4.234c0,.8.365,1.679,1.387,1.679a3.569,3.569,0,0,0,2.628-1.46c0-.146-.073-.292-.219-.292-.729.657-1.168.949-1.752.949a.829.829,0,0,1-.8-.876,5.569,5.569,0,0,1,.219-1.46c2.409-.584,4.087-1.387,4.087-2.628a1.11,1.11,0,0,0-1.1-.949Z" transform="translate(-700.303 6570.24)" fill="#1448a6" fill-rule="evenodd"/>
    <path id="Path_31730" data-name="Path 31730" d="M953.608,561.509l-1.46,4.161c-.073.292,0,.365.073.365a5.3,5.3,0,0,0,1.9-1.386c.219,0,.292.073.292.292A5.445,5.445,0,0,1,951.2,567.2a.471.471,0,0,1-.438-.438,2.955,2.955,0,0,1,.219-.876l1.533-4.38h-1.241a.351.351,0,0,1,.146-.438l1.314-.219.949-1.606a.71.71,0,0,1,.657.073l-.511,1.606h1.825a.52.52,0,0,1-.219.584Z" transform="translate(-705.749 6570.938)" fill="#1448a6" fill-rule="evenodd"/>
    <path id="Path_31731" data-name="Path 31731" d="M960.631,555.951c.365-1.022.438-1.241.146-1.46l-.365-.219c0-.073,0-.146.073-.146a6.781,6.781,0,0,1,1.971-.365l.073.073c-.365.876-.876,2.336-1.241,3.212l-1.678,4.745h0v.073a9.35,9.35,0,0,1,2.627-2.628,2.891,2.891,0,0,1,1.607-.657c.73,0,.948.512.948,1.1a9.008,9.008,0,0,1-1.24,3.723,6.1,6.1,0,0,1-1.095,1.241,1.792,1.792,0,0,1-1.241.657c-.511,0-.584-.365-.584-.438a.488.488,0,0,1,.438-.511.269.269,0,0,1,.219.073,2.388,2.388,0,0,0,.438.219c.292,0,.438-.219.657-.8a16.189,16.189,0,0,0,1.241-4.088c0-.292-.146-.511-.365-.511a1.965,1.965,0,0,0-.876.438,9.556,9.556,0,0,0-2.117,2.117,21.415,21.415,0,0,0-2.044,3.284c-.073.146-.146.219-.292.219s-.584-.073-.438-.438l3.138-8.906Z" transform="translate(-708.101 6572.845)" fill="#1448a6" fill-rule="evenodd"/>
    <path id="Path_31732" data-name="Path 31732" d="M973.967,561.694c.365,0,.438.219.438.365a1.983,1.983,0,0,1-.657,1.095,6.551,6.551,0,0,1-2.263,1.168,8.136,8.136,0,0,1,1.241-1.9,2.022,2.022,0,0,1,1.241-.729Zm.365-.512a3.166,3.166,0,0,0-1.971.8,5.731,5.731,0,0,0-2.482,4.234c0,.8.365,1.679,1.314,1.679a3.576,3.576,0,0,0,2.7-1.46c0-.146-.073-.292-.219-.292-.73.657-1.168.949-1.752.949a.829.829,0,0,1-.8-.876,5.607,5.607,0,0,1,.219-1.46c2.409-.584,4.015-1.387,4.015-2.628a1.031,1.031,0,0,0-1.022-.949Z" transform="translate(-712.458 6570.24)" fill="#1448a6" fill-rule="evenodd"/>
    <path id="Path_31733" data-name="Path 31733" d="M988.157,557.334c.511-1.533.511-1.752-.365-1.9l-.292-.073c-.146-.073-.073-.292.073-.365h.876c.291,0,.583.073.949.073l3.066-.073c1.022,0,1.825.073,2.336,0a18.678,18.678,0,0,0-.657,2.117.464.464,0,0,1-.438,0c.073-.876.146-1.24-.584-1.46a8.577,8.577,0,0,0-1.752-.146h-.949c-.438,0-.438.073-.584.584l-1.168,3.431c-.146.365-.073.438.292.438h1.095c1.606,0,1.9-.146,2.263-.8l.292-.511c.073-.073.438-.073.438.073-.073.291-.365.876-.511,1.46a10.876,10.876,0,0,0-.438,1.606.33.33,0,0,1-.438,0V561.2c0-.511-.365-.73-1.679-.73H988.74c-.365,0-.437.073-.583.438l-.73,2.336c-.437,1.46-.511,1.825.366,1.825l.657.073a.448.448,0,0,1-.073.438c-.949-.073-1.533-.073-2.263-.073a16.429,16.429,0,0,0-1.9.073c-.146-.146-.146-.365,0-.438l.511-.073c.8-.073.949-.219,1.46-1.825l1.971-5.913Z" transform="translate(-717.45 6572.411)" fill="#1448a6" fill-rule="evenodd"/>
    <path id="Path_31734" data-name="Path 31734" d="M999.781,566.293c-.146.365-.073.583.146.583a5.74,5.74,0,0,0,1.752-1.314,15.768,15.768,0,0,0,2.92-4.234.827.827,0,0,1,.8.219c-.146.438-1.24,3.066-1.9,4.964-.073.219-.145.365.073.365a4.309,4.309,0,0,0,1.606-1.24c.146,0,.292.073.292.219a4.827,4.827,0,0,1-2.92,2.044.427.427,0,0,1-.365-.584l1.095-2.847V564.4c-1.241,1.46-3.285,3.5-4.161,3.5-.73,0-.8-.657-.511-1.387l1.533-3.8c.146-.292.146-.511,0-.511a4.638,4.638,0,0,0-1.533,1.1c-.219.073-.365-.073-.292-.219a5.345,5.345,0,0,1,2.847-1.9c.219,0,.584.219.511.512l-1.9,4.6Z" transform="translate(-722.432 6570.24)" fill="#1448a6" fill-rule="evenodd"/>
    <path id="Path_31735" data-name="Path 31735" d="M1013.735,561.509l-1.532,4.161c-.073.292,0,.365.145.365a6.939,6.939,0,0,0,1.9-1.386c.146,0,.292.073.219.292a5.546,5.546,0,0,1-3.139,2.263.488.488,0,0,1-.511-.438,1.98,1.98,0,0,1,.292-.876l1.533-4.38h-1.314c0-.146,0-.365.219-.438l1.314-.219.949-1.606a.571.571,0,0,1,.583.073l-.437,1.606h1.752a.406.406,0,0,1-.146.584Z" transform="translate(-726.823 6570.938)" fill="#1448a6" fill-rule="evenodd"/>
    <path id="Path_31736" data-name="Path 31736" d="M1019.7,566.293c-.146.365,0,.583.146.583a4.959,4.959,0,0,0,1.752-1.314,15.769,15.769,0,0,0,2.92-4.234c.365-.073.8.073.8.219-.146.438-1.241,3.066-1.9,4.964-.073.219-.146.365.073.365a4.3,4.3,0,0,0,1.606-1.24c.146,0,.292.073.292.219a4.826,4.826,0,0,1-2.92,2.044.427.427,0,0,1-.365-.584l1.094-2.847V564.4c-1.24,1.46-3.285,3.5-4.161,3.5-.657,0-.8-.657-.511-1.387l1.533-3.8c.146-.292.146-.511,0-.511a4.633,4.633,0,0,0-1.533,1.1c-.219.073-.292-.073-.292-.219a5.35,5.35,0,0,1,2.847-1.9c.219,0,.584.219.511.512l-1.9,4.6Z" transform="translate(-729.427 6570.24)" fill="#1448a6" fill-rule="evenodd"/>
    <path id="Path_31737" data-name="Path 31737" d="M1033.453,562.716l-.657,1.971h.073a23.5,23.5,0,0,1,1.752-2.627c.365-.511.73-.876,1.168-.876.583,0,.657.584.657.8a1.947,1.947,0,0,1-.365.949c-.147.219-.438.219-.511-.073-.073-.438-.146-.657-.365-.657-.146,0-.292.219-.511.511a26.129,26.129,0,0,0-2.847,4.964c-.073.146-.146.219-.292.219s-.657-.073-.511-.438c.146-.584,1.241-3.431,1.679-4.964.073-.219,0-.365-.146-.365-.437,0-.876.438-1.168.876a.268.268,0,0,1-.292-.292c.584-.876,1.168-1.533,1.971-1.533.875,0,.511,1.1.365,1.533Z" transform="translate(-733.912 6570.24)" fill="#1448a6" fill-rule="evenodd"/>
    <path id="Path_31738" data-name="Path 31738" d="M1042.866,561.694a.341.341,0,0,1,.365.365,1.983,1.983,0,0,1-.657,1.095,5.559,5.559,0,0,1-2.19,1.168,7.356,7.356,0,0,1,1.168-1.9,2.316,2.316,0,0,1,1.314-.729Zm.292-.512a3.317,3.317,0,0,0-1.971.8,5.732,5.732,0,0,0-2.482,4.234c0,.8.365,1.679,1.387,1.679a3.569,3.569,0,0,0,2.628-1.46c0-.146-.073-.292-.219-.292-.73.657-1.167.949-1.752.949a.829.829,0,0,1-.8-.876,5.606,5.606,0,0,1,.219-1.46c2.409-.584,4.088-1.387,4.088-2.628a1.11,1.11,0,0,0-1.095-.949Z" transform="translate(-736.609 6570.24)" fill="#1448a6" fill-rule="evenodd"/>
    <path id="Path_31739" data-name="Path 31739" d="M910.037,505.888a14.235,14.235,0,0,0-17.082,0Z" transform="translate(-685.465 6590.643)" fill="#1448a6" fill-rule="evenodd"/>
    <path id="Path_31740" data-name="Path 31740" d="M912.446,519.35a13.789,13.789,0,0,0-.8-2.628l-26.206-.073a16.481,16.481,0,0,0-.8,2.7Z" transform="translate(-682.545 6585.868)" fill="#1448a6" fill-rule="evenodd"/>
    <path id="Path_31741" data-name="Path 31741" d="M891.494,540.828a14.05,14.05,0,0,0,19.052,0Z" transform="translate(-684.953 6577.383)" fill="#1448a6" fill-rule="evenodd"/>
    <path id="Path_31742" data-name="Path 31742" d="M909.388,538a15.431,15.431,0,0,0,2.482-3.358H886.321A31.723,31.723,0,0,0,888.948,538Z" transform="translate(-683.137 6579.553)" fill="#1448a6" fill-rule="evenodd"/>
    <path id="Path_31743" data-name="Path 31743" d="M911.682,531.648a10.216,10.216,0,0,0,.949-2.628H884.746a10.013,10.013,0,0,0,.8,2.628Z" transform="translate(-682.584 6581.526)" fill="#1448a6" fill-rule="evenodd"/>
    <path id="Path_31744" data-name="Path 31744" d="M912.547,525.462v-2.628H884.37c0,.8-.073.73-.073,1.241a8.412,8.412,0,0,0,.073,1.387Z" transform="translate(-682.427 6583.698)" fill="#1448a6" fill-rule="evenodd"/>
    <path id="Path_31745" data-name="Path 31745" d="M911.748,512.462A11.478,11.478,0,0,0,910,510.126H888.972a14.989,14.989,0,0,0-1.751,2.336Z" transform="translate(-683.453 6588.157)" fill="#1448a6" fill-rule="evenodd"/>
    <path id="Path_31746" data-name="Path 31746" d="M898.925,504.616h16.644m-11.022,3.8h10.73m-8.175,4.307h8.249m-7.008,4.015h7.081m-7.3,4.015h7.3m-8.906,3.577h8.906m-12.191,4.088h12.337m-30.878-1.241H872.938m7.884-8.322h-7.811m7.883-4.015h-7.738m9.563-4.6h-9.563m13.87-4.015h-13.8" transform="translate(-678.441 6590.09)" fill="#1448a6" stroke="#004a7f" stroke-miterlimit="2.613" stroke-width="0.75"/>
    <path id="Path_31747" data-name="Path 31747" d="M948.462,507.074c-.073-2.847-3.212-2.044-3.212-2.92,0-.365.073-.438.365-.438,1.46,0,2.92.146,4.38.146,1.168,0,2.409-.146,3.65-.146.657,0,.73.073.73.365,0,.949-2.847.073-2.847,2.993v21.17c0,2.7,3.5,1.825,3.5,2.993,0,.292-.073.365-.73.365-.949,0-2.628-.146-4.307-.146-2.409,0-3.285.146-3.8.146-.73,0-.8-.146-.8-.584,0-1.1,3.066.146,3.066-3.723V507.074Z" transform="translate(-703.816 6590.405)" fill="#1448a6" fill-rule="evenodd"/>
    <path id="Path_31748" data-name="Path 31748" d="M965.741,507.95c0-4.088-3.284-2.774-3.284-3.869,0-.292.365-.365.583-.365,1.241,0,2.336.146,3.5.146,2.628,0,5.183-.146,8.614-.146,6.935,0,13.8,5.256,13.8,12.556,0,9.052-4.234,15.33-15.184,15.33-2.044,0-4.015-.146-6.059-.146-.365,0-4.161.146-4.38.146-.365,0-.438-.146-.438-.365,0-.876,2.847.073,2.847-3.65V507.95Zm3.066,17.957c0,.657-.073,2.555.292,2.847,1.241,1.314,4.233,1.825,6.059,1.825,5.548,0,10.876-2.992,10.876-12.117,0-8.76-5.839-13.724-13.285-13.8-3.8,0-3.942.657-3.942,2.482v18.76Z" transform="translate(-709.854 6590.405)" fill="#1448a6" fill-rule="evenodd"/>
    <path id="Path_31749" data-name="Path 31749" d="M1019.128,503.154c7.446,0,9.49,3.066,10.658,3.066.292,0,.511-.438.949-.438s.438.657.511,3.212c.073,2.117.437,3.358-.219,3.358-.437,0-.729-1.022-.876-1.241-2.482-4.234-5.256-6.789-10.366-6.789-7.665,0-11.388,5.11-11.388,12.409,0,6.862,3.942,13.724,11.534,13.724,6.132,0,10-3.942,10.658-5.694a.614.614,0,0,1,.511-.511c.219-.073.437.219.365.365l-.876,3.942c-.073.219-2.847,3.139-11.753,3.139-8.1,0-13.869-5.548-13.869-13.724s5.84-14.818,14.161-14.818Z" transform="translate(-724.77 6590.603)" fill="#1448a6" fill-rule="evenodd"/>
    <line id="Line_59" data-name="Line 59" x1="8.906" transform="translate(194.497 7112.955)" fill="none" stroke="#004a7f" stroke-miterlimit="2.613" stroke-width="0.75"/>
  </g>
</svg>
