<svg id="jira-1" xmlns="http://www.w3.org/2000/svg" width="32.981" height="32.981" viewBox="0 0 32.981 32.981">
  <path id="Path_29437" data-name="Path 29437" d="M137.589,0H121.707a7.169,7.169,0,0,0,7.169,7.169H131.8V9.994a7.17,7.17,0,0,0,7.165,7.165V1.378A1.378,1.378,0,0,0,137.589,0Z" transform="translate(-105.986 0)" fill="#1448a6"/>
  <path id="Path_29438" data-name="Path 29438" d="M76.754,61.262H60.872a7.169,7.169,0,0,0,7.165,7.165h2.926v2.834a7.169,7.169,0,0,0,7.169,7.16V62.64a1.378,1.378,0,0,0-1.378-1.378Z" transform="translate(-53.009 -53.349)" fill="#1448a6"/>
  <path id="Path_29439" data-name="Path 29439" d="M15.882,122.489H0a7.169,7.169,0,0,0,7.169,7.169H10.1v2.825a7.169,7.169,0,0,0,7.156,7.165V123.867A1.378,1.378,0,0,0,15.882,122.489Z" transform="translate(0 -106.667)" fill="#1448a6"/>
</svg>
