<svg xmlns="http://www.w3.org/2000/svg" width="146.963" height="211.081" viewBox="0 0 146.963 211.081">
  <g id="Skael_Character_Design_20200511-20" transform="translate(0)">
    <ellipse id="Ellipse_22" data-name="Ellipse 22" cx="45.807" cy="8.874" rx="45.807" ry="8.874" transform="translate(20.643 193.333)" fill="#534cd8"/>
    <path id="Path_16226" data-name="Path 16226" d="M53.667,287.763a2.923,2.923,0,0,1-.224-5.832l6.147-.47a50.833,50.833,0,0,1,2.8-24.73,2.922,2.922,0,1,1,5.453,2.1,44.819,44.819,0,0,0-1.984,24.73,2.937,2.937,0,0,1-.533,2.348,2.888,2.888,0,0,1-2.1,1.157l-9.337.7Z" transform="translate(-21.83 -82.843)" fill="#96e2b9"/>
    <path id="Path_16227" data-name="Path 16227" d="M139.621,285.226a2.93,2.93,0,0,1-2.9-2.573l-2.972-24.47a2.923,2.923,0,0,1,5.8-.7l2.657,21.849,6.715-.126a2.888,2.888,0,0,1,2.972,2.86,2.923,2.923,0,0,1-2.86,2.979l-9.351.182Z" transform="translate(-46.632 -82.9)" fill="#96e2b9"/>
    <path id="Path_16228" data-name="Path 16228" d="M83.726,196.258c-11.313.526-30.085-.7-38.63-11.916s-12.246-25.935-13.711-40.417c-1.689-16.669-1.143-26.272-.175-43,.428-7.381.379-6.5,1.521-26.258.28-4.83,1.311-10.753,5.566-12.169,4.626-1.528,8.6.393,9.112,5.608s1.619,10,2.166,15.218S54.4,94.1,59.017,92.594c4.3-1.4,6.245-7.381,6.47-12.267.252-5.573-.869-24.533-.617-30.141.168-3.75.364-7.633,1.907-11s4.8-6.105,8.236-5.608c5.3.7,7.374,7.71,8.285,13.458,1.745,10.984.47,24.87,2.215,35.847.61,3.848,2.334,8.685,6.61,8.187,2.1-.238,7.591-.813,7.97-10.837.554-14.874-3.323-32.7-1.759-47.483.6-5.7,2.523-12.617,7.71-13.655,3.442-.7,6.89,1.78,8.713,5.019s2.355,7.122,2.86,10.879C121.633,65.089,123.989,90.919,128,121c1.619,12.246,3.266,24.772.918,36.884a53.816,53.816,0,0,1-17.391,30.365C102.736,195.781,95.039,195.725,83.726,196.258Z" transform="translate(-15.698 -12.304)" fill="#96e2b9"/>
    <path id="Path_16229" data-name="Path 16229" d="M132.205,9.459c-2.453.266-17.131,24.912-13.956,27.716s26.559-.7,29.573-1.3S135.373,9.136,132.205,9.459Z" transform="translate(-41.866 -9.456)" fill="#96e2b9"/>
    <path id="Path_16230" data-name="Path 16230" d="M85.844,33.419c-2.474.266-17.152,24.9-13.984,27.744s26.566-.7,29.58-1.29S88.991,33.075,85.844,33.419Z" transform="translate(-27.994 -16.621)" fill="#96e2b9"/>
    <path id="Path_16231" data-name="Path 16231" d="M38.076,68.929c-2.446.266-17.124,24.891-13.956,27.737s26.566-.7,29.58-1.29S41.251,68.585,38.076,68.929Z" transform="translate(-13.718 -27.24)" fill="#96e2b9"/>
    <path id="Path_16232" data-name="Path 16232" d="M71.993,155.038s-8.965,13.795-20.033,13.795-20.04-13.795-20.04-13.795,8.972-13.788,20.04-13.788S71.993,155.038,71.993,155.038Z" transform="translate(-16.183 -48.868)" fill="#fff"/>
    <ellipse id="Ellipse_23" data-name="Ellipse 23" cx="6.435" cy="9.673" rx="6.435" ry="9.673" transform="translate(32.419 92.227)" fill="#12122f"/>
    <path id="Path_16233" data-name="Path 16233" d="M154.913,154.985s-7.71,13.795-17.236,13.795-17.236-13.795-17.236-13.795,7.71-13.795,17.236-13.795S154.913,154.985,154.913,154.985Z" transform="translate(-42.655 -48.85)" fill="#fff"/>
    <ellipse id="Ellipse_24" data-name="Ellipse 24" cx="6.435" cy="9.673" rx="6.435" ry="9.673" transform="translate(90.367 92.227)" fill="#12122f"/>
    <path id="Path_16234" data-name="Path 16234" d="M26.576,189.782c-8.979-6.757-7.129,14.11-4.388,16.22s7.192-1.479,7.192-1.479-.757,23.23,15.645,35.714,50.819,7.3,60.562,2.1,18.926-16.171,21.407-26.9.526-11.117,1.276-13.178c5.741,2.4,5.327-4.745,5.117-8.881s-3.932-7.984-5.538-7.01S87.195,190.854,26.576,189.782Z" transform="translate(-12.599 -62.317)" fill="#ff8718"/>
    <path id="Path_16235" data-name="Path 16235" d="M79.007,243.865a103.268,103.268,0,0,1-40.887-8.089,37.871,37.871,0,0,0,12.344,17.286c16.4,12.491,50.819,7.3,60.562,2.1,9.484-5.054,18.428-15.6,21.183-26.054C118.646,238.229,99.8,243.865,79.007,243.865Z" transform="translate(-18.038 -75.143)" fill="#e07012"/>
    <path id="Path_œ16236" data-name="Path 16236" d="M27.8,245.627a2.916,2.916,0,0,1-2.916-2.8c-.645-13.318,3.988-37.354,4.206-38.37a2.917,2.917,0,1,1,5.727,1.115c-.049.245-4.7,24.344-4.087,36.975a2.923,2.923,0,0,1-2.8,3.056Z" transform="translate(-14.061 -67.063)" fill="#ff8718"/>
    <path id="Path_16237" data-name="Path 16237" d="M70.2,246.569a1.4,1.4,0,0,1-.7-2.558c1.97-1.136,1.822-3.568,1.731-4.29a4.906,4.906,0,0,0-1.4-2.467,9.548,9.548,0,0,1-1.605-2.6c-1.164-3.014.259-5.608,1.521-7.837a3.5,3.5,0,0,0-.407-3.876,9.539,9.539,0,0,1-2.741-6.463,4.984,4.984,0,0,1,1.682-3.554,1.4,1.4,0,0,1,1.815,2.054,2.236,2.236,0,0,0-.764,1.647,6.812,6.812,0,0,0,2,4.458,6.253,6.253,0,0,1,.806,7.073c-1.108,2-2.1,3.715-1.36,5.531a7.149,7.149,0,0,0,1.22,1.836,7.444,7.444,0,0,1,1.963,3.862,6.747,6.747,0,0,1-3.084,7.01A1.4,1.4,0,0,1,70.2,246.569Z" transform="translate(-26.552 -70.248)" fill="#12122f"/>
    <path id="Path_16238" data-name="Path 16238" d="M91.758,249.106a1.4,1.4,0,0,1-.7-2.559,4.626,4.626,0,0,0,1.914-4.037,6.309,6.309,0,0,0-1.4-2.909,13.085,13.085,0,0,1-.967-1.479c-1.185-2.1-1.591-3.911,0-6.54a6.29,6.29,0,0,0,1.037-4.016,11.972,11.972,0,0,0-1.318-3.028,13.318,13.318,0,0,1-1.612-3.953c-.357-2-.624-5.65,1.668-7.668a1.4,1.4,0,0,1,1.808,2.054c-.918.813-1.213,2.727-.778,5.124a10.97,10.97,0,0,0,1.325,3.133,14.468,14.468,0,0,1,1.605,3.715,8.77,8.77,0,0,1-1.4,6.042c-.883,1.444-.876,2.145.035,3.757.238.414.526.827.834,1.269a8.6,8.6,0,0,1,1.886,4.276,7.314,7.314,0,0,1-3.28,6.6A1.332,1.332,0,0,1,91.758,249.106Z" transform="translate(-33.096 -70.248)" fill="#12122f"/>
    <path id="Path_16239" data-name="Path 16239" d="M112.121,248.98a1.381,1.381,0,0,1-.68-2.573,4.6,4.6,0,0,0,1.9-3.442c.049-.7-.7-1.682-1.4-2.537a14.4,14.4,0,0,1-1.03-1.4c-1.745-2.8-.61-5.783.063-7.577l.308-.785a8.257,8.257,0,0,0,.792-2.8,7.7,7.7,0,0,0-1.584-3.666,13.977,13.977,0,0,1-1.689-3.28c-1.016-3.3-.287-6.463,1.949-8.411a1.4,1.4,0,0,1,1.822,2.047c-2.04,1.808-1.486,4.514-1.157,5.608a12.077,12.077,0,0,0,1.4,2.636,10.064,10.064,0,0,1,2,5.1,10.234,10.234,0,0,1-.988,3.848c-.1.252-.2.491-.287.7-.862,2.285-1.164,3.792-.308,5.159a12.926,12.926,0,0,0,.841,1.107c.96,1.192,2.166,2.671,2.033,4.465a7.3,7.3,0,0,1-3.266,5.608A1.4,1.4,0,0,1,112.121,248.98Z" transform="translate(-39.039 -70.122)" fill="#12122f"/>
    <path id="Path_16240" data-name="Path 16240" d="M131.321,246.16a1.4,1.4,0,0,1-.7-2.558,4.619,4.619,0,0,0,1.893-4.206c-.1-.764-.6-1.283-1.4-2.1a6.547,6.547,0,0,1-2.033-3,7.144,7.144,0,0,1,.932-5.2,12.73,12.73,0,0,0,.7-1.724,6.848,6.848,0,0,0-.294-4.444,12.617,12.617,0,0,0-.827-1.542,9.232,9.232,0,0,1-1.451-3.575,6.374,6.374,0,0,1,1.745-5.86A1.4,1.4,0,1,1,131.7,214c-1.072.946-.953,2.7-.848,3.414a6.75,6.75,0,0,0,1.086,2.558,16.012,16.012,0,0,1,1,1.872,9.575,9.575,0,0,1,.393,6.309,14.2,14.2,0,0,1-.876,2.1c-.645,1.346-1.03,2.229-.743,3.33a4.282,4.282,0,0,0,1.3,1.731,6.246,6.246,0,0,1,2.2,3.68,7.3,7.3,0,0,1-3.245,6.96A1.4,1.4,0,0,1,131.321,246.16Z" transform="translate(-44.928 -69.84)" fill="#12122f"/>
    <path id="Path_16241" data-name="Path 16241" d="M72.4,213.906c-16.122,0-29.44-.533-30.562-.575a1.357,1.357,0,1,1,.084-2.713c.568,0,57.051,2.278,80.084-2.5a1.4,1.4,0,1,1,.554,2.678C110.426,213.289,89.762,213.906,72.4,213.906Z" transform="translate(-18.755 -68.827)" fill="#12122f"/>
    <path id="Path_16242" data-name="Path 16242" d="M28.343,266.063a2.916,2.916,0,0,1-2.846-2.285,28.479,28.479,0,0,1-.589-4.844,2.919,2.919,0,1,1,5.832-.28,23.867,23.867,0,0,0,.449,3.855,2.909,2.909,0,0,1-2.208,3.5,2.866,2.866,0,0,1-.638.049Z" transform="translate(-14.086 -83.147)" fill="#96e2b9"/>
    <path id="Path_16243" data-name="Path 16243" d="M137.954,216.207c3.238-5.348,19.038-10.942,20.4-11.215s3.365,4.052,3.365,4.052,18.652-12.155,19.676-11.6,13.241,23.082,13.43,24.6-38.272,21.155-40.957,21.73S136.454,218.737,137.954,216.207Z" transform="translate(-47.861 -65.667)" fill="#3bbabc"/>
    <path id="Path_16244" data-name="Path 16244" d="M189.216,235.952a2.719,2.719,0,0,1-.785-.105,2.916,2.916,0,0,1-2.033-3.6c1-3.582-6.925-17.8-21.463-34.522a2.917,2.917,0,1,1,4.4-3.827c.259.287,6.309,7.262,12.148,15.47C192.7,225.059,192.854,230.835,192,233.814A2.909,2.909,0,0,1,189.216,235.952Z" transform="translate(-55.747 -64.314)" fill="#ff8718"/>
    <path id="Path_16245" data-name="Path 16245" d="M196.2,254.019a2.923,2.923,0,0,1-1.346-5.517c.126-.063.175-.1.231-.3a2.916,2.916,0,0,1,5.608,1.563,6.147,6.147,0,0,1-3.168,3.925A2.867,2.867,0,0,1,196.2,254.019Z" transform="translate(-64.439 -80.264)" fill="#96e2b9"/>
    <path id="Path_16246" data-name="Path 16246" d="M39.282,180.019a29.8,29.8,0,1,1,29.8-29.8A29.806,29.806,0,0,1,39.282,180.019Zm0-56.868a27.064,27.064,0,1,0,27.057,27.061A27.064,27.064,0,0,0,39.282,123.151Z" transform="translate(-9.47 -42.636)" fill="#12122f"/>
    <path id="Path_16247" data-name="Path 16247" d="M138.875,180.019a29.8,29.8,0,1,1,29.8-29.8A29.8,29.8,0,0,1,138.875,180.019Zm0-56.868a27.064,27.064,0,1,0,27.064,27.064A27.064,27.064,0,0,0,138.875,123.151Z" transform="translate(-39.255 -42.636)" fill="#12122f"/>
    <path id="Path_16248" data-name="Path 16248" d="M104.953,162.518a1.4,1.4,0,0,1-.974-.4c-5.215-5.25-10.837-.182-11.075.035a1.4,1.4,0,0,1-1.872-2c2.671-2.488,9.211-5.685,14.9.035a1.367,1.367,0,0,1-.974,2.334Z" transform="translate(-33.785 -53.573)" fill="#12122f"/>
  </g>
</svg>
