<svg xmlns="http://www.w3.org/2000/svg" xmlns:xlink="http://www.w3.org/1999/xlink" width="161" height="123" viewBox="0 0 161 123">
  <defs>
    <clipPath id="clip-path">
      <rect id="Rectangle_645" data-name="Rectangle 645" width="161" height="123" transform="translate(0.249 -0.463)" fill="none"/>
    </clipPath>
  </defs>
  <g id="Mask_Group_17" data-name="Mask Group 17" transform="translate(-0.249 0.463)" clip-path="url(#clip-path)">
    <path id="Path_30505" data-name="Path 30505" d="M149.39,170.322a320.835,320.835,0,0,1,15.469,75.709l9.874-1.241s-.135-46.053-7.773-84.68Z" transform="translate(-123.012 -77.924)" fill="#ffc8e1"/>
    <path id="Path_30506" data-name="Path 30506" d="M176.053,255.4s10.321,14.465-7.173,23.774a2.751,2.751,0,0,1-3.156-.11l-.084-.084c-.751-.751-.456-2.009.624-2.912,2.616-2.2,6.363-6.574,2.211-11.241,0,0-2.7.844-2.928,5.064a2.726,2.726,0,0,1-2.625,2.186h0a1.468,1.468,0,0,1-1.688-1.122c-.414-2.709-.743-9.52,5.3-13.891Z" transform="translate(-124.829 -92.795)" fill="#ffc8e1"/>
    <path id="Path_30507" data-name="Path 30507" d="M152.044,153.77s-25.318,21.385-28.289,39.445,13.587,23.225,26.668.886S152.044,153.77,152.044,153.77Z" transform="translate(-118.956 -76.935)" fill="#e84312"/>
    <path id="Path_30508" data-name="Path 30508" d="M164.2,247.286l54.155-3.156s9.79,25.436,13.073,45.285c4.017,24.246,4.422,58.113,4.422,91.2,0,0,.709.186-12.347.97,0,0-21.385-49.724-32.669-93.06a518.838,518.838,0,0,0-24.575,91.145s0,1.857-11.815,2.532C154.446,382.189,133.07,303.011,164.2,247.286Z" transform="translate(-122.684 -91.036)" fill="#58586d"/>
    <path id="Path_30509" data-name="Path 30509" d="M242.642,153.77s25.369,21.385,28.3,39.445-13.587,23.225-26.668.886S242.642,153.77,242.642,153.77Z" transform="translate(-136.841 -76.935)" fill="#e84312"/>
    <path id="Path_30510" data-name="Path 30510" d="M158.732,151.572s14.347-8.752,35.335-8.355,35.108,7.427,38.821,10.178-4.971,91.989-4.971,91.989-38.12,2.051-70.89-3.865c0,0-.354-25.529-1.19-47.075A232.188,232.188,0,0,1,158.732,151.572Z" transform="translate(-123.999 -75.285)" fill="#c1b6fc"/>
    <path id="Path_30511" data-name="Path 30511" d="M208.061,139.7l-.844-15.849a17.554,17.554,0,0,1-5.587,2.532,8.549,8.549,0,0,1-5.275-1.08l-3.1-1.806-.928,16.161h0l-4.65,1.848s2.92,4.988,12.659,4.481,12.8-4.785,12.8-4.785Z" transform="translate(-128.987 -72.21)" fill="#be7f41"/>
    <path id="Path_30512" data-name="Path 30512" d="M191.84,123.74s4.954,6.085,10.769,5.215a7.914,7.914,0,0,0,6.946-6.026Z" transform="translate(-129.637 -72.121)" fill="#12122f"/>
    <path id="Path_30513" data-name="Path 30513" d="M215.074,98.537c0,3.7-.422,11.435-3.08,16.035-2.49,4.312-6.616,6.633-12.034,6.751s-9.435-1.688-12.659-7.241S184.22,98.6,184.22,98.6s1-14.457,16.263-14.457C216.551,84.148,215.074,98.537,215.074,98.537Z" transform="translate(-128.447 -66.067)" fill="#be7f41"/>
    <path id="Path_30514" data-name="Path 30514" d="M196.03,104.109a1.409,1.409,0,1,1-.669-1.311,1.409,1.409,0,0,1,.669,1.311Z" transform="translate(-129.851 -68.947)" fill="#12122f"/>
    <path id="Path_30515" data-name="Path 30515" d="M211.479,104.129a1.4,1.4,0,1,1-.41-1A1.409,1.409,0,0,1,211.479,104.129Z" transform="translate(-132.262 -68.967)" fill="#12122f"/>
    <path id="Path_30516" data-name="Path 30516" d="M201.76,106.92v2.819a.743.743,0,0,0,.844.743l1.013-.211" transform="translate(-131.185 -69.622)" fill="none" stroke="#000" stroke-linecap="round" stroke-linejoin="round" stroke-width="0.51"/>
    <path id="Path_30517" data-name="Path 30517" d="M206.8,98.055l8.11,2.093s-.346-2.27-3.722-3.1S206.8,98.055,206.8,98.055Z" transform="translate(-131.971 -68.049)" fill="#12122f"/>
    <path id="Path_30518" data-name="Path 30518" d="M195.81,97.915l-8.11,2.093s.371-2.27,3.688-3.1S195.81,97.915,195.81,97.915Z" transform="translate(-128.991 -68.027)" fill="#12122f"/>
    <path id="Path_30519" data-name="Path 30519" d="M216.864,89.622c-.135,4.38-2.422,12.946-3.232,12.608s0-5.781,0-7.418l-2.076-4.448,2.346-1.772a29.065,29.065,0,0,0-14.44-2.945c-8.861.405-13.857,2.988-13.857,2.988l2.27,1.688c-.152,1.359-2.819,6.65-2.819,6.65-.118.608-.414,5-.844,4.878-.844-.228-2.16-8.2-2.751-9.6a8.262,8.262,0,0,1-.506-3.62c.219-3.1,2.118-7.393,9.764-10.313C200,74.769,215.244,77,216.788,88.187a7.875,7.875,0,0,1,.076,1.435Z" transform="translate(-127.933 -64.916)" fill="#000018"/>
    <path id="Path_30520" data-name="Path 30520" d="M215.359,89.886l-3.5.785.844-1.848a22.98,22.98,0,0,0-12.963-3.106c-7.958.422-12.448,3.156-12.448,3.156l.92,1.8-5.064-1.8c-.5-3.013,1.409-8.76,8.279-11.815,8.346-3.755,22.887-1.468,23.9,11.385A13.174,13.174,0,0,1,215.359,89.886Z" transform="translate(-128.268 -64.707)" fill="#000018"/>
    <path id="Path_30521" data-name="Path 30521" d="M207.09,115.21a3.013,3.013,0,0,1-3.19,1.03" transform="translate(-131.519 -70.916)" fill="none" stroke="#000" stroke-linecap="round" stroke-linejoin="round" stroke-width="0.51"/>
    <path id="Path_30522" data-name="Path 30522" d="M212.473,143.938s-10.262,56.991-4.034,85.372a5.545,5.545,0,0,0,5.6,4.355c8.237-.27,25.478-.9,27.6-1.544,2.8-.844,8.38-68.612,1.1-79.887C242.736,152.234,230.812,143.618,212.473,143.938Z" transform="translate(-131.914 -75.399)" fill="#ffd17a"/>
    <path id="Path_30523" data-name="Path 30523" d="M221.37,143.732s-4.22,6.119-9.511,8.937a17.362,17.362,0,0,1-.219-2.169v-1.131a18.216,18.216,0,0,1,.118-2.186,12.4,12.4,0,0,1,.194-1.317c.532-2.895,1.916-5.908,5.19-7.317a5.063,5.063,0,0,1,1.848,1.013,5.907,5.907,0,0,1,.7.684,7.384,7.384,0,0,1,.9,1.308,7.1,7.1,0,0,1,.439.987A8.252,8.252,0,0,1,221.37,143.732Z" transform="translate(-132.727 -74.559)" fill="#e84312"/>
    <path id="Path_30524" data-name="Path 30524" d="M183.188,143.937s5.73,56.248-.844,84.554a5.646,5.646,0,0,1-5.739,4.363c-7.038-.287-20.128-.895-21.765-1.511-2.262-.844-3.7-69.734,2.92-81.017A48.442,48.442,0,0,1,183.188,143.937Z" transform="translate(-123.567 -75.397)" fill="#ffd17a"/>
    <path id="Path_30525" data-name="Path 30525" d="M178.67,143.732s4.22,6.119,9.511,8.937a18.626,18.626,0,0,0,.211-2.169c0-.346,0-.726,0-1.131a20.139,20.139,0,0,0-.118-2.186c-.051-.43-.11-.844-.194-1.317-.54-2.895-1.924-5.908-5.19-7.317a5.063,5.063,0,0,0-1.857,1.013,7.513,7.513,0,0,0-.7.684,6.947,6.947,0,0,0-.895,1.308,6.227,6.227,0,0,0-.439.987,7.31,7.31,0,0,0-.329,1.19Z" transform="translate(-127.581 -74.559)" fill="#e84312"/>
    <path id="Path_30526" data-name="Path 30526" d="M235.13,205.55a32.55,32.55,0,0,1,9.106,18.828" transform="translate(-136.393 -85.016)" fill="none" stroke="#000" stroke-linecap="round" stroke-linejoin="round" stroke-width="1"/>
    <circle id="Ellipse_105" data-name="Ellipse 105" cx="5.376" cy="5.376" r="5.376" transform="translate(58.709 30.673)" fill="none" stroke="#fff" stroke-miterlimit="10" stroke-width="1.08"/>
    <circle id="Ellipse_106" data-name="Ellipse 106" cx="5.376" cy="5.376" r="5.376" transform="translate(71.917 30.673)" fill="none" stroke="#fff" stroke-miterlimit="10" stroke-width="1.08"/>
    <path id="Path_30527" data-name="Path 30527" d="M200.44,105.347a1.747,1.747,0,0,1,2.456,0" transform="translate(-130.979 -69.299)" fill="none" stroke="#fff" stroke-miterlimit="10" stroke-width="1.08"/>
    <line id="Line_35" data-name="Line 35" x1="2.616" y1="0.042" transform="translate(56.093 36.006)" fill="none" stroke="#fff" stroke-miterlimit="10" stroke-width="1.08"/>
    <line id="Line_36" data-name="Line 36" y1="0.034" x2="3.84" transform="translate(82.677 36.015)" fill="none" stroke="#fff" stroke-miterlimit="10" stroke-width="1.08"/>
    <path id="Path_30528" data-name="Path 30528" d="M185.685,112.435c-2.684,2.321-8.338-6.861-5.739-9.334s4.439,1.553,4.439,1.553l.532,2.9.785,3.9.2.844Z" transform="translate(-127.676 -68.901)" fill="#be7f41"/>
    <path id="Path_30529" data-name="Path 30529" d="M181.45,106.786s1.106-2.371,3.663,1.8" transform="translate(-128.015 -69.497)" fill="none" stroke="#000" stroke-linecap="round" stroke-linejoin="round" stroke-width="0.52"/>
    <path id="Path_30530" data-name="Path 30530" d="M217.849,111.983c2.726,2.279,8.22-7,5.578-9.427s-4.414,1.62-4.414,1.62l-.473,2.912L217.824,111l-.194.886Z" transform="translate(-133.662 -68.82)" fill="#be7f41"/>
    <path id="Path_30531" data-name="Path 30531" d="M222.51,106.259s-1.139-2.355-3.62,1.865" transform="translate(-133.858 -69.417)" fill="none" stroke="#000" stroke-linecap="round" stroke-linejoin="round" stroke-width="0.52"/>
    <path id="Path_30532" data-name="Path 30532" d="M126.252,212.937c2.321,3.874,9.908,8.3,16.592,9.722,2.971.633,5.747.684,7.815-.16,0,0,1.089-10.828,7.334-16.794a6.9,6.9,0,0,0-1.072-1.9c-1.8-2.371-6.27-5.992-16.634-4.912C125.205,200.48,122.9,207.392,126.252,212.937Z" transform="translate(-119.191 -83.946)" fill="#e84312"/>
    <path id="Path_30533" data-name="Path 30533" d="M164.026,205.55a32.652,32.652,0,0,0-9.106,18.828" transform="translate(-123.875 -85.016)" fill="none" stroke="#000" stroke-linecap="round" stroke-linejoin="round" stroke-width="1"/>
    <path id="Path_30534" data-name="Path 30534" d="M232.354,165.272s-10.845-2.684-11.157,2.937,4.726,2.937,8.439,4.827c2.768,1.418-6.262,1.266-6.659,1.106s-1.106,5.384-1.106,5.384,11.815,2.768,13.385-4.279-9.19-4.988-9.283-6.329,6.017-.844,6.017-.844Z" transform="translate(-134.216 -78.629)" fill="#12122f"/>
    <path id="Path_30535" data-name="Path 30535" d="M25.778,4.088.289,5.9,0,1.822,25.489.005A2.052,2.052,0,0,1,27.68,1.9h0a2.052,2.052,0,0,1-1.9,2.191Z" transform="matrix(0.998, 0.07, -0.07, 0.998, 127.958, 116.5)" fill="#9b9ba8"/>
    <path id="Path_30536" data-name="Path 30536" d="M74.123,38.461l-58.085,4.2a3.142,3.142,0,0,1-3.131-1.966L.157,6.965a2.212,2.212,0,0,1,1.9-3.025L57.141.007a3.131,3.131,0,0,1,3.121,1.966Z" transform="matrix(0.998, 0.07, -0.07, 0.998, 66.732, 78.844)" fill="#9b9ba8"/>
    <path id="Path_30537" data-name="Path 30537" d="M8.694,3.337A4.414,4.414,0,1,1,3.351.131,4.414,4.414,0,0,1,8.694,3.337Z" transform="matrix(0.998, 0.07, -0.07, 0.998, 95.076, 95.657)" fill="#e5f4f9"/>
    <path id="Path_30538" data-name="Path 30538" d="M245.556,117.215s-5.334.844-7.494-2.886c-3.376-5.95,2.228-16.4-.549-17.453-2.253-.844-2.777,2.726-2.675,2.979" transform="translate(-136.345 -68.035)" fill="none" stroke="#c1b6fc" stroke-linecap="round" stroke-linejoin="round" stroke-width="1.74"/>
    <path id="Path_30539" data-name="Path 30539" d="M265,124.993s3.739,2.869,7.081,1.688c5.283-1.907,5.528-10.431,8.144-9.806,2.127.506.954,2.8.76,2.9" transform="translate(-141.055 -71.171)" fill="none" stroke="#c1b6fc" stroke-linecap="round" stroke-linejoin="round" stroke-width="1.74"/>
    <path id="Path_30540" data-name="Path 30540" d="M246.3,141.24s-2.135,8.439-2.532,8.507-2.287-1.274-3.426-1" transform="translate(-137.206 -74.979)" fill="none" stroke="#c1b6fc" stroke-linecap="round" stroke-linejoin="round" stroke-width="1.74"/>
    <path id="Path_30541" data-name="Path 30541" d="M255.1,143.87s-2.135,8.439-2.532,8.507-2.287-1.274-3.426-1" transform="translate(-138.579 -75.389)" fill="none" stroke="#c1b6fc" stroke-linecap="round" stroke-linejoin="round" stroke-width="1.74"/>
    <path id="Path_30542" data-name="Path 30542" d="M257.418,108.881c-6.405-2.3-24.474,14.954-24.769,20.643-.354,6.076,8.8,8,15.115,10.127,5.908,2.017,10.718,4.523,13.849,2.886C268.811,138.765,261.257,110.265,257.418,108.881Z" transform="translate(-136.004 -69.896)" fill="#c1b6fc"/>
    <line id="Line_37" data-name="Line 37" x1="11.781" y2="2.692" transform="translate(90.72 30.082)" fill="none" stroke="#fff" stroke-linecap="round" stroke-linejoin="round" stroke-width="0.82"/>
    <path id="Path_30543" data-name="Path 30543" d="M223.694,99.22l1.055,1.139,1.409-.65-.76,1.35,1.055,1.139-1.528-.3-.751,1.359-.186-1.544-1.519-.3,1.4-.65Z" transform="translate(-134.417 -68.421)" fill="#3bbabc"/>
    <path id="Path_30544" data-name="Path 30544" d="M252.18,107.3l12.71,5-.11-15.807Z" transform="translate(-139.054 -67.995)" fill="#3bbabc"/>
    <path id="Path_30545" data-name="Path 30545" d="M244.246,128.837c2.346-1.2,2.675-3.831.582-4.675-3.08-1.241-10.2,3.266-13.8-1.612C231,122.508,237.6,131.783,244.246,128.837Z" transform="translate(-135.753 -72.062)" fill="#12122f" stroke="#12122f" stroke-linecap="round" stroke-linejoin="round" stroke-width="0.82"/>
    <path id="Path_30546" data-name="Path 30546" d="M249.369,129.99c-1.308-2.3-.143-4.667,2.076-4.22,3.258.65,6.751,8.321,12.423,6.22C263.867,131.981,253.284,136.133,249.369,129.99Z" transform="translate(-138.529 -72.556)" fill="#12122f" stroke="#12122f" stroke-linecap="round" stroke-linejoin="round" stroke-width="0.82"/>
    <path id="Path_30547" data-name="Path 30547" d="M244.22,112.046a2.658,2.658,0,0,1,3.739,1.241" transform="translate(-137.812 -70.369)" fill="none" stroke="#12122f" stroke-linecap="round" stroke-linejoin="round" stroke-width="0.82"/>
    <path id="Path_30548" data-name="Path 30548" d="M258,116.147a2.658,2.658,0,0,1,3.73,1.249" transform="translate(-139.962 -71.01)" fill="none" stroke="#12122f" stroke-linecap="round" stroke-linejoin="round" stroke-width="0.82"/>
    <path id="Path_30549" data-name="Path 30549" d="M256.99,106.83l.658.709.878-.405-.473.844.65.709-.945-.194-.464.844-.118-.954-.945-.194.878-.405Z" transform="translate(-139.686 -69.608)" fill="#12122f"/>
    <path id="Path_30550" data-name="Path 30550" d="M263.99,100.3l.65.709.878-.405-.473.844.658.709-.945-.186-.473.844-.11-.962-.945-.186.869-.405Z" transform="translate(-140.778 -68.589)" fill="#12122f"/>
    <path id="Path_30551" data-name="Path 30551" d="M263.68,109.72l.658.709.869-.405-.473.844.658.7-.945-.186-.473.844-.11-.962-.945-.186.869-.405Z" transform="translate(-140.73 -70.06)" fill="#12122f"/>
    <path id="Path_30552" data-name="Path 30552" d="M261.569,105.174a1.189,1.189,0,0,0-.329.2,1.19,1.19,0,0,1,.844,2.093,1.527,1.527,0,0,0,.371-.076,1.2,1.2,0,0,0,.658-1.553,1.182,1.182,0,0,0-1.544-.667Z" transform="translate(-140.468 -69.337)" fill="#12122f"/>
    <path id="Path_30553" data-name="Path 30553" d="M225.975,146.739a7.831,7.831,0,0,1-2.228-.329,2.531,2.531,0,0,1-1.114-.7,1,1,0,0,1-.219-.911,1.122,1.122,0,0,1,.5-.633,3.747,3.747,0,0,1,2.27-.43c.751,0,1.435.456,2.042.16a2.177,2.177,0,0,0,.937-1.688c.127-.692.186-1.392.3-2.11a5.191,5.191,0,0,1,.27-1.08,3.536,3.536,0,0,1,.287-.523c.152-.152.262-.346.473-.43a1.35,1.35,0,0,1,.633-.245.92.92,0,0,1,.439.059.844.844,0,0,1,.354.329,2.253,2.253,0,0,1,.186,1.257,20.778,20.778,0,0,1-.312,2.144c-.127.692-.363,1.359-.414,2.017a1.063,1.063,0,0,0,.194.844,3.1,3.1,0,0,0,.911.236,10.2,10.2,0,0,1,2.211.5,1.686,1.686,0,0,1,.312.169,1.105,1.105,0,0,1,.414.456.886.886,0,0,1,0,.734.844.844,0,0,1-.186.262l-.177.143a2.3,2.3,0,0,1-.447.186,6.04,6.04,0,0,1-1.207.152,20.677,20.677,0,0,1-2.186-.084C228.811,147.068,227.385,146.891,225.975,146.739Zm.076-.928c1.409.076,2.827.1,4.22.068.692,0,1.392,0,2.059-.068a5.726,5.726,0,0,0,.895-.1h.051l-.068.068a.845.845,0,0,0-.11.16.591.591,0,0,0,0,.481c.076.143.084.093.051.076a1.027,1.027,0,0,0-.118-.084,12.922,12.922,0,0,0-1.747-1.055,4.822,4.822,0,0,0-.481-.2,1.689,1.689,0,0,1-.574-.312,2,2,0,0,1-.414-1.156,8.3,8.3,0,0,1,.084-2.2c.127-.7.312-1.384.388-2.042a2.144,2.144,0,0,0,0-.844c0-.051,0-.051-.1-.059a.76.76,0,0,0-.354.1c-.506.219-.76.928-.937,1.578s-.279,1.376-.447,2.076a2.641,2.641,0,0,1-1.106,1.84,2.412,2.412,0,0,1-.549.16h-.565a6.045,6.045,0,0,0-1.03,0,3.114,3.114,0,0,0-1.781.582c-.093.093-.135.194-.118.211s0,0,.084.059a2.185,2.185,0,0,0,.726.312,13.337,13.337,0,0,0,1.941.354Z" transform="translate(-134.403 -74.444)" fill="#e84312"/>
    <path id="Path_30554" data-name="Path 30554" d="M222.54,124.049a8.01,8.01,0,0,0,.059,3.485,2.65,2.65,0,0,1-.059,1.021.9.9,0,0,1-.844.667,1.274,1.274,0,0,1-.92-.515,4.517,4.517,0,0,1-.557-.844,6.878,6.878,0,0,1-.734-1.84,4.126,4.126,0,0,1-.135-1.046,2.633,2.633,0,0,1,.245-1.122,4.33,4.33,0,0,1,1.359-1.755,3.174,3.174,0,0,1,.338-.177l.253-.076a1.021,1.021,0,0,1,.751.143,1,1,0,0,1,.312.321,1.258,1.258,0,0,1,.152.532,3.275,3.275,0,0,1-.219,1.207Zm-1.241-.354a1.966,1.966,0,0,0,.042-.667c0-.059,0,0,0,.076s.068.127.143.16a.845.845,0,0,0,.194.076h.051a3.916,3.916,0,0,0-1.072,1.072,1.789,1.789,0,0,0-.3.658,3.292,3.292,0,0,0-.068.844,6.093,6.093,0,0,0,.338,1.755,3.907,3.907,0,0,0,.422.785.945.945,0,0,0,.633.43.582.582,0,0,0,.515-.447,1.857,1.857,0,0,0-.068-.844c-.278-1.148-1.106-2.245-.827-3.933Z" transform="translate(-133.93 -71.949)" fill="#e84312"/>
    <path id="Path_30555" data-name="Path 30555" d="M225.181,133.486v-.068c0-.017-.068,0-.118.076a1.325,1.325,0,0,0-.194.549,4.692,4.692,0,0,0,.118,1.308,3.722,3.722,0,0,0,.776,1.688.39.39,0,0,0,.371-.2,1.2,1.2,0,0,0,.245-.557,1.317,1.317,0,0,0-.346-1.182,7.482,7.482,0,0,1-.6-1.232,1.03,1.03,0,0,0-.245-.414s-.042,0,0,.042h0Zm-.228-1.1a1.69,1.69,0,0,1,.287,0,1.257,1.257,0,0,1,.346.068.954.954,0,0,1,.473.456,1.814,1.814,0,0,1,.177.844,5.451,5.451,0,0,0,0,1.291,3.224,3.224,0,0,1,.346,1.232,2.954,2.954,0,0,1-.042.709.979.979,0,0,1-.506.717.937.937,0,0,1-1.03-.186,1.536,1.536,0,0,1-.422-.734,3.89,3.89,0,0,1,0-1.426,3.249,3.249,0,0,0-.118-1.291,2.827,2.827,0,0,1-.143-.76,1,1,0,0,1,.143-.515.928.928,0,0,1,.49-.405Z" transform="translate(-134.706 -73.597)" fill="#e84312"/>
    <path id="Path_30556" data-name="Path 30556" d="M230.781,104.788a.4.4,0,0,0-.321-.059,1.519,1.519,0,0,0-.574.287A4.9,4.9,0,0,0,228.8,106.2a6.456,6.456,0,0,0-1.156,3.139,2.625,2.625,0,0,0,.371,1.612,4.278,4.278,0,0,1,.844,1.688,1.426,1.426,0,0,1-.194,1.021c-.186.3-.414.506-.549.717a1.063,1.063,0,0,0-.228.591.489.489,0,0,0,.245.38,1.148,1.148,0,0,0,1.139,0c.338-.194.49-.523.574-1.106a11.106,11.106,0,0,0,0-3.376c0-.3-.068-.591-.084-.9a4.117,4.117,0,0,1,.076-.962,5.537,5.537,0,0,1,.717-1.688,6.2,6.2,0,0,0,.726-1.468A.954.954,0,0,0,230.781,104.788Zm.734-.844a2.4,2.4,0,0,1,.625.928,1.764,1.764,0,0,1,0,1.182,7.088,7.088,0,0,1-1.013,1.6,4.971,4.971,0,0,0-.844,1.435,3.57,3.57,0,0,0,.135,1.637,10.971,10.971,0,0,1,.346,3.629,3.046,3.046,0,0,1-.245,1,1.924,1.924,0,0,1-.844.844,2.017,2.017,0,0,1-2.194-.211,1.342,1.342,0,0,1-.481-1.072,1.806,1.806,0,0,1,.5-.987c.481-.489.886-.709.844-1.241a4.059,4.059,0,0,0-.565-1.578,4.059,4.059,0,0,1-.532-1.739,6.954,6.954,0,0,1,.844-3.545,5.908,5.908,0,0,1,1.122-1.544,2.532,2.532,0,0,1,.945-.574,1.376,1.376,0,0,1,1.359.3Z" transform="translate(-135.124 -69.111)" fill="#e84312"/>
    <ellipse id="Ellipse_107" data-name="Ellipse 107" cx="0.456" cy="0.439" rx="0.456" ry="0.439" transform="translate(93.109 45.934) rotate(-73.37)" fill="#3bbabc"/>
    <ellipse id="Ellipse_108" data-name="Ellipse 108" cx="0.616" cy="0.768" rx="0.616" ry="0.768" transform="translate(92.489 53.435) rotate(-73.37)" fill="#3bbabc"/>
    <path id="Path_30557" data-name="Path 30557" d="M263.119,140.579c-3.123,1.637-7.933-.844-13.849-2.886s-14.111-3.781-15.03-8.853a9.148,9.148,0,0,0-1.612,3.831c-.354,6.076,8.8,8,15.115,10.127,5.908,2.017,10.718,4.523,13.849,2.886,1.747-.92,2.625-3.283,2.9-6.363a4.009,4.009,0,0,1-1.376,1.257Z" transform="translate(-136.001 -73.043)" fill="#b5aced"/>
    <path id="Path_30558" data-name="Path 30558" d="M252,119.514s1.291,4.405,4.22,5.291,6.456-2.093,6.456-2.093-1.291-4.405-4.22-5.283S252,119.514,252,119.514Z" transform="translate(-139.026 -71.238)" fill="#fff"/>
    <ellipse id="Ellipse_109" data-name="Ellipse 109" cx="2.708" cy="1.803" rx="2.708" ry="1.803" transform="translate(114.787 51.319) rotate(-73.191)" fill="#12122f"/>
    <path id="Path_30559" data-name="Path 30559" d="M239.29,115.68s.962,4.3,3.511,5.064,5.713-2.312,5.713-2.312-.962-4.3-3.511-5.064S239.29,115.68,239.29,115.68Z" transform="translate(-137.042 -70.61)" fill="#fff"/>
    <ellipse id="Ellipse_110" data-name="Ellipse 110" cx="2.701" cy="1.798" rx="2.701" ry="1.798" transform="translate(102.659 48.002) rotate(-73.37)" fill="#12122f"/>
  </g>
</svg>
