<svg xmlns="http://www.w3.org/2000/svg" width="36.864" height="36.864" viewBox="0 0 36.864 36.864">
  <g id="Group_1717" data-name="Group 1717" transform="translate(0)">
    <g id="microsoft-teams-1_1_" data-name="microsoft-teams-1 (1)" transform="translate(0)">
      <ellipse id="Ellipse_88" data-name="Ellipse 88" cx="5.376" cy="5.376" rx="5.376" ry="5.376" transform="translate(14.208 1.536)" fill="#7b83eb"/>
      <path id="Path_29400" data-name="Path 29400" d="M17.31,7H12.44l.024.107,0,.009.025.1A5.381,5.381,0,0,0,18.845,11.1V8.536A1.54,1.54,0,0,0,17.31,7Z" transform="translate(1.891 1.064)" opacity="0.1"/>
      <path id="Path_29401" data-name="Path 29401" d="M16.105,8H12.783a5.376,5.376,0,0,0,4.858,3.072V9.536A1.54,1.54,0,0,0,16.105,8Z" transform="translate(1.943 1.216)" opacity="0.2"/>
      <ellipse id="Ellipse_89" data-name="Ellipse 89" cx="4.294" cy="3.904" rx="4.294" ry="3.904" transform="translate(27.495 4.852)" fill="#5059c9"/>
      <path id="Path_29402" data-name="Path 29402" d="M31.792,12H22.736a.737.737,0,0,0-.737.737V22.08a5.9,5.9,0,0,0,4.57,5.857A5.767,5.767,0,0,0,33.52,22.3V13.728A1.728,1.728,0,0,0,31.792,12Z" transform="translate(3.344 1.824)" fill="#5059c9"/>
      <path id="Path_29403" data-name="Path 29403" d="M27.432,13.728V24.672A9.21,9.21,0,0,1,10.244,29.28a8.265,8.265,0,0,1-.576-1.152,9.639,9.639,0,0,1-.38-1.152A9.492,9.492,0,0,1,9,24.672V13.728A1.726,1.726,0,0,1,10.728,12H25.7a1.726,1.726,0,0,1,1.728,1.728Z" transform="translate(1.368 1.824)" fill="#7b83eb"/>
      <path id="Path_29404" data-name="Path 29404" d="M16.105,8H12.783a5.376,5.376,0,0,0,4.858,3.072V9.536A1.54,1.54,0,0,0,16.105,8Z" transform="translate(1.943 1.216)" opacity="0.2"/>
      <path id="Path_29405" data-name="Path 29405" d="M19.368,12V26.6a1.521,1.521,0,0,1-1.2,1.486,1.113,1.113,0,0,1-.334.046H9.668a9.638,9.638,0,0,1-.38-1.152A9.493,9.493,0,0,1,9,24.672V13.728A1.726,1.726,0,0,1,10.728,12Z" transform="translate(1.368 1.824)" opacity="0.1"/>
      <path id="Path_29406" data-name="Path 29406" d="M18.216,12V27.748a1.114,1.114,0,0,1-.046.334,1.521,1.521,0,0,1-1.486,1.2h-6.44a8.265,8.265,0,0,1-.576-1.152,9.639,9.639,0,0,1-.38-1.152A9.492,9.492,0,0,1,9,24.672V13.728A1.726,1.726,0,0,1,10.728,12Z" transform="translate(1.368 1.824)" opacity="0.2"/>
      <path id="Path_29407" data-name="Path 29407" d="M18.216,12V25.444a1.539,1.539,0,0,1-1.532,1.532h-7.4A9.493,9.493,0,0,1,9,24.672V13.728A1.726,1.726,0,0,1,10.728,12Z" transform="translate(1.368 1.824)" opacity="0.2"/>
      <path id="Path_29408" data-name="Path 29408" d="M10.728,12A1.726,1.726,0,0,0,9,13.728V24.672a9.493,9.493,0,0,0,.288,2.3h6.244a1.539,1.539,0,0,0,1.532-1.532V12Z" transform="translate(1.368 1.824)" opacity="0.2"/>
      <path id="Path_29409" data-name="Path 29409" d="M1.536,8H16.9a1.536,1.536,0,0,1,1.536,1.536V24.9A1.536,1.536,0,0,1,16.9,26.432H1.536A1.536,1.536,0,0,1,0,24.9V9.536A1.536,1.536,0,0,1,1.536,8Z" transform="translate(0 1.216)" fill="#4b53bc"/>
      <path id="Path_29410" data-name="Path 29410" d="M13.19,13.274H9.745v9.239H7.485V13.274H4.02V11.005h9.17Z" transform="translate(0.611 1.673)" fill="#fff"/>
      <path id="Path_29411" data-name="Path 29411" d="M0,0H36.864V36.864H0Z" transform="translate(0)" fill="none"/>
    </g>
    <ellipse id="Ellipse_88-2" data-name="Ellipse 88" cx="5.376" cy="5.376" rx="5.376" ry="5.376" transform="translate(14.208 1.535)" fill="#3969bf"/>
    <path id="Path_29400-2" data-name="Path 29400" d="M17.31,7H12.44l.024.107,0,.009.025.1A5.381,5.381,0,0,0,18.845,11.1V8.536A1.54,1.54,0,0,0,17.31,7Z" transform="translate(1.891 1.064)" opacity="0.1"/>
    <path id="Path_29401-2" data-name="Path 29401" d="M16.105,8H12.783a5.376,5.376,0,0,0,4.858,3.072V9.536A1.54,1.54,0,0,0,16.105,8Z" transform="translate(1.943 1.216)" opacity="0.2"/>
    <ellipse id="Ellipse_89-2" data-name="Ellipse 89" cx="4.294" cy="3.904" rx="4.294" ry="3.904" transform="translate(27.495 4.852)" fill="#1448a6"/>
    <path id="Path_29402-2" data-name="Path 29402" d="M31.792,12H22.736a.737.737,0,0,0-.737.737V22.08a5.9,5.9,0,0,0,4.57,5.857A5.767,5.767,0,0,0,33.52,22.3V13.728A1.728,1.728,0,0,0,31.792,12Z" transform="translate(3.344 1.824)" fill="#1448a6"/>
    <path id="Path_29403-2" data-name="Path 29403" d="M27.432,13.728V24.672A9.21,9.21,0,0,1,10.244,29.28a8.265,8.265,0,0,1-.576-1.152,9.639,9.639,0,0,1-.38-1.152A9.492,9.492,0,0,1,9,24.672V13.728A1.726,1.726,0,0,1,10.728,12H25.7a1.726,1.726,0,0,1,1.728,1.728Z" transform="translate(1.368 1.824)" fill="#3969bf"/>
    <path id="Path_29404-2" data-name="Path 29404" d="M16.105,8H12.783a5.376,5.376,0,0,0,4.858,3.072V9.536A1.54,1.54,0,0,0,16.105,8Z" transform="translate(1.943 1.216)" opacity="0.2"/>
    <path id="Path_29405-2" data-name="Path 29405" d="M19.368,12V26.6a1.521,1.521,0,0,1-1.2,1.486,1.113,1.113,0,0,1-.334.046H9.668a9.638,9.638,0,0,1-.38-1.152A9.493,9.493,0,0,1,9,24.672V13.728A1.726,1.726,0,0,1,10.728,12Z" transform="translate(1.368 1.824)" opacity="0.1"/>
    <path id="Path_29406-2" data-name="Path 29406" d="M18.216,12V27.748a1.114,1.114,0,0,1-.046.334,1.521,1.521,0,0,1-1.486,1.2h-6.44a8.265,8.265,0,0,1-.576-1.152,9.639,9.639,0,0,1-.38-1.152A9.492,9.492,0,0,1,9,24.672V13.728A1.726,1.726,0,0,1,10.728,12Z" transform="translate(1.368 1.824)" opacity="0.2"/>
    <path id="Path_29407-2" data-name="Path 29407" d="M18.216,12V25.444a1.539,1.539,0,0,1-1.532,1.532h-7.4A9.493,9.493,0,0,1,9,24.672V13.728A1.726,1.726,0,0,1,10.728,12Z" transform="translate(1.368 1.824)" opacity="0.2"/>
    <path id="Path_29408-2" data-name="Path 29408" d="M10.728,12A1.726,1.726,0,0,0,9,13.728V24.672a9.493,9.493,0,0,0,.288,2.3h6.244a1.539,1.539,0,0,0,1.532-1.532V12Z" transform="translate(1.368 1.824)" opacity="0.2"/>
    <path id="Path_29409-2" data-name="Path 29409" d="M1.536,8H16.9a1.536,1.536,0,0,1,1.536,1.536V24.9A1.536,1.536,0,0,1,16.9,26.432H1.536A1.536,1.536,0,0,1,0,24.9V9.536A1.536,1.536,0,0,1,1.536,8Z" transform="translate(0 1.216)" fill="#1448a6"/>
    <path id="Path_29410-2" data-name="Path 29410" d="M13.19,13.274H9.745v9.239H7.485V13.274H4.02V11.005h9.17Z" transform="translate(0.611 1.673)" fill="#fff"/>
    <path id="Path_29411-2" data-name="Path 29411" d="M0,0H36.864V36.864H0Z" transform="translate(0)" fill="none"/>
  </g>
</svg>
