<svg xmlns="http://www.w3.org/2000/svg" width="91" height="24.974" viewBox="0 0 91 24.974">
  <g id="Group_1720" data-name="Group 1720" transform="translate(-1552.848 -110.257)">
    <path id="Path_31756" data-name="Path 31756" d="M1552.848,134.617v-23.94h6.16v1.96a10.1,10.1,0,0,1,6.72-2.38,10.643,10.643,0,0,1,8.26,3.92c1.54,1.82,2.52,4.34,2.52,8.4v12.18h-6.44v-12.74c0-2.38-.56-3.64-1.4-4.48a5.071,5.071,0,0,0-3.64-1.4,7.377,7.377,0,0,0-5.74,2.94v15.54Z" transform="translate(0 0)" fill="#1448a6" fill-rule="evenodd"/>
    <path id="Path_31757" data-name="Path 31757" d="M1833.183,110.257a14.012,14.012,0,0,0-14,13.86,14.6,14.6,0,0,0,4.34,10.36,2.767,2.767,0,0,0,3.64.14,9.415,9.415,0,0,1,6.02-1.96,9.7,9.7,0,0,1,6.02,1.96,2.776,2.776,0,0,0,3.64-.28,13.962,13.962,0,0,0-9.66-24.08m-.14,21a6.847,6.847,0,0,1-7-7,6.765,6.765,0,0,1,7-7,7,7,0,0,1,0,14" transform="translate(-240.295 0)" fill="#1448a6" fill-rule="evenodd"/>
    <path id="Path_31758" data-name="Path 31758" d="M2101.229,138.493h-4.76l-9.52-23.94h6.44l5.18,13.72,5.18-13.72h5.32l5.04,13.72,5.18-13.72h6.44l-9.52,23.94h-4.76l-5.04-13.58Z" transform="translate(-481.881 -3.876)" fill="#1448a6" fill-rule="evenodd"/>
    <path id="Path_31759" data-name="Path 31759" d="M2427.119,329.339v.42h-.84v2.52h-.56v-2.52h-.84v-.42Zm1.96,1.82,1.12-1.82h.42v2.94h-.56V330.6l-.84,1.26h-.42l-.7-1.26v1.68h-.56v-2.94h.42Z" transform="translate(-786.771 -197.662)" fill="#1448a6"/>
  </g>
</svg>
