<svg xmlns="http://www.w3.org/2000/svg" width="36" height="35" viewBox="0 0 36 35">
  <g id="quickbooks-1" transform="translate(0.454 -0.099)">
    <ellipse id="Ellipse_91" data-name="Ellipse 91" cx="18" cy="17.5" rx="18" ry="17.5" transform="translate(-0.454 0.099)" fill="#1448a6"/>
    <path id="Path_29436" data-name="Path 29436" d="M300.5,389.356a7.237,7.237,0,0,0,7.173,7.233h1.016v-2.654h-1.016a4.616,4.616,0,0,1-5.67-3.241c-.006-.02-.01-.039-.015-.059a4.721,4.721,0,0,1,3.239-5.795h.507a4.523,4.523,0,0,1,1.932,0h2.467V398.93a2.7,2.7,0,0,0,2.676,2.724v-19.6h-5.12a7.237,7.237,0,0,0-7.2,7.277h0Zm19.491-7.3h-1.016v2.794h1.016a4.608,4.608,0,0,1,5.658,3.231c.006.018.01.038.015.056a4.708,4.708,0,0,1-3.229,5.775h-.507a4.524,4.524,0,0,1-1.932,0h-2.467V379.824a2.7,2.7,0,0,0-2.676-2.724v19.63h5.12a7.3,7.3,0,0,0,0-14.605Z" transform="translate(-296.272 -371.803)" fill="#fff"/>
  </g>
</svg>
