<svg id="salesforce-2" xmlns="http://www.w3.org/2000/svg" width="51.113" height="35.776" viewBox="0 0 51.113 35.776">
  <path id="Path_29412" data-name="Path 29412" d="M21.77,4.4a8.956,8.956,0,0,1,6.482-2.783,9.05,9.05,0,0,1,7.885,4.674,10.9,10.9,0,0,1,4.457-.947,11.116,11.116,0,0,1,0,22.231,10.935,10.935,0,0,1-2.17-.216,8.055,8.055,0,0,1-10.555,3.315,9.19,9.19,0,0,1-17.084-.416,8.43,8.43,0,0,1-1.753.183A8.638,8.638,0,0,1,4.766,14.356a9.926,9.926,0,0,1,17-9.955" transform="translate(-0.5 -0.5)" fill="#1448a6"/>
  <path id="Path_29413" data-name="Path 29413" d="M144.982,285.739c-.032.084.012.1.022.116a2.974,2.974,0,0,0,.292.176,3.112,3.112,0,0,0,1.528.357c1.048,0,1.7-.558,1.7-1.455v-.017c0-.83-.735-1.131-1.424-1.349l-.09-.029c-.52-.169-.968-.315-.968-.657v-.018c0-.293.262-.508.668-.508a3.023,3.023,0,0,1,1.332.341s.1.066.138-.033c.02-.052.2-.523.213-.574a.1.1,0,0,0-.051-.118,2.973,2.973,0,0,0-1.5-.4h-.1a1.465,1.465,0,0,0-1.629,1.41V283c0,.876.739,1.16,1.431,1.358l.111.034c.5.155.939.288.939.644v.017c0,.325-.282.566-.738.566a2.479,2.479,0,0,1-1.351-.389c-.074-.043-.117-.074-.173-.108a.083.083,0,0,0-.138.047Zm15.349,0c-.032.084.012.1.022.116a2.977,2.977,0,0,0,.292.176,3.112,3.112,0,0,0,1.528.357c1.048,0,1.7-.558,1.7-1.455v-.017c0-.83-.735-1.131-1.424-1.349l-.09-.029c-.52-.169-.968-.315-.968-.657v-.018c0-.293.262-.508.668-.508a3.024,3.024,0,0,1,1.332.341s.1.066.138-.033c.02-.052.2-.523.213-.574a.1.1,0,0,0-.051-.118,2.973,2.973,0,0,0-1.5-.4h-.1a1.465,1.465,0,0,0-1.629,1.41V283c0,.876.739,1.16,1.431,1.358l.111.034c.5.155.94.288.94.644v.017c0,.325-.283.566-.739.566a2.479,2.479,0,0,1-1.351-.389c-.074-.043-.117-.073-.173-.108a.089.089,0,0,0-.138.047Zm10.478-1.758a2.157,2.157,0,0,1-.281,1.19.941.941,0,0,1-.852.416.929.929,0,0,1-.848-.416,2.687,2.687,0,0,1,0-2.375.934.934,0,0,1,.848-.411.946.946,0,0,1,.853.411,2.142,2.142,0,0,1,.28,1.185m.875-.941a2.107,2.107,0,0,0-.4-.76,1.925,1.925,0,0,0-.672-.511,2.437,2.437,0,0,0-1.876,0,1.935,1.935,0,0,0-.673.511,2.142,2.142,0,0,0-.4.76,3.516,3.516,0,0,0,0,1.881,2.118,2.118,0,0,0,.4.76,1.877,1.877,0,0,0,.672.507,2.491,2.491,0,0,0,1.876,0,1.879,1.879,0,0,0,.672-.507,2.107,2.107,0,0,0,.4-.76,3.5,3.5,0,0,0,0-1.881m7.187,2.411a.083.083,0,0,0-.111-.053,2.006,2.006,0,0,1-.407.117,3.175,3.175,0,0,1-.48.034,1.333,1.333,0,0,1-1-.375,1.671,1.671,0,0,1-.376-1.2,1.854,1.854,0,0,1,.336-1.153,1.143,1.143,0,0,1,.971-.427,2.908,2.908,0,0,1,.925.133s.069.03.1-.06c.076-.213.133-.365.215-.6a.079.079,0,0,0-.054-.1,3.414,3.414,0,0,0-.584-.147,4.382,4.382,0,0,0-.657-.044,2.38,2.38,0,0,0-.976.188,2.019,2.019,0,0,0-.7.51,2.171,2.171,0,0,0-.426.76,3.027,3.027,0,0,0-.143.942,2.519,2.519,0,0,0,.582,1.742,2.214,2.214,0,0,0,1.728.65,3.56,3.56,0,0,0,1.239-.221.08.08,0,0,0,.036-.1Zm1.531-1.956a1.72,1.72,0,0,1,.24-.7.943.943,0,0,1,.847-.43.919.919,0,0,1,.83.43,1.464,1.464,0,0,1,.2.7Zm2.947-.62a1.839,1.839,0,0,0-.379-.693,1.741,1.741,0,0,0-.562-.429,2.166,2.166,0,0,0-.849-.172,2.312,2.312,0,0,0-.978.19,1.946,1.946,0,0,0-.682.521,2.134,2.134,0,0,0-.4.769,3.326,3.326,0,0,0-.13.946,3.17,3.17,0,0,0,.135.946,1.9,1.9,0,0,0,1.174,1.246,2.983,2.983,0,0,0,1.075.174,3.1,3.1,0,0,0,1.492-.3c.033-.018.064-.05.025-.142l-.194-.542a.085.085,0,0,0-.111-.051,2.86,2.86,0,0,1-1.216.218,1.212,1.212,0,0,1-1.359-1.334l2.963,0a.088.088,0,0,0,.086-.077,3.176,3.176,0,0,0-.088-1.276m-26.673.62a1.731,1.731,0,0,1,.24-.7.943.943,0,0,1,.847-.43.921.921,0,0,1,.831.43,1.473,1.473,0,0,1,.2.7Zm2.946-.62a1.839,1.839,0,0,0-.379-.693,1.742,1.742,0,0,0-.562-.429,2.166,2.166,0,0,0-.849-.172,2.314,2.314,0,0,0-.978.19,1.946,1.946,0,0,0-.682.521,2.134,2.134,0,0,0-.4.769,3.352,3.352,0,0,0-.13.946,3.168,3.168,0,0,0,.135.946,1.9,1.9,0,0,0,1.174,1.246,2.982,2.982,0,0,0,1.075.174,3.1,3.1,0,0,0,1.492-.3c.033-.018.064-.05.025-.142l-.193-.542a.086.086,0,0,0-.112-.051,2.858,2.858,0,0,1-1.217.218,1.212,1.212,0,0,1-1.358-1.334l2.963,0a.088.088,0,0,0,.086-.077,3.174,3.174,0,0,0-.089-1.276m-9.35,2.56a.6.6,0,0,1-.171-.176.716.716,0,0,1-.088-.385.648.648,0,0,1,.264-.574,1.328,1.328,0,0,1,.859-.214,6.073,6.073,0,0,1,.8.068V285.5h0a6.015,6.015,0,0,1-.8.106,1.332,1.332,0,0,1-.869-.173m1.179-2.082c-.12-.009-.276-.014-.462-.014a2.81,2.81,0,0,0-.73.094,1.9,1.9,0,0,0-.619.287,1.382,1.382,0,0,0-.588,1.172,1.548,1.548,0,0,0,.135.676,1.22,1.22,0,0,0,.387.463,1.619,1.619,0,0,0,.6.261,3.538,3.538,0,0,0,.784.08,5.34,5.34,0,0,0,.9-.075c.291-.05.647-.122.746-.144q.1-.025.208-.053a.093.093,0,0,0,.068-.1v-2.709a1.658,1.658,0,0,0-.471-1.308,2.015,2.015,0,0,0-1.361-.41,4.877,4.877,0,0,0-.794.074,2.861,2.861,0,0,0-.914.334.092.092,0,0,0-.026.118l.21.564a.075.075,0,0,0,.1.048.383.383,0,0,0,.049-.024,3.007,3.007,0,0,1,1.291-.3,1.193,1.193,0,0,1,.732.191c.162.124.244.311.244.706v.125c-.255-.036-.489-.057-.489-.057m23.895-1.527a.08.08,0,0,0-.044-.106,2.57,2.57,0,0,0-.5-.085,1.477,1.477,0,0,0-.764.123,1.346,1.346,0,0,0-.5.369v-.36a.086.086,0,0,0-.085-.09H172.7a.086.086,0,0,0-.085.09v4.419a.091.091,0,0,0,.09.09h.778a.09.09,0,0,0,.09-.09v-2.208a2.586,2.586,0,0,1,.1-.778,1.119,1.119,0,0,1,.259-.436.909.909,0,0,1,.366-.22,1.427,1.427,0,0,1,.4-.056,1.664,1.664,0,0,1,.325.04c.057.007.089-.028.108-.08.051-.135.2-.541.223-.622" transform="translate(-137.579 -267.187)" fill="#fff"/>
  <path id="Path_29414" data-name="Path 29414" d="M332.713,244.739a2.549,2.549,0,0,0-.293-.07,2.324,2.324,0,0,0-.4-.031,1.7,1.7,0,0,0-1.255.45,2.448,2.448,0,0,0-.6,1.344l-.036.2h-.673a.1.1,0,0,0-.1.086l-.11.617c-.008.058.018.1.1.1H330l-.664,3.707a4.589,4.589,0,0,1-.178.73,1.494,1.494,0,0,1-.207.422.551.551,0,0,1-.271.209,1.1,1.1,0,0,1-.349.05,1.314,1.314,0,0,1-.237-.026.7.7,0,0,1-.16-.052.082.082,0,0,0-.107.047c-.024.063-.2.543-.22.6a.089.089,0,0,0,.046.119,2.417,2.417,0,0,0,.271.079,1.793,1.793,0,0,0,.434.041,2.172,2.172,0,0,0,.727-.113,1.374,1.374,0,0,0,.548-.382,1.956,1.956,0,0,0,.384-.663,5.629,5.629,0,0,0,.261-.995l.668-3.777h.976a.1.1,0,0,0,.1-.087l.111-.616c.007-.059-.017-.1-.1-.1h-.947a4.113,4.113,0,0,1,.157-.668.874.874,0,0,1,.208-.316.622.622,0,0,1,.248-.154,1.03,1.03,0,0,1,.318-.045,1.243,1.243,0,0,1,.243.024c.092.02.127.03.151.037.1.029.11,0,.129-.046l.226-.622a.079.079,0,0,0-.055-.1m-13.235,6.407a.086.086,0,0,1-.085.09h-.786a.085.085,0,0,1-.084-.09v-6.323a.085.085,0,0,1,.084-.09h.786a.086.086,0,0,1,.085.09Z" transform="translate(-302.252 -232.148)" fill="#fff"/>
</svg>
