<svg xmlns="http://www.w3.org/2000/svg" width="158.237" height="52.201" viewBox="0 0 158.237 52.201">
  <g id="Group_1308" data-name="Group 1308" transform="translate(-33.676 -18.381)">
    <path id="Path_29768" data-name="Path 29768" d="M33.676,18.381h4.338v20.6c0,5.6,3.117,10.211,9.128,10.211s9.128-4.608,9.128-10.211v-20.6h4.337v21.87c0,7.411-5.6,13.012-13.555,13.012-7.772,0-13.375-5.6-13.375-13.012Z" transform="translate(0 0)" fill="#1448a6"/>
    <path id="Path_29769" data-name="Path 29769" d="M140.822,18.381V52.723h-4.066V18.381Z" transform="translate(-72.176)" fill="#1448a6"/>
    <path id="Path_29770" data-name="Path 29770" d="M163.08,35.415h4.066v5.692h3.75v3.57h-3.75V61.869h2.49l0,2.78H163.08V44.678h-3.252v-3.57h3.252Z" transform="translate(-88.331 -11.927)" fill="#1448a6"/>
    <path id="Path_29771" data-name="Path 29771" d="M271.484,62.264c0-4.067-2.349-5.874-5.15-5.874-3.39,0-5.921,2.123-5.921,6.056V76.677h-4.067V62.264c0-4.067-2.35-5.874-5.15-5.874-3.388,0-5.92,2.123-5.92,6.056V73.9h2.485v2.775H241.21V53.136h4.067v2.8h.09c1.085-2.4,4.022-3.344,6.507-3.344a7.293,7.293,0,0,1,6.959,4.067c1.445-2.982,4.563-4.067,7.68-4.067,5.061,0,9.038,3.027,9.038,9.218V73.9h2.484l0,2.775h-6.548Z" transform="translate(-145.315 -23.956)" fill="#1448a6"/>
    <path id="Path_29772" data-name="Path 29772" d="M383.04,60.9c0-3.886-3.886-4.744-7.049-4.744a14.438,14.438,0,0,0-6.506,1.628l-1.762-3.39a21.452,21.452,0,0,1,8.5-1.809c5.647,0,10.888,2.4,10.888,8V73.9h2.486v2.777H383.31V74.145a9.57,9.57,0,0,1-7.5,3.073c-5.738,0-10.256-3.209-10.256-8.45,0-4.293,3.659-8.088,10.211-8.088a10.7,10.7,0,0,1,7.274,2.666Zm-6.506,3.344c-4.97,0-6.642,2.4-6.642,4.7s1.673,4.7,6.642,4.7a10.644,10.644,0,0,0,6.455-2.28s0-1.988,0-2.421V66.765a9.47,9.47,0,0,0-6.458-2.516" transform="translate(-232.38 -23.953)" fill="#1448a6"/>
    <path id="Path_29773" data-name="Path 29773" d="M447.33,35.415H451.4v5.692h3.75v3.57H451.4v17.2h2.485v2.775H447.33V44.678h-3.253v-3.57h3.253Z" transform="translate(-287.362 -11.927)" fill="#1448a6"/>
    <path id="Path_29774" data-name="Path 29774" d="M503.245,72.115c-3.164,3.523-6.508,5.1-10.62,5.1-8.359,0-12.833-6.053-12.833-12.334,0-6.688,4.79-12.291,12.155-12.291,7.274,0,12.335,5.558,12.335,13.873H484.13a8.173,8.173,0,0,0,8.449,6.957,9.809,9.809,0,0,0,7.547-3.8Zm-3.571-8.993a7.853,7.853,0,0,0-15.544,0Z" transform="translate(-312.369 -23.956)" fill="#1448a6"/>
    <path id="Path_29775" data-name="Path 29775" d="M211,34.065a2.738,2.738,0,1,1-2.739-2.739A2.739,2.739,0,0,1,211,34.065m-.648,24.946V51.127l1.921-.011v-11.1a1.763,1.763,0,0,0-1.757-1.8h-4.425a1.8,1.8,0,0,0-1.8,1.8V51.125l1.8,0V61.785l4.249,0Z" transform="translate(-119.463 -9.064)" fill="#1448a6"/>
    <path id="Path_29776" data-name="Path 29776" d="M133.412,160.021a2,2,0,0,0-1.988-1.976,1.641,1.641,0,0,0-1.864,1.675c0,.777.49,1.267,1.512,1.648l1.307.491c1.648.611,2.41,1.578,2.41,2.83,0,1.674-1.335,2.885-3.322,2.885a3.082,3.082,0,0,1-3.376-3.062H129.4a1.9,1.9,0,0,0,2.138,1.919,1.769,1.769,0,0,0,1.946-1.633c0-.8-.667-1.321-1.606-1.689l-1.321-.516c-1.538-.6-2.3-1.5-2.3-2.833a2.94,2.94,0,0,1,3.186-2.858,3.043,3.043,0,0,1,3.2,3.118Z" transform="translate(-66.108 -96.993)" fill="#1448a6"/>
    <path id="Path_29777" data-name="Path 29777" d="M173.685,156.908a5.337,5.337,0,1,1-5.485,5.336,5.344,5.344,0,0,1,5.485-5.336m0,9.446a4.111,4.111,0,1,0-4.1-4.11,4.085,4.085,0,0,0,4.1,4.11" transform="translate(-94.193 -96.996)" fill="#1448a6"/>
    <path id="Path_29778" data-name="Path 29778" d="M224.159,157.448h5.349v1.225h-4.044v3.281h4.044v1.225h-4.044v4.616h-1.305Z" transform="translate(-133.376 -97.375)" fill="#1448a6"/>
    <path id="Path_29779" data-name="Path 29779" d="M261.45,158.674h-2.587v-1.226h6.479v1.226h-2.587v9.119H261.45Z" transform="translate(-157.675 -97.375)" fill="#1448a6"/>
    <path id="Path_29780" data-name="Path 29780" d="M307.845,157.448h1.387l-3.185,10.346h-1.008l-2.492-8.195h-.026l-2.492,8.195h-1.008l-3.184-10.346h1.388l2.315,7.856h.027l2.354-7.856h1.226l2.354,7.882h.028Z" transform="translate(-183.564 -97.375)" fill="#1448a6"/>
    <path id="Path_29781" data-name="Path 29781" d="M360.483,165.384h-4.82l-.939,2.41h-1.43l4.206-10.346h1.145l4.206,10.346h-1.43Zm-2.41-6.222-1.961,5.077h3.921Z" transform="translate(-223.796 -97.374)" fill="#1448a6"/>
    <path id="Path_29782" data-name="Path 29782" d="M404.429,163.384v4.409h-1.307V157.448H406.1c1.987,0,3.471,1.143,3.471,3.131a3.117,3.117,0,0,1-3.145,3.09l4.029,4.123h-1.838Zm0-.8c.176.013.369.013,1.145.013,2,0,2.694-.873,2.694-2a1.957,1.957,0,0,0-2.192-2h-1.647Z" transform="translate(-258.685 -97.374)" fill="#1448a6"/>
    <path id="Path_29783" data-name="Path 29783" d="M445.365,157.448h5.35v1.225h-4.044v3.281h4.044v1.225h-4.044v3.391h4.044v1.225h-5.35Z" transform="translate(-288.264 -97.375)" fill="#1448a6"/>
  </g>
</svg>
