<svg id="xero" xmlns="http://www.w3.org/2000/svg" width="35.973" height="36.034" viewBox="0 0 35.973 36.034">
  <path id="Path_29429" data-name="Path 29429" d="M17.987,36.534A18.017,18.017,0,1,0,0,18.517,18,18,0,0,0,17.987,36.534" transform="translate(0 -0.5)" fill="#1448a6"/>
  <path id="Path_29430" data-name="Path 29430" d="M9.555,21.931l3.069-3.084a.551.551,0,0,0-.783-.773l-3.068,3.07-3.08-3.076a.551.551,0,0,0-.774.784L7.99,21.926,4.922,25a.551.551,0,1,0,.772.786L8.77,22.71l3.064,3.065a.55.55,0,1,0,.788-.767l-3.068-3.08m18.247,0a1,1,0,1,0,1-1,1,1,0,0,0-1,1m-1.9,0a2.894,2.894,0,1,1,2.895,2.9,2.9,2.9,0,0,1-2.895-2.9m-1.139,0A4.034,4.034,0,1,0,28.8,17.891a4.042,4.042,0,0,0-4.034,4.039m-.286-3.971h-.168a2.284,2.284,0,0,0-1.408.477.557.557,0,0,0-.54-.433.545.545,0,0,0-.545.548l0,6.8a.55.55,0,0,0,1.1,0V21.17c0-1.394.128-1.958,1.32-2.106a1.9,1.9,0,0,1,.232-.011.543.543,0,0,0,.557-.541.553.553,0,0,0-.553-.551M13.921,21.266c0-.016,0-.032,0-.046a2.913,2.913,0,0,1,5.659.044H13.92Zm6.786-.1a4.013,4.013,0,0,0-6.279-2.52,4.041,4.041,0,0,0,1.843,7.308,3.8,3.8,0,0,0,1.45-.1,3.977,3.977,0,0,0,1.206-.516,4.356,4.356,0,0,0,1.033-.979.209.209,0,0,1,.018-.022.6.6,0,0,0-.062-.846.55.55,0,0,0-.812.125c-.058.083-.123.168-.192.252a3.178,3.178,0,0,1-.8.642,2.9,2.9,0,0,1-1.354.342,2.906,2.906,0,0,1-2.883-2.4l-.008-.084h5.743a1.018,1.018,0,0,0,1.092-1.209Z" transform="translate(-0.945 -3.962)" fill="#fff"/>
</svg>
