<svg xmlns="http://www.w3.org/2000/svg" width="46.102" height="32.927" viewBox="0 0 46.102 32.927">
  <path id="zendesk-1" d="M22.061,5.141V19.471H10.193Zm0-5.141a5.926,5.926,0,0,1-5.928,5.928A5.937,5.937,0,0,1,10.193,0Zm1.955,19.471a5.928,5.928,0,0,1,11.855,0Zm0-5.141V0H35.884Zm6.639,17.39a2.342,2.342,0,0,0,1.65-.635l.812.876a3.179,3.179,0,0,1-2.45.965,3.113,3.113,0,1,1-.292-6.22h.1c1.98,0,3.1,1.5,3,3.592H28.814a1.67,1.67,0,0,0,1.841,1.422m1.422-2.4A1.5,1.5,0,0,0,30.5,27.912a1.6,1.6,0,0,0-1.688,1.409ZM0,31.657,3.592,28H.089V26.859H5.255v1.168L1.663,31.682H5.306v1.142H0Zm9.342.063a2.29,2.29,0,0,0,1.637-.635l.812.876a3.179,3.179,0,0,1-2.45.965,3.113,3.113,0,1,1-.292-6.22h.1c1.98,0,3.1,1.5,3,3.592H7.5A1.67,1.67,0,0,0,9.342,31.72m1.422-2.4A1.5,1.5,0,0,0,9.19,27.912,1.6,1.6,0,0,0,7.5,29.321Zm9.165.508a2.977,2.977,0,0,1,3-3.1,2.612,2.612,0,0,1,1.993.889V24.1h1.269v8.708H24.917v-.825a2.565,2.565,0,0,1-2.006.939,3,3,0,0,1-2.983-3.1m5.052-.013a1.892,1.892,0,1,0-1.891,1.942,1.9,1.9,0,0,0,1.891-1.942m9.33,1.726,1.155-.6A1.7,1.7,0,0,0,37,31.822c.724,0,1.092-.368,1.092-.787,0-.482-.7-.584-1.447-.736-1.015-.216-2.069-.546-2.069-1.777a2.05,2.05,0,0,1,2.31-1.8A2.748,2.748,0,0,1,39.3,27.874l-1.066.584a1.584,1.584,0,0,0-1.345-.685c-.685,0-1.028.33-1.028.711,0,.432.546.546,1.409.736.977.216,2.094.533,2.094,1.777a2.13,2.13,0,0,1-2.424,1.917,2.775,2.775,0,0,1-2.627-1.371M42.8,30.159l-1,1.1v1.549H40.529V24.1H41.8v5.7l2.691-2.958h1.549L43.7,29.4l2.4,3.414H44.667Zm-26.707-3.44a2.594,2.594,0,0,0-2.78,2.6v3.491H14.61V29.486a1.412,1.412,0,0,1,1.523-1.561c.965,0,1.434.584,1.434,1.561v3.326h1.282V29.321a2.573,2.573,0,0,0-2.754-2.6" fill="#1448a6"/>
</svg>
