<svg id="svg" version="1.1" xmlns="http://www.w3.org/2000/svg" xmlns:xlink="http://www.w3.org/1999/xlink" width="400" height="400" viewBox="0, 0, 400,400"><g id="svgg"><path id="path0" d="M0.000 305.000 L 0.000 400.000 95.200 400.000 L 190.400 400.000 190.400 305.774 C 190.400 241.586,190.268 211.301,189.986 210.774 C 189.578 210.012,188.089 210.000,94.786 210.000 L 0.000 210.000 0.000 305.000 " stroke="none" fill="#04acec" fill-rule="evenodd"></path><path id="path1" d="M190.000 94.800 L 189.800 189.800 94.800 190.001 L -0.200 190.202 94.651 190.301 C 174.052 190.384,189.575 190.312,189.952 189.858 C 190.283 189.459,190.375 164.270,190.300 94.558 L 190.199 -0.200 190.000 94.800 M210.267 210.267 C 210.120 210.413,210.000 253.163,210.000 305.267 L 210.000 400.000 305.000 400.000 L 400.000 400.000 400.000 305.000 L 400.000 210.000 305.267 210.000 C 253.163 210.000,210.413 210.120,210.267 210.267 " stroke="none" fill="#fcbc0c" fill-rule="evenodd"></path><path id="path2" d="M190.400 94.720 C 190.400 167.858,190.291 189.549,189.920 189.920 C 189.549 190.291,167.858 190.400,94.720 190.400 L 0.000 190.400 0.000 200.200 L 0.000 210.000 94.786 210.000 C 188.089 210.000,189.578 210.012,189.986 210.774 C 190.268 211.301,190.400 241.586,190.400 305.774 L 190.400 400.000 200.199 400.000 L 209.998 400.000 210.099 305.100 L 210.200 210.200 305.100 210.099 L 400.000 209.998 400.000 200.199 L 400.000 190.400 305.480 190.400 C 232.498 190.400,210.851 190.291,210.480 189.920 C 210.109 189.549,210.000 167.858,210.000 94.720 L 210.000 0.000 200.200 0.000 L 190.400 0.000 190.400 94.720 " stroke="none" fill="#fcfcfc" fill-rule="evenodd"></path><path id="path3" d="M210.000 94.720 C 210.000 167.858,210.109 189.549,210.480 189.920 C 210.851 190.291,232.498 190.400,305.480 190.400 L 400.000 190.400 400.000 95.200 L 400.000 0.000 305.000 0.000 L 210.000 0.000 210.000 94.720 " stroke="none" fill="#84cc2c" fill-rule="evenodd"></path><path id="path4" d="M0.000 95.001 L 0.000 190.002 94.900 189.901 L 189.800 189.800 189.901 94.900 L 190.002 0.000 95.001 0.000 L 0.000 0.000 0.000 95.001 " stroke="none" fill="#f4531c" fill-rule="evenodd"></path></g></svg>