<svg id="Group_1987" data-name="Group 1987" xmlns="http://www.w3.org/2000/svg" xmlns:xlink="http://www.w3.org/1999/xlink" width="324" height="211.346" viewBox="0 0 324 211.346">
  <defs>
    <clipPath id="clip-path">
      <path id="Path_31776" data-name="Path 31776" d="M168.617,680.547V686.2L142.14,671.385V666.15Z" transform="translate(-142.14 -666.15)" fill="none"/>
    </clipPath>
  </defs>
  <g id="SKAEL_full_video_deck_20200525_Slide_35_copia" data-name="SKAEL_full_video_deck_20200525_Slide 35 copia" transform="translate(51.808 45.928)">
    <path id="Path_31761" data-name="Path 31761" d="M571.609,797.417l5.372-.758V776.48H568.84" transform="translate(-468.267 -656.583)" fill="#153da0"/>
    <path id="Path_31762" data-name="Path 31762" d="M94.632,308.853V409.32L24.79,370.106v-99.9Z" transform="translate(-24.79 -243.902)" fill="#8b7ff7"/>
    <path id="Path_31763" data-name="Path 31763" d="M563.755,214.175l12.6-8.86a2.941,2.941,0,0,1,3.449.05l1.091.813a2.941,2.941,0,0,1-.009,4.719l-12.075,8.936a2.934,2.934,0,0,1-3.167.211l-1.618-.891a2.939,2.939,0,0,1-.272-4.978Z" transform="translate(-463.105 -190.568)" fill="#153da0"/>
    <path id="Path_31764" data-name="Path 31764" d="M501.39,294.727,522,282.99V394.4Z" transform="translate(-413.286 -254.32)" fill="#153da0"/>
    <path id="Path_31765" data-name="Path 31765" d="M440.738,137.29l12.6-8.858a2.939,2.939,0,0,1,3.448.048l1.093.815a2.941,2.941,0,0,1-.009,4.719l-12.075,8.936a2.941,2.941,0,0,1-3.169.211l-1.616-.891a2.939,2.939,0,0,1-.272-4.98Z" transform="translate(-362.828 -127.897)" fill="#153da0"/>
    <path id="Path_31766" data-name="Path 31766" d="M439.524,366.21l-36.924,20.9V487.574l36.924-20.9Z" transform="translate(-332.758 -322.156)" fill="#4e3cd3"/>
    <path id="Path_31767" data-name="Path 31767" d="M62.573,154.09,131.555,193.3,94.632,214.2,24.79,175.556Z" transform="translate(-24.79 -149.248)" fill="#6449ea"/>
    <path id="Path_31768" data-name="Path 31768" d="M352.336,170.664l-14.156,8.444-44.93-25.54,15.007-8.378Z" transform="translate(-243.623 -141.993)" fill="#8b7ff7"/>
    <path id="Path_31769" data-name="Path 31769" d="M97.032,718,76.59,706.67v10.524l20.442,11.334Z" transform="translate(-67.014 -599.679)" fill="#2852f0"/>
    <path id="Path_31770" data-name="Path 31770" d="M266.272,811.024,245.83,799.69v10.526l20.442,11.334Z" transform="translate(-204.969 -675.503)" fill="none" stroke="#153da0" stroke-miterlimit="10" stroke-width="1"/>
    <path id="Path_31771" data-name="Path 31771" d="M266.272,811.024,245.83,799.69v10.526l20.442,11.334Z" transform="translate(-204.969 -675.503)" fill="#2852f0"/>
    <path id="Path_31772" data-name="Path 31772" d="M84.39,377.027v34.247a2.287,2.287,0,0,0,1.239,2.033l45.708,23.6a2.289,2.289,0,0,0,3.339-2.033v-32.72a2.29,2.29,0,0,0-1.185-2L87.78,375.018a2.287,2.287,0,0,0-3.39,2.009Z" transform="translate(-73.372 -329.104)" fill="#ffd17a"/>
    <line id="Line_60" data-name="Line 60" y2="7.811" transform="translate(44.412 75.576)" fill="none" stroke="#ff8718" stroke-linecap="round" stroke-linejoin="round" stroke-width="11"/>
    <line id="Line_61" data-name="Line 61" y2="6.933" transform="translate(26.834 68.917)" fill="none" stroke="#ff8718" stroke-linecap="round" stroke-linejoin="round" stroke-width="11"/>
    <path id="Path_31773" data-name="Path 31773" d="M168.617,680.547V686.2L142.14,671.385V666.15Z" transform="translate(-120.447 -566.649)" fill="#ff65a7"/>
    <path id="Path_31774" data-name="Path 31774" d="M101.948,729.761v4.74l-17.558-9.48V720.39Z" transform="translate(-73.372 -610.862)" fill="#abbbf9"/>
    <circle id="Ellipse_143" data-name="Ellipse 143" cx="2.033" cy="2.033" r="2.033" transform="translate(32.093 84.485)" fill="#ff8718"/>
    <path id="Path_31775" data-name="Path 31775" d="M142.14,671.385l5.842-2.059-5.842-3.176Z" transform="translate(-120.447 -566.649)" fill="#ffb4d6"/>
    <circle id="Ellipse_144" data-name="Ellipse 144" cx="0.678" cy="0.678" r="0.678" transform="translate(27.363 104.078)" fill="#ffb4d6"/>
    <circle id="Ellipse_145" data-name="Ellipse 145" cx="0.678" cy="0.678" r="0.678" transform="translate(30.441 105.775)" fill="#ffb4d6"/>
    <circle id="Ellipse_146" data-name="Ellipse 146" cx="0.678" cy="0.678" r="0.678" transform="translate(33.519 107.589)" fill="#ffb4d6"/>
    <circle id="Ellipse_147" data-name="Ellipse 147" cx="0.678" cy="0.678" r="0.678" transform="translate(36.597 109.178)" fill="#ffb4d6"/>
    <circle id="Ellipse_148" data-name="Ellipse 148" cx="0.678" cy="0.678" r="0.678" transform="translate(39.674 110.94)" fill="#ffb4d6"/>
    <circle id="Ellipse_149" data-name="Ellipse 149" cx="0.678" cy="0.678" r="0.678" transform="translate(42.752 112.332)" fill="#ffb4d6"/>
    <circle id="Ellipse_150" data-name="Ellipse 150" cx="0.678" cy="0.678" r="0.678" transform="translate(45.83 114.033)" fill="#ffb4d6"/>
    <g id="Group_1768" data-name="Group 1768" transform="translate(21.693 99.501)" clip-path="url(#clip-path)">
      <line id="Line_62" data-name="Line 62" y1="1.612" x2="3.078" transform="translate(6.348 3.629)" fill="none" stroke="#ffb4d6" stroke-miterlimit="10" stroke-width="4"/>
      <line id="Line_63" data-name="Line 63" y1="1.577" x2="3.013" transform="translate(9.426 5.241)" fill="none" stroke="#ffb4d6" stroke-miterlimit="10" stroke-width="4"/>
      <line id="Line_64" data-name="Line 64" y1="1.525" x2="2.915" transform="translate(12.576 7.056)" fill="none" stroke="#ffb4d6" stroke-miterlimit="10" stroke-width="4"/>
      <line id="Line_65" data-name="Line 65" y1="1.386" x2="2.649" transform="translate(15.781 8.751)" fill="none" stroke="#ffb4d6" stroke-miterlimit="10" stroke-width="4"/>
      <line id="Line_66" data-name="Line 66" y1="1.386" x2="2.649" transform="translate(18.917 10.531)" fill="none" stroke="#ffb4d6" stroke-miterlimit="10" stroke-width="4"/>
      <line id="Line_67" data-name="Line 67" y1="1.386" x2="2.649" transform="translate(21.738 12.088)" fill="none" stroke="#ffb4d6" stroke-miterlimit="10" stroke-width="4"/>
      <line id="Line_68" data-name="Line 68" y1="1.388" x2="2.649" transform="translate(24.815 13.822)" fill="none" stroke="#ffb4d6" stroke-miterlimit="10" stroke-width="4"/>
    </g>
    <path id="Path_31777" data-name="Path 31777" d="M84.39,717.733l2.046-.6,16.953,9.4-1.442.573Z" transform="translate(-73.372 -608.205)" fill="#1a42c1"/>
    <path id="Path_31778" data-name="Path 31778" d="M179.37,773.293l1.442-.558V767.98l-1.442.573Z" transform="translate(-150.795 -649.655)" fill="#072766"/>
    <path id="Path_31779" data-name="Path 31779" d="M76.59,755.041l4.061-1.941,16.38,8.947v4.328Z" transform="translate(-67.014 -637.526)" fill="#1a42c1"/>
    <path id="Path_31780" data-name="Path 31780" d="M271.188,822.78v4.74l-17.558-9.478V813.41Z" transform="translate(-211.327 -686.687)" fill="#abbbf9"/>
    <path id="Path_31781" data-name="Path 31781" d="M253.63,810.761l2.046-.6,16.953,9.4-1.442.573Z" transform="translate(-211.327 -684.037)" fill="#1a42c1"/>
    <path id="Path_31782" data-name="Path 31782" d="M348.61,866.313l1.442-.558V861l-1.442.573Z" transform="translate(-288.749 -725.479)" fill="#072766"/>
    <path id="Path_31783" data-name="Path 31783" d="M245.83,848.063l4.061-1.943,16.38,8.947V859.4Z" transform="translate(-204.969 -713.35)" fill="#1a42c1"/>
    <line id="Line_69" data-name="Line 69" x2="21.516" y2="11.82" transform="translate(24.993 105.435)" fill="none" stroke="#ffb4d6" stroke-linecap="round" stroke-linejoin="round" stroke-width="4"/>
    <ellipse id="Ellipse_151" data-name="Ellipse 151" cx="17.207" cy="15.219" rx="17.207" ry="15.219" transform="matrix(0.666, -0.746, 0.746, 0.666, 66.314, 86.27)" fill="#3bbabc"/>
    <ellipse id="Ellipse_152" data-name="Ellipse 152" cx="14.741" cy="13.038" rx="14.741" ry="13.038" transform="matrix(0.666, -0.746, 0.746, 0.666, 69.584, 85.884)" fill="none" stroke="#207f7d" stroke-miterlimit="10" stroke-width="5"/>
    <circle id="Ellipse_153" data-name="Ellipse 153" cx="2.27" cy="2.27" r="2.27" transform="translate(82.937 84.256)" fill="#207f7d"/>
    <circle id="Ellipse_154" data-name="Ellipse 154" cx="2.27" cy="2.27" r="2.27" transform="translate(92.459 79.024)" fill="#207f7d"/>
    <ellipse id="Ellipse_155" data-name="Ellipse 155" cx="17.207" cy="15.219" rx="17.207" ry="15.219" transform="matrix(0.666, -0.746, 0.746, 0.666, 66.314, 128.832)" fill="#e84312"/>
    <ellipse id="Ellipse_156" data-name="Ellipse 156" cx="14.741" cy="13.038" rx="14.741" ry="13.038" transform="matrix(0.666, -0.746, 0.746, 0.666, 69.583, 128.445)" fill="none" stroke="#b72b0f" stroke-miterlimit="10" stroke-width="5"/>
    <circle id="Ellipse_157" data-name="Ellipse 157" cx="2.006" cy="2.006" r="2.006" transform="translate(86.033 131.029)" fill="#b72b0f"/>
    <circle id="Ellipse_158" data-name="Ellipse 158" cx="2.006" cy="2.006" r="2.006" transform="translate(92.988 124.621)" fill="#b72b0f"/>
    <circle id="Ellipse_159" data-name="Ellipse 159" cx="2.27" cy="2.27" r="2.27" transform="translate(83.763 120.982)" fill="#b72b0f"/>
  </g>
  <g id="Group_1985" data-name="Group 1985" transform="translate(176.609 60.552)">
    <text id="APPLICATIONS" transform="translate(0 110.193)" fill="#3bbabc" font-size="14" font-family="Poppins-Bold, Poppins" font-weight="700"><tspan x="0" y="15">APPLICATIONS</tspan></text>
    <text id="WEBSITES" transform="translate(0.149 26.596)" fill="#4e3cd3" font-size="14" font-family="Poppins-Bold, Poppins" font-weight="700"><tspan x="0" y="15">WEBSITES</tspan></text>
    <text id="DOCUMENTS" transform="translate(0.149)" fill="#e84312" font-size="14" font-family="Poppins-Bold, Poppins" font-weight="700"><tspan x="0" y="15">DOCUMENTS</tspan></text>
    <text id="DATABASES" transform="translate(0.149 82.251)" fill="#ff65a7" font-size="14" font-family="Poppins-Bold, Poppins" font-weight="700"><tspan x="0" y="15">DATABASES</tspan></text>
    <text id="IMAGES" transform="translate(0.149 54.254)" fill="#ff8718" font-size="14" font-family="Poppins-Bold, Poppins" font-weight="700"><tspan x="0" y="15">IMAGES</tspan></text>
  </g>
  <text id="JSON" transform="translate(21.375 151.637) rotate(-90)" fill="#1a42c1" font-size="20" font-family="Poppins-Bold, Poppins" font-weight="700"><tspan x="0" y="21">JSON</tspan></text>
  <text id="Automation" fill="#1a42c1" font-size="20" font-family="Poppins-Bold, Poppins" font-weight="700"><tspan x="99.699" y="21">Automation</tspan></text>
</svg>
