<svg xmlns="http://www.w3.org/2000/svg" xmlns:xlink="http://www.w3.org/1999/xlink" width="786" height="388.724" viewBox="0 0 786 388.724">
  <defs>
    <filter id="Polygon_22" x="192" y="126.734" width="93.98" height="61.108" filterUnits="userSpaceOnUse">
      <feOffset input="SourceAlpha"/>
      <feGaussianBlur result="blur"/>
      <feFlood flood-opacity="0.161"/>
      <feComposite operator="in" in2="blur"/>
      <feComposite in="SourceGraphic"/>
    </filter>
  </defs>
  <g id="Group_2506" data-name="Group 2506" transform="translate(-748 -3153)">
    <g id="Group_2505" data-name="Group 2505" transform="translate(-450.129 544.935)">
      <circle id="Ellipse_175" data-name="Ellipse 175" cx="14" cy="14" r="14" transform="translate(1658 2737)" fill="#ff65a7"/>
      <circle id="Ellipse_177" data-name="Ellipse 177" cx="11.5" cy="11.5" r="11.5" transform="translate(1506 2925)" fill="#ffd17a"/>
      <g id="Group_2504" data-name="Group 2504" transform="translate(1078 -527.219)">
        <g id="Group_2503" data-name="Group 2503" transform="translate(-263.626 2967)">
          <path id="Контур_31847" data-name="Контур 31847" d="M958.851,182a187.467,187.467,0,0,1,40.307,4.384L985.41,247.962c-9.928-2.187-16.393-2.5-26.558-2.5Z" transform="translate(-187.72)" fill="#356bb3"/>
          <path id="Контур_31848" data-name="Контур 31848" d="M1025.74,190.763a187.481,187.481,0,0,1,73.161,33.849l-37.929,50.721c-16.234-12.34-29.057-18.6-48.972-22.987Z" transform="translate(-214.31 -4.384)" fill="#e22b26"/>
          <path id="Контур_31849" data-name="Контур 31849" d="M1147.934,258.5a187.5,187.5,0,0,1,73.755,139.112l-63.216,3.556c-7.5-49.971-20.988-67.961-48.472-91.947Z" transform="translate(-263.338 -38.272)" fill="#fdac00"/>
          <path id="Контур_31850" data-name="Контур 31850" d="M1249.2,536.885a187.516,187.516,0,0,1-32.032,115.372L1165,615.9c18.989-30.483,19.489-48.472,20.988-75.457Z" transform="translate(-290.853 -177.544)" fill="#3e993d"/>
          <path id="Контур_31851" data-name="Контур 31851" d="M672.874,248.109A187.493,187.493,0,0,1,815.778,182l.077,63.464c-40.977,1-69.96,15.491-95.445,43.475Z" transform="translate(-44.65)" fill="#ea635e"/>
          <path id="Контур_31852" data-name="Контур 31852" d="M597.309,385.516a187.485,187.485,0,0,1,37.759-71.222l47.538,40.83c-14.492,20.988-19.03,27.325-24.486,46.973Z" transform="translate(-6.846 -66.185)" fill="#6a99d1"/>
          <path id="Контур_31853" data-name="Контур 31853" d="M642.185,643.109a187.5,187.5,0,0,1-51.721-186.283l60.81,16.578c-8.995,44.475-6,79.455,33.981,124.429Z" transform="translate(0 -137.492)" fill="#39b2ba"/>
          <path id="Конsтур_31854" data-name="Контур 31854" d="M984.945,731.36c-58.116,85.71-174.71,108.08-260.42,49.964a187.513,187.513,0,0,1-23.713-19.061l43.069-46.775c48.972,44.974,122.43,49.472,176.9-5,5.241-5.533,7.717-9.183,11.993-15.491Z" transform="translate(-58.627 -256.647)" fill="#ef5513"/>
          <circle id="Ellipse_353" data-name="Ellipse 353" cx="124.366" cy="124.366" r="124.366" transform="translate(646.433 245.12)" fill="#fff"/>
        </g>
        <path id="Polygon_15" data-name="Polygon 15" d="M44,0,88,33H0Z" transform="translate(351.568 3460.441) rotate(-43)" fill="#fff"/>
        <path id="Polygon_20" data-name="Polygon 20" d="M44,0,88,33H0Z" transform="translate(353.568 3463.441) rotate(-43)" fill="#ef5513"/>
        <path id="Polygon_21" data-name="Polygon 21" d="M44,0,88,33H0Z" transform="translate(325.18 3258.874) rotate(20)" fill="#fff"/>
        <g transform="matrix(1, 0, 0, 1, 120.13, 3135.28)" filter="url(#Polygon_22)">
          <path id="Polygon_22-2" data-name="Polygon 22" d="M44,0,88,33H0Z" transform="translate(203.29 126.73) rotate(20)" fill="#39b2ba"/>
        </g>
        <path id="Polygon_31" data-name="Polygon 31" d="M44,0,88,33H0Z" transform="matrix(-0.999, 0.052, -0.052, -0.999, 706.606, 3359.967)" fill="#fff"/>
        <path id="Polygon_32" data-name="Polygon 32" d="M44,0,88,33H0Z" transform="matrix(-0.999, 0.052, -0.052, -0.999, 706.002, 3356.383)" fill="#fdac00"/>
      </g>
      <text id="Humans_Avg._29_Minutes_per_Application" data-name="Humans Avg. 
29 Minutes per 
Application" transform="translate(1496 2774)" font-size="16" font-family="Poppins-Regular, Poppins"><tspan x="39.304" y="17">Humans Avg. </tspan><tspan x="33.592" y="44">29 Minutes per </tspan><tspan x="46.472" y="71">Application</tspan></text>
      <path id="Polygon_23" data-name="Polygon 23" d="M44,0,88,33H0Z" transform="matrix(0.743, 0.669, -0.669, 0.743, 1451.75, 2661.951)" fill="#fff"/>
      <path id="Polygon_24" data-name="Polygon 24" d="M44,0,88,33H0Z" transform="matrix(0.743, 0.669, -0.669, 0.743, 1448.936, 2664.205)" fill="#6a99d1"/>
      <path id="Polygon_25" data-name="Polygon 25" d="M44,0,88,33H0Z" transform="translate(1614.02 2614.833) rotate(95)" fill="#fff"/>
      <path id="Polygon_26" data-name="Polygon 26" d="M44,0,88,33H0Z" transform="translate(1610.526 2613.941) rotate(95)" fill="#ea635e"/>
      <path id="Polygon_27" data-name="Polygon 27" d="M44,0,88,33H0Z" transform="translate(1663.97 2623.293) rotate(105)" fill="#fff"/>
      <path id="Polygon_28" data-name="Polygon 28" d="M44,0,88,33H0Z" transform="translate(1660.684 2621.809) rotate(105)" fill="#356bb3"/>
      <path id="Polygon_29" data-name="Polygon 29" d="M44,0,88,33H0Z" transform="translate(1731.665 2666.401) rotate(122)" fill="#fff"/>
      <path id="Polygon_30" data-name="Polygon 30" d="M44,0,88,33H0Z" transform="translate(1728.956 2664.021) rotate(122)" fill="#e22b26"/>
      <path id="Polygon_33" data-name="Polygon 33" d="M44,0,88,33H0Z" transform="translate(1731.015 2948.377) rotate(-146)" fill="#fff"/>
      <path id="Polygon_34" data-name="Polygon 34" d="M44,0,88,33H0Z" transform="translate(1733.488 2945.753) rotate(-146)" fill="#3e993d"/>
    </g>
    <g id="Group_1823" data-name="Group 1823" transform="translate(782 3160.457)">
      <path id="Path_31863" data-name="Path 31863" d="M246.421,215.291l-4.761-9.712h1.394l2.526,7.063c.2.566.369,1.1.512,1.591.151-.531.328-1.06.529-1.591l2.614-7.063h1.307l-3.8,9.712Zm9.932-2.259,1.236.141a2.978,2.978,0,0,1-1.077,1.678,3.655,3.655,0,0,1-4.468-.355,3.724,3.724,0,0,1-.9-2.665,3.83,3.83,0,0,1,.919-2.738,3.084,3.084,0,0,1,2.367-.989,2.991,2.991,0,0,1,2.3.954,3.791,3.791,0,0,1,.9,2.7v.317h-5.246a2.767,2.767,0,0,0,.653,1.784,1.96,1.96,0,0,0,1.467.6,1.84,1.84,0,0,0,1.112-.334A2.258,2.258,0,0,0,256.353,213.032Zm-3.9-1.925h3.921a2.339,2.339,0,0,0-.44-1.342,1.858,1.858,0,0,0-1.485-.689,1.928,1.928,0,0,0-1.394.548A2.184,2.184,0,0,0,252.449,211.107Zm6.995,4.184v-7.028h1.077v1.06a2.841,2.841,0,0,1,.743-.971,1.315,1.315,0,0,1,.776-.249,2.368,2.368,0,0,1,1.22.371l-.407,1.114a1.662,1.662,0,0,0-.865-.266,1.15,1.15,0,0,0-.724.247,1.227,1.227,0,0,0-.425.653,4.338,4.338,0,0,0-.212,1.377v3.69Zm4.539-8.335v-1.377h1.2v1.377Zm0,8.335v-7.028h1.2v7.028Zm3.674,0v-6.109H266.6v-.919h1.06V207.5a3.275,3.275,0,0,1,.122-1.041,1.523,1.523,0,0,1,.6-.759,2.241,2.241,0,0,1,1.218-.284,5.508,5.508,0,0,1,1.114.124l-.178,1.025a4.983,4.983,0,0,0-.705-.054,1.076,1.076,0,0,0-.778.23,1.306,1.306,0,0,0-.212.865v.653h1.377v.919h-1.377v6.109Zm3.056,2.7-.143-1.112a2.667,2.667,0,0,0,.689.106,1.175,1.175,0,0,0,.618-.141,1.063,1.063,0,0,0,.406-.355,8.926,8.926,0,0,0,.371-.9,1.621,1.621,0,0,1,.106-.282l-2.684-7.047h1.29l1.465,4.062q.283.778.512,1.643c.141-.554.307-1.089.494-1.608l1.5-4.1h1.185l-2.668,7.152q-.442,1.148-.672,1.589a2.192,2.192,0,0,1-.74.865,1.66,1.66,0,0,1-.971.284A2.2,2.2,0,0,1,270.711,217.994Zm10.384-2.7v-9.712H285.4a5.6,5.6,0,0,1,1.977.266,2.177,2.177,0,0,1,1.079.936,2.7,2.7,0,0,1,.407,1.448,2.439,2.439,0,0,1-.672,1.749,3.408,3.408,0,0,1-2.066.9,3.575,3.575,0,0,1,.778.477,6.3,6.3,0,0,1,1.058,1.288l1.7,2.649h-1.626l-1.272-2.012a15.348,15.348,0,0,0-.936-1.342,2.457,2.457,0,0,0-.653-.637,2.039,2.039,0,0,0-.583-.282,4.956,4.956,0,0,0-.705-.035h-1.5v4.308Zm1.288-5.42h2.773a4.219,4.219,0,0,0,1.359-.176,1.5,1.5,0,0,0,.759-.583,1.594,1.594,0,0,0,.265-.884,1.425,1.425,0,0,0-.512-1.13,2.318,2.318,0,0,0-1.572-.442h-3.072Zm13.527,3.161,1.236.141a2.958,2.958,0,0,1-1.076,1.678,3.655,3.655,0,0,1-4.468-.355,3.732,3.732,0,0,1-.9-2.665,3.831,3.831,0,0,1,.919-2.738,3.081,3.081,0,0,1,2.367-.989,2.986,2.986,0,0,1,2.294.954,3.781,3.781,0,0,1,.9,2.7v.317h-5.244a2.766,2.766,0,0,0,.653,1.784,1.956,1.956,0,0,0,1.467.6,1.845,1.845,0,0,0,1.112-.334A2.27,2.27,0,0,0,295.91,213.032Zm-3.9-1.925h3.92a2.353,2.353,0,0,0-.442-1.342,1.854,1.854,0,0,0-1.483-.689,1.93,1.93,0,0,0-1.4.548A2.183,2.183,0,0,0,292.008,211.107Zm6.534,2.083,1.166-.176a1.665,1.665,0,0,0,.548,1.077,1.989,1.989,0,0,0,1.288.371,1.881,1.881,0,0,0,1.2-.317,1,1,0,0,0,.407-.794.722.722,0,0,0-.353-.637,5.256,5.256,0,0,0-1.22-.4,12.9,12.9,0,0,1-1.819-.566,1.857,1.857,0,0,1-.759-.67,1.77,1.77,0,0,1-.263-.954,1.839,1.839,0,0,1,.212-.865,1.88,1.88,0,0,1,.583-.672,2.782,2.782,0,0,1,.759-.336,3.685,3.685,0,0,1,1.041-.141,3.819,3.819,0,0,1,1.431.249,1.922,1.922,0,0,1,.936.635,2.447,2.447,0,0,1,.407,1.077l-1.166.16a1.21,1.21,0,0,0-.458-.83,1.621,1.621,0,0,0-1.079-.317,1.883,1.883,0,0,0-1.166.282.778.778,0,0,0-.353.635.638.638,0,0,0,.141.407,1.108,1.108,0,0,0,.46.317c.116.048.471.147,1.058.3a15.837,15.837,0,0,1,1.767.566,1.665,1.665,0,0,1,1.06,1.641,2,2,0,0,1-.355,1.131,2.289,2.289,0,0,1-.99.813,3.694,3.694,0,0,1-1.483.282,3.372,3.372,0,0,1-2.1-.564A2.71,2.71,0,0,1,298.542,213.189Zm11.867,2.1v-1.041a2.593,2.593,0,0,1-2.242,1.2,2.973,2.973,0,0,1-1.166-.23,2.051,2.051,0,0,1-.794-.6,2.307,2.307,0,0,1-.371-.9,6.041,6.041,0,0,1-.071-1.114v-4.344h1.2v3.9a7.19,7.19,0,0,0,.07,1.255,1.3,1.3,0,0,0,.458.743,1.546,1.546,0,0,0,.919.263,1.953,1.953,0,0,0,.989-.263,1.545,1.545,0,0,0,.67-.761,3.468,3.468,0,0,0,.214-1.377v-3.761h1.182v7.028Zm3.267,0v-9.712h1.2v9.712Zm6.022-1.058.176,1.041a4.51,4.51,0,0,1-.9.106,2.105,2.105,0,0,1-1.006-.195,1.259,1.259,0,0,1-.512-.548,4.436,4.436,0,0,1-.141-1.413v-4.043h-.865v-.919h.865v-1.749l1.182-.705v2.454h1.2v.919h-1.2V213.3a2.389,2.389,0,0,0,.054.653.565.565,0,0,0,.212.23.783.783,0,0,0,.407.089A5.127,5.127,0,0,0,319.7,214.233Zm.319-1.043,1.164-.176a1.684,1.684,0,0,0,.548,1.077,2,2,0,0,0,1.29.371,1.881,1.881,0,0,0,1.2-.317,1.009,1.009,0,0,0,.407-.794.72.72,0,0,0-.355-.637,5.225,5.225,0,0,0-1.218-.4,12.9,12.9,0,0,1-1.819-.566,1.831,1.831,0,0,1-.759-.67,1.772,1.772,0,0,1-.266-.954,1.839,1.839,0,0,1,.212-.865,1.9,1.9,0,0,1,.583-.672,2.779,2.779,0,0,1,.759-.336,3.7,3.7,0,0,1,1.043-.141,3.8,3.8,0,0,1,1.429.249,1.928,1.928,0,0,1,.938.635,2.445,2.445,0,0,1,.4,1.077l-1.166.16a1.2,1.2,0,0,0-.458-.83,1.611,1.611,0,0,0-1.077-.317,1.878,1.878,0,0,0-1.166.282.773.773,0,0,0-.353.635.626.626,0,0,0,.141.407,1.114,1.114,0,0,0,.458.317q.177.072,1.06.3a15.759,15.759,0,0,1,1.765.566,1.767,1.767,0,0,1,.778.618,1.744,1.744,0,0,1,.282,1.023,2.008,2.008,0,0,1-.353,1.131,2.288,2.288,0,0,1-.989.813,3.694,3.694,0,0,1-1.483.282,3.364,3.364,0,0,1-2.1-.564A2.709,2.709,0,0,1,320.018,213.189Z" transform="translate(-230.606 -194.375)" fill="#141414"/>
      <path id="Path_31864" data-name="Path 31864" d="M245.917,224.554h-1.182V216.96a7.164,7.164,0,0,1-1.149.832,7.272,7.272,0,0,1-1.236.6v-1.147a7.662,7.662,0,0,0,1.732-1.13,4.522,4.522,0,0,0,1.077-1.307h.759Zm3.427-2.56,1.2-.16a2.626,2.626,0,0,0,.689,1.467,1.736,1.736,0,0,0,1.2.442,1.945,1.945,0,0,0,1.429-.583,1.971,1.971,0,0,0,.583-1.448,1.792,1.792,0,0,0-.548-1.344,1.815,1.815,0,0,0-1.359-.546,3.27,3.27,0,0,0-.848.141l.141-1.06a1.328,1.328,0,0,0,.195.017,2.442,2.442,0,0,0,1.359-.388A1.375,1.375,0,0,0,254,217.3a1.426,1.426,0,0,0-.442-1.077,1.551,1.551,0,0,0-1.147-.442,1.653,1.653,0,0,0-1.166.442,2.193,2.193,0,0,0-.583,1.307l-1.2-.212a2.989,2.989,0,0,1,.989-1.838,2.848,2.848,0,0,1,1.925-.67,3.094,3.094,0,0,1,1.467.353,2.427,2.427,0,0,1,1.023.919,2.363,2.363,0,0,1,.355,1.253,2.109,2.109,0,0,1-.336,1.149,2.285,2.285,0,0,1-.989.811,2.221,2.221,0,0,1,1.325.83,2.507,2.507,0,0,1,.477,1.572,2.851,2.851,0,0,1-.938,2.155,3.228,3.228,0,0,1-2.329.882,3.058,3.058,0,0,1-2.12-.759A2.987,2.987,0,0,1,249.344,221.994Zm8.582,2.56V223.2h1.361v1.359Zm4.557-5.263a2.444,2.444,0,0,1-1.114-.776,2.073,2.073,0,0,1-.353-1.2,2.365,2.365,0,0,1,.759-1.784,3.208,3.208,0,0,1,4.08.017,2.4,2.4,0,0,1,.776,1.8,1.949,1.949,0,0,1-.353,1.166,2.311,2.311,0,0,1-1.077.776,2.514,2.514,0,0,1,1.359.935,2.631,2.631,0,0,1,.46,1.556,2.771,2.771,0,0,1-.884,2.083,3.158,3.158,0,0,1-2.313.848,3.191,3.191,0,0,1-2.313-.848,2.813,2.813,0,0,1-.884-2.118,2.57,2.57,0,0,1,.477-1.591A2.473,2.473,0,0,1,262.483,219.291Zm-.247-2.031a1.539,1.539,0,0,0,.44,1.131,1.615,1.615,0,0,0,1.166.442,1.558,1.558,0,0,0,1.131-.425,1.535,1.535,0,0,0-.017-2.172,1.544,1.544,0,0,0-1.131-.458,1.592,1.592,0,0,0-1.149.442A1.429,1.429,0,0,0,262.236,217.26Zm-.371,4.487a2.27,2.27,0,0,0,.228.987,1.753,1.753,0,0,0,.726.743,2.071,2.071,0,0,0,1.023.266,1.89,1.89,0,0,0,1.4-.548,1.856,1.856,0,0,0,.564-1.4,1.93,1.93,0,0,0-2-2,1.9,1.9,0,0,0-1.941,1.944Zm6.922-4.574a2.979,2.979,0,0,1,.512-1.767,1.765,1.765,0,0,1,1.518-.724,1.973,1.973,0,0,1,1.518.653,3.288,3.288,0,0,1-.017,3.815,1.933,1.933,0,0,1-1.483.653,1.881,1.881,0,0,1-1.466-.653A2.9,2.9,0,0,1,268.786,217.173Zm2.066-1.678a.9.9,0,0,0-.741.388,2.532,2.532,0,0,0-.284,1.413,2.325,2.325,0,0,0,.284,1.325.915.915,0,0,0,.741.369.875.875,0,0,0,.743-.388,2.38,2.38,0,0,0,.3-1.394,2.176,2.176,0,0,0-.3-1.325A.907.907,0,0,0,270.852,215.5Zm0,9.411,5.316-10.224h.971l-5.3,10.224Zm4.2-2.63a2.983,2.983,0,0,1,.512-1.765,1.789,1.789,0,0,1,1.537-.724,1.973,1.973,0,0,1,1.518.653,2.681,2.681,0,0,1,.6,1.906,2.716,2.716,0,0,1-.618,1.906,1.954,1.954,0,0,1-1.5.653,1.918,1.918,0,0,1-1.467-.653A2.9,2.9,0,0,1,275.055,222.276Zm2.085-1.678a.926.926,0,0,0-.759.388,2.539,2.539,0,0,0-.282,1.415,2.172,2.172,0,0,0,.3,1.307.9.9,0,0,0,1.483,0,2.43,2.43,0,0,0,.3-1.415,2.147,2.147,0,0,0-.3-1.307A.913.913,0,0,0,277.14,220.6Z" transform="translate(-231.866 -184.424)" fill="#8c8d8d"/>
      <path id="Path_31865" data-name="Path 31865" d="M241.634,212.63H521.207" transform="translate(-241.634 -186.628)" fill="none" stroke="#ea635e" stroke-miterlimit="10" stroke-width="1"/>
      <path id="Path_31867" data-name="Path 31867" d="M241.932,250.117l1.2-.106a2.617,2.617,0,0,0,.407,1.2,2.3,2.3,0,0,0,.971.759,3.83,3.83,0,0,0,1.5.284,3.608,3.608,0,0,0,1.288-.214,1.816,1.816,0,0,0,.83-.6,1.384,1.384,0,0,0,.284-.83,1.244,1.244,0,0,0-.266-.794,1.888,1.888,0,0,0-.865-.583,16.565,16.565,0,0,0-1.749-.477,8.6,8.6,0,0,1-1.854-.6,2.62,2.62,0,0,1-1.041-.9,2.284,2.284,0,0,1-.336-1.218,2.478,2.478,0,0,1,.407-1.361,2.517,2.517,0,0,1,1.218-.971,4.624,4.624,0,0,1,1.784-.336,4.809,4.809,0,0,1,1.906.355,2.614,2.614,0,0,1,1.272,1.023,2.926,2.926,0,0,1,.477,1.518l-1.236.089a1.945,1.945,0,0,0-.689-1.377,2.544,2.544,0,0,0-1.676-.477,2.721,2.721,0,0,0-1.7.423,1.276,1.276,0,0,0-.529,1.025,1.1,1.1,0,0,0,.371.865,5.079,5.079,0,0,0,1.925.689,12.849,12.849,0,0,1,2.153.618,3.072,3.072,0,0,1,1.255,1.008,2.352,2.352,0,0,1,.407,1.377,2.666,2.666,0,0,1-.442,1.464,3,3,0,0,1-1.272,1.06,4.554,4.554,0,0,1-1.873.371,5.862,5.862,0,0,1-2.224-.371,3.153,3.153,0,0,1-1.4-1.166A3.3,3.3,0,0,1,241.932,250.117Zm13.917,2.261a4.406,4.406,0,0,1-1.29.794,3.621,3.621,0,0,1-1.307.23,2.564,2.564,0,0,1-1.784-.564,1.883,1.883,0,0,1-.618-1.45,1.929,1.929,0,0,1,.23-.936,1.764,1.764,0,0,1,.618-.689,2.769,2.769,0,0,1,.865-.388,6.582,6.582,0,0,1,1.06-.195,9.968,9.968,0,0,0,2.12-.407v-.3a1.351,1.351,0,0,0-.336-1.043,2.632,2.632,0,0,0-2.6-.087,1.725,1.725,0,0,0-.6,1.025l-1.166-.16a2.813,2.813,0,0,1,.531-1.2,2.316,2.316,0,0,1,1.058-.705,4.676,4.676,0,0,1,1.591-.249,4.241,4.241,0,0,1,1.464.212,1.959,1.959,0,0,1,.83.531,1.855,1.855,0,0,1,.371.813,7.37,7.37,0,0,1,.054,1.093V250.3a18.048,18.048,0,0,0,.071,2.1,2.794,2.794,0,0,0,.317.846h-1.255A2.7,2.7,0,0,1,255.849,252.378Zm-.106-2.666a9.046,9.046,0,0,1-1.944.458,4.086,4.086,0,0,0-1.041.247,1.081,1.081,0,0,0-.477.371,1.073,1.073,0,0,0,.195,1.361,1.581,1.581,0,0,0,1.06.317,2.415,2.415,0,0,0,1.218-.3,1.8,1.8,0,0,0,.794-.83,2.819,2.819,0,0,0,.195-1.184Zm5.368,3.531-2.668-7.028H259.7l1.518,4.2q.23.691.442,1.413.159-.548.442-1.323l1.57-4.292h1.22l-2.667,7.028Zm9.641-2.259,1.236.141a2.978,2.978,0,0,1-1.077,1.678,3.655,3.655,0,0,1-4.468-.355,3.732,3.732,0,0,1-.9-2.665,3.83,3.83,0,0,1,.917-2.738,3.087,3.087,0,0,1,2.367-.99,2.991,2.991,0,0,1,2.3.954,3.782,3.782,0,0,1,.9,2.7v.317H266.78a2.749,2.749,0,0,0,.653,1.784,1.955,1.955,0,0,0,1.464.6,1.838,1.838,0,0,0,1.114-.336A2.253,2.253,0,0,0,270.753,250.984Zm-3.9-1.925h3.92a2.349,2.349,0,0,0-.442-1.342,1.854,1.854,0,0,0-1.483-.689,1.936,1.936,0,0,0-1.4.546A2.191,2.191,0,0,0,266.851,249.059Zm10.349,6.887-.141-1.112a2.655,2.655,0,0,0,.689.106,1.181,1.181,0,0,0,.618-.141,1.073,1.073,0,0,0,.4-.355,8.435,8.435,0,0,0,.371-.9,1.625,1.625,0,0,1,.106-.282l-2.684-7.047h1.29l1.464,4.062c.189.519.361,1.066.512,1.643q.212-.831.5-1.608l1.5-4.1h1.184l-2.668,7.152q-.442,1.148-.67,1.589a2.2,2.2,0,0,1-.743.865,1.655,1.655,0,0,1-.971.284A2.2,2.2,0,0,1,277.2,255.946Zm6.393-6.217a3.636,3.636,0,0,1,1.077-2.9,3.261,3.261,0,0,1,2.207-.778,3.142,3.142,0,0,1,2.367.954,3.533,3.533,0,0,1,.936,2.614,4.649,4.649,0,0,1-.407,2.137,2.915,2.915,0,0,1-1.2,1.22,3.5,3.5,0,0,1-1.7.423,3.189,3.189,0,0,1-2.383-.936A3.836,3.836,0,0,1,283.593,249.729Zm1.218,0a3,3,0,0,0,.583,2.014,1.914,1.914,0,0,0,1.483.67,1.878,1.878,0,0,0,1.483-.67,3.056,3.056,0,0,0,.583-2.049,2.874,2.874,0,0,0-.6-1.977,1.859,1.859,0,0,0-1.467-.672,1.909,1.909,0,0,0-1.483.672A2.957,2.957,0,0,0,284.811,249.729Zm11.745,3.514V252.2a2.594,2.594,0,0,1-2.244,1.2,2.972,2.972,0,0,1-1.164-.23,2.059,2.059,0,0,1-.8-.6,2.309,2.309,0,0,1-.369-.9,6.045,6.045,0,0,1-.071-1.114v-4.344h1.2v3.9a7.186,7.186,0,0,0,.07,1.255,1.282,1.282,0,0,0,.458.741,1.528,1.528,0,0,0,.919.266,1.922,1.922,0,0,0,.987-.266,1.527,1.527,0,0,0,.672-.759,3.512,3.512,0,0,0,.212-1.377v-3.761h1.185v7.028Zm3.284,0v-7.028h1.079v1.06a2.816,2.816,0,0,1,.741-.971,1.325,1.325,0,0,1,.778-.249,2.357,2.357,0,0,1,1.218.371l-.407,1.112a1.677,1.677,0,0,0-.865-.263,1.142,1.142,0,0,0-.724.247,1.236,1.236,0,0,0-.423.653,4.336,4.336,0,0,0-.212,1.377v3.69Zm9.766,0-2.578-9.712h1.326l1.483,6.374q.23.99.407,1.979c.247-1.037.394-1.637.442-1.8l1.836-6.551h1.554l1.4,4.91a30.089,30.089,0,0,1,.759,3.443q.177-.918.477-2.12l1.518-6.233h1.288l-2.649,9.712H315.61l-2.031-7.4q-.264-.918-.317-1.13c-.1.436-.189.813-.284,1.13l-2.047,7.4Zm10.156-3.514a3.636,3.636,0,0,1,1.077-2.9,3.257,3.257,0,0,1,2.207-.778,3.143,3.143,0,0,1,2.367.954,3.533,3.533,0,0,1,.936,2.614,4.65,4.65,0,0,1-.407,2.137,2.908,2.908,0,0,1-1.2,1.22,3.481,3.481,0,0,1-1.695.423,3.189,3.189,0,0,1-2.383-.936A3.836,3.836,0,0,1,319.761,249.729Zm1.218,0a3,3,0,0,0,.583,2.014,1.914,1.914,0,0,0,1.483.67,1.879,1.879,0,0,0,1.483-.67,3.056,3.056,0,0,0,.583-2.049,2.874,2.874,0,0,0-.6-1.977,1.861,1.861,0,0,0-1.467-.672,1.91,1.91,0,0,0-1.483.672A2.958,2.958,0,0,0,320.979,249.729Zm7.117,3.514v-7.028h1.077v1.06a2.842,2.842,0,0,1,.743-.971,1.316,1.316,0,0,1,.778-.249,2.362,2.362,0,0,1,1.218.371l-.407,1.112a1.678,1.678,0,0,0-.865-.263,1.138,1.138,0,0,0-.724.247,1.212,1.212,0,0,0-.423.653,4.337,4.337,0,0,0-.214,1.377v3.69Zm4.539,0v-9.712h1.2v5.545l2.809-2.861H338.2l-2.7,2.6,2.968,4.433H337l-2.332-3.6-.83.811v2.79Z" transform="translate(-230.314 -153.602)" fill="#141414"/>
      <path id="Path_31868" data-name="Path 31868" d="M248.114,255.177l-1.182.089a2.311,2.311,0,0,0-.442-1.025,1.6,1.6,0,0,0-1.2-.512,1.678,1.678,0,0,0-1.006.317,2.944,2.944,0,0,0-.884,1.22,6.32,6.32,0,0,0-.336,2.224,2.735,2.735,0,0,1,1.043-.971,2.926,2.926,0,0,1,1.323-.317,2.666,2.666,0,0,1,2.014.882,3.138,3.138,0,0,1,.846,2.261,3.723,3.723,0,0,1-.4,1.713,2.879,2.879,0,0,1-1.079,1.2,2.99,2.99,0,0,1-1.554.407,3.056,3.056,0,0,1-2.437-1.1,5.53,5.53,0,0,1-.936-3.6,6.457,6.457,0,0,1,1.041-4.1,2.969,2.969,0,0,1,2.437-1.112,2.691,2.691,0,0,1,1.873.653A2.657,2.657,0,0,1,248.114,255.177Zm-4.856,4.186a2.934,2.934,0,0,0,.247,1.182,2.067,2.067,0,0,0,.724.848,1.874,1.874,0,0,0,1.008.3,1.692,1.692,0,0,0,1.288-.6,2.411,2.411,0,0,0,.548-1.659,2.224,2.224,0,0,0-.548-1.589,1.729,1.729,0,0,0-1.342-.583,1.842,1.842,0,0,0-1.377.583A2.125,2.125,0,0,0,243.258,259.363Zm7.258,3.143v-1.359h1.361v1.359Zm2.9-2.242,1.149-.106a2.012,2.012,0,0,0,.548,1.182,1.593,1.593,0,0,0,1.06.355,1.785,1.785,0,0,0,.952-.249,2.213,2.213,0,0,0,.689-.67,3.987,3.987,0,0,0,.442-1.13,6.14,6.14,0,0,0,.176-1.467v-.247a2.822,2.822,0,0,1-.971.936,2.651,2.651,0,0,1-1.342.355,2.722,2.722,0,0,1-2.049-.867,3.242,3.242,0,0,1-.83-2.313,3.293,3.293,0,0,1,.865-2.383,2.941,2.941,0,0,1,2.19-.9,3.044,3.044,0,0,1,1.713.512,3.171,3.171,0,0,1,1.2,1.464,7.123,7.123,0,0,1,.407,2.719,8.9,8.9,0,0,1-.407,2.968A3.391,3.391,0,0,1,258,262.1a3.109,3.109,0,0,1-1.855.566,2.784,2.784,0,0,1-1.871-.618A2.717,2.717,0,0,1,253.412,260.263Zm4.875-4.292a2.318,2.318,0,0,0-.548-1.624,1.674,1.674,0,0,0-1.307-.6,1.842,1.842,0,0,0-1.394.653,2.382,2.382,0,0,0-.583,1.678,2.072,2.072,0,0,0,.564,1.5,1.85,1.85,0,0,0,1.377.583,1.761,1.761,0,0,0,1.361-.583A2.3,2.3,0,0,0,258.287,255.972Zm3.091-.848a2.977,2.977,0,0,1,.512-1.765,1.765,1.765,0,0,1,1.518-.724,1.973,1.973,0,0,1,1.518.653,3.287,3.287,0,0,1-.017,3.815,1.936,1.936,0,0,1-1.483.653,1.881,1.881,0,0,1-1.467-.653A2.9,2.9,0,0,1,261.378,255.123Zm2.066-1.676a.9.9,0,0,0-.74.388,2.532,2.532,0,0,0-.284,1.413,2.325,2.325,0,0,0,.284,1.326.915.915,0,0,0,.74.369.875.875,0,0,0,.743-.388,2.383,2.383,0,0,0,.3-1.394,2.178,2.178,0,0,0-.3-1.326A.907.907,0,0,0,263.444,253.447Zm0,9.411,5.317-10.224h.971l-5.3,10.224Zm4.2-2.63a2.982,2.982,0,0,1,.512-1.765,1.786,1.786,0,0,1,1.537-.724,1.973,1.973,0,0,1,1.518.653,2.681,2.681,0,0,1,.6,1.906,2.716,2.716,0,0,1-.618,1.906,1.957,1.957,0,0,1-1.5.653,1.917,1.917,0,0,1-1.467-.653A2.9,2.9,0,0,1,267.646,260.228Zm2.085-1.678a.923.923,0,0,0-.759.388,2.539,2.539,0,0,0-.282,1.415,2.189,2.189,0,0,0,.3,1.307.9.9,0,0,0,1.485,0,2.429,2.429,0,0,0,.3-1.415,2.146,2.146,0,0,0-.3-1.307A.913.913,0,0,0,269.731,258.55Z" transform="translate(-230.369 -143.651)" fill="#8c8d8d"/>
      <path id="Path_31869" data-name="Path 31869" d="M241.634,250.582H438.1" transform="translate(-241.634 -145.855)" fill="none" stroke="#6a99d1" stroke-miterlimit="10" stroke-width="1"/>
      <path id="Path_31871" data-name="Path 31871" d="M242.153,316.76v-9.714h7.011v1.147h-5.721v2.968h5.368v1.147h-5.368v3.3h5.951v1.149Zm8.071,0,2.562-3.657-2.367-3.373H251.9l1.077,1.643c.2.317.365.583.5.795.187-.295.365-.554.529-.778l1.182-1.659h1.431l-2.437,3.3,2.614,3.728h-1.448l-1.448-2.19-.388-.583-1.854,2.773ZM260.4,315.7l.176,1.041a4.505,4.505,0,0,1-.9.106,2.129,2.129,0,0,1-1.006-.193,1.283,1.283,0,0,1-.512-.548,4.4,4.4,0,0,1-.141-1.415v-4.043h-.867v-.919h.867v-1.749l1.182-.705v2.454h1.2v.919h-1.2v4.115a2.407,2.407,0,0,0,.054.654.544.544,0,0,0,.212.228.752.752,0,0,0,.407.089A5.122,5.122,0,0,0,260.4,315.7Zm.778,1.06v-7.03h1.077v1.06a2.858,2.858,0,0,1,.743-.971,1.312,1.312,0,0,1,.776-.247,2.366,2.366,0,0,1,1.22.369l-.407,1.114a1.682,1.682,0,0,0-.865-.265,1.15,1.15,0,0,0-.724.247,1.227,1.227,0,0,0-.425.653,4.338,4.338,0,0,0-.212,1.377v3.692Zm9.129-.867a4.48,4.48,0,0,1-1.288.8,3.665,3.665,0,0,1-1.307.228,2.557,2.557,0,0,1-1.784-.564,1.875,1.875,0,0,1-.618-1.448,1.959,1.959,0,0,1,.228-.938,1.8,1.8,0,0,1,.618-.689,2.761,2.761,0,0,1,.867-.388,6.552,6.552,0,0,1,1.058-.2,10.1,10.1,0,0,0,2.12-.4v-.3a1.346,1.346,0,0,0-.336-1.041,2.054,2.054,0,0,0-1.359-.39,2.083,2.083,0,0,0-1.236.3,1.727,1.727,0,0,0-.6,1.025l-1.166-.16a2.864,2.864,0,0,1,.531-1.2,2.329,2.329,0,0,1,1.06-.705,4.657,4.657,0,0,1,1.589-.247,4.262,4.262,0,0,1,1.466.212,1.952,1.952,0,0,1,.83.529,1.854,1.854,0,0,1,.369.813,7.394,7.394,0,0,1,.054,1.1v1.589a18.047,18.047,0,0,0,.071,2.1,2.882,2.882,0,0,0,.317.848h-1.253A2.672,2.672,0,0,1,270.3,315.893Zm-.106-2.665a9.058,9.058,0,0,1-1.942.458,4.112,4.112,0,0,0-1.043.247,1.1,1.1,0,0,0-.477.371,1.081,1.081,0,0,0,.2,1.361,1.585,1.585,0,0,0,1.06.317,2.415,2.415,0,0,0,1.218-.3,1.8,1.8,0,0,0,.794-.83,2.809,2.809,0,0,0,.195-1.182Zm8.017.954,1.166.158a3.035,3.035,0,0,1-.99,1.89,2.851,2.851,0,0,1-1.941.689,3.053,3.053,0,0,1-2.332-.936,3.913,3.913,0,0,1-.865-2.719,4.916,4.916,0,0,1,.371-1.979A2.679,2.679,0,0,1,274.772,310a3.489,3.489,0,0,1,1.695-.423,2.861,2.861,0,0,1,1.854.581,2.6,2.6,0,0,1,.954,1.643l-1.166.176a1.85,1.85,0,0,0-.583-1.058,1.494,1.494,0,0,0-1.025-.371,1.844,1.844,0,0,0-1.464.653,3,3,0,0,0-.566,2.031,3.143,3.143,0,0,0,.548,2.066,1.78,1.78,0,0,0,1.413.635,1.651,1.651,0,0,0,1.166-.423A2.141,2.141,0,0,0,278.215,314.182ZM283,315.7l.178,1.041a4.539,4.539,0,0,1-.9.106,2.134,2.134,0,0,1-1.006-.193,1.3,1.3,0,0,1-.512-.548,4.463,4.463,0,0,1-.141-1.415v-4.043h-.865v-.919h.865v-1.749l1.184-.705v2.454H283v.919h-1.2v4.115a2.442,2.442,0,0,0,.052.654.572.572,0,0,0,.212.228.761.761,0,0,0,.407.089A5.123,5.123,0,0,0,283,315.7Zm4.346,1.06v-9.714h4.308a5.671,5.671,0,0,1,1.979.266,2.181,2.181,0,0,1,1.077.936,2.682,2.682,0,0,1,.407,1.448,2.439,2.439,0,0,1-.672,1.749,3.4,3.4,0,0,1-2.066.9,3.6,3.6,0,0,1,.778.477,6.333,6.333,0,0,1,1.06,1.29l1.695,2.649h-1.624l-1.272-2.014a15.625,15.625,0,0,0-.938-1.342,2.415,2.415,0,0,0-.653-.635,2.023,2.023,0,0,0-.583-.284,4.971,4.971,0,0,0-.705-.035h-1.5v4.31Zm1.288-5.422h2.773a4.153,4.153,0,0,0,1.359-.176,1.5,1.5,0,0,0,.761-.583,1.591,1.591,0,0,0,.263-.884,1.424,1.424,0,0,0-.512-1.13,2.316,2.316,0,0,0-1.57-.442h-3.074Zm13.529,3.161,1.236.141a2.97,2.97,0,0,1-1.079,1.678,3.655,3.655,0,0,1-4.468-.355,3.732,3.732,0,0,1-.9-2.666,3.83,3.83,0,0,1,.919-2.738,3.08,3.08,0,0,1,2.367-.987,2.989,2.989,0,0,1,2.3.952,3.791,3.791,0,0,1,.9,2.7v.317h-5.246a2.767,2.767,0,0,0,.653,1.784,1.956,1.956,0,0,0,1.467.6,1.826,1.826,0,0,0,1.112-.334A2.273,2.273,0,0,0,302.164,314.5Zm-3.9-1.925h3.921a2.324,2.324,0,0,0-.442-1.342,1.851,1.851,0,0,0-1.483-.689,1.921,1.921,0,0,0-1.394.548A2.188,2.188,0,0,0,298.26,312.574Zm6.976,4.186v-9.714h1.2v9.714Zm8.229-2.261,1.236.141a2.967,2.967,0,0,1-1.077,1.678,3.655,3.655,0,0,1-4.468-.355,3.732,3.732,0,0,1-.9-2.666,3.821,3.821,0,0,1,.919-2.738,3.079,3.079,0,0,1,2.365-.987,2.986,2.986,0,0,1,2.3.952,3.782,3.782,0,0,1,.9,2.7v.317h-5.244a2.767,2.767,0,0,0,.653,1.784,1.956,1.956,0,0,0,1.467.6,1.83,1.83,0,0,0,1.112-.334A2.27,2.27,0,0,0,313.464,314.5Zm-3.9-1.925h3.921a2.354,2.354,0,0,0-.442-1.342,1.854,1.854,0,0,0-1.483-.689,1.93,1.93,0,0,0-1.4.548A2.187,2.187,0,0,0,309.563,312.574Zm8.953,4.186-2.666-7.03H317.1l1.518,4.2q.23.691.442,1.413.159-.545.442-1.323l1.572-4.292h1.218l-2.666,7.03Zm9.432-.867a4.461,4.461,0,0,1-1.29.8,3.665,3.665,0,0,1-1.307.228,2.564,2.564,0,0,1-1.784-.564,1.882,1.882,0,0,1-.618-1.448,1.937,1.937,0,0,1,.23-.938,1.78,1.78,0,0,1,.618-.689,2.771,2.771,0,0,1,.865-.388,6.588,6.588,0,0,1,1.06-.2,10.136,10.136,0,0,0,2.12-.4v-.3a1.346,1.346,0,0,0-.336-1.041,2.059,2.059,0,0,0-1.361-.39,2.087,2.087,0,0,0-1.236.3,1.725,1.725,0,0,0-.6,1.025l-1.166-.16a2.837,2.837,0,0,1,.529-1.2,2.351,2.351,0,0,1,1.06-.705,4.666,4.666,0,0,1,1.589-.247,4.254,4.254,0,0,1,1.467.212,1.938,1.938,0,0,1,.83.529,1.856,1.856,0,0,1,.371.813,7.487,7.487,0,0,1,.052,1.1v1.589a17.859,17.859,0,0,0,.073,2.1,2.825,2.825,0,0,0,.317.848h-1.255A2.724,2.724,0,0,1,327.948,315.893Zm-.106-2.665a9.085,9.085,0,0,1-1.944.458,4.089,4.089,0,0,0-1.041.247,1.083,1.083,0,0,0-.477.371,1.074,1.074,0,0,0,.2,1.361,1.579,1.579,0,0,0,1.058.317,2.418,2.418,0,0,0,1.22-.3,1.806,1.806,0,0,0,.794-.83,2.843,2.843,0,0,0,.2-1.182Zm3.425,3.533v-7.03h1.06v.989a2.542,2.542,0,0,1,2.242-1.147,2.886,2.886,0,0,1,1.166.228,1.832,1.832,0,0,1,.813.6,2.331,2.331,0,0,1,.371.865,8.711,8.711,0,0,1,.052,1.166v4.327h-1.182v-4.275a3.178,3.178,0,0,0-.141-1.1,1.153,1.153,0,0,0-.5-.564,1.483,1.483,0,0,0-.83-.23,1.943,1.943,0,0,0-1.323.5,2.359,2.359,0,0,0-.548,1.819v3.85Zm10.509-1.06.176,1.041a4.52,4.52,0,0,1-.9.106,2.144,2.144,0,0,1-1.008-.193,1.29,1.29,0,0,1-.51-.548,4.382,4.382,0,0,1-.143-1.415v-4.043h-.865v-.919h.865v-1.749l1.184-.705v2.454h1.2v.919h-1.2v4.115a2.44,2.44,0,0,0,.052.654.563.563,0,0,0,.214.228.749.749,0,0,0,.4.089A5.156,5.156,0,0,0,341.775,315.7Zm4.327,1.06v-9.714h3.354a8.116,8.116,0,0,1,1.732.141,3.338,3.338,0,0,1,1.413.689,3.871,3.871,0,0,1,1.147,1.678,6.337,6.337,0,0,1,.388,2.3,6.6,6.6,0,0,1-.263,1.96,4.7,4.7,0,0,1-.653,1.413,3.393,3.393,0,0,1-.9.884,3.8,3.8,0,0,1-1.147.494,6.8,6.8,0,0,1-1.554.16Zm1.288-1.149h2.066a5.135,5.135,0,0,0,1.518-.176,2.039,2.039,0,0,0,.867-.512,2.862,2.862,0,0,0,.705-1.218,5.849,5.849,0,0,0,.265-1.873,4.387,4.387,0,0,0-.512-2.332,2.523,2.523,0,0,0-1.2-1.112,5.212,5.212,0,0,0-1.66-.195H347.39Zm13.334.282a4.461,4.461,0,0,1-1.29.8,3.665,3.665,0,0,1-1.307.228,2.554,2.554,0,0,1-1.782-.564,1.875,1.875,0,0,1-.618-1.448,1.936,1.936,0,0,1,.228-.938,1.779,1.779,0,0,1,.618-.689,2.771,2.771,0,0,1,.865-.388,6.586,6.586,0,0,1,1.06-.2,10.133,10.133,0,0,0,2.12-.4v-.3a1.346,1.346,0,0,0-.336-1.041,2.057,2.057,0,0,0-1.359-.39,2.083,2.083,0,0,0-1.236.3,1.726,1.726,0,0,0-.6,1.025l-1.166-.16a2.814,2.814,0,0,1,.531-1.2,2.333,2.333,0,0,1,1.058-.705,4.678,4.678,0,0,1,1.591-.247,4.241,4.241,0,0,1,1.464.212,1.938,1.938,0,0,1,.83.529,1.83,1.83,0,0,1,.371.813,7.37,7.37,0,0,1,.054,1.1v1.589a18.054,18.054,0,0,0,.071,2.1,2.829,2.829,0,0,0,.317.848h-1.253A2.676,2.676,0,0,1,360.724,315.893Zm-.106-2.665a9.049,9.049,0,0,1-1.944.458,4.114,4.114,0,0,0-1.041.247,1.1,1.1,0,0,0-.477.371,1.081,1.081,0,0,0,.195,1.361,1.582,1.582,0,0,0,1.06.317,2.416,2.416,0,0,0,1.218-.3,1.8,1.8,0,0,0,.794-.83,2.809,2.809,0,0,0,.195-1.182Zm6.022,2.473.176,1.041a4.5,4.5,0,0,1-.9.106,2.129,2.129,0,0,1-1.006-.193,1.283,1.283,0,0,1-.512-.548,4.4,4.4,0,0,1-.141-1.415v-4.043h-.867v-.919h.867v-1.749l1.182-.705v2.454h1.2v.919h-1.2v4.115a2.41,2.41,0,0,0,.054.654.544.544,0,0,0,.212.228.752.752,0,0,0,.407.089A5.12,5.12,0,0,0,366.64,315.7Zm5.387.193a4.462,4.462,0,0,1-1.29.8,3.666,3.666,0,0,1-1.307.228,2.564,2.564,0,0,1-1.784-.564,1.882,1.882,0,0,1-.618-1.448,1.937,1.937,0,0,1,.23-.938,1.779,1.779,0,0,1,.618-.689,2.772,2.772,0,0,1,.865-.388,6.588,6.588,0,0,1,1.06-.2,10.133,10.133,0,0,0,2.12-.4v-.3a1.346,1.346,0,0,0-.336-1.041,2.059,2.059,0,0,0-1.361-.39,2.088,2.088,0,0,0-1.236.3,1.725,1.725,0,0,0-.6,1.025l-1.166-.16a2.836,2.836,0,0,1,.529-1.2,2.352,2.352,0,0,1,1.06-.705,4.665,4.665,0,0,1,1.589-.247,4.254,4.254,0,0,1,1.467.212,1.938,1.938,0,0,1,.83.529,1.855,1.855,0,0,1,.371.813,7.477,7.477,0,0,1,.052,1.1v1.589a17.886,17.886,0,0,0,.073,2.1,2.829,2.829,0,0,0,.317.848h-1.255A2.725,2.725,0,0,1,372.027,315.893Zm-.106-2.665a9.084,9.084,0,0,1-1.944.458,4.088,4.088,0,0,0-1.041.247,1.083,1.083,0,0,0-.477.371,1.074,1.074,0,0,0,.2,1.361,1.579,1.579,0,0,0,1.058.317,2.417,2.417,0,0,0,1.22-.3,1.806,1.806,0,0,0,.795-.83,2.842,2.842,0,0,0,.2-1.182Z" transform="translate(-231.076 -85.194)" fill="#141414"/>
      <path id="Path_31872" data-name="Path 31872" d="M245.917,326.1h-1.182v-7.592a8.037,8.037,0,0,1-2.386,1.429v-1.147a7.594,7.594,0,0,0,1.732-1.131,4.522,4.522,0,0,0,1.077-1.307h.759Zm3.5-8.44v-1.147H255.7v.936a13.618,13.618,0,0,0-1.838,2.63,15.885,15.885,0,0,0-1.394,3.356,11.527,11.527,0,0,0-.461,2.666h-1.236a12.069,12.069,0,0,1,.442-2.771,15.206,15.206,0,0,1,1.236-3.126,13.657,13.657,0,0,1,1.73-2.543Zm8.511,8.44v-1.359h1.361V326.1Zm8.99-1.147V326.1h-6.428a2.483,2.483,0,0,1,.141-.83,4.509,4.509,0,0,1,.776-1.288,12.451,12.451,0,0,1,1.572-1.467,12.911,12.911,0,0,0,2.137-2.066,2.437,2.437,0,0,0,.566-1.431,1.553,1.553,0,0,0-.512-1.182,1.83,1.83,0,0,0-1.326-.494,1.86,1.86,0,0,0-1.377.512,1.994,1.994,0,0,0-.529,1.429l-1.22-.122a2.993,2.993,0,0,1,.938-2.085,3.257,3.257,0,0,1,2.224-.724,3.072,3.072,0,0,1,2.209.776,2.56,2.56,0,0,1,.811,1.925,2.857,2.857,0,0,1-.247,1.149,4.444,4.444,0,0,1-.794,1.182,19.063,19.063,0,0,1-1.819,1.7q-1.077.9-1.4,1.236a3.875,3.875,0,0,0-.494.635Zm1.871-6.233a2.979,2.979,0,0,1,.512-1.767,1.77,1.77,0,0,1,1.518-.724,1.974,1.974,0,0,1,1.518.653,3.288,3.288,0,0,1-.017,3.815,1.933,1.933,0,0,1-1.483.653,1.881,1.881,0,0,1-1.466-.653A2.9,2.9,0,0,1,268.786,318.723Zm2.066-1.678a.9.9,0,0,0-.741.388,2.532,2.532,0,0,0-.284,1.413,2.325,2.325,0,0,0,.284,1.325.917.917,0,0,0,.741.371.878.878,0,0,0,.743-.39,2.38,2.38,0,0,0,.3-1.394,2.176,2.176,0,0,0-.3-1.326A.907.907,0,0,0,270.852,317.045Zm0,9.413,5.316-10.226h.971l-5.3,10.226Zm4.2-2.632a2.983,2.983,0,0,1,.512-1.765,1.789,1.789,0,0,1,1.537-.724,1.973,1.973,0,0,1,1.518.653,2.684,2.684,0,0,1,.6,1.906,2.722,2.722,0,0,1-.618,1.908,1.954,1.954,0,0,1-1.5.653,1.917,1.917,0,0,1-1.467-.653A2.9,2.9,0,0,1,275.055,323.826Zm2.085-1.678a.922.922,0,0,0-.759.39,2.536,2.536,0,0,0-.282,1.413,2.172,2.172,0,0,0,.3,1.307.9.9,0,0,0,1.483,0,2.426,2.426,0,0,0,.3-1.413,2.138,2.138,0,0,0-.3-1.307A.91.91,0,0,0,277.14,322.148Z" transform="translate(-230.866 -75.325)" fill="#8c8d8d"/>
      <path id="Path_31873" data-name="Path 31873" d="M241.634,314.181H423.75" transform="translate(-241.634 -77.528)" fill="none" stroke="#39b2ba" stroke-miterlimit="10" stroke-width="1"/>
      <path id="Path_31875" data-name="Path 31875" d="M532.856,206.478a5.266,5.266,0,0,1,1.29-3.779,4.417,4.417,0,0,1,3.354-1.377,4.607,4.607,0,0,1,2.437.653,4.157,4.157,0,0,1,1.643,1.784,5.831,5.831,0,0,1,.564,2.614,5.654,5.654,0,0,1-.6,2.63,4.1,4.1,0,0,1-1.695,1.767,4.751,4.751,0,0,1-2.35.6,4.638,4.638,0,0,1-2.454-.653,4.421,4.421,0,0,1-1.643-1.8A5.592,5.592,0,0,1,532.856,206.478Zm1.325.017a3.914,3.914,0,0,0,.936,2.773,3.151,3.151,0,0,0,2.383,1.006,3.117,3.117,0,0,0,2.385-1.006,4.163,4.163,0,0,0,.936-2.914,4.889,4.889,0,0,0-.407-2.066,2.928,2.928,0,0,0-1.166-1.359,3.159,3.159,0,0,0-1.73-.5,3.3,3.3,0,0,0-2.348.936A4.165,4.165,0,0,0,534.181,206.494Zm9.094,7.418v-9.731h1.079v.9a2.725,2.725,0,0,1,.865-.794,2.476,2.476,0,0,1,1.182-.266,2.786,2.786,0,0,1,1.589.461,2.708,2.708,0,0,1,1.025,1.307,4.747,4.747,0,0,1,.353,1.854,4.681,4.681,0,0,1-.388,1.942,2.82,2.82,0,0,1-1.112,1.326,2.921,2.921,0,0,1-1.554.458,2.328,2.328,0,0,1-1.079-.247,2.584,2.584,0,0,1-.776-.637v3.427Zm1.079-6.182a3.093,3.093,0,0,0,.548,2.014,1.683,1.683,0,0,0,1.323.635,1.727,1.727,0,0,0,1.361-.67,3.2,3.2,0,0,0,.564-2.085,3.058,3.058,0,0,0-.548-2,1.653,1.653,0,0,0-1.323-.67,1.708,1.708,0,0,0-1.342.705A3.17,3.17,0,0,0,544.354,207.731Zm11.637,1.22,1.236.141a2.978,2.978,0,0,1-1.077,1.678,3.655,3.655,0,0,1-4.468-.355,3.723,3.723,0,0,1-.9-2.666,3.829,3.829,0,0,1,.917-2.738,3.084,3.084,0,0,1,2.367-.989,2.99,2.99,0,0,1,2.3.954,3.791,3.791,0,0,1,.9,2.7V208h-5.244a2.745,2.745,0,0,0,.653,1.784,1.952,1.952,0,0,0,1.464.6,1.85,1.85,0,0,0,1.114-.334A2.27,2.27,0,0,0,555.991,208.95Zm-3.9-1.925h3.921a2.354,2.354,0,0,0-.442-1.342,1.856,1.856,0,0,0-1.483-.689,1.929,1.929,0,0,0-1.4.548A2.187,2.187,0,0,0,552.089,207.025Zm7.009,4.184v-7.028h1.06v.99a2.544,2.544,0,0,1,2.244-1.149,2.886,2.886,0,0,1,1.164.23,1.831,1.831,0,0,1,.813.6,2.3,2.3,0,0,1,.371.865,8.7,8.7,0,0,1,.052,1.166v4.325H563.62v-4.273a3.179,3.179,0,0,0-.141-1.1,1.154,1.154,0,0,0-.5-.564,1.479,1.479,0,0,0-.83-.23,1.944,1.944,0,0,0-1.323.5,2.358,2.358,0,0,0-.547,1.817v3.85Zm10.386,0,3.725-9.712h1.377l3.974,9.712h-1.45l-1.147-2.948H571.92l-1.076,2.948Zm2.807-3.991h3.286l-1.008-2.684a20.276,20.276,0,0,1-.689-2.012,13.038,13.038,0,0,1-.529,1.854Zm7.152,6.694v-9.731h1.079v.9a2.7,2.7,0,0,1,.865-.794,2.476,2.476,0,0,1,1.182-.266,2.787,2.787,0,0,1,1.589.461,2.709,2.709,0,0,1,1.025,1.307,4.749,4.749,0,0,1,.353,1.854,4.684,4.684,0,0,1-.388,1.942,2.819,2.819,0,0,1-1.112,1.326,2.92,2.92,0,0,1-1.554.458,2.321,2.321,0,0,1-1.079-.247,2.583,2.583,0,0,1-.776-.637v3.427Zm1.079-6.182a3.106,3.106,0,0,0,.546,2.014,1.69,1.69,0,0,0,1.326.635,1.729,1.729,0,0,0,1.361-.67,3.206,3.206,0,0,0,.564-2.085,3.06,3.06,0,0,0-.548-2,1.653,1.653,0,0,0-1.324-.67,1.711,1.711,0,0,0-1.344.705A3.181,3.181,0,0,0,580.522,207.731Zm6.833,6.182v-9.731h1.079v.9a2.726,2.726,0,0,1,.865-.794,2.476,2.476,0,0,1,1.182-.266,2.786,2.786,0,0,1,1.589.461,2.708,2.708,0,0,1,1.025,1.307,4.747,4.747,0,0,1,.353,1.854,4.683,4.683,0,0,1-.388,1.942,2.82,2.82,0,0,1-1.112,1.326,2.92,2.92,0,0,1-1.554.458,2.329,2.329,0,0,1-1.079-.247,2.585,2.585,0,0,1-.776-.637v3.427Zm1.079-6.182a3.093,3.093,0,0,0,.548,2.014,1.686,1.686,0,0,0,1.323.635,1.728,1.728,0,0,0,1.361-.67,3.2,3.2,0,0,0,.564-2.085,3.06,3.06,0,0,0-.548-2,1.653,1.653,0,0,0-1.323-.67,1.708,1.708,0,0,0-1.342.705A3.169,3.169,0,0,0,588.434,207.731Zm6.8,3.479V201.5h1.2v9.712Zm3.427-8.335V201.5h1.2v1.377Zm0,8.335v-7.028h1.2v7.028Zm7.982-2.578,1.166.16a3.035,3.035,0,0,1-.989,1.89,2.862,2.862,0,0,1-1.942.689,3.053,3.053,0,0,1-2.331-.935,3.912,3.912,0,0,1-.865-2.719,4.875,4.875,0,0,1,.371-1.979,2.679,2.679,0,0,1,1.147-1.288,3.489,3.489,0,0,1,1.695-.425,2.862,2.862,0,0,1,1.854.583,2.6,2.6,0,0,1,.954,1.643l-1.166.176a1.865,1.865,0,0,0-.583-1.06,1.5,1.5,0,0,0-1.025-.369,1.844,1.844,0,0,0-1.464.653,3,3,0,0,0-.566,2.031,3.15,3.15,0,0,0,.548,2.066,1.78,1.78,0,0,0,1.412.635,1.651,1.651,0,0,0,1.166-.423A2.154,2.154,0,0,0,606.64,208.631Zm6.781,1.713a4.374,4.374,0,0,1-1.288.795,3.62,3.62,0,0,1-1.307.23,2.561,2.561,0,0,1-1.784-.564,1.875,1.875,0,0,1-.618-1.448,1.937,1.937,0,0,1,.23-.938,1.766,1.766,0,0,1,.618-.689,2.77,2.77,0,0,1,.865-.388,6.584,6.584,0,0,1,1.06-.195,9.943,9.943,0,0,0,2.118-.407v-.3a1.359,1.359,0,0,0-.334-1.043,2.632,2.632,0,0,0-2.6-.087,1.725,1.725,0,0,0-.6,1.025l-1.166-.16a2.837,2.837,0,0,1,.529-1.2,2.341,2.341,0,0,1,1.06-.705,4.664,4.664,0,0,1,1.589-.249,4.2,4.2,0,0,1,1.466.214,1.951,1.951,0,0,1,.83.529,1.856,1.856,0,0,1,.371.813,7.471,7.471,0,0,1,.052,1.093v1.591a18.569,18.569,0,0,0,.07,2.1,2.851,2.851,0,0,0,.32.846h-1.255A2.641,2.641,0,0,1,613.421,210.344Zm-.106-2.665a9.051,9.051,0,0,1-1.941.458,4.065,4.065,0,0,0-1.041.247,1.072,1.072,0,0,0-.477.371,1.076,1.076,0,0,0,.193,1.361,1.586,1.586,0,0,0,1.06.317,2.428,2.428,0,0,0,1.22-.3,1.807,1.807,0,0,0,.794-.83,2.856,2.856,0,0,0,.193-1.182Zm6.022,2.473.178,1.041a4.542,4.542,0,0,1-.9.106,2.106,2.106,0,0,1-1.006-.195,1.273,1.273,0,0,1-.512-.548,4.439,4.439,0,0,1-.141-1.413V205.1h-.865v-.919h.865v-1.749l1.184-.705v2.454h1.2v.919h-1.2v4.113a2.412,2.412,0,0,0,.052.653.564.564,0,0,0,.212.23.783.783,0,0,0,.407.089A5.139,5.139,0,0,0,619.337,210.151Zm.8-7.277V201.5h1.2v1.377Zm0,8.335v-7.028h1.2v7.028Zm2.948-3.514a3.631,3.631,0,0,1,1.079-2.9,3.257,3.257,0,0,1,2.207-.778,3.146,3.146,0,0,1,2.367.954,3.533,3.533,0,0,1,.935,2.614,4.642,4.642,0,0,1-.407,2.137,2.907,2.907,0,0,1-1.2,1.22,3.487,3.487,0,0,1-1.695.423,3.189,3.189,0,0,1-2.383-.935A3.837,3.837,0,0,1,623.081,207.7Zm1.22,0a2.994,2.994,0,0,0,.583,2.014,1.915,1.915,0,0,0,1.483.67,1.881,1.881,0,0,0,1.483-.67,3.066,3.066,0,0,0,.583-2.049,2.874,2.874,0,0,0-.6-1.977,1.861,1.861,0,0,0-1.467-.672,1.91,1.91,0,0,0-1.483.672A2.948,2.948,0,0,0,624.3,207.7Zm7.134,3.514v-7.028h1.06v.99a2.543,2.543,0,0,1,2.242-1.149,2.889,2.889,0,0,1,1.166.23,1.832,1.832,0,0,1,.813.6,2.294,2.294,0,0,1,.371.865,8.7,8.7,0,0,1,.052,1.166v4.325h-1.182v-4.273a3.179,3.179,0,0,0-.141-1.1,1.153,1.153,0,0,0-.5-.564,1.483,1.483,0,0,0-.83-.23,1.943,1.943,0,0,0-1.323.5,2.357,2.357,0,0,0-.548,1.817v3.85Z" transform="translate(66.236 -198.778)" fill="#141414"/>
      <path id="Path_31876" data-name="Path 31876" d="M568.775,217.9l1.2-.16a2.639,2.639,0,0,0,.689,1.467,1.74,1.74,0,0,0,1.2.442,1.95,1.95,0,0,0,1.431-.583,1.971,1.971,0,0,0,.583-1.448,1.784,1.784,0,0,0-.548-1.342,1.813,1.813,0,0,0-1.361-.548,3.242,3.242,0,0,0-.846.141l.141-1.06a1.307,1.307,0,0,0,.193.017,2.449,2.449,0,0,0,1.361-.388,1.374,1.374,0,0,0,.618-1.236,1.426,1.426,0,0,0-.442-1.077,1.551,1.551,0,0,0-1.147-.442,1.649,1.649,0,0,0-1.166.442,2.169,2.169,0,0,0-.583,1.307l-1.2-.212a2.989,2.989,0,0,1,.989-1.838,2.844,2.844,0,0,1,1.925-.67,3.1,3.1,0,0,1,1.464.353,2.432,2.432,0,0,1,1.025.919,2.365,2.365,0,0,1,.353,1.253,2.123,2.123,0,0,1-.334,1.149,2.285,2.285,0,0,1-.989.811,2.216,2.216,0,0,1,1.323.83,2.494,2.494,0,0,1,.477,1.572,2.849,2.849,0,0,1-.936,2.155,3.224,3.224,0,0,1-2.331.882,3.062,3.062,0,0,1-2.12-.759A3.005,3.005,0,0,1,568.775,217.9Zm8.584,2.56v-1.359h1.359v1.359Zm6.534,0v-2.332h-4.2v-1.093l4.433-6.287h.971v6.287H586.4v1.093h-1.307v2.332Zm0-3.425v-4.362l-3.037,4.362Zm4.327-3.956a2.98,2.98,0,0,1,.512-1.767,1.77,1.77,0,0,1,1.518-.724,1.973,1.973,0,0,1,1.518.653,3.293,3.293,0,0,1-.019,3.815,1.934,1.934,0,0,1-1.483.653,1.88,1.88,0,0,1-1.464-.653A2.889,2.889,0,0,1,588.22,213.083Zm2.066-1.678a.907.907,0,0,0-.743.388,2.534,2.534,0,0,0-.282,1.413,2.327,2.327,0,0,0,.282,1.325.922.922,0,0,0,.743.369.872.872,0,0,0,.741-.388,2.365,2.365,0,0,0,.3-1.394,2.162,2.162,0,0,0-.3-1.325A.9.9,0,0,0,590.286,211.405Zm0,9.413,5.314-10.226h.973l-5.3,10.226Zm4.2-2.632a2.968,2.968,0,0,1,.512-1.765,1.784,1.784,0,0,1,1.537-.724,1.973,1.973,0,0,1,1.518.653,2.681,2.681,0,0,1,.6,1.906,2.716,2.716,0,0,1-.618,1.908,1.953,1.953,0,0,1-1.5.653,1.917,1.917,0,0,1-1.466-.653A2.9,2.9,0,0,1,594.488,218.186Zm2.085-1.678a.92.92,0,0,0-.759.39,2.523,2.523,0,0,0-.284,1.413,2.188,2.188,0,0,0,.3,1.307.9.9,0,0,0,1.483,0,2.408,2.408,0,0,0,.3-1.413,2.122,2.122,0,0,0-.3-1.307A.9.9,0,0,0,596.573,216.508Z" transform="translate(104.825 -188.818)" fill="#8c8d8d"/>
      <path id="Path_31879" data-name="Path 31879" d="M567.345,228.009V218.3h1.288v8.565h4.787v1.147Zm7.383-3.514a3.637,3.637,0,0,1,1.077-2.9,3.257,3.257,0,0,1,2.207-.778,3.143,3.143,0,0,1,2.367.954,3.533,3.533,0,0,1,.935,2.614,4.645,4.645,0,0,1-.407,2.137,2.908,2.908,0,0,1-1.2,1.22,3.482,3.482,0,0,1-1.695.423,3.189,3.189,0,0,1-2.383-.935A3.833,3.833,0,0,1,574.728,224.5Zm1.218,0a3,3,0,0,0,.583,2.014,1.915,1.915,0,0,0,1.483.67,1.879,1.879,0,0,0,1.483-.67,3.056,3.056,0,0,0,.583-2.049,2.873,2.873,0,0,0-.6-1.977,1.861,1.861,0,0,0-1.466-.672,1.91,1.91,0,0,0-1.483.672A2.958,2.958,0,0,0,575.945,224.5Zm6.906,4.1,1.166.178a1.09,1.09,0,0,0,.407.776,1.939,1.939,0,0,0,1.2.336,2.073,2.073,0,0,0,1.272-.336,1.631,1.631,0,0,0,.616-.919,6.4,6.4,0,0,0,.089-1.535,2.441,2.441,0,0,1-1.941.917,2.659,2.659,0,0,1-2.245-1.041,4.063,4.063,0,0,1-.794-2.508,4.8,4.8,0,0,1,.353-1.854,2.933,2.933,0,0,1,1.06-1.323,2.861,2.861,0,0,1,1.626-.46,2.539,2.539,0,0,1,2.066,1.008v-.848h1.1v6.076a5.774,5.774,0,0,1-.336,2.332,2.4,2.4,0,0,1-1.06,1.077,3.613,3.613,0,0,1-1.784.407,3.367,3.367,0,0,1-2.031-.566A1.935,1.935,0,0,1,582.851,228.592Zm.989-4.219a3.046,3.046,0,0,0,.548,2.012,1.808,1.808,0,0,0,2.755,0,2.921,2.921,0,0,0,.564-1.977,2.842,2.842,0,0,0-.583-1.944,1.754,1.754,0,0,0-1.377-.653,1.736,1.736,0,0,0-1.359.653A2.863,2.863,0,0,0,583.84,224.373Zm7.152-4.7V218.3h1.2v1.377Zm0,8.335v-7.028h1.2v7.028Zm3.39,0v-7.028h1.06v.989a2.543,2.543,0,0,1,2.242-1.149,2.888,2.888,0,0,1,1.166.23,1.831,1.831,0,0,1,.813.6,2.3,2.3,0,0,1,.371.865,8.709,8.709,0,0,1,.052,1.166v4.325H598.9v-4.273a3.179,3.179,0,0,0-.141-1.1,1.153,1.153,0,0,0-.5-.564,1.483,1.483,0,0,0-.83-.23,1.943,1.943,0,0,0-1.323.5,2.36,2.36,0,0,0-.548,1.819v3.848Z" transform="translate(103.289 -148.54)" fill="#141414"/>
      <path id="Path_31880" data-name="Path 31880" d="M574.984,230.026l-1.182.089a2.313,2.313,0,0,0-.442-1.025,1.605,1.605,0,0,0-1.2-.512,1.674,1.674,0,0,0-1.006.317,2.945,2.945,0,0,0-.884,1.22,6.32,6.32,0,0,0-.336,2.224,2.731,2.731,0,0,1,1.042-.971,2.939,2.939,0,0,1,1.325-.317,2.656,2.656,0,0,1,2.012.884,3.122,3.122,0,0,1,.849,2.259,3.7,3.7,0,0,1-.407,1.713,2.888,2.888,0,0,1-1.076,1.2,2.99,2.99,0,0,1-1.554.407,3.053,3.053,0,0,1-2.437-1.1,5.531,5.531,0,0,1-.935-3.6,6.456,6.456,0,0,1,1.041-4.1,2.972,2.972,0,0,1,2.437-1.112,2.681,2.681,0,0,1,1.871.653A2.65,2.65,0,0,1,574.984,230.026Zm-4.856,4.186a2.892,2.892,0,0,0,.247,1.182,2.051,2.051,0,0,0,.724.848,1.866,1.866,0,0,0,1.006.3,1.693,1.693,0,0,0,1.29-.6,2.408,2.408,0,0,0,.548-1.659,2.224,2.224,0,0,0-.548-1.589,1.733,1.733,0,0,0-1.342-.583,1.839,1.839,0,0,0-1.377.583A2.126,2.126,0,0,0,570.127,234.212Zm7.258,3.143V236h1.359v1.359Zm2.9-2.242,1.147-.106a2.037,2.037,0,0,0,.548,1.182,1.6,1.6,0,0,0,1.06.355,1.793,1.793,0,0,0,.954-.249,2.194,2.194,0,0,0,.689-.67,3.989,3.989,0,0,0,.442-1.13,6.147,6.147,0,0,0,.176-1.467v-.247a2.858,2.858,0,0,1-.971.936,2.655,2.655,0,0,1-1.342.355,2.727,2.727,0,0,1-2.049-.865,3.241,3.241,0,0,1-.83-2.315,3.3,3.3,0,0,1,.865-2.383,2.949,2.949,0,0,1,2.191-.9,3.044,3.044,0,0,1,1.713.512,3.17,3.17,0,0,1,1.2,1.465,7.129,7.129,0,0,1,.4,2.719,8.91,8.91,0,0,1-.4,2.968,3.382,3.382,0,0,1-1.2,1.676,3.118,3.118,0,0,1-1.854.566,2.783,2.783,0,0,1-1.873-.618A2.725,2.725,0,0,1,580.281,235.112Zm4.875-4.292a2.318,2.318,0,0,0-.548-1.624,1.672,1.672,0,0,0-1.307-.6,1.847,1.847,0,0,0-1.4.653,2.384,2.384,0,0,0-.583,1.676,2.065,2.065,0,0,0,.566,1.5,1.846,1.846,0,0,0,1.377.583,1.753,1.753,0,0,0,1.359-.583A2.3,2.3,0,0,0,585.156,230.821Zm3.091-.846a2.98,2.98,0,0,1,.512-1.767,1.77,1.77,0,0,1,1.518-.724,1.973,1.973,0,0,1,1.518.653,3.292,3.292,0,0,1-.019,3.815,1.933,1.933,0,0,1-1.483.653,1.88,1.88,0,0,1-1.464-.653A2.889,2.889,0,0,1,588.247,229.974Zm2.066-1.678a.907.907,0,0,0-.743.388,2.534,2.534,0,0,0-.282,1.413,2.327,2.327,0,0,0,.282,1.326.924.924,0,0,0,.743.371.874.874,0,0,0,.74-.39,2.365,2.365,0,0,0,.3-1.394,2.162,2.162,0,0,0-.3-1.326A.9.9,0,0,0,590.313,228.3Zm0,9.413,5.314-10.226h.973l-5.3,10.226Zm4.2-2.632a2.968,2.968,0,0,1,.513-1.765,1.784,1.784,0,0,1,1.537-.724,1.973,1.973,0,0,1,1.518.653,2.68,2.68,0,0,1,.6,1.906,2.716,2.716,0,0,1-.618,1.908,1.953,1.953,0,0,1-1.5.653,1.917,1.917,0,0,1-1.466-.653A2.9,2.9,0,0,1,594.515,235.077ZM596.6,233.4a.919.919,0,0,0-.759.39,2.523,2.523,0,0,0-.284,1.413,2.188,2.188,0,0,0,.3,1.307.9.9,0,0,0,1.483,0,2.408,2.408,0,0,0,.3-1.413,2.122,2.122,0,0,0-.3-1.307A.9.9,0,0,0,596.6,233.4Z" transform="translate(104.798 -138.671)" fill="#8c8d8d"/>
      <path id="Path_31883" data-name="Path 31883" d="M509.1,253.16l3.728-9.712h1.377l3.972,9.712h-1.448l-1.147-2.948H511.54l-1.077,2.948Zm2.809-3.991H515.2l-1.006-2.684a19.759,19.759,0,0,1-.689-2.012,13.209,13.209,0,0,1-.529,1.854Zm11.708,3.991v-.882a2.183,2.183,0,0,1-1.96,1.041,2.8,2.8,0,0,1-1.554-.458,3.17,3.17,0,0,1-1.1-1.307,4.486,4.486,0,0,1-.388-1.908,5.016,5.016,0,0,1,.353-1.906,2.689,2.689,0,0,1,1.06-1.307,2.82,2.82,0,0,1,1.572-.46,2.363,2.363,0,0,1,1.131.265,2.429,2.429,0,0,1,.811.689v-3.479h1.185v9.712Zm-3.761-3.514a3.1,3.1,0,0,0,.564,2.031,1.726,1.726,0,0,0,1.344.653,1.69,1.69,0,0,0,1.323-.635,2.927,2.927,0,0,0,.548-1.944,3.261,3.261,0,0,0-.564-2.118,1.69,1.69,0,0,0-1.361-.672,1.643,1.643,0,0,0-1.326.653A3.158,3.158,0,0,0,519.859,249.646Zm7.1-4.8v-1.394h1.2v1.394Zm-1.5,11.056.211-1.025a2.593,2.593,0,0,0,.564.089.626.626,0,0,0,.548-.247,2.416,2.416,0,0,0,.178-1.2v-7.383h1.2v7.418a3.487,3.487,0,0,1-.334,1.8,1.586,1.586,0,0,1-1.431.672A3.432,3.432,0,0,1,525.457,255.9Zm9.519-2.738v-1.041a2.594,2.594,0,0,1-2.244,1.2,2.973,2.973,0,0,1-1.164-.23,2.059,2.059,0,0,1-.8-.6,2.309,2.309,0,0,1-.369-.9,6.053,6.053,0,0,1-.071-1.114v-4.344h1.2v3.9a7.177,7.177,0,0,0,.071,1.255,1.282,1.282,0,0,0,.458.741,1.528,1.528,0,0,0,.919.266,1.922,1.922,0,0,0,.987-.266,1.527,1.527,0,0,0,.672-.759,3.512,3.512,0,0,0,.212-1.377v-3.761h1.184v7.028Zm2.825-2.1,1.166-.176a1.666,1.666,0,0,0,.548,1.077,1.986,1.986,0,0,0,1.288.371,1.881,1.881,0,0,0,1.2-.317,1,1,0,0,0,.407-.794.722.722,0,0,0-.353-.637,5.3,5.3,0,0,0-1.22-.4,12.921,12.921,0,0,1-1.819-.566,1.832,1.832,0,0,1-.759-.67,1.77,1.77,0,0,1-.263-.954,1.839,1.839,0,0,1,.212-.865,1.859,1.859,0,0,1,.583-.672,2.723,2.723,0,0,1,.759-.336,3.674,3.674,0,0,1,1.041-.141,3.817,3.817,0,0,1,1.431.249,1.933,1.933,0,0,1,.936.635,2.446,2.446,0,0,1,.406,1.077l-1.166.16a1.205,1.205,0,0,0-.46-.83,1.611,1.611,0,0,0-1.077-.317,1.883,1.883,0,0,0-1.166.282.778.778,0,0,0-.353.635.637.637,0,0,0,.141.407,1.114,1.114,0,0,0,.458.317q.177.072,1.06.3a16.409,16.409,0,0,1,1.767.564,1.8,1.8,0,0,1,.776.618,1.756,1.756,0,0,1,.282,1.025,1.994,1.994,0,0,1-.353,1.131,2.288,2.288,0,0,1-.99.813,3.693,3.693,0,0,1-1.483.282,3.367,3.367,0,0,1-2.1-.564A2.708,2.708,0,0,1,537.8,251.059Zm9.853,1.043.178,1.041a4.537,4.537,0,0,1-.9.106,2.1,2.1,0,0,1-1.006-.2,1.273,1.273,0,0,1-.513-.548,4.452,4.452,0,0,1-.141-1.413v-4.043h-.865v-.919h.865v-1.749l1.184-.705v2.454h1.2v.919h-1.2v4.113a2.422,2.422,0,0,0,.052.653.565.565,0,0,0,.212.23.784.784,0,0,0,.407.089A5.151,5.151,0,0,0,547.655,252.1Zm4.362,1.058v-9.712h7.011V244.6h-5.721v2.968h5.368v1.147h-5.368v3.3h5.951v1.147Zm8.814,2.7-.141-1.112a2.644,2.644,0,0,0,.689.106,1.184,1.184,0,0,0,.618-.141,1.073,1.073,0,0,0,.4-.355,8.939,8.939,0,0,0,.371-.9,1.626,1.626,0,0,1,.106-.282l-2.684-7.046h1.29l1.464,4.062q.283.778.512,1.643.211-.831.5-1.608l1.5-4.1h1.184l-2.668,7.152q-.442,1.148-.67,1.589a2.212,2.212,0,0,1-.743.865,1.66,1.66,0,0,1-.971.284A2.2,2.2,0,0,1,560.831,255.863Zm11.637-4.962,1.236.141a2.978,2.978,0,0,1-1.077,1.678,3.654,3.654,0,0,1-4.468-.355,3.723,3.723,0,0,1-.9-2.666,3.83,3.83,0,0,1,.917-2.738,3.084,3.084,0,0,1,2.367-.989,2.991,2.991,0,0,1,2.3.954,3.791,3.791,0,0,1,.9,2.7v.317H568.5a2.749,2.749,0,0,0,.653,1.784,1.952,1.952,0,0,0,1.465.6,1.838,1.838,0,0,0,1.114-.336A2.253,2.253,0,0,0,572.468,250.9Zm-3.9-1.925h3.921a2.347,2.347,0,0,0-.442-1.342,1.857,1.857,0,0,0-1.483-.689,1.936,1.936,0,0,0-1.4.546A2.192,2.192,0,0,0,568.566,248.976Zm6.534,2.083,1.166-.176a1.672,1.672,0,0,0,.545,1.077,2,2,0,0,0,1.29.371,1.881,1.881,0,0,0,1.2-.317,1.009,1.009,0,0,0,.407-.794.72.72,0,0,0-.355-.637,5.227,5.227,0,0,0-1.218-.4,12.923,12.923,0,0,1-1.819-.566,1.832,1.832,0,0,1-.759-.67,1.773,1.773,0,0,1-.265-.954,1.839,1.839,0,0,1,.212-.865,1.9,1.9,0,0,1,.583-.672,2.778,2.778,0,0,1,.759-.336,3.7,3.7,0,0,1,1.043-.141,3.8,3.8,0,0,1,1.429.249,1.929,1.929,0,0,1,.938.635,2.446,2.446,0,0,1,.4,1.077l-1.164.16a1.205,1.205,0,0,0-.46-.83,1.611,1.611,0,0,0-1.077-.317,1.878,1.878,0,0,0-1.166.282.773.773,0,0,0-.353.635.626.626,0,0,0,.141.407,1.115,1.115,0,0,0,.458.317c.118.048.471.147,1.06.3a16.32,16.32,0,0,1,1.765.564,1.8,1.8,0,0,1,.778.618,1.756,1.756,0,0,1,.282,1.025,2.007,2.007,0,0,1-.353,1.131,2.287,2.287,0,0,1-.989.813,3.694,3.694,0,0,1-1.483.282,3.368,3.368,0,0,1-2.1-.564A2.708,2.708,0,0,1,575.1,251.059Zm13.245,1.043.176,1.041a4.517,4.517,0,0,1-.9.106,2.1,2.1,0,0,1-1.006-.2,1.259,1.259,0,0,1-.512-.548,4.381,4.381,0,0,1-.141-1.413v-4.043h-.867v-.919h.867v-1.749l1.182-.705v2.454h1.2v.919h-1.2v4.113a2.416,2.416,0,0,0,.052.653.556.556,0,0,0,.214.23.769.769,0,0,0,.4.089A5.152,5.152,0,0,0,588.345,252.1Zm.353-2.456a3.636,3.636,0,0,1,1.077-2.9,3.266,3.266,0,0,1,2.209-.778,3.141,3.141,0,0,1,2.365.954,3.533,3.533,0,0,1,.938,2.614,4.677,4.677,0,0,1-.407,2.137,2.933,2.933,0,0,1-1.2,1.22,3.488,3.488,0,0,1-1.695.423,3.193,3.193,0,0,1-2.385-.936A3.846,3.846,0,0,1,588.7,249.646Zm1.22,0a2.994,2.994,0,0,0,.583,2.014,1.914,1.914,0,0,0,1.483.67,1.882,1.882,0,0,0,1.483-.67,3.068,3.068,0,0,0,.583-2.049,2.875,2.875,0,0,0-.6-1.977,1.857,1.857,0,0,0-1.465-.672,1.909,1.909,0,0,0-1.483.672A2.947,2.947,0,0,0,589.917,249.646Zm13.12,2.456.176,1.041a4.5,4.5,0,0,1-.9.106,2.1,2.1,0,0,1-1.006-.2,1.259,1.259,0,0,1-.512-.548,4.446,4.446,0,0,1-.141-1.413v-4.043h-.865v-.919h.865v-1.749l1.182-.705v2.454h1.2v.919h-1.2v4.113a2.388,2.388,0,0,0,.054.653.566.566,0,0,0,.212.23.778.778,0,0,0,.407.089A5.15,5.15,0,0,0,603.037,252.1Zm.795,1.058v-9.712h1.184v3.479a2.668,2.668,0,0,1,2.1-.954,2.709,2.709,0,0,1,1.359.319,1.749,1.749,0,0,1,.832.846,3.883,3.883,0,0,1,.247,1.572v4.449H608.37v-4.449a1.839,1.839,0,0,0-.388-1.307,1.442,1.442,0,0,0-1.1-.407,1.958,1.958,0,0,0-1.006.282,1.575,1.575,0,0,0-.672.743,3.425,3.425,0,0,0-.193,1.288v3.85Zm12.716-2.259,1.236.141a2.977,2.977,0,0,1-1.076,1.678,3.655,3.655,0,0,1-4.468-.355,3.723,3.723,0,0,1-.9-2.666,3.83,3.83,0,0,1,.917-2.738,3.084,3.084,0,0,1,2.367-.989,2.99,2.99,0,0,1,2.3.954,3.79,3.79,0,0,1,.9,2.7v.317h-5.244a2.748,2.748,0,0,0,.653,1.784,1.952,1.952,0,0,0,1.464.6,1.838,1.838,0,0,0,1.114-.336A2.254,2.254,0,0,0,616.547,250.9Zm-3.9-1.925h3.921a2.348,2.348,0,0,0-.442-1.342,1.857,1.857,0,0,0-1.483-.689,1.936,1.936,0,0,0-1.4.546A2.192,2.192,0,0,0,612.646,248.976Zm10.49,4.184v-9.712h1.288v8.565h4.786v1.147Zm12.415-.865a4.407,4.407,0,0,1-1.29.794,3.62,3.62,0,0,1-1.307.23,2.564,2.564,0,0,1-1.784-.564,1.883,1.883,0,0,1-.618-1.45,1.928,1.928,0,0,1,.23-.936,1.763,1.763,0,0,1,.618-.689,2.77,2.77,0,0,1,.865-.388,6.577,6.577,0,0,1,1.06-.195,9.967,9.967,0,0,0,2.12-.407v-.3a1.351,1.351,0,0,0-.336-1.043,2.632,2.632,0,0,0-2.6-.087,1.726,1.726,0,0,0-.6,1.025l-1.166-.16a2.834,2.834,0,0,1,.529-1.2,2.334,2.334,0,0,1,1.06-.705,4.677,4.677,0,0,1,1.591-.249,4.242,4.242,0,0,1,1.465.212,1.959,1.959,0,0,1,.83.531,1.853,1.853,0,0,1,.371.813,7.357,7.357,0,0,1,.054,1.093v1.591a18.075,18.075,0,0,0,.071,2.1,2.8,2.8,0,0,0,.317.846h-1.255A2.694,2.694,0,0,1,635.55,252.3Zm-.106-2.666a9.049,9.049,0,0,1-1.944.458,4.091,4.091,0,0,0-1.041.247,1.083,1.083,0,0,0-.477.371,1.074,1.074,0,0,0,.2,1.361,1.579,1.579,0,0,0,1.058.317,2.418,2.418,0,0,0,1.22-.3,1.8,1.8,0,0,0,.794-.83,2.821,2.821,0,0,0,.195-1.184Zm3.373,6.233-.141-1.112a2.657,2.657,0,0,0,.689.106,1.18,1.18,0,0,0,.618-.141,1.1,1.1,0,0,0,.407-.355,9.151,9.151,0,0,0,.369-.9,1.605,1.605,0,0,1,.106-.282l-2.684-7.046h1.29l1.465,4.062c.189.519.361,1.066.512,1.643q.211-.831.5-1.608l1.5-4.1h1.184l-2.668,7.152c-.295.765-.516,1.294-.67,1.589a2.192,2.192,0,0,1-.743.865,1.649,1.649,0,0,1-.971.284A2.2,2.2,0,0,1,638.818,255.863Zm6.393-6.217a3.636,3.636,0,0,1,1.077-2.9,3.26,3.26,0,0,1,2.207-.778,3.143,3.143,0,0,1,2.367.954,3.533,3.533,0,0,1,.935,2.614,4.679,4.679,0,0,1-.4,2.137,2.932,2.932,0,0,1-1.2,1.22,3.5,3.5,0,0,1-1.7.423,3.19,3.19,0,0,1-2.384-.936A3.837,3.837,0,0,1,645.211,249.646Zm1.218,0a3,3,0,0,0,.583,2.014,1.914,1.914,0,0,0,1.483.67,1.879,1.879,0,0,0,1.483-.67,3.057,3.057,0,0,0,.583-2.049,2.874,2.874,0,0,0-.6-1.977,1.858,1.858,0,0,0-1.466-.672,1.909,1.909,0,0,0-1.483.672A2.957,2.957,0,0,0,646.428,249.646Zm11.745,3.514v-1.041a2.592,2.592,0,0,1-2.242,1.2,2.974,2.974,0,0,1-1.166-.23,2.06,2.06,0,0,1-.8-.6,2.308,2.308,0,0,1-.369-.9,6.049,6.049,0,0,1-.07-1.114v-4.344h1.2v3.9a7.183,7.183,0,0,0,.07,1.255,1.282,1.282,0,0,0,.458.741,1.528,1.528,0,0,0,.919.266,1.921,1.921,0,0,0,.987-.266,1.527,1.527,0,0,0,.672-.759,3.515,3.515,0,0,0,.212-1.377v-3.761h1.185v7.028Zm5.9-1.058.176,1.041a4.5,4.5,0,0,1-.9.106,2.1,2.1,0,0,1-1.006-.2,1.259,1.259,0,0,1-.512-.548,4.446,4.446,0,0,1-.141-1.413v-4.043h-.865v-.919h.865v-1.749l1.182-.705v2.454h1.2v.919h-1.2v4.113a2.387,2.387,0,0,0,.054.653.566.566,0,0,0,.212.23.777.777,0,0,0,.406.089A5.145,5.145,0,0,0,664.07,252.1Z" transform="translate(39.717 -115.519)" fill="#141414"/>
      <path id="Path_31884" data-name="Path 31884" d="M568.972,262.506h-1.185v-7.594a7,7,0,0,1-1.147.83,7.373,7.373,0,0,1-1.236.6V255.2a7.6,7.6,0,0,0,1.73-1.131,4.522,4.522,0,0,0,1.077-1.307h.761Zm3.425-2.56,1.2-.16a2.64,2.64,0,0,0,.689,1.467,1.74,1.74,0,0,0,1.2.442,1.95,1.95,0,0,0,1.431-.583,1.973,1.973,0,0,0,.583-1.45,1.79,1.79,0,0,0-.548-1.342,1.819,1.819,0,0,0-1.361-.546,3.244,3.244,0,0,0-.846.141l.141-1.06a1.685,1.685,0,0,0,.193.017,2.45,2.45,0,0,0,1.361-.388,1.377,1.377,0,0,0,.618-1.236,1.426,1.426,0,0,0-.442-1.077,1.551,1.551,0,0,0-1.147-.442,1.649,1.649,0,0,0-1.166.442,2.168,2.168,0,0,0-.583,1.307l-1.2-.212a2.99,2.99,0,0,1,.99-1.838,2.834,2.834,0,0,1,1.925-.67,3.079,3.079,0,0,1,1.464.353,2.434,2.434,0,0,1,1.025.919,2.361,2.361,0,0,1,.353,1.253,2.111,2.111,0,0,1-.334,1.147,2.274,2.274,0,0,1-.989.813,2.216,2.216,0,0,1,1.323.83,2.491,2.491,0,0,1,.477,1.572,2.848,2.848,0,0,1-.936,2.155,3.233,3.233,0,0,1-2.332.882,3.061,3.061,0,0,1-2.12-.759A3.009,3.009,0,0,1,572.4,259.946Zm8.584,2.56v-1.359h1.359v1.359Zm4.555-5.263a2.438,2.438,0,0,1-1.112-.776,2.074,2.074,0,0,1-.353-1.2,2.365,2.365,0,0,1,.759-1.784,3.205,3.205,0,0,1,4.078.017,2.4,2.4,0,0,1,.778,1.8,1.965,1.965,0,0,1-.353,1.166,2.329,2.329,0,0,1-1.079.776,2.519,2.519,0,0,1,1.361.936,2.631,2.631,0,0,1,.458,1.556,2.777,2.777,0,0,1-.882,2.083,3.16,3.16,0,0,1-2.315.848,3.2,3.2,0,0,1-2.313-.848,2.813,2.813,0,0,1-.884-2.118,2.583,2.583,0,0,1,.477-1.591A2.48,2.48,0,0,1,585.535,257.243Zm-.247-2.031a1.532,1.532,0,0,0,.442,1.13,1.615,1.615,0,0,0,1.166.442,1.561,1.561,0,0,0,1.13-.425,1.533,1.533,0,0,0-.019-2.172,1.538,1.538,0,0,0-1.131-.458,1.591,1.591,0,0,0-1.147.442A1.423,1.423,0,0,0,585.288,255.212Zm-.371,4.487a2.244,2.244,0,0,0,.23.987,1.759,1.759,0,0,0,.724.743,2.079,2.079,0,0,0,1.025.266,1.885,1.885,0,0,0,1.394-.548,1.86,1.86,0,0,0,.566-1.4,1.934,1.934,0,0,0-2-2,1.9,1.9,0,0,0-1.944,1.944Zm6.924-4.576a2.978,2.978,0,0,1,.512-1.765,1.765,1.765,0,0,1,1.518-.724,1.974,1.974,0,0,1,1.518.653,3.292,3.292,0,0,1-.019,3.815,1.934,1.934,0,0,1-1.483.653,1.88,1.88,0,0,1-1.464-.653A2.891,2.891,0,0,1,591.841,255.123Zm2.066-1.676a.908.908,0,0,0-.743.388,2.535,2.535,0,0,0-.282,1.413,2.327,2.327,0,0,0,.282,1.326.922.922,0,0,0,.743.369.872.872,0,0,0,.741-.388,2.365,2.365,0,0,0,.3-1.394,2.162,2.162,0,0,0-.3-1.326A.9.9,0,0,0,593.907,253.447Zm0,9.411,5.314-10.224h.973l-5.3,10.224Zm4.2-2.63a2.967,2.967,0,0,1,.513-1.765,1.783,1.783,0,0,1,1.537-.724,1.973,1.973,0,0,1,1.518.653,3.289,3.289,0,0,1-.019,3.813,1.952,1.952,0,0,1-1.5.653,1.917,1.917,0,0,1-1.466-.653A2.9,2.9,0,0,1,598.11,260.228Zm2.085-1.678a.924.924,0,0,0-.759.388,2.538,2.538,0,0,0-.284,1.415,2.186,2.186,0,0,0,.3,1.307.9.9,0,0,0,1.483,0,2.411,2.411,0,0,0,.3-1.415,2.13,2.13,0,0,0-.3-1.307A.906.906,0,0,0,600.195,258.55Z" transform="translate(101.203 -105.651)" fill="#8c8d8d"/>
      <path id="Path_31885" data-name="Path 31885" d="M685.51,250.582H489.048" transform="translate(25.171 -107.855)" fill="none" stroke="#fdac00" stroke-miterlimit="10" stroke-width="1"/>
      <path id="Path_31887" data-name="Path 31887" d="M517.292,313.433l1.272.336a4.351,4.351,0,0,1-1.448,2.4,3.982,3.982,0,0,1-2.562.83,4.667,4.667,0,0,1-2.56-.635,3.973,3.973,0,0,1-1.5-1.838,6.653,6.653,0,0,1-.512-2.614,5.713,5.713,0,0,1,.583-2.649,3.988,3.988,0,0,1,1.643-1.713,4.9,4.9,0,0,1,2.367-.583,3.955,3.955,0,0,1,2.438.743A3.812,3.812,0,0,1,518.4,309.8l-1.272.3a2.918,2.918,0,0,0-.99-1.535,2.533,2.533,0,0,0-1.605-.5,3.118,3.118,0,0,0-1.873.548,2.913,2.913,0,0,0-1.06,1.431,5.9,5.9,0,0,0-.3,1.871,5.962,5.962,0,0,0,.353,2.155,2.758,2.758,0,0,0,1.13,1.377,3.14,3.14,0,0,0,1.659.458,2.742,2.742,0,0,0,1.819-.618A3.134,3.134,0,0,0,517.292,313.433Zm3.056,3.41v-9.714h1.2v9.714Zm3.425-8.337v-1.377h1.2v1.377Zm0,8.337v-7.03h1.2v7.03Zm7.982-2.578,1.166.158a3.043,3.043,0,0,1-.987,1.89,2.86,2.86,0,0,1-1.944.689,3.057,3.057,0,0,1-2.332-.935,3.913,3.913,0,0,1-.865-2.719,4.918,4.918,0,0,1,.371-1.979,2.678,2.678,0,0,1,1.147-1.288,3.49,3.49,0,0,1,1.7-.423,2.869,2.869,0,0,1,1.854.581,2.61,2.61,0,0,1,.952,1.643l-1.166.176a1.84,1.84,0,0,0-.583-1.058,1.489,1.489,0,0,0-1.023-.371,1.848,1.848,0,0,0-1.467.653,3,3,0,0,0-.564,2.031,3.155,3.155,0,0,0,.546,2.066,1.781,1.781,0,0,0,1.415.635,1.647,1.647,0,0,0,1.164-.423A2.142,2.142,0,0,0,531.754,314.264Zm2.191,2.578v-9.714h1.2v5.545l2.809-2.861h1.554l-2.7,2.6,2.968,4.433h-1.467l-2.332-3.6-.83.811v2.792Zm10.455,0v-6.111h-1.06v-.919h1.06v-.759a3.214,3.214,0,0,1,.124-1.041,1.528,1.528,0,0,1,.6-.759,2.249,2.249,0,0,1,1.22-.284,5.505,5.505,0,0,1,1.112.124l-.176,1.025a5.027,5.027,0,0,0-.707-.054,1.07,1.07,0,0,0-.776.23,1.307,1.307,0,0,0-.212.865v.653h1.377v.919h-1.377v6.111Zm2.668-3.516a3.636,3.636,0,0,1,1.077-2.9,3.259,3.259,0,0,1,2.207-.776,3.141,3.141,0,0,1,2.367.952,3.533,3.533,0,0,1,.936,2.614,4.674,4.674,0,0,1-.4,2.137,2.932,2.932,0,0,1-1.2,1.22,3.5,3.5,0,0,1-1.7.423,3.189,3.189,0,0,1-2.383-.935A3.832,3.832,0,0,1,547.067,313.327Zm1.218,0a3,3,0,0,0,.583,2.014,1.911,1.911,0,0,0,1.483.67,1.872,1.872,0,0,0,1.483-.67,3.056,3.056,0,0,0,.583-2.049,2.874,2.874,0,0,0-.6-1.977,1.858,1.858,0,0,0-1.467-.672,1.913,1.913,0,0,0-1.483.672A2.958,2.958,0,0,0,548.285,313.327Zm7.117,3.516v-7.03h1.079v1.06a2.858,2.858,0,0,1,.741-.971,1.318,1.318,0,0,1,.778-.247,2.358,2.358,0,0,1,1.218.369l-.407,1.114a1.682,1.682,0,0,0-.865-.266,1.154,1.154,0,0,0-.724.247,1.225,1.225,0,0,0-.423.653,4.339,4.339,0,0,0-.212,1.377v3.692Zm7.876,2.7-.141-1.112a2.667,2.667,0,0,0,.689.106,1.181,1.181,0,0,0,.618-.141,1.078,1.078,0,0,0,.407-.353,9.355,9.355,0,0,0,.371-.9,1.376,1.376,0,0,1,.106-.282l-2.684-7.047h1.288l1.467,4.062q.283.778.512,1.643.211-.831.494-1.608l1.5-4.1h1.182l-2.665,7.152c-.295.766-.519,1.3-.672,1.589a2.215,2.215,0,0,1-.741.867,1.675,1.675,0,0,1-.973.282A2.206,2.206,0,0,1,563.278,319.544Zm6.393-6.217a3.63,3.63,0,0,1,1.079-2.9,3.255,3.255,0,0,1,2.207-.776,3.147,3.147,0,0,1,2.367.952,3.541,3.541,0,0,1,.935,2.614,4.647,4.647,0,0,1-.406,2.137,2.934,2.934,0,0,1-1.2,1.22,3.487,3.487,0,0,1-1.695.423,3.2,3.2,0,0,1-2.386-.935A3.842,3.842,0,0,1,569.671,313.327Zm1.22,0a2.993,2.993,0,0,0,.583,2.014,1.907,1.907,0,0,0,1.483.67,1.875,1.875,0,0,0,1.483-.67,3.067,3.067,0,0,0,.583-2.049,2.875,2.875,0,0,0-.6-1.977,1.854,1.854,0,0,0-1.464-.672,1.909,1.909,0,0,0-1.483.672A2.946,2.946,0,0,0,570.891,313.327Zm11.743,3.516V315.8a2.593,2.593,0,0,1-2.242,1.2,3.01,3.01,0,0,1-1.166-.228,2.057,2.057,0,0,1-.794-.6,2.31,2.31,0,0,1-.371-.9,6.034,6.034,0,0,1-.07-1.112v-4.346h1.2v3.9a7.165,7.165,0,0,0,.071,1.253,1.3,1.3,0,0,0,.458.743,1.546,1.546,0,0,0,.919.263,1.953,1.953,0,0,0,.989-.263,1.549,1.549,0,0,0,.67-.759,3.483,3.483,0,0,0,.214-1.377v-3.763h1.182v7.03Zm3.286,0v-7.03H587v1.06a2.883,2.883,0,0,1,.743-.971,1.311,1.311,0,0,1,.776-.247,2.365,2.365,0,0,1,1.22.369l-.406,1.114a1.682,1.682,0,0,0-.865-.266,1.15,1.15,0,0,0-.724.247,1.227,1.227,0,0,0-.425.653,4.341,4.341,0,0,0-.212,1.377v3.692Zm8.069,0v-9.714h3.356a8.09,8.09,0,0,1,1.73.141,3.313,3.313,0,0,1,1.413.689,3.858,3.858,0,0,1,1.149,1.678,6.338,6.338,0,0,1,.388,2.3,6.532,6.532,0,0,1-.266,1.96,4.593,4.593,0,0,1-.653,1.413,3.354,3.354,0,0,1-.9.884,3.8,3.8,0,0,1-1.147.494,6.806,6.806,0,0,1-1.554.16Zm1.29-1.149h2.066a5.13,5.13,0,0,0,1.518-.176,2.016,2.016,0,0,0,.865-.512,2.863,2.863,0,0,0,.707-1.218,5.849,5.849,0,0,0,.266-1.873,4.408,4.408,0,0,0-.512-2.332,2.523,2.523,0,0,0-1.2-1.112,5.214,5.214,0,0,0-1.659-.195h-2.049Zm13.545-1.112,1.236.141a2.979,2.979,0,0,1-1.077,1.678,3.655,3.655,0,0,1-4.468-.355,3.723,3.723,0,0,1-.9-2.666,3.831,3.831,0,0,1,.919-2.738,3.083,3.083,0,0,1,2.367-.987,2.989,2.989,0,0,1,2.3.952,3.791,3.791,0,0,1,.9,2.7v.317H604.85a2.766,2.766,0,0,0,.653,1.784,1.959,1.959,0,0,0,1.466.6,1.826,1.826,0,0,0,1.112-.334A2.257,2.257,0,0,0,608.824,314.582Zm-3.9-1.925h3.92a2.339,2.339,0,0,0-.44-1.342,1.858,1.858,0,0,0-1.485-.689,1.925,1.925,0,0,0-1.394.548A2.188,2.188,0,0,0,604.92,312.657Zm6.534,2.083,1.166-.176a1.675,1.675,0,0,0,.548,1.079,2.007,2.007,0,0,0,1.29.369,1.88,1.88,0,0,0,1.2-.317,1,1,0,0,0,.4-.794.715.715,0,0,0-.352-.635,5.192,5.192,0,0,0-1.218-.406,12.819,12.819,0,0,1-1.819-.566,1.833,1.833,0,0,1-.759-.67,1.769,1.769,0,0,1-.266-.954,1.845,1.845,0,0,1,.212-.865,1.9,1.9,0,0,1,.583-.672,2.721,2.721,0,0,1,.759-.334,3.626,3.626,0,0,1,1.043-.141,3.8,3.8,0,0,1,1.429.247,1.941,1.941,0,0,1,.935.635,2.423,2.423,0,0,1,.407,1.079l-1.166.158a1.2,1.2,0,0,0-.458-.83,1.611,1.611,0,0,0-1.077-.317,1.879,1.879,0,0,0-1.166.282.775.775,0,0,0-.355.635.624.624,0,0,0,.143.407,1.123,1.123,0,0,0,.459.319c.118.046.471.145,1.06.3a16.369,16.369,0,0,1,1.765.566,1.765,1.765,0,0,1,.778.618,1.744,1.744,0,0,1,.282,1.023,2.01,2.01,0,0,1-.352,1.131,2.275,2.275,0,0,1-.99.813,3.7,3.7,0,0,1-1.483.282,3.365,3.365,0,0,1-2.1-.564A2.721,2.721,0,0,1,611.454,314.74Zm9.855,1.043.176,1.041a4.5,4.5,0,0,1-.9.106,2.128,2.128,0,0,1-1.006-.193,1.284,1.284,0,0,1-.512-.548,4.4,4.4,0,0,1-.141-1.415v-4.043h-.865v-.919h.865v-1.749l1.182-.705v2.454h1.2v.919h-1.2v4.115a2.412,2.412,0,0,0,.054.653.545.545,0,0,0,.211.228.753.753,0,0,0,.407.089A5.113,5.113,0,0,0,621.31,315.783Zm.794-7.277v-1.377h1.2v1.377Zm0,8.337v-7.03h1.2v7.03Zm3.392,0v-7.03h1.06v.989a2.539,2.539,0,0,1,2.242-1.147,2.9,2.9,0,0,1,1.166.228,1.826,1.826,0,0,1,.811.6,2.3,2.3,0,0,1,.371.865,8.615,8.615,0,0,1,.054,1.166v4.327h-1.185v-4.275a3.124,3.124,0,0,0-.141-1.1,1.149,1.149,0,0,0-.494-.564,1.489,1.489,0,0,0-.83-.23,1.952,1.952,0,0,0-1.326.5,2.359,2.359,0,0,0-.548,1.819v3.85Zm12.5-.867a4.425,4.425,0,0,1-1.288.8A3.663,3.663,0,0,1,635.4,317a2.561,2.561,0,0,1-1.784-.564,1.875,1.875,0,0,1-.618-1.448,1.937,1.937,0,0,1,.23-.938,1.781,1.781,0,0,1,.618-.689,2.772,2.772,0,0,1,.865-.388,6.585,6.585,0,0,1,1.06-.2,10.1,10.1,0,0,0,2.118-.4v-.3a1.353,1.353,0,0,0-.334-1.041,2.063,2.063,0,0,0-1.361-.39,2.087,2.087,0,0,0-1.236.3,1.725,1.725,0,0,0-.6,1.025l-1.166-.16a2.837,2.837,0,0,1,.529-1.2,2.339,2.339,0,0,1,1.06-.705,4.665,4.665,0,0,1,1.589-.247,4.254,4.254,0,0,1,1.467.212,1.951,1.951,0,0,1,.83.529,1.856,1.856,0,0,1,.371.813,7.49,7.49,0,0,1,.052,1.1v1.589a18.564,18.564,0,0,0,.07,2.1,2.885,2.885,0,0,0,.32.848h-1.255A2.667,2.667,0,0,1,638,315.976Zm-.106-2.666a9.052,9.052,0,0,1-1.941.458,4.068,4.068,0,0,0-1.041.247,1.072,1.072,0,0,0-.477.371,1.076,1.076,0,0,0,.193,1.361,1.585,1.585,0,0,0,1.06.317,2.429,2.429,0,0,0,1.22-.3,1.807,1.807,0,0,0,.794-.83,2.848,2.848,0,0,0,.193-1.182Zm6.022,2.473.178,1.041a4.539,4.539,0,0,1-.9.106,2.134,2.134,0,0,1-1.006-.193,1.3,1.3,0,0,1-.512-.548,4.464,4.464,0,0,1-.141-1.415v-4.043h-.865v-.919h.865v-1.749l1.184-.705v2.454h1.2v.919h-1.2v4.115a2.432,2.432,0,0,0,.052.653.571.571,0,0,0,.212.228.762.762,0,0,0,.406.089A5.113,5.113,0,0,0,643.914,315.783Zm.8-7.277v-1.377h1.2v1.377Zm0,8.337v-7.03h1.2v7.03Zm2.948-3.516a3.63,3.63,0,0,1,1.079-2.9,3.255,3.255,0,0,1,2.207-.776,3.145,3.145,0,0,1,2.367.952,3.533,3.533,0,0,1,.935,2.614,4.643,4.643,0,0,1-.407,2.137,2.906,2.906,0,0,1-1.2,1.22,3.487,3.487,0,0,1-1.695.423,3.189,3.189,0,0,1-2.383-.935A3.833,3.833,0,0,1,647.658,313.327Zm1.22,0a2.994,2.994,0,0,0,.583,2.014,1.908,1.908,0,0,0,1.483.67,1.875,1.875,0,0,0,1.483-.67,3.066,3.066,0,0,0,.583-2.049,2.874,2.874,0,0,0-.6-1.977,1.862,1.862,0,0,0-1.467-.672,1.909,1.909,0,0,0-1.483.672A2.947,2.947,0,0,0,648.878,313.327Zm7.134,3.516v-7.03h1.06v.989a2.542,2.542,0,0,1,2.242-1.147,2.886,2.886,0,0,1,1.166.228,1.831,1.831,0,0,1,.813.6,2.294,2.294,0,0,1,.371.865,8.7,8.7,0,0,1,.052,1.166v4.327h-1.182v-4.275a3.177,3.177,0,0,0-.141-1.1,1.153,1.153,0,0,0-.5-.564,1.483,1.483,0,0,0-.83-.23,1.943,1.943,0,0,0-1.323.5,2.359,2.359,0,0,0-.548,1.819v3.85Z" transform="translate(41.659 -85.277)" fill="#141414"/>
      <path id="Path_31888" data-name="Path 31888" d="M568.972,326.1h-1.185v-7.592a7.254,7.254,0,0,1-1.147.83,7.341,7.341,0,0,1-1.236.6v-1.147a7.534,7.534,0,0,0,1.73-1.131,4.522,4.522,0,0,0,1.077-1.307h.761Zm3.425-4.785a8.886,8.886,0,0,1,.353-2.771,3.451,3.451,0,0,1,1.043-1.626,2.744,2.744,0,0,1,1.765-.564,2.806,2.806,0,0,1,1.361.317,2.616,2.616,0,0,1,.987.919,4.538,4.538,0,0,1,.6,1.429,9.883,9.883,0,0,1,.212,2.3,8.825,8.825,0,0,1-.353,2.755,3.4,3.4,0,0,1-1.041,1.626,2.976,2.976,0,0,1-3.974-.442A6.38,6.38,0,0,1,572.4,321.318Zm1.22,0a6.042,6.042,0,0,0,.564,3.18,1.657,1.657,0,0,0,1.377.794,1.626,1.626,0,0,0,1.377-.794,6.037,6.037,0,0,0,.566-3.18,5.963,5.963,0,0,0-.566-3.178,1.635,1.635,0,0,0-1.394-.794,1.532,1.532,0,0,0-1.307.689A6.125,6.125,0,0,0,573.616,321.318Zm7.364,4.785v-1.359h1.359V326.1Zm2.719-2.56,1.2-.16a2.626,2.626,0,0,0,.689,1.467,1.739,1.739,0,0,0,1.2.442,1.991,1.991,0,0,0,2.012-2.031,1.787,1.787,0,0,0-.548-1.342,1.805,1.805,0,0,0-1.359-.548,3.267,3.267,0,0,0-.848.141l.141-1.06a1.385,1.385,0,0,0,.195.019,2.451,2.451,0,0,0,1.361-.39,1.379,1.379,0,0,0,.618-1.236,1.426,1.426,0,0,0-.442-1.077,1.556,1.556,0,0,0-1.149-.442,1.656,1.656,0,0,0-1.166.442,2.193,2.193,0,0,0-.583,1.307l-1.2-.212a3,3,0,0,1,.987-1.838,2.848,2.848,0,0,1,1.925-.67,3.113,3.113,0,0,1,1.467.353,2.447,2.447,0,0,1,1.025.919,2.387,2.387,0,0,1,.353,1.253,2.108,2.108,0,0,1-.336,1.149,2.285,2.285,0,0,1-.989.811,2.214,2.214,0,0,1,1.326.83,2.507,2.507,0,0,1,.477,1.572,2.856,2.856,0,0,1-.935,2.155,3.226,3.226,0,0,1-2.332.884,3.053,3.053,0,0,1-2.12-.761A3.006,3.006,0,0,1,583.7,323.544Zm8.142-4.821a2.98,2.98,0,0,1,.512-1.767,1.77,1.77,0,0,1,1.518-.724,1.974,1.974,0,0,1,1.518.653,3.292,3.292,0,0,1-.019,3.815,1.933,1.933,0,0,1-1.483.653,1.879,1.879,0,0,1-1.464-.653A2.889,2.889,0,0,1,591.841,318.723Zm2.066-1.678a.907.907,0,0,0-.743.388,2.535,2.535,0,0,0-.282,1.413,2.327,2.327,0,0,0,.282,1.325.924.924,0,0,0,.743.371.874.874,0,0,0,.741-.39,2.365,2.365,0,0,0,.3-1.394,2.162,2.162,0,0,0-.3-1.326A.9.9,0,0,0,593.907,317.045Zm0,9.413,5.314-10.226h.973l-5.3,10.226Zm4.2-2.632a2.967,2.967,0,0,1,.513-1.765,1.783,1.783,0,0,1,1.537-.724,1.973,1.973,0,0,1,1.518.653,2.684,2.684,0,0,1,.6,1.906,2.712,2.712,0,0,1-.618,1.908,1.952,1.952,0,0,1-1.5.653,1.917,1.917,0,0,1-1.466-.653A2.9,2.9,0,0,1,598.11,323.826Zm2.085-1.678a.92.92,0,0,0-.759.39,2.534,2.534,0,0,0-.284,1.413,2.186,2.186,0,0,0,.3,1.307.9.9,0,0,0,1.483,0,2.407,2.407,0,0,0,.3-1.413,2.122,2.122,0,0,0-.3-1.307A.9.9,0,0,0,600.195,322.148Z" transform="translate(101.203 -75.325)" fill="#8c8d8d"/>
      <path id="Path_31889" data-name="Path 31889" d="M678.079,314.181H495.965" transform="translate(31.603 -77.528)" fill="none" stroke="#3e993d" stroke-miterlimit="10" stroke-width="1"/>
      <path id="Path_31891" data-name="Path 31891" d="M520,376.243l3.726-9.712H525.1l3.974,9.712h-1.448l-1.149-2.95h-4.043l-1.079,2.95Zm2.807-3.991h3.286l-1.006-2.684a19.279,19.279,0,0,1-.689-2.014,13.337,13.337,0,0,1-.531,1.854Zm7.152,3.991v-7.028h1.06v.99a2.4,2.4,0,0,1,.884-.832,2.451,2.451,0,0,1,1.253-.317,2.315,2.315,0,0,1,1.271.317,1.643,1.643,0,0,1,.707.9,2.549,2.549,0,0,1,2.172-1.22,2.1,2.1,0,0,1,1.608.583,2.444,2.444,0,0,1,.564,1.784v4.821H538.3V371.81a3.055,3.055,0,0,0-.124-1.025.951.951,0,0,0-.407-.51,1.289,1.289,0,0,0-.724-.195,1.678,1.678,0,0,0-1.236.494,2.238,2.238,0,0,0-.477,1.591v4.078h-1.2v-4.574a1.93,1.93,0,0,0-.3-1.182,1.056,1.056,0,0,0-.935-.407,1.724,1.724,0,0,0-.938.265,1.528,1.528,0,0,0-.618.776,4.341,4.341,0,0,0-.193,1.467v3.655Zm16.107-2.261,1.236.143a2.966,2.966,0,0,1-1.079,1.676,3.65,3.65,0,0,1-4.468-.353,3.733,3.733,0,0,1-.9-2.668,3.828,3.828,0,0,1,.919-2.736,3.081,3.081,0,0,1,2.367-.989,2.983,2.983,0,0,1,2.3.954,3.786,3.786,0,0,1,.9,2.7v.319h-5.246a2.772,2.772,0,0,0,.653,1.784,1.959,1.959,0,0,0,1.466.6,1.827,1.827,0,0,0,1.112-.336A2.252,2.252,0,0,0,546.067,373.982Zm-3.9-1.925h3.921a2.33,2.33,0,0,0-.442-1.342,1.857,1.857,0,0,0-1.483-.689,1.925,1.925,0,0,0-1.394.548A2.193,2.193,0,0,0,542.163,372.057Zm7.011,4.186v-7.028h1.06v.99a2.543,2.543,0,0,1,2.242-1.149,2.887,2.887,0,0,1,1.166.23,1.845,1.845,0,0,1,.813.6,2.345,2.345,0,0,1,.371.865,8.692,8.692,0,0,1,.052,1.166v4.327H553.7V371.97a3.169,3.169,0,0,0-.141-1.1,1.153,1.153,0,0,0-.5-.564,1.483,1.483,0,0,0-.83-.23,1.942,1.942,0,0,0-1.323.494,2.365,2.365,0,0,0-.548,1.819v3.85Zm12.469,0v-.884a2.189,2.189,0,0,1-1.96,1.043,2.782,2.782,0,0,1-1.553-.461,3.142,3.142,0,0,1-1.1-1.307,4.439,4.439,0,0,1-.39-1.906A5,5,0,0,1,557,370.82a2.677,2.677,0,0,1,1.06-1.307,2.827,2.827,0,0,1,1.57-.458,2.358,2.358,0,0,1,1.131.265,2.438,2.438,0,0,1,.813.689v-3.479h1.182v9.712Zm-3.763-3.514a3.093,3.093,0,0,0,.566,2.031,1.719,1.719,0,0,0,1.342.653,1.687,1.687,0,0,0,1.323-.635,2.927,2.927,0,0,0,.548-1.944,3.259,3.259,0,0,0-.564-2.12,1.694,1.694,0,0,0-1.361-.67,1.637,1.637,0,0,0-1.323.653A3.159,3.159,0,0,0,557.88,372.729Zm10.65,3.514v-9.712h3.356a7.96,7.96,0,0,1,1.73.141,3.292,3.292,0,0,1,1.413.689,3.865,3.865,0,0,1,1.149,1.678,6.375,6.375,0,0,1,.388,2.294,6.589,6.589,0,0,1-.265,1.96,4.557,4.557,0,0,1-.654,1.413,3.327,3.327,0,0,1-.9.884,3.823,3.823,0,0,1-1.147.5,6.815,6.815,0,0,1-1.556.158Zm1.29-1.147h2.066a5.2,5.2,0,0,0,1.518-.176,2.016,2.016,0,0,0,.865-.512,2.859,2.859,0,0,0,.707-1.22,5.832,5.832,0,0,0,.263-1.871,4.383,4.383,0,0,0-.513-2.332,2.5,2.5,0,0,0-1.2-1.112,5.154,5.154,0,0,0-1.66-.195H569.82Zm13.332.282a4.415,4.415,0,0,1-1.288.794,3.62,3.62,0,0,1-1.307.23,2.551,2.551,0,0,1-1.784-.566,1.869,1.869,0,0,1-.618-1.448,1.931,1.931,0,0,1,.23-.935,1.751,1.751,0,0,1,.618-.689,2.722,2.722,0,0,1,.865-.388,6.359,6.359,0,0,1,1.06-.195,9.947,9.947,0,0,0,2.118-.407v-.3a1.356,1.356,0,0,0-.334-1.041,2.632,2.632,0,0,0-2.6-.087,1.72,1.72,0,0,0-.6,1.023l-1.166-.158a2.811,2.811,0,0,1,.529-1.2,2.343,2.343,0,0,1,1.06-.707,4.717,4.717,0,0,1,1.589-.247,4.253,4.253,0,0,1,1.466.212,1.951,1.951,0,0,1,.83.531,1.844,1.844,0,0,1,.371.811,7.508,7.508,0,0,1,.052,1.1v1.589a18.541,18.541,0,0,0,.071,2.1,2.871,2.871,0,0,0,.319.846h-1.255A2.642,2.642,0,0,1,583.152,375.378Zm-.106-2.668a9.025,9.025,0,0,1-1.942.46,4.061,4.061,0,0,0-1.041.247,1.055,1.055,0,0,0-.477.371,1.073,1.073,0,0,0,.193,1.359,1.586,1.586,0,0,0,1.06.319,2.45,2.45,0,0,0,1.22-.3,1.816,1.816,0,0,0,.795-.83,2.862,2.862,0,0,0,.193-1.184Zm6.022,2.473.178,1.043a4.535,4.535,0,0,1-.9.106,2.105,2.105,0,0,1-1.006-.195,1.273,1.273,0,0,1-.512-.548,4.457,4.457,0,0,1-.141-1.413v-4.045h-.865v-.917h.865v-1.749l1.184-.707v2.456h1.2v.917h-1.2v4.115a2.414,2.414,0,0,0,.052.653.579.579,0,0,0,.212.23.784.784,0,0,0,.406.087A4.591,4.591,0,0,0,589.068,375.183Zm5.387.2a4.47,4.47,0,0,1-1.288.794,3.62,3.62,0,0,1-1.307.23,2.548,2.548,0,0,1-1.784-.566,1.869,1.869,0,0,1-.618-1.448,1.951,1.951,0,0,1,.228-.935,1.765,1.765,0,0,1,.618-.689,2.714,2.714,0,0,1,.867-.388,6.327,6.327,0,0,1,1.058-.195,9.945,9.945,0,0,0,2.12-.407v-.3a1.349,1.349,0,0,0-.336-1.041,2.628,2.628,0,0,0-2.6-.087,1.721,1.721,0,0,0-.6,1.023l-1.166-.158a2.816,2.816,0,0,1,.531-1.2,2.333,2.333,0,0,1,1.06-.707,4.71,4.71,0,0,1,1.589-.247,4.241,4.241,0,0,1,1.464.212,1.962,1.962,0,0,1,.832.531,1.846,1.846,0,0,1,.369.811,7.409,7.409,0,0,1,.054,1.1v1.589a18.056,18.056,0,0,0,.07,2.1,2.813,2.813,0,0,0,.317.846h-1.253A2.651,2.651,0,0,1,594.455,375.378Zm-.106-2.668a9.03,9.03,0,0,1-1.942.46,4.109,4.109,0,0,0-1.043.247,1.079,1.079,0,0,0-.477.371,1.078,1.078,0,0,0,.2,1.359,1.581,1.581,0,0,0,1.06.319,2.436,2.436,0,0,0,1.218-.3,1.805,1.805,0,0,0,.794-.83,2.818,2.818,0,0,0,.2-1.184Zm5.916,3.692,2.808-10.032h.952L601.22,376.4Zm14.763-3.568,1.271.336a4.338,4.338,0,0,1-1.448,2.4,3.987,3.987,0,0,1-2.56.83,4.655,4.655,0,0,1-2.562-.637,3.951,3.951,0,0,1-1.5-1.836,6.667,6.667,0,0,1-.512-2.614,5.687,5.687,0,0,1,.583-2.649,3.977,3.977,0,0,1,1.643-1.713,4.893,4.893,0,0,1,2.365-.583,3.938,3.938,0,0,1,2.437.743,3.806,3.806,0,0,1,1.4,2.083l-1.271.3a2.924,2.924,0,0,0-.99-1.537,2.535,2.535,0,0,0-1.607-.494,3.116,3.116,0,0,0-1.871.548,2.9,2.9,0,0,0-1.06,1.429,6.361,6.361,0,0,0,.054,4.028,2.748,2.748,0,0,0,1.131,1.377,3.153,3.153,0,0,0,1.659.458,2.746,2.746,0,0,0,1.819-.618A3.146,3.146,0,0,0,615.028,372.835Zm3.074,3.408v-7.028h1.077v1.06a2.873,2.873,0,0,1,.743-.973,1.326,1.326,0,0,1,.776-.247,2.369,2.369,0,0,1,1.22.371l-.407,1.112a1.678,1.678,0,0,0-.865-.263,1.138,1.138,0,0,0-.724.247,1.225,1.225,0,0,0-.425.654,4.327,4.327,0,0,0-.212,1.377v3.69Zm4.538-8.335v-1.377h1.2v1.377Zm0,8.335v-7.028h1.2v7.028Zm5.987-1.06.176,1.043a4.5,4.5,0,0,1-.9.106,2.1,2.1,0,0,1-1.006-.195,1.26,1.26,0,0,1-.512-.548,4.394,4.394,0,0,1-.141-1.413v-4.045h-.867v-.917h.867v-1.749l1.183-.707v2.456h1.2v.917h-1.2v4.115a2.387,2.387,0,0,0,.054.653.55.55,0,0,0,.212.23.774.774,0,0,0,.406.087A4.586,4.586,0,0,0,628.628,375.183Zm5.6-1.2,1.236.143a2.965,2.965,0,0,1-1.079,1.676,3.65,3.65,0,0,1-4.468-.353,3.734,3.734,0,0,1-.9-2.668,3.828,3.828,0,0,1,.919-2.736,3.082,3.082,0,0,1,2.367-.989,2.983,2.983,0,0,1,2.3.954,3.785,3.785,0,0,1,.9,2.7v.319h-5.246a2.772,2.772,0,0,0,.653,1.784,1.959,1.959,0,0,0,1.466.6,1.828,1.828,0,0,0,1.112-.336A2.254,2.254,0,0,0,634.227,373.982Zm-3.9-1.925h3.921a2.331,2.331,0,0,0-.442-1.342,1.857,1.857,0,0,0-1.483-.689,1.925,1.925,0,0,0-1.394.548A2.193,2.193,0,0,0,630.322,372.057Zm6.995,4.186v-7.028h1.077v1.06a2.874,2.874,0,0,1,.743-.973,1.327,1.327,0,0,1,.776-.247,2.369,2.369,0,0,1,1.22.371l-.406,1.112a1.679,1.679,0,0,0-.865-.263,1.138,1.138,0,0,0-.724.247,1.226,1.226,0,0,0-.425.654,4.327,4.327,0,0,0-.211,1.377v3.69Zm4.539-8.335v-1.377h1.2v1.377Zm0,8.335v-7.028h1.2v7.028Zm7.982-.865a4.452,4.452,0,0,1-1.29.794,3.62,3.62,0,0,1-1.307.23,2.554,2.554,0,0,1-1.784-.566,1.876,1.876,0,0,1-.618-1.448,1.929,1.929,0,0,1,.23-.935,1.749,1.749,0,0,1,.618-.689,2.723,2.723,0,0,1,.865-.388,6.362,6.362,0,0,1,1.06-.195,9.97,9.97,0,0,0,2.12-.407v-.3a1.349,1.349,0,0,0-.336-1.041,2.632,2.632,0,0,0-2.6-.087,1.72,1.72,0,0,0-.6,1.023l-1.166-.158a2.79,2.79,0,0,1,.531-1.2,2.336,2.336,0,0,1,1.058-.707,4.728,4.728,0,0,1,1.591-.247,4.24,4.24,0,0,1,1.465.212,1.94,1.94,0,0,1,.83.531,1.847,1.847,0,0,1,.371.811,7.417,7.417,0,0,1,.054,1.1v1.589a18.03,18.03,0,0,0,.071,2.1,2.812,2.812,0,0,0,.317.846h-1.253A2.645,2.645,0,0,1,649.838,375.378Zm-.106-2.668a9.021,9.021,0,0,1-1.944.46,4.084,4.084,0,0,0-1.041.247,1.067,1.067,0,0,0-.477.371,1.071,1.071,0,0,0,.2,1.359,1.582,1.582,0,0,0,1.06.319,2.436,2.436,0,0,0,1.217-.3,1.8,1.8,0,0,0,.794-.83,2.819,2.819,0,0,0,.2-1.184Z" transform="translate(51.425 -21.459)" fill="#141414"/>
      <path id="Path_31892" data-name="Path 31892" d="M571.312,384.359v1.147h-6.428a2.475,2.475,0,0,1,.143-.83,4.543,4.543,0,0,1,.776-1.29,12.446,12.446,0,0,1,1.572-1.464,12.913,12.913,0,0,0,2.137-2.066,2.437,2.437,0,0,0,.566-1.431,1.553,1.553,0,0,0-.512-1.182,1.832,1.832,0,0,0-1.325-.5,1.868,1.868,0,0,0-1.377.512,1.985,1.985,0,0,0-.529,1.431l-1.22-.125a2.987,2.987,0,0,1,.936-2.083,3.268,3.268,0,0,1,2.226-.726,3.056,3.056,0,0,1,2.207.778,2.559,2.559,0,0,1,.813,1.925,2.849,2.849,0,0,1-.247,1.147,4.454,4.454,0,0,1-.794,1.185,19.1,19.1,0,0,1-1.819,1.695q-1.076.9-1.4,1.236a3.807,3.807,0,0,0-.494.637Zm1.714-7.3v-1.147h6.287v.935a13.716,13.716,0,0,0-1.836,2.632,15.872,15.872,0,0,0-1.4,3.354,11.56,11.56,0,0,0-.458,2.668h-1.236a11.981,11.981,0,0,1,.442-2.773,15.144,15.144,0,0,1,1.236-3.126,13.73,13.73,0,0,1,1.73-2.543Zm8.513,8.443v-1.361H582.9v1.361Zm8.9-7.329-1.185.087a2.3,2.3,0,0,0-.442-1.023,1.6,1.6,0,0,0-1.2-.512,1.685,1.685,0,0,0-1.008.317,2.929,2.929,0,0,0-.881,1.218,6.292,6.292,0,0,0-.336,2.226,2.717,2.717,0,0,1,1.041-.971,2.928,2.928,0,0,1,1.326-.317,2.665,2.665,0,0,1,2.012.882,3.127,3.127,0,0,1,.848,2.261,3.705,3.705,0,0,1-.406,1.713,2.89,2.89,0,0,1-1.077,1.2,3.015,3.015,0,0,1-1.554.407,3.05,3.05,0,0,1-2.437-1.1,5.529,5.529,0,0,1-.938-3.6,6.457,6.457,0,0,1,1.043-4.1,2.968,2.968,0,0,1,2.437-1.114,2.631,2.631,0,0,1,2.755,2.421Zm-4.858,4.186a2.906,2.906,0,0,0,.249,1.182,2.051,2.051,0,0,0,.724.848,1.865,1.865,0,0,0,1.006.3,1.687,1.687,0,0,0,1.288-.6,2.415,2.415,0,0,0,.548-1.659,2.233,2.233,0,0,0-.548-1.591,1.734,1.734,0,0,0-1.342-.583,1.85,1.85,0,0,0-1.377.583A2.134,2.134,0,0,0,585.582,382.363Zm6.818-4.24a2.974,2.974,0,0,1,.512-1.765,1.765,1.765,0,0,1,1.518-.724,1.973,1.973,0,0,1,1.518.654,3.293,3.293,0,0,1-.019,3.815,1.934,1.934,0,0,1-1.483.653,1.88,1.88,0,0,1-1.464-.653A2.891,2.891,0,0,1,592.4,378.123Zm2.066-1.676a.907.907,0,0,0-.743.388,2.534,2.534,0,0,0-.282,1.413,2.315,2.315,0,0,0,.282,1.323.918.918,0,0,0,.743.371.872.872,0,0,0,.741-.388,2.369,2.369,0,0,0,.3-1.4,2.159,2.159,0,0,0-.3-1.323A.9.9,0,0,0,594.466,376.447Zm0,9.411,5.314-10.224h.973l-5.3,10.224Zm4.2-2.63a2.979,2.979,0,0,1,.512-1.767,1.789,1.789,0,0,1,1.537-.724,1.973,1.973,0,0,1,1.519.653,3.293,3.293,0,0,1-.019,3.815,1.952,1.952,0,0,1-1.5.653,1.917,1.917,0,0,1-1.466-.653A2.9,2.9,0,0,1,598.669,383.228Zm2.085-1.678a.918.918,0,0,0-.759.388,2.533,2.533,0,0,0-.284,1.413,2.187,2.187,0,0,0,.3,1.307.9.9,0,0,0,1.483,0,2.408,2.408,0,0,0,.3-1.413,2.122,2.122,0,0,0-.3-1.307A.9.9,0,0,0,600.753,381.55Z" transform="translate(99.645 -11.507)" fill="#8c8d8d"/>
      <path id="Path_32739" data-name="Path 32739" d="M249,1,0,0" transform="translate(460.5 84.043)" fill="none" stroke="#e22b26" stroke-width="1"/>
      <line id="Line_118" data-name="Line 118" x1="275" transform="translate(434.5 360.043)" fill="none" stroke="#ef5513" stroke-width="1"/>
      <line id="Line_119" data-name="Line 119" x1="313" transform="translate(396.5 18.043)" fill="none" stroke="#356bb3" stroke-width="1" opacity="0.9"/>
    </g>
    <path id="Path_32738" data-name="Path 32738" d="M0,0V20" transform="translate(1492.5 3158.5)" fill="none" stroke="#356bb3" stroke-width="2"/>
    <line id="Line_111" data-name="Line 111" y2="20" transform="translate(1492.5 3225.5)" fill="none" stroke="#e22b26" stroke-width="2"/>
    <line id="Line_112" data-name="Line 112" y2="20" transform="translate(1493.5 3283.5)" fill="none" stroke="#fdac00" stroke-width="2"/>
    <line id="Line_113" data-name="Line 113" y2="20" transform="translate(1492.5 3377.5)" fill="none" stroke="#3e993d" stroke-width="2"/>
    <line id="Line_114" data-name="Line 114" y2="20" transform="translate(1492.5 3500.5)" fill="none" stroke="#ef5513" stroke-width="2"/>
    <line id="Line_115" data-name="Line 115" y2="20" transform="translate(783.5 3376.5)" fill="none" stroke="#39b2ba" stroke-width="2"/>
    <line id="Line_116" data-name="Line 116" y2="20" transform="translate(783.5 3244.5)" fill="none" stroke="#6a99d1" stroke-width="2"/>
    <line id="Line_117" data-name="Line 117" y2="20" transform="translate(783.5 3165.5)" fill="none" stroke="#ea635e" stroke-width="2"/>
    <text id="_01" data-name="01" transform="translate(1496 3153)" fill="#356bb3" font-size="20" font-family="Poppins-Regular, Poppins"><tspan x="3.02" y="21">01</tspan></text>
    <text id="_02" data-name="02" transform="translate(1496 3221)" fill="#e22b26" font-size="20" font-family="Poppins-Regular, Poppins"><tspan x="0.47" y="21">02</tspan></text>
    <text id="_04" data-name="04" transform="translate(1497 3279)" fill="#fdac00" font-size="20" font-family="Poppins-Regular, Poppins"><tspan x="5.93" y="21">04</tspan></text>
    <text id="_03" data-name="03" transform="translate(1496 3373)" fill="#3e993d" font-size="20" font-family="Poppins-Regular, Poppins"><tspan x="2.83" y="21">03</tspan></text>
    <text id="_08" data-name="08" transform="translate(1496 3496)" fill="#ef5513" font-size="20" font-family="Poppins-Regular, Poppins"><tspan x="2.41" y="21">08</tspan></text>
    <text id="_05" data-name="05" transform="translate(748 3373)" fill="#39b2ba" font-size="20" font-family="Poppins-Regular, Poppins"><tspan x="2.44" y="21">05</tspan></text>
    <text id="_02-2" data-name="02" transform="translate(748 3242)" fill="#6a99d1" font-size="20" font-family="Poppins-Regular, Poppins"><tspan x="2.97" y="21">02</tspan></text>
    <text id="_04-2" data-name="04" transform="translate(748 3162)" fill="#ea635e" font-size="20" font-family="Poppins-Regular, Poppins"><tspan x="2.43" y="21">04</tspan></text>
  </g>
</svg>
