<svg id="Group_1823" data-name="Group 1823" xmlns="http://www.w3.org/2000/svg" width="799.497" height="424.982" viewBox="0 0 799.497 424.982">
  <path id="Path_31847" data-name="Path 31847" d="M412.7,200.1a212.452,212.452,0,0,1,45.679,4.969l-11.42,51.881a159.259,159.259,0,0,0-34.259-3.728Z" transform="translate(-13.106 -200.095)" fill="#356bb3"/>
  <path id="Path_31848" data-name="Path 31848" d="M438.783,202.222A212.464,212.464,0,0,1,521.7,240.583l-32.147,42.29A159.349,159.349,0,0,0,427.363,254.1Z" transform="translate(6.486 -197.253)" fill="#e22b26"/>
  <path id="Path_31849" data-name="Path 31849" d="M486.132,218.644A212.49,212.49,0,0,1,569.718,376.3l-53.046,2.878a159.367,159.367,0,0,0-62.687-118.245Z" transform="translate(42.052 -175.315)" fill="#fdac00"/>
  <path id="Path_31850" data-name="Path 31850" d="M549.438,286.136a212.511,212.511,0,0,1-36.3,130.751l-43.969-29.811a159.355,159.355,0,0,0,27.225-98.062Z" transform="translate(62.332 -85.15)" fill="#3e993d"/>
  <path id="Path_31851" data-name="Path 31851" d="M343.366,275.022A212.486,212.486,0,0,1,505.318,200.1v53.121a159.377,159.377,0,0,0-121.466,56.2Z" transform="translate(-105.727 -200.095)" fill="#ea635e"/>
  <path id="Path_31852" data-name="Path 31852" d="M325.046,312.887a212.471,212.471,0,0,1,42.794-80.716l40.486,34.39A159.392,159.392,0,0,0,376.233,327.1Z" transform="translate(-130.202 -157.244)" fill="#6a99d1"/>
  <path id="Path_31853" data-name="Path 31853" d="M388.094,477.839a212.492,212.492,0,0,1-58.616-211.114l51.187,14.212a159.364,159.364,0,0,0,43.962,158.336Z" transform="translate(-134.635 -111.082)" fill="#39b2ba"/>
  <path id="Path_31854" data-name="Path 31854" d="M672.147,359.159a212.492,212.492,0,0,1-322.008,35.02l36.534-38.566a159.368,159.368,0,0,0,241.5-26.265Z" transform="translate(-96.679 -27.422)" fill="#ef5513"/>
  <path id="Path_31855" data-name="Path 31855" d="M424.652,221.982H423.08V212a8.247,8.247,0,0,1-1.493,1.093,10.082,10.082,0,0,1-1.63.8v-1.511a9.3,9.3,0,0,0,2.287-1.493,5.557,5.557,0,0,0,1.392-1.71h1.016Z" transform="translate(-3.407 -187.966)" fill="#040505"/>
  <path id="Path_31856" data-name="Path 31856" d="M452.6,227.361v1.511h-8.433a2.861,2.861,0,0,1,.18-1.1,6.186,6.186,0,0,1,1.035-1.689,16.39,16.39,0,0,1,2.049-1.929,16.7,16.7,0,0,0,2.8-2.705,3.221,3.221,0,0,0,.736-1.89,2.064,2.064,0,0,0-.675-1.57,2.357,2.357,0,0,0-1.712-.638,2.516,2.516,0,0,0-1.829.677,2.549,2.549,0,0,0-.675,1.887l-1.612-.178a3.9,3.9,0,0,1,1.233-2.726,4.259,4.259,0,0,1,2.9-.953,4.018,4.018,0,0,1,2.9,1.014,3.335,3.335,0,0,1,1.074,2.525,3.761,3.761,0,0,1-.32,1.511,5.4,5.4,0,0,1-1.032,1.551,24.587,24.587,0,0,1-2.406,2.247,21.763,21.763,0,0,0-1.81,1.612,5.03,5.03,0,0,0-.656.836Z" transform="translate(28.936 -178.762)" fill="#040505"/>
  <path id="Path_31857" data-name="Path 31857" d="M486.484,263.792V260.73h-5.55V259.3l5.828-8.253h1.273V259.3h1.731v1.432h-1.731v3.062Zm0-4.494v-5.746l-4,5.746Z" transform="translate(78.053 -132.029)" fill="#040505"/>
  <path id="Path_31858" data-name="Path 31858" d="M487.535,319.043l1.551-.219a3.6,3.6,0,0,0,.916,1.929,2.32,2.32,0,0,0,1.591.577,2.536,2.536,0,0,0,1.869-.757,2.623,2.623,0,0,0,.757-1.908,2.371,2.371,0,0,0-.717-1.771,2.4,2.4,0,0,0-1.771-.7,4.79,4.79,0,0,0-1.112.161l.177-1.374a2.039,2.039,0,0,0,.238.021,3.24,3.24,0,0,0,1.81-.518,1.782,1.782,0,0,0,.8-1.609,1.888,1.888,0,0,0-.577-1.413,2.05,2.05,0,0,0-1.511-.577,2.165,2.165,0,0,0-1.532.577,2.869,2.869,0,0,0-.776,1.71l-1.551-.278a3.968,3.968,0,0,1,1.292-2.427,3.742,3.742,0,0,1,2.528-.874,4.089,4.089,0,0,1,1.929.458,3.141,3.141,0,0,1,1.331,1.212,3.1,3.1,0,0,1,.477,1.652,2.687,2.687,0,0,1-.437,1.49A3.1,3.1,0,0,1,493.5,315.5a2.915,2.915,0,0,1,1.75,1.075,3.259,3.259,0,0,1,.638,2.07,3.724,3.724,0,0,1-1.233,2.824,4.266,4.266,0,0,1-3.062,1.152,4.062,4.062,0,0,1-2.805-.993A3.882,3.882,0,0,1,487.535,319.043Z" transform="translate(86.872 -53.808)" fill="#040505"/>
  <path id="Path_31859" data-name="Path 31859" d="M421.856,373.319a3.014,3.014,0,0,1-1.451-1.014,2.712,2.712,0,0,1-.458-1.591,3.071,3.071,0,0,1,.993-2.329,4.2,4.2,0,0,1,5.352.021,3.13,3.13,0,0,1,1.032,2.366,2.542,2.542,0,0,1-.477,1.532,2.9,2.9,0,0,1-1.411,1.014,3.257,3.257,0,0,1,2.406,3.282,3.661,3.661,0,0,1-1.154,2.742,4.193,4.193,0,0,1-3.044,1.114,4.266,4.266,0,0,1-3.062-1.114,3.773,3.773,0,0,1-1.154-2.8,3.3,3.3,0,0,1,.638-2.067A3.116,3.116,0,0,1,421.856,373.319Zm-.3-2.644a2,2,0,0,0,.577,1.472,2.278,2.278,0,0,0,3,.019,1.927,1.927,0,0,0,.577-1.411,1.9,1.9,0,0,0-.6-1.432,2.017,2.017,0,0,0-1.49-.6,2.06,2.06,0,0,0-1.493.577A1.84,1.84,0,0,0,421.557,370.674Zm-.516,5.886a2.883,2.883,0,0,0,.318,1.311,2.235,2.235,0,0,0,.934.955,2.875,2.875,0,0,0,1.374.339,2.469,2.469,0,0,0,1.829-.717,2.439,2.439,0,0,0,.736-1.829,2.6,2.6,0,1,0-5.19-.058Z" transform="translate(-4.113 23.455)" fill="#040505"/>
  <path id="Path_31860" data-name="Path 31860" d="M334.138,318.937l1.649-.138a3.031,3.031,0,0,0,.836,1.81,2.357,2.357,0,0,0,1.612.6,2.476,2.476,0,0,0,1.909-.855,3.169,3.169,0,0,0,.8-2.247,2.915,2.915,0,0,0-.757-2.128,2.623,2.623,0,0,0-1.969-.776,2.681,2.681,0,0,0-1.371.357,2.743,2.743,0,0,0-.955.876l-1.472-.18,1.233-6.562h6.344V311.2H336.9l-.675,3.42a4.176,4.176,0,0,1,2.406-.8,3.772,3.772,0,0,1,2.8,1.154,4.029,4.029,0,0,1,1.154,2.983,4.646,4.646,0,0,1-1,2.983,4.055,4.055,0,0,1-3.359,1.551,4.166,4.166,0,0,1-2.845-.974A3.823,3.823,0,0,1,334.138,318.937Z" transform="translate(-118.055 -53.683)" fill="#040505"/>
  <path id="Path_31861" data-name="Path 31861" d="M348.857,262.314v1.511h-8.433a2.846,2.846,0,0,1,.18-1.093,6.228,6.228,0,0,1,1.035-1.691,16.579,16.579,0,0,1,2.049-1.927,16.7,16.7,0,0,0,2.8-2.7,3.226,3.226,0,0,0,.736-1.89,2.073,2.073,0,0,0-.675-1.572,2.365,2.365,0,0,0-1.712-.635,2.515,2.515,0,0,0-1.829.675,2.555,2.555,0,0,0-.675,1.89l-1.612-.178a3.9,3.9,0,0,1,1.233-2.726,4.26,4.26,0,0,1,2.9-.953,4.008,4.008,0,0,1,2.9,1.014,3.335,3.335,0,0,1,1.074,2.525,3.77,3.77,0,0,1-.32,1.511,5.431,5.431,0,0,1-1.032,1.551,24.863,24.863,0,0,1-2.406,2.247,21.778,21.778,0,0,0-1.81,1.612,5.124,5.124,0,0,0-.656.834Z" transform="translate(-109.66 -132.063)" fill="#040505"/>
  <path id="Path_31862" data-name="Path 31862" d="M382.739,228.839v-3.062h-5.55v-1.432l5.828-8.255h1.273v8.255h1.731v1.432H384.29v3.062Zm0-4.494V218.6l-4,5.749Z" transform="translate(-60.542 -178.728)" fill="#040505"/>
  <path id="Path_31863" data-name="Path 31863" d="M245.9,216.536,241.66,205.6h1.57l2.845,7.954c.224.638.416,1.233.577,1.792.171-.6.369-1.194.6-1.792l2.943-7.954h1.472l-4.275,10.937Zm12.31-2.544,1.392.159a3.354,3.354,0,0,1-1.212,1.89,4.115,4.115,0,0,1-5.032-.4,4.193,4.193,0,0,1-1.016-3,4.313,4.313,0,0,1,1.035-3.083,3.473,3.473,0,0,1,2.665-1.114,3.368,3.368,0,0,1,2.586,1.075,4.269,4.269,0,0,1,1.014,3.044v.357H253.73a3.116,3.116,0,0,0,.736,2.009,2.207,2.207,0,0,0,1.652.675,2.072,2.072,0,0,0,1.252-.376A2.543,2.543,0,0,0,258.205,213.992Zm-4.4-2.168h4.415a2.634,2.634,0,0,0-.5-1.511,2.092,2.092,0,0,0-1.673-.776,2.171,2.171,0,0,0-1.57.617A2.46,2.46,0,0,0,253.809,211.824Zm7.877,4.712v-7.914H262.9v1.194a3.2,3.2,0,0,1,.836-1.093,1.481,1.481,0,0,1,.874-.28,2.667,2.667,0,0,1,1.374.418l-.458,1.254a1.872,1.872,0,0,0-.974-.3,1.3,1.3,0,0,0-.815.278,1.382,1.382,0,0,0-.479.736,4.885,4.885,0,0,0-.238,1.551v4.156Zm5.111-9.386V205.6h1.352v1.551Zm0,9.386v-7.914h1.352v7.914Zm4.137,0v-6.879H269.74v-1.035h1.194v-.855a3.687,3.687,0,0,1,.138-1.173,1.714,1.714,0,0,1,.677-.855,2.523,2.523,0,0,1,1.371-.32,6.2,6.2,0,0,1,1.254.14l-.2,1.154a5.613,5.613,0,0,0-.794-.061,1.212,1.212,0,0,0-.876.259,1.471,1.471,0,0,0-.238.974v.736h1.551v1.035h-1.551v6.879Zm3.441,3.044-.161-1.252a3,3,0,0,0,.776.119,1.324,1.324,0,0,0,.7-.159,1.2,1.2,0,0,0,.458-.4,10.06,10.06,0,0,0,.418-1.014,1.821,1.821,0,0,1,.119-.318l-3.023-7.935h1.453l1.649,4.574q.319.876.577,1.85c.159-.624.346-1.226.556-1.81l1.691-4.613h1.334l-3,8.054q-.5,1.293-.757,1.789a2.469,2.469,0,0,1-.834.974,1.869,1.869,0,0,1-1.093.32A2.473,2.473,0,0,1,274.375,219.579Zm11.694-3.044V205.6h4.852a6.306,6.306,0,0,1,2.226.3,2.452,2.452,0,0,1,1.215,1.054,3.04,3.04,0,0,1,.458,1.63,2.746,2.746,0,0,1-.757,1.969,3.838,3.838,0,0,1-2.327,1.014,4.025,4.025,0,0,1,.876.537,7.1,7.1,0,0,1,1.191,1.451l1.911,2.983h-1.831l-1.432-2.266a17.28,17.28,0,0,0-1.054-1.511,2.767,2.767,0,0,0-.736-.717,2.3,2.3,0,0,0-.656-.318,5.581,5.581,0,0,0-.794-.04h-1.691v4.852Zm1.451-6.1h3.123a4.751,4.751,0,0,0,1.53-.2,1.685,1.685,0,0,0,.855-.656,1.8,1.8,0,0,0,.3-1,1.6,1.6,0,0,0-.577-1.273,2.611,2.611,0,0,0-1.771-.5h-3.46Zm15.233,3.56,1.392.159a3.33,3.33,0,0,1-1.212,1.89,4.116,4.116,0,0,1-5.032-.4,4.2,4.2,0,0,1-1.014-3,4.313,4.313,0,0,1,1.035-3.083,3.47,3.47,0,0,1,2.665-1.114,3.363,3.363,0,0,1,2.584,1.075,4.258,4.258,0,0,1,1.014,3.044v.357h-5.905a3.115,3.115,0,0,0,.736,2.009,2.2,2.2,0,0,0,1.652.675,2.077,2.077,0,0,0,1.252-.376A2.556,2.556,0,0,0,302.751,213.992Zm-4.394-2.168h4.415a2.65,2.65,0,0,0-.5-1.511,2.087,2.087,0,0,0-1.67-.776,2.173,2.173,0,0,0-1.572.617A2.458,2.458,0,0,0,298.358,211.824Zm7.358,2.345,1.313-.2a1.875,1.875,0,0,0,.617,1.212,2.24,2.24,0,0,0,1.451.418,2.118,2.118,0,0,0,1.353-.357,1.129,1.129,0,0,0,.458-.895.813.813,0,0,0-.4-.717,5.917,5.917,0,0,0-1.374-.456,14.529,14.529,0,0,1-2.049-.638,2.09,2.09,0,0,1-.855-.754,1.993,1.993,0,0,1-.3-1.074,2.071,2.071,0,0,1,.238-.974,2.116,2.116,0,0,1,.656-.757,3.13,3.13,0,0,1,.855-.378,4.149,4.149,0,0,1,1.173-.159,4.3,4.3,0,0,1,1.612.28,2.164,2.164,0,0,1,1.053.715,2.755,2.755,0,0,1,.458,1.212l-1.313.18a1.362,1.362,0,0,0-.516-.934,1.825,1.825,0,0,0-1.215-.357,2.121,2.121,0,0,0-1.313.318.876.876,0,0,0-.4.715.718.718,0,0,0,.159.458,1.248,1.248,0,0,0,.519.357c.131.054.53.166,1.191.339a17.826,17.826,0,0,1,1.99.638,1.875,1.875,0,0,1,1.194,1.848,2.247,2.247,0,0,1-.4,1.273,2.577,2.577,0,0,1-1.114.916,4.16,4.16,0,0,1-1.67.318,3.8,3.8,0,0,1-2.366-.635A3.051,3.051,0,0,1,305.716,214.169Zm13.364,2.366v-1.173a2.92,2.92,0,0,1-2.525,1.353,3.349,3.349,0,0,1-1.313-.259,2.31,2.31,0,0,1-.895-.675,2.6,2.6,0,0,1-.418-1.014,6.8,6.8,0,0,1-.079-1.254v-4.891H315.2v4.394a8.093,8.093,0,0,0,.079,1.413,1.461,1.461,0,0,0,.516.836,1.741,1.741,0,0,0,1.035.3,2.2,2.2,0,0,0,1.114-.3,1.74,1.74,0,0,0,.754-.857,3.905,3.905,0,0,0,.241-1.551v-4.235h1.332v7.914Zm3.679,0V205.6h1.353v10.937Zm6.781-1.191.2,1.173a5.077,5.077,0,0,1-1.014.119,2.371,2.371,0,0,1-1.133-.22,1.419,1.419,0,0,1-.577-.617,5,5,0,0,1-.159-1.591v-4.553h-.974v-1.035h.974v-1.969l1.332-.794v2.763h1.352v1.035h-1.352v4.632a2.689,2.689,0,0,0,.061.736.636.636,0,0,0,.238.259.882.882,0,0,0,.458.1A5.772,5.772,0,0,0,329.54,215.344Zm.36-1.175,1.31-.2a1.9,1.9,0,0,0,.617,1.212,2.247,2.247,0,0,0,1.453.418,2.118,2.118,0,0,0,1.352-.357,1.136,1.136,0,0,0,.458-.895.811.811,0,0,0-.4-.717,5.881,5.881,0,0,0-1.371-.456,14.526,14.526,0,0,1-2.049-.638,2.062,2.062,0,0,1-.855-.754,2,2,0,0,1-.3-1.074,2.071,2.071,0,0,1,.238-.974,2.139,2.139,0,0,1,.656-.757,3.128,3.128,0,0,1,.855-.378,4.164,4.164,0,0,1,1.175-.159,4.278,4.278,0,0,1,1.609.28,2.171,2.171,0,0,1,1.056.715,2.754,2.754,0,0,1,.456,1.212l-1.313.18a1.345,1.345,0,0,0-.516-.934,1.814,1.814,0,0,0-1.212-.357,2.116,2.116,0,0,0-1.313.318.87.87,0,0,0-.4.715.705.705,0,0,0,.159.458,1.255,1.255,0,0,0,.516.357q.2.081,1.194.339a17.742,17.742,0,0,1,1.988.638,1.989,1.989,0,0,1,.876.7,1.964,1.964,0,0,1,.318,1.152,2.261,2.261,0,0,1-.4,1.273,2.577,2.577,0,0,1-1.114.916,4.16,4.16,0,0,1-1.67.318,3.788,3.788,0,0,1-2.366-.635A3.051,3.051,0,0,1,329.9,214.169Z" transform="translate(-241.599 -192.983)" fill="#141414"/>
  <path id="Path_31864" data-name="Path 31864" d="M246.367,225.8h-1.331v-8.552a8.065,8.065,0,0,1-1.294.937,8.189,8.189,0,0,1-1.392.675v-1.292a8.627,8.627,0,0,0,1.951-1.273,5.091,5.091,0,0,0,1.212-1.472h.855Zm3.859-2.883,1.353-.18a2.957,2.957,0,0,0,.776,1.652,1.955,1.955,0,0,0,1.353.5,2.19,2.19,0,0,0,1.609-.656,2.219,2.219,0,0,0,.656-1.63,2.018,2.018,0,0,0-.617-1.514,2.043,2.043,0,0,0-1.53-.614,3.683,3.683,0,0,0-.955.159l.159-1.194a1.5,1.5,0,0,0,.22.019,2.75,2.75,0,0,0,1.53-.437,1.548,1.548,0,0,0,.7-1.392,1.606,1.606,0,0,0-.5-1.212,1.747,1.747,0,0,0-1.292-.5,1.861,1.861,0,0,0-1.313.5,2.469,2.469,0,0,0-.656,1.472l-1.353-.238a3.366,3.366,0,0,1,1.114-2.07,3.208,3.208,0,0,1,2.168-.754,3.485,3.485,0,0,1,1.652.4,2.734,2.734,0,0,1,1.152,1.035,2.661,2.661,0,0,1,.4,1.411,2.375,2.375,0,0,1-.378,1.294,2.573,2.573,0,0,1-1.114.913,2.5,2.5,0,0,1,1.493.934,2.823,2.823,0,0,1,.537,1.771A3.21,3.21,0,0,1,256.33,225a3.635,3.635,0,0,1-2.623.993,3.443,3.443,0,0,1-2.387-.855A3.363,3.363,0,0,1,250.226,222.916Zm9.664,2.883v-1.53h1.532v1.53Zm5.132-5.926a2.753,2.753,0,0,1-1.254-.874,2.335,2.335,0,0,1-.4-1.352,2.663,2.663,0,0,1,.855-2.009,3.613,3.613,0,0,1,4.595.019,2.7,2.7,0,0,1,.874,2.03,2.2,2.2,0,0,1-.4,1.313,2.6,2.6,0,0,1-1.212.874,2.831,2.831,0,0,1,1.53,1.053,2.963,2.963,0,0,1,.519,1.752,3.121,3.121,0,0,1-1,2.345,3.556,3.556,0,0,1-2.6.955,3.594,3.594,0,0,1-2.6-.955,3.168,3.168,0,0,1-1-2.385,2.894,2.894,0,0,1,.537-1.792A2.785,2.785,0,0,1,265.022,219.872Zm-.278-2.287a1.733,1.733,0,0,0,.5,1.273,1.819,1.819,0,0,0,1.313.5,1.755,1.755,0,0,0,1.273-.479,1.729,1.729,0,0,0-.019-2.446,1.739,1.739,0,0,0-1.273-.516,1.793,1.793,0,0,0-1.294.5A1.61,1.61,0,0,0,264.744,217.586Zm-.418,5.053a2.558,2.558,0,0,0,.257,1.112,1.974,1.974,0,0,0,.818.836,2.332,2.332,0,0,0,1.152.3,2.128,2.128,0,0,0,1.572-.617,2.089,2.089,0,0,0,.635-1.572,2.174,2.174,0,0,0-2.247-2.247,2.139,2.139,0,0,0-2.186,2.189Zm7.795-5.151a3.355,3.355,0,0,1,.577-1.99,1.987,1.987,0,0,1,1.71-.815,2.222,2.222,0,0,1,1.71.736,3.7,3.7,0,0,1-.019,4.3,2.177,2.177,0,0,1-1.67.736,2.118,2.118,0,0,1-1.651-.736A3.265,3.265,0,0,1,272.12,217.487Zm2.327-1.89a1.014,1.014,0,0,0-.834.437,2.851,2.851,0,0,0-.32,1.591,2.619,2.619,0,0,0,.32,1.493,1.031,1.031,0,0,0,.834.416.986.986,0,0,0,.836-.437,2.68,2.68,0,0,0,.339-1.57,2.45,2.45,0,0,0-.339-1.493A1.022,1.022,0,0,0,274.447,215.6Zm0,10.6,5.987-11.514h1.093L275.561,226.2Zm4.733-2.962a3.359,3.359,0,0,1,.577-1.988,2.014,2.014,0,0,1,1.731-.815,2.222,2.222,0,0,1,1.71.736,3.019,3.019,0,0,1,.677,2.147,3.059,3.059,0,0,1-.7,2.147,2.2,2.2,0,0,1-1.691.736,2.159,2.159,0,0,1-1.652-.736A3.261,3.261,0,0,1,279.18,223.234Zm2.348-1.89a1.043,1.043,0,0,0-.855.437,2.859,2.859,0,0,0-.318,1.593,2.446,2.446,0,0,0,.339,1.472,1.017,1.017,0,0,0,1.67,0,2.736,2.736,0,0,0,.336-1.593,2.417,2.417,0,0,0-.336-1.472A1.028,1.028,0,0,0,281.527,221.344Z" transform="translate(-240.679 -180.608)" fill="#8c8d8d"/>
  <path id="Path_31865" data-name="Path 31865" d="M241.634,212.63H556.463" transform="translate(-241.634 -183.349)" fill="none" stroke="#636363" stroke-miterlimit="10" stroke-width="1"/>
  <path id="Path_31866" data-name="Path 31866" d="M380.411,214.085a2.545,2.545,0,1,0-2.544,2.546,2.544,2.544,0,0,0,2.544-2.546" transform="translate(-63.038 -184.804)" fill="#8c8d8d"/>
  <path id="Path_31867" data-name="Path 31867" d="M241.932,250.967l1.352-.119a2.947,2.947,0,0,0,.458,1.352,2.593,2.593,0,0,0,1.093.855,4.313,4.313,0,0,0,1.691.32,4.063,4.063,0,0,0,1.451-.241,2.045,2.045,0,0,0,.934-.675,1.559,1.559,0,0,0,.32-.934,1.4,1.4,0,0,0-.3-.895,2.126,2.126,0,0,0-.974-.656,18.64,18.64,0,0,0-1.969-.537,9.681,9.681,0,0,1-2.088-.677,2.95,2.95,0,0,1-1.173-1.014,2.572,2.572,0,0,1-.378-1.371,2.791,2.791,0,0,1,.458-1.532,2.834,2.834,0,0,1,1.371-1.093,5.207,5.207,0,0,1,2.009-.378,5.414,5.414,0,0,1,2.147.4,2.943,2.943,0,0,1,1.432,1.152,3.3,3.3,0,0,1,.537,1.71l-1.392.1a2.19,2.19,0,0,0-.776-1.551,2.865,2.865,0,0,0-1.887-.537,3.064,3.064,0,0,0-1.911.477,1.437,1.437,0,0,0-.6,1.154,1.242,1.242,0,0,0,.418.974,5.721,5.721,0,0,0,2.168.776,14.477,14.477,0,0,1,2.425.7,3.46,3.46,0,0,1,1.413,1.135,2.648,2.648,0,0,1,.458,1.551,3,3,0,0,1-.5,1.649,3.383,3.383,0,0,1-1.432,1.194,5.128,5.128,0,0,1-2.109.418,6.6,6.6,0,0,1-2.5-.418,3.55,3.55,0,0,1-1.572-1.313A3.717,3.717,0,0,1,241.932,250.967Zm15.672,2.546a4.962,4.962,0,0,1-1.453.895,4.077,4.077,0,0,1-1.472.259,2.887,2.887,0,0,1-2.009-.635,2.121,2.121,0,0,1-.7-1.633,2.172,2.172,0,0,1,.259-1.053,1.987,1.987,0,0,1,.7-.776,3.118,3.118,0,0,1,.974-.437,7.409,7.409,0,0,1,1.194-.22,11.224,11.224,0,0,0,2.387-.458v-.336a1.522,1.522,0,0,0-.378-1.175,2.964,2.964,0,0,0-2.925-.1,1.943,1.943,0,0,0-.675,1.154l-1.313-.18a3.167,3.167,0,0,1,.6-1.352,2.608,2.608,0,0,1,1.191-.794,5.265,5.265,0,0,1,1.792-.28,4.775,4.775,0,0,1,1.649.238,2.207,2.207,0,0,1,.934.6,2.089,2.089,0,0,1,.418.916,8.3,8.3,0,0,1,.061,1.231v1.792a20.328,20.328,0,0,0,.079,2.366,3.146,3.146,0,0,0,.357.953h-1.413A3.036,3.036,0,0,1,257.6,253.514Zm-.119-3a10.187,10.187,0,0,1-2.189.516,4.6,4.6,0,0,0-1.173.278,1.218,1.218,0,0,0-.537.418,1.209,1.209,0,0,0,.22,1.532,1.781,1.781,0,0,0,1.194.357,2.719,2.719,0,0,0,1.371-.339,2.022,2.022,0,0,0,.895-.934,3.176,3.176,0,0,0,.22-1.334Zm6.045,3.976-3-7.914h1.413l1.71,4.733q.259.778.5,1.591.179-.617.5-1.49l1.768-4.833h1.374l-3,7.914Zm10.857-2.544,1.392.159a3.354,3.354,0,0,1-1.212,1.89,4.115,4.115,0,0,1-5.032-.4,4.2,4.2,0,0,1-1.014-3,4.313,4.313,0,0,1,1.033-3.083,3.477,3.477,0,0,1,2.665-1.114,3.368,3.368,0,0,1,2.586,1.075,4.259,4.259,0,0,1,1.014,3.044v.357h-5.905a3.1,3.1,0,0,0,.736,2.009,2.2,2.2,0,0,0,1.649.675,2.07,2.07,0,0,0,1.254-.378A2.537,2.537,0,0,0,274.387,251.944Zm-4.394-2.168h4.415a2.644,2.644,0,0,0-.5-1.511,2.088,2.088,0,0,0-1.67-.776,2.181,2.181,0,0,0-1.572.614A2.468,2.468,0,0,0,269.993,249.776Zm11.654,7.755-.159-1.252a2.991,2.991,0,0,0,.776.119,1.33,1.33,0,0,0,.7-.159,1.208,1.208,0,0,0,.456-.4,9.5,9.5,0,0,0,.418-1.014,1.829,1.829,0,0,1,.119-.318l-3.023-7.935h1.453l1.649,4.574c.213.584.406,1.2.577,1.85q.238-.936.558-1.81l1.689-4.613h1.334l-3,8.054q-.5,1.293-.755,1.789a2.473,2.473,0,0,1-.836.974,1.864,1.864,0,0,1-1.093.32A2.474,2.474,0,0,1,281.647,257.531Zm7.2-7a4.1,4.1,0,0,1,1.212-3.261,3.672,3.672,0,0,1,2.485-.876,3.539,3.539,0,0,1,2.665,1.075,3.978,3.978,0,0,1,1.054,2.943,5.235,5.235,0,0,1-.458,2.406,3.283,3.283,0,0,1-1.35,1.374,3.936,3.936,0,0,1-1.911.477,3.591,3.591,0,0,1-2.684-1.054A4.32,4.32,0,0,1,288.847,250.531Zm1.371,0a3.383,3.383,0,0,0,.656,2.268,2.156,2.156,0,0,0,1.67.754,2.115,2.115,0,0,0,1.67-.754,3.441,3.441,0,0,0,.656-2.308,3.236,3.236,0,0,0-.675-2.226,2.093,2.093,0,0,0-1.652-.757,2.15,2.15,0,0,0-1.67.757A3.331,3.331,0,0,0,290.218,250.531Zm13.226,3.957v-1.173a2.921,2.921,0,0,1-2.527,1.353,3.347,3.347,0,0,1-1.311-.259,2.319,2.319,0,0,1-.9-.675,2.6,2.6,0,0,1-.416-1.014,6.8,6.8,0,0,1-.079-1.254v-4.891h1.353v4.394a8.089,8.089,0,0,0,.079,1.413,1.443,1.443,0,0,0,.516.834,1.721,1.721,0,0,0,1.035.3,2.164,2.164,0,0,0,1.112-.3,1.72,1.72,0,0,0,.757-.855,3.954,3.954,0,0,0,.238-1.551v-4.235h1.334v7.914Zm3.7,0v-7.914h1.215v1.194a3.169,3.169,0,0,1,.834-1.093,1.492,1.492,0,0,1,.876-.28,2.654,2.654,0,0,1,1.371.418l-.458,1.252a1.89,1.89,0,0,0-.974-.3,1.286,1.286,0,0,0-.815.278,1.391,1.391,0,0,0-.477.736,4.883,4.883,0,0,0-.238,1.551v4.156Zm11,0-2.9-10.937h1.493l1.67,7.178q.259,1.114.458,2.229c.278-1.168.444-1.843.5-2.03l2.067-7.377h1.75l1.572,5.529a33.875,33.875,0,0,1,.855,3.878q.2-1.034.537-2.387l1.71-7.019H329.3l-2.983,10.937H324.9l-2.287-8.332q-.3-1.034-.357-1.273c-.107.491-.213.916-.32,1.273l-2.306,8.332Zm11.437-3.957a4.1,4.1,0,0,1,1.212-3.261,3.668,3.668,0,0,1,2.485-.876,3.539,3.539,0,0,1,2.665,1.075,3.978,3.978,0,0,1,1.054,2.943,5.236,5.236,0,0,1-.458,2.406,3.275,3.275,0,0,1-1.353,1.374,3.921,3.921,0,0,1-1.908.477,3.591,3.591,0,0,1-2.684-1.054A4.32,4.32,0,0,1,329.576,250.531Zm1.371,0a3.383,3.383,0,0,0,.656,2.268,2.156,2.156,0,0,0,1.67.754,2.116,2.116,0,0,0,1.67-.754,3.441,3.441,0,0,0,.656-2.308,3.236,3.236,0,0,0-.675-2.226,2.1,2.1,0,0,0-1.652-.757,2.15,2.15,0,0,0-1.67.757A3.331,3.331,0,0,0,330.947,250.531Zm8.015,3.957v-7.914h1.212v1.194a3.2,3.2,0,0,1,.836-1.093,1.482,1.482,0,0,1,.876-.28,2.66,2.66,0,0,1,1.371.418l-.458,1.252a1.889,1.889,0,0,0-.974-.3,1.282,1.282,0,0,0-.815.278,1.365,1.365,0,0,0-.476.736,4.885,4.885,0,0,0-.241,1.551v4.156Zm5.111,0V243.551h1.353v6.244l3.163-3.221h1.75l-3.044,2.922,3.343,4.992h-1.651l-2.626-4.055-.934.913v3.142Z" transform="translate(-241.236 -142.281)" fill="#141414"/>
  <path id="Path_31868" data-name="Path 31868" d="M248.9,255.5l-1.332.1a2.6,2.6,0,0,0-.5-1.154,1.807,1.807,0,0,0-1.353-.577,1.89,1.89,0,0,0-1.133.357,3.316,3.316,0,0,0-1,1.374,7.116,7.116,0,0,0-.378,2.5,3.081,3.081,0,0,1,1.175-1.093,3.3,3.3,0,0,1,1.49-.357,3,3,0,0,1,2.268.993,3.533,3.533,0,0,1,.953,2.546,4.192,4.192,0,0,1-.456,1.929,3.242,3.242,0,0,1-1.215,1.352,3.366,3.366,0,0,1-1.75.458,3.442,3.442,0,0,1-2.745-1.233,6.228,6.228,0,0,1-1.054-4.057,7.271,7.271,0,0,1,1.173-4.613,3.343,3.343,0,0,1,2.745-1.252,3.03,3.03,0,0,1,2.109.736A2.992,2.992,0,0,1,248.9,255.5Zm-5.468,4.714a3.3,3.3,0,0,0,.278,1.331,2.327,2.327,0,0,0,.815.955,2.11,2.11,0,0,0,1.135.339,1.906,1.906,0,0,0,1.451-.677,2.716,2.716,0,0,0,.617-1.869,2.5,2.5,0,0,0-.617-1.789,1.948,1.948,0,0,0-1.511-.656,2.074,2.074,0,0,0-1.551.656A2.393,2.393,0,0,0,243.432,260.212Zm8.173,3.539v-1.53h1.532v1.53Zm3.261-2.525,1.294-.119a2.266,2.266,0,0,0,.617,1.331,1.793,1.793,0,0,0,1.194.4,2.01,2.01,0,0,0,1.072-.28,2.492,2.492,0,0,0,.776-.754,4.49,4.49,0,0,0,.5-1.273,6.916,6.916,0,0,0,.2-1.652V258.6a3.177,3.177,0,0,1-1.093,1.054,2.985,2.985,0,0,1-1.511.4,3.065,3.065,0,0,1-2.308-.976,3.651,3.651,0,0,1-.934-2.6,3.709,3.709,0,0,1,.974-2.684,3.312,3.312,0,0,1,2.467-1.014,3.427,3.427,0,0,1,1.93.577A3.571,3.571,0,0,1,261.391,255a8.021,8.021,0,0,1,.458,3.062,10.027,10.027,0,0,1-.458,3.343,3.818,3.818,0,0,1-1.352,1.887,3.5,3.5,0,0,1-2.088.638,3.135,3.135,0,0,1-2.107-.7A3.06,3.06,0,0,1,254.866,261.226Zm5.489-4.833a2.611,2.611,0,0,0-.617-1.829,1.885,1.885,0,0,0-1.472-.677,2.074,2.074,0,0,0-1.57.736,2.683,2.683,0,0,0-.656,1.89,2.334,2.334,0,0,0,.635,1.691,2.083,2.083,0,0,0,1.551.656,1.983,1.983,0,0,0,1.532-.656A2.594,2.594,0,0,0,260.356,256.392Zm3.481-.955a3.352,3.352,0,0,1,.577-1.988,1.987,1.987,0,0,1,1.71-.815,2.222,2.222,0,0,1,1.71.736,3.7,3.7,0,0,1-.019,4.3,2.181,2.181,0,0,1-1.67.736,2.118,2.118,0,0,1-1.651-.736A3.268,3.268,0,0,1,263.836,255.437Zm2.327-1.887a1.014,1.014,0,0,0-.834.437,2.851,2.851,0,0,0-.32,1.591,2.619,2.619,0,0,0,.32,1.493,1.03,1.03,0,0,0,.834.416.986.986,0,0,0,.836-.437,2.684,2.684,0,0,0,.336-1.57,2.453,2.453,0,0,0-.336-1.493A1.022,1.022,0,0,0,266.163,253.55Zm0,10.6,5.987-11.514h1.093l-5.966,11.514Zm4.733-2.962a3.359,3.359,0,0,1,.577-1.988,2.012,2.012,0,0,1,1.731-.815,2.222,2.222,0,0,1,1.71.736,3.019,3.019,0,0,1,.677,2.147,3.059,3.059,0,0,1-.7,2.147,2.2,2.2,0,0,1-1.691.736,2.159,2.159,0,0,1-1.651-.736A3.261,3.261,0,0,1,270.9,261.186Zm2.348-1.89a1.039,1.039,0,0,0-.855.437,2.859,2.859,0,0,0-.318,1.593,2.464,2.464,0,0,0,.336,1.472,1.019,1.019,0,0,0,1.673,0,2.735,2.735,0,0,0,.336-1.593,2.417,2.417,0,0,0-.336-1.472A1.028,1.028,0,0,0,273.243,259.3Z" transform="translate(-241.304 -129.907)" fill="#8c8d8d"/>
  <path id="Path_31869" data-name="Path 31869" d="M241.634,250.582H462.872" transform="translate(-241.634 -132.648)" fill="none" stroke="#636363" stroke-miterlimit="10" stroke-width="1"/>
  <path id="Path_31870" data-name="Path 31870" d="M340.346,252.037a2.545,2.545,0,1,0-2.546,2.546,2.544,2.544,0,0,0,2.546-2.546" transform="translate(-116.562 -134.103)" fill="#8c8d8d"/>
  <path id="Path_31871" data-name="Path 31871" d="M242.153,317.985V307.046h7.9v1.292h-6.442v3.343h6.045v1.292h-6.045v3.719h6.7v1.294Zm9.089,0,2.885-4.118-2.665-3.8h1.67l1.212,1.85c.227.357.411.656.558.895.21-.332.411-.624.6-.876l1.332-1.869h1.612l-2.745,3.719,2.943,4.2h-1.63l-1.63-2.467-.437-.656-2.088,3.123Zm11.455-1.194.2,1.173a5.074,5.074,0,0,1-1.014.119,2.4,2.4,0,0,1-1.133-.217,1.444,1.444,0,0,1-.577-.617,4.954,4.954,0,0,1-.159-1.593V311.1h-.976v-1.035h.976V308.1l1.332-.794v2.763H262.7V311.1h-1.352v4.634a2.711,2.711,0,0,0,.061.736.613.613,0,0,0,.238.257.847.847,0,0,0,.458.1A5.771,5.771,0,0,0,262.7,316.792Zm.876,1.194v-7.917h1.212v1.194a3.219,3.219,0,0,1,.836-1.093,1.478,1.478,0,0,1,.874-.278,2.664,2.664,0,0,1,1.374.416l-.458,1.254a1.894,1.894,0,0,0-.974-.3,1.3,1.3,0,0,0-.815.278,1.381,1.381,0,0,0-.479.736,4.884,4.884,0,0,0-.238,1.551v4.158Zm10.28-.976a5.046,5.046,0,0,1-1.451.9,4.127,4.127,0,0,1-1.472.257,2.879,2.879,0,0,1-2.009-.635,2.111,2.111,0,0,1-.7-1.63,2.206,2.206,0,0,1,.257-1.056,2.022,2.022,0,0,1,.7-.776,3.109,3.109,0,0,1,.976-.437,7.373,7.373,0,0,1,1.191-.22,11.375,11.375,0,0,0,2.387-.455v-.339a1.515,1.515,0,0,0-.378-1.173,2.312,2.312,0,0,0-1.53-.439,2.346,2.346,0,0,0-1.392.339,1.945,1.945,0,0,0-.677,1.154l-1.313-.18a3.224,3.224,0,0,1,.6-1.353,2.622,2.622,0,0,1,1.194-.794,5.243,5.243,0,0,1,1.789-.278,4.8,4.8,0,0,1,1.651.238,2.2,2.2,0,0,1,.934.6,2.087,2.087,0,0,1,.416.916,8.325,8.325,0,0,1,.061,1.233v1.789a20.326,20.326,0,0,0,.079,2.366,3.246,3.246,0,0,0,.357.955h-1.411A3.008,3.008,0,0,1,273.854,317.009Zm-.119-3a10.2,10.2,0,0,1-2.186.516,4.632,4.632,0,0,0-1.175.278,1.233,1.233,0,0,0-.537.418,1.217,1.217,0,0,0,.22,1.532,1.785,1.785,0,0,0,1.194.357,2.72,2.72,0,0,0,1.371-.339,2.022,2.022,0,0,0,.895-.934,3.162,3.162,0,0,0,.22-1.331Zm9.028,1.074,1.313.178a3.418,3.418,0,0,1-1.114,2.128,3.211,3.211,0,0,1-2.186.776,3.438,3.438,0,0,1-2.626-1.053,4.406,4.406,0,0,1-.974-3.062,5.536,5.536,0,0,1,.418-2.228,3.016,3.016,0,0,1,1.292-1.451,3.928,3.928,0,0,1,1.908-.477,3.222,3.222,0,0,1,2.088.654,2.932,2.932,0,0,1,1.075,1.85l-1.313.2a2.084,2.084,0,0,0-.656-1.191,1.683,1.683,0,0,0-1.154-.418,2.077,2.077,0,0,0-1.649.736,3.382,3.382,0,0,0-.638,2.287,3.539,3.539,0,0,0,.617,2.327,2,2,0,0,0,1.591.715,1.859,1.859,0,0,0,1.313-.477A2.411,2.411,0,0,0,282.763,315.082Zm5.389,1.71.2,1.173a5.113,5.113,0,0,1-1.016.119,2.4,2.4,0,0,1-1.133-.217,1.459,1.459,0,0,1-.577-.617,5.026,5.026,0,0,1-.159-1.593V311.1h-.974v-1.035h.974V308.1l1.334-.794v2.763h1.35V311.1H286.8v4.634a2.748,2.748,0,0,0,.058.736.644.644,0,0,0,.238.257.858.858,0,0,0,.458.1A5.771,5.771,0,0,0,288.152,316.792Zm4.894,1.194V307.046H297.9a6.386,6.386,0,0,1,2.229.3,2.456,2.456,0,0,1,1.212,1.054,3.02,3.02,0,0,1,.458,1.63,2.746,2.746,0,0,1-.757,1.969,3.825,3.825,0,0,1-2.327,1.014,4.061,4.061,0,0,1,.876.537A7.131,7.131,0,0,1,300.783,315l1.908,2.983h-1.829l-1.432-2.268a17.6,17.6,0,0,0-1.056-1.511,2.718,2.718,0,0,0-.736-.715,2.278,2.278,0,0,0-.656-.32,5.6,5.6,0,0,0-.794-.04H294.5v4.854Zm1.451-6.106h3.123a4.676,4.676,0,0,0,1.53-.2,1.689,1.689,0,0,0,.857-.656,1.792,1.792,0,0,0,.3-1,1.6,1.6,0,0,0-.577-1.273,2.608,2.608,0,0,0-1.768-.5H294.5Zm15.235,3.56,1.392.159a3.344,3.344,0,0,1-1.215,1.89,4.116,4.116,0,0,1-5.032-.4,4.2,4.2,0,0,1-1.014-3A4.313,4.313,0,0,1,304.9,311a3.468,3.468,0,0,1,2.665-1.112,3.366,3.366,0,0,1,2.586,1.072,4.269,4.269,0,0,1,1.014,3.044v.357h-5.908a3.116,3.116,0,0,0,.736,2.009,2.2,2.2,0,0,0,1.652.675,2.057,2.057,0,0,0,1.252-.376A2.56,2.56,0,0,0,309.731,315.439Zm-4.4-2.168h4.415a2.617,2.617,0,0,0-.5-1.511,2.084,2.084,0,0,0-1.67-.776,2.164,2.164,0,0,0-1.57.617A2.464,2.464,0,0,0,305.335,313.271Zm7.856,4.714V307.046h1.353v10.939Zm9.267-2.546,1.392.159a3.342,3.342,0,0,1-1.212,1.89,4.115,4.115,0,0,1-5.032-.4,4.2,4.2,0,0,1-1.014-3A4.3,4.3,0,0,1,317.627,311a3.467,3.467,0,0,1,2.663-1.112,3.362,3.362,0,0,1,2.586,1.072,4.259,4.259,0,0,1,1.014,3.044v.357h-5.905a3.116,3.116,0,0,0,.736,2.009,2.2,2.2,0,0,0,1.652.675,2.061,2.061,0,0,0,1.252-.376A2.556,2.556,0,0,0,322.458,315.439Zm-4.394-2.168h4.415a2.651,2.651,0,0,0-.5-1.511,2.088,2.088,0,0,0-1.67-.776,2.173,2.173,0,0,0-1.572.617A2.463,2.463,0,0,0,318.064,313.271Zm10.082,4.714-3-7.917h1.411l1.71,4.733q.259.778.5,1.591.179-.613.5-1.49l1.771-4.833H332.4l-3,7.917Zm10.621-.976a5.023,5.023,0,0,1-1.453.9,4.126,4.126,0,0,1-1.472.257,2.887,2.887,0,0,1-2.009-.635,2.119,2.119,0,0,1-.7-1.63,2.181,2.181,0,0,1,.259-1.056,2,2,0,0,1,.7-.776,3.12,3.12,0,0,1,.974-.437,7.415,7.415,0,0,1,1.194-.22,11.409,11.409,0,0,0,2.387-.455v-.339a1.515,1.515,0,0,0-.378-1.173,2.319,2.319,0,0,0-1.532-.439,2.35,2.35,0,0,0-1.392.339,1.943,1.943,0,0,0-.675,1.154l-1.313-.18a3.2,3.2,0,0,1,.6-1.353,2.647,2.647,0,0,1,1.194-.794,5.253,5.253,0,0,1,1.789-.278,4.79,4.79,0,0,1,1.652.238,2.182,2.182,0,0,1,.934.6,2.09,2.09,0,0,1,.418.916,8.424,8.424,0,0,1,.058,1.233v1.789a20.113,20.113,0,0,0,.082,2.366,3.182,3.182,0,0,0,.357.955h-1.413A3.067,3.067,0,0,1,338.767,317.009Zm-.119-3a10.227,10.227,0,0,1-2.189.516,4.606,4.606,0,0,0-1.173.278,1.22,1.22,0,0,0-.537.418,1.209,1.209,0,0,0,.22,1.532,1.778,1.778,0,0,0,1.191.357,2.723,2.723,0,0,0,1.374-.339,2.034,2.034,0,0,0,.895-.934,3.2,3.2,0,0,0,.22-1.331Zm3.857,3.978v-7.917H343.7v1.114a2.862,2.862,0,0,1,2.525-1.292,3.25,3.25,0,0,1,1.313.257,2.063,2.063,0,0,1,.916.677,2.625,2.625,0,0,1,.418.974,9.815,9.815,0,0,1,.058,1.313v4.873H347.6v-4.814a3.579,3.579,0,0,0-.159-1.233,1.3,1.3,0,0,0-.558-.635,1.67,1.67,0,0,0-.934-.259,2.189,2.189,0,0,0-1.49.558,2.657,2.657,0,0,0-.617,2.049v4.336Zm11.834-1.194.2,1.173a5.092,5.092,0,0,1-1.014.119,2.414,2.414,0,0,1-1.135-.217,1.452,1.452,0,0,1-.575-.617,4.934,4.934,0,0,1-.161-1.593V311.1h-.974v-1.035h.974V308.1l1.334-.794v2.763h1.352V311.1h-1.352v4.634a2.748,2.748,0,0,0,.058.736.634.634,0,0,0,.241.257.844.844,0,0,0,.456.1A5.808,5.808,0,0,0,354.338,316.792Zm4.873,1.194V307.046h3.777a9.138,9.138,0,0,1,1.951.159,3.758,3.758,0,0,1,1.591.776,4.36,4.36,0,0,1,1.292,1.89,7.136,7.136,0,0,1,.437,2.586,7.437,7.437,0,0,1-.3,2.207,5.291,5.291,0,0,1-.736,1.591,3.821,3.821,0,0,1-1.016,1,4.28,4.28,0,0,1-1.292.556,7.65,7.65,0,0,1-1.75.18Zm1.451-1.294h2.327a5.781,5.781,0,0,0,1.71-.2,2.294,2.294,0,0,0,.976-.577,3.223,3.223,0,0,0,.794-1.371,6.585,6.585,0,0,0,.3-2.109,4.941,4.941,0,0,0-.577-2.626,2.842,2.842,0,0,0-1.353-1.252,5.871,5.871,0,0,0-1.869-.22h-2.308Zm15.015.318a5.024,5.024,0,0,1-1.453.9,4.127,4.127,0,0,1-1.472.257,2.877,2.877,0,0,1-2.007-.635,2.111,2.111,0,0,1-.7-1.63,2.18,2.18,0,0,1,.257-1.056,2,2,0,0,1,.7-.776,3.119,3.119,0,0,1,.974-.437,7.414,7.414,0,0,1,1.194-.22,11.407,11.407,0,0,0,2.387-.455v-.339a1.515,1.515,0,0,0-.378-1.173,2.316,2.316,0,0,0-1.53-.439,2.346,2.346,0,0,0-1.392.339,1.944,1.944,0,0,0-.677,1.154l-1.313-.18a3.168,3.168,0,0,1,.6-1.353,2.627,2.627,0,0,1,1.191-.794,5.266,5.266,0,0,1,1.792-.278,4.776,4.776,0,0,1,1.649.238,2.182,2.182,0,0,1,.934.6,2.062,2.062,0,0,1,.418.916,8.314,8.314,0,0,1,.061,1.233v1.789a20.329,20.329,0,0,0,.079,2.366,3.183,3.183,0,0,0,.357.955h-1.411A3.01,3.01,0,0,1,375.677,317.009Zm-.119-3a10.189,10.189,0,0,1-2.189.516,4.635,4.635,0,0,0-1.173.278,1.233,1.233,0,0,0-.537.418,1.217,1.217,0,0,0,.22,1.532,1.781,1.781,0,0,0,1.194.357,2.72,2.72,0,0,0,1.371-.339,2.023,2.023,0,0,0,.895-.934,3.163,3.163,0,0,0,.22-1.331Zm6.781,2.784.2,1.173a5.074,5.074,0,0,1-1.014.119,2.4,2.4,0,0,1-1.133-.217,1.444,1.444,0,0,1-.577-.617,4.955,4.955,0,0,1-.159-1.593V311.1h-.976v-1.035h.976V308.1l1.332-.794v2.763h1.352V311.1h-1.352v4.634a2.711,2.711,0,0,0,.061.736.613.613,0,0,0,.238.257.847.847,0,0,0,.458.1A5.768,5.768,0,0,0,382.339,316.792Zm6.066.217a5.024,5.024,0,0,1-1.453.9,4.127,4.127,0,0,1-1.472.257,2.887,2.887,0,0,1-2.009-.635,2.119,2.119,0,0,1-.7-1.63,2.182,2.182,0,0,1,.259-1.056,2,2,0,0,1,.7-.776,3.121,3.121,0,0,1,.974-.437,7.415,7.415,0,0,1,1.194-.22,11.407,11.407,0,0,0,2.387-.455v-.339a1.515,1.515,0,0,0-.378-1.173,2.319,2.319,0,0,0-1.532-.439,2.351,2.351,0,0,0-1.392.339,1.943,1.943,0,0,0-.675,1.154l-1.313-.18a3.2,3.2,0,0,1,.6-1.353,2.647,2.647,0,0,1,1.194-.794,5.252,5.252,0,0,1,1.789-.278,4.791,4.791,0,0,1,1.651.238,2.183,2.183,0,0,1,.934.6,2.089,2.089,0,0,1,.418.916,8.42,8.42,0,0,1,.058,1.233v1.789a20.123,20.123,0,0,0,.082,2.366,3.184,3.184,0,0,0,.357.955h-1.413A3.069,3.069,0,0,1,388.405,317.009Zm-.119-3a10.226,10.226,0,0,1-2.189.516,4.605,4.605,0,0,0-1.173.278,1.219,1.219,0,0,0-.537.418,1.209,1.209,0,0,0,.22,1.532,1.778,1.778,0,0,0,1.191.357,2.722,2.722,0,0,0,1.373-.339,2.034,2.034,0,0,0,.895-.934,3.2,3.2,0,0,0,.22-1.331Z" transform="translate(-240.941 -57.216)" fill="#141414"/>
  <path id="Path_31872" data-name="Path 31872" d="M246.367,327.349h-1.331V318.8a9.049,9.049,0,0,1-2.686,1.609v-1.292a8.552,8.552,0,0,0,1.951-1.273,5.092,5.092,0,0,0,1.212-1.472h.855Zm3.938-9.5v-1.292h7.08v1.054a15.335,15.335,0,0,0-2.07,2.962,17.888,17.888,0,0,0-1.57,3.779,12.98,12.98,0,0,0-.519,3h-1.392a13.588,13.588,0,0,1,.5-3.121,17.123,17.123,0,0,1,1.392-3.52,15.377,15.377,0,0,1,1.948-2.864Zm9.584,9.5v-1.53h1.532v1.53Zm10.124-1.292v1.292h-7.239a2.8,2.8,0,0,1,.159-.934,5.078,5.078,0,0,1,.874-1.451,14.026,14.026,0,0,1,1.771-1.652,14.539,14.539,0,0,0,2.406-2.327,2.745,2.745,0,0,0,.638-1.612,1.749,1.749,0,0,0-.577-1.331,2.061,2.061,0,0,0-1.493-.556,2.094,2.094,0,0,0-1.551.577,2.246,2.246,0,0,0-.6,1.609l-1.374-.138a3.37,3.37,0,0,1,1.056-2.348,3.668,3.668,0,0,1,2.5-.815,3.46,3.46,0,0,1,2.488.874,2.883,2.883,0,0,1,.913,2.168,3.218,3.218,0,0,1-.278,1.294,5,5,0,0,1-.895,1.331,21.471,21.471,0,0,1-2.049,1.911q-1.212,1.013-1.572,1.392a4.366,4.366,0,0,0-.556.715Zm2.107-7.019a3.355,3.355,0,0,1,.577-1.99,1.993,1.993,0,0,1,1.71-.815,2.223,2.223,0,0,1,1.71.736,3.7,3.7,0,0,1-.019,4.3,2.177,2.177,0,0,1-1.67.736,2.118,2.118,0,0,1-1.651-.736A3.265,3.265,0,0,1,272.12,319.037Zm2.327-1.89a1.014,1.014,0,0,0-.834.437,2.851,2.851,0,0,0-.32,1.591,2.619,2.619,0,0,0,.32,1.493,1.033,1.033,0,0,0,.834.418.988.988,0,0,0,.836-.439,2.68,2.68,0,0,0,.339-1.57,2.45,2.45,0,0,0-.339-1.493A1.022,1.022,0,0,0,274.447,317.148Zm0,10.6,5.987-11.516h1.093l-5.966,11.516Zm4.733-2.964a3.359,3.359,0,0,1,.577-1.988,2.015,2.015,0,0,1,1.731-.815,2.222,2.222,0,0,1,1.71.736,3.023,3.023,0,0,1,.677,2.147,3.065,3.065,0,0,1-.7,2.149,2.2,2.2,0,0,1-1.691.736,2.159,2.159,0,0,1-1.652-.736A3.268,3.268,0,0,1,279.18,324.784Zm2.348-1.89a1.039,1.039,0,0,0-.855.439,2.855,2.855,0,0,0-.318,1.591,2.446,2.446,0,0,0,.339,1.472,1.017,1.017,0,0,0,1.67,0,2.732,2.732,0,0,0,.336-1.591,2.408,2.408,0,0,0-.336-1.472A1.024,1.024,0,0,0,281.527,322.894Z" transform="translate(-240.679 -44.944)" fill="#8c8d8d"/>
  <path id="Path_31873" data-name="Path 31873" d="M241.634,314.181H446.717" transform="translate(-241.634 -47.684)" fill="none" stroke="#636363" stroke-miterlimit="10" stroke-width="1"/>
  <path id="Path_31874" data-name="Path 31874" d="M333.429,315.637a2.545,2.545,0,1,0-2.544,2.544,2.546,2.546,0,0,0,2.544-2.544" transform="translate(-125.802 -49.141)" fill="#8c8d8d"/>
  <path id="Path_31875" data-name="Path 31875" d="M532.856,207.128a5.93,5.93,0,0,1,1.453-4.256,4.973,4.973,0,0,1,3.777-1.551,5.187,5.187,0,0,1,2.745.736,4.681,4.681,0,0,1,1.85,2.009,6.566,6.566,0,0,1,.635,2.943,6.367,6.367,0,0,1-.675,2.962,4.612,4.612,0,0,1-1.908,1.99,5.35,5.35,0,0,1-2.647.675,5.223,5.223,0,0,1-2.763-.736,4.977,4.977,0,0,1-1.85-2.028A6.3,6.3,0,0,1,532.856,207.128Zm1.493.019a4.407,4.407,0,0,0,1.054,3.123,3.548,3.548,0,0,0,2.684,1.133,3.511,3.511,0,0,0,2.686-1.133,4.688,4.688,0,0,0,1.054-3.282,5.506,5.506,0,0,0-.458-2.327,3.3,3.3,0,0,0-1.313-1.53,3.556,3.556,0,0,0-1.948-.558,3.719,3.719,0,0,0-2.644,1.053A4.69,4.69,0,0,0,534.349,207.147Zm10.241,8.353V204.542H545.8v1.014a3.068,3.068,0,0,1,.974-.895,2.788,2.788,0,0,1,1.332-.3,3.137,3.137,0,0,1,1.789.519,3.05,3.05,0,0,1,1.154,1.472,5.347,5.347,0,0,1,.4,2.088,5.273,5.273,0,0,1-.437,2.186,3.176,3.176,0,0,1-1.252,1.493,3.289,3.289,0,0,1-1.75.516,2.621,2.621,0,0,1-1.215-.278,2.91,2.91,0,0,1-.873-.717V215.5Zm1.215-6.961a3.483,3.483,0,0,0,.617,2.268,1.9,1.9,0,0,0,1.49.715,1.946,1.946,0,0,0,1.532-.754,3.608,3.608,0,0,0,.636-2.348,3.445,3.445,0,0,0-.617-2.247,1.861,1.861,0,0,0-1.49-.754,1.923,1.923,0,0,0-1.512.794A3.57,3.57,0,0,0,545.8,208.539Zm13.1,1.374,1.392.159a3.353,3.353,0,0,1-1.212,1.89,4.116,4.116,0,0,1-5.032-.4,4.192,4.192,0,0,1-1.014-3,4.312,4.312,0,0,1,1.032-3.083,3.473,3.473,0,0,1,2.665-1.114,3.368,3.368,0,0,1,2.586,1.075,4.269,4.269,0,0,1,1.014,3.044v.357h-5.905a3.091,3.091,0,0,0,.736,2.009,2.2,2.2,0,0,0,1.649.675,2.084,2.084,0,0,0,1.254-.376A2.556,2.556,0,0,0,558.909,209.913Zm-4.394-2.168h4.415a2.652,2.652,0,0,0-.5-1.511,2.091,2.091,0,0,0-1.67-.776,2.173,2.173,0,0,0-1.572.617A2.463,2.463,0,0,0,554.515,207.745Zm7.893,4.712v-7.914H563.6v1.114a2.865,2.865,0,0,1,2.527-1.294,3.249,3.249,0,0,1,1.311.259,2.062,2.062,0,0,1,.916.677,2.587,2.587,0,0,1,.418.974,9.809,9.809,0,0,1,.058,1.313v4.87H567.5v-4.812a3.58,3.58,0,0,0-.159-1.233,1.3,1.3,0,0,0-.558-.635,1.665,1.665,0,0,0-.934-.259,2.189,2.189,0,0,0-1.49.558,2.655,2.655,0,0,0-.616,2.046v4.335Zm11.7,0,4.2-10.937h1.551l4.476,10.937h-1.633l-1.292-3.319h-4.555l-1.212,3.319Zm3.161-4.494h3.7l-1.135-3.023a22.83,22.83,0,0,1-.776-2.266,14.667,14.667,0,0,1-.6,2.088Zm8.054,7.538V204.542h1.215v1.014a3.042,3.042,0,0,1,.974-.895,2.788,2.788,0,0,1,1.332-.3,3.138,3.138,0,0,1,1.789.519,3.051,3.051,0,0,1,1.154,1.472,5.349,5.349,0,0,1,.4,2.088,5.275,5.275,0,0,1-.437,2.186,3.175,3.175,0,0,1-1.252,1.493,3.288,3.288,0,0,1-1.749.516,2.614,2.614,0,0,1-1.215-.278,2.909,2.909,0,0,1-.874-.717V215.5Zm1.215-6.961a3.5,3.5,0,0,0,.614,2.268,1.9,1.9,0,0,0,1.493.715,1.946,1.946,0,0,0,1.532-.754,3.61,3.61,0,0,0,.635-2.348,3.446,3.446,0,0,0-.617-2.247,1.862,1.862,0,0,0-1.49-.754,1.927,1.927,0,0,0-1.514.794A3.582,3.582,0,0,0,586.533,208.539Zm7.695,6.961V204.542h1.215v1.014a3.069,3.069,0,0,1,.974-.895,2.787,2.787,0,0,1,1.331-.3,3.138,3.138,0,0,1,1.789.519,3.05,3.05,0,0,1,1.154,1.472,5.347,5.347,0,0,1,.4,2.088,5.275,5.275,0,0,1-.437,2.186,3.176,3.176,0,0,1-1.252,1.493,3.288,3.288,0,0,1-1.75.516,2.622,2.622,0,0,1-1.215-.278,2.91,2.91,0,0,1-.874-.717V215.5Zm1.215-6.961a3.484,3.484,0,0,0,.617,2.268,1.9,1.9,0,0,0,1.49.715,1.946,1.946,0,0,0,1.532-.754,3.609,3.609,0,0,0,.635-2.348,3.446,3.446,0,0,0-.617-2.247,1.862,1.862,0,0,0-1.49-.754,1.923,1.923,0,0,0-1.511.794A3.569,3.569,0,0,0,595.442,208.539Zm7.655,3.917V201.52h1.352v10.937Zm3.859-9.386V201.52h1.352v1.551Zm0,9.386v-7.914h1.352v7.914Zm8.989-2.9,1.313.18a3.417,3.417,0,0,1-1.114,2.128,3.223,3.223,0,0,1-2.186.776,3.439,3.439,0,0,1-2.626-1.053,4.406,4.406,0,0,1-.974-3.062,5.491,5.491,0,0,1,.418-2.228,3.016,3.016,0,0,1,1.292-1.451,3.929,3.929,0,0,1,1.908-.479,3.223,3.223,0,0,1,2.088.656,2.933,2.933,0,0,1,1.075,1.85l-1.313.2a2.1,2.1,0,0,0-.656-1.194,1.692,1.692,0,0,0-1.154-.416,2.077,2.077,0,0,0-1.649.736,3.381,3.381,0,0,0-.638,2.287,3.547,3.547,0,0,0,.617,2.327,2,2,0,0,0,1.591.715,1.86,1.86,0,0,0,1.313-.477A2.425,2.425,0,0,0,615.945,209.553Zm7.636,1.929a4.923,4.923,0,0,1-1.451.895,4.076,4.076,0,0,1-1.472.259A2.883,2.883,0,0,1,618.65,212a2.112,2.112,0,0,1-.7-1.63,2.182,2.182,0,0,1,.259-1.056,1.988,1.988,0,0,1,.7-.776,3.12,3.12,0,0,1,.974-.437,7.412,7.412,0,0,1,1.194-.22,11.2,11.2,0,0,0,2.385-.458v-.336a1.53,1.53,0,0,0-.376-1.175,2.964,2.964,0,0,0-2.924-.1,1.942,1.942,0,0,0-.675,1.154l-1.313-.18a3.2,3.2,0,0,1,.6-1.353,2.636,2.636,0,0,1,1.194-.794,5.252,5.252,0,0,1,1.789-.28,4.729,4.729,0,0,1,1.651.241,2.2,2.2,0,0,1,.934.6,2.09,2.09,0,0,1,.418.916,8.411,8.411,0,0,1,.058,1.231v1.792a20.913,20.913,0,0,0,.079,2.366,3.212,3.212,0,0,0,.36.953H623.84A2.975,2.975,0,0,1,623.581,211.482Zm-.119-3a10.194,10.194,0,0,1-2.186.516,4.58,4.58,0,0,0-1.173.278,1.206,1.206,0,0,0-.537.418,1.212,1.212,0,0,0,.217,1.532,1.786,1.786,0,0,0,1.194.357,2.734,2.734,0,0,0,1.374-.339,2.034,2.034,0,0,0,.895-.934,3.214,3.214,0,0,0,.217-1.331Zm6.781,2.784.2,1.173a5.115,5.115,0,0,1-1.016.119,2.371,2.371,0,0,1-1.133-.22,1.433,1.433,0,0,1-.577-.617,5,5,0,0,1-.159-1.591v-4.553h-.974v-1.035h.974v-1.969l1.334-.794v2.763h1.35v1.035h-1.35v4.632a2.716,2.716,0,0,0,.059.736.635.635,0,0,0,.238.259.881.881,0,0,0,.458.1A5.781,5.781,0,0,0,630.243,211.265Zm.9-8.194V201.52h1.352v1.551Zm0,9.386v-7.914h1.352v7.914Zm3.319-3.957a4.088,4.088,0,0,1,1.215-3.261,3.668,3.668,0,0,1,2.485-.876,3.543,3.543,0,0,1,2.665,1.075,3.978,3.978,0,0,1,1.053,2.943,5.227,5.227,0,0,1-.458,2.406,3.273,3.273,0,0,1-1.352,1.374,3.926,3.926,0,0,1-1.908.476,3.591,3.591,0,0,1-2.684-1.053A4.321,4.321,0,0,1,634.459,208.5Zm1.374,0a3.371,3.371,0,0,0,.656,2.268,2.156,2.156,0,0,0,1.67.754,2.119,2.119,0,0,0,1.67-.754,3.453,3.453,0,0,0,.656-2.308,3.237,3.237,0,0,0-.675-2.226,2.1,2.1,0,0,0-1.652-.757,2.15,2.15,0,0,0-1.67.757A3.319,3.319,0,0,0,635.833,208.5Zm8.033,3.957v-7.914h1.194v1.114a2.864,2.864,0,0,1,2.525-1.294,3.252,3.252,0,0,1,1.313.259,2.063,2.063,0,0,1,.916.677,2.583,2.583,0,0,1,.418.974,9.809,9.809,0,0,1,.058,1.313v4.87h-1.331v-4.812a3.579,3.579,0,0,0-.159-1.233,1.3,1.3,0,0,0-.558-.635,1.67,1.67,0,0,0-.934-.259,2.188,2.188,0,0,0-1.49.558,2.654,2.654,0,0,0-.617,2.046v4.335Z" transform="translate(147.418 -198.457)" fill="#141414"/>
  <path id="Path_31876" data-name="Path 31876" d="M568.775,218.826l1.352-.18a2.972,2.972,0,0,0,.775,1.651,1.959,1.959,0,0,0,1.353.5,2.2,2.2,0,0,0,1.612-.656,2.219,2.219,0,0,0,.656-1.63,2.009,2.009,0,0,0-.617-1.511,2.041,2.041,0,0,0-1.532-.617,3.651,3.651,0,0,0-.953.159l.159-1.194a1.475,1.475,0,0,0,.217.019,2.758,2.758,0,0,0,1.532-.437,1.548,1.548,0,0,0,.7-1.392,1.606,1.606,0,0,0-.5-1.212,1.747,1.747,0,0,0-1.292-.5,1.857,1.857,0,0,0-1.313.5,2.442,2.442,0,0,0-.656,1.472l-1.352-.238a3.366,3.366,0,0,1,1.114-2.07,3.2,3.2,0,0,1,2.168-.755,3.5,3.5,0,0,1,1.649.4A2.74,2.74,0,0,1,575,212.164a2.664,2.664,0,0,1,.4,1.411,2.391,2.391,0,0,1-.376,1.294,2.572,2.572,0,0,1-1.114.913,2.5,2.5,0,0,1,1.49.934,2.809,2.809,0,0,1,.537,1.771,3.208,3.208,0,0,1-1.054,2.427,3.631,3.631,0,0,1-2.625.993,3.448,3.448,0,0,1-2.387-.855A3.384,3.384,0,0,1,568.775,218.826Zm9.666,2.883v-1.53h1.53v1.53Zm7.358,0v-2.626h-4.733v-1.231l4.992-7.08h1.093v7.08h1.472v1.231h-1.472v2.626Zm0-3.857V212.94l-3.42,4.912Zm4.873-4.455a3.356,3.356,0,0,1,.577-1.99,1.993,1.993,0,0,1,1.71-.815,2.223,2.223,0,0,1,1.71.736,3.708,3.708,0,0,1-.021,4.3,2.177,2.177,0,0,1-1.67.736,2.117,2.117,0,0,1-1.649-.736A3.253,3.253,0,0,1,590.672,213.4Zm2.327-1.89a1.022,1.022,0,0,0-.836.437,2.854,2.854,0,0,0-.318,1.591,2.621,2.621,0,0,0,.318,1.493,1.038,1.038,0,0,0,.836.416.982.982,0,0,0,.834-.437,2.663,2.663,0,0,0,.339-1.57,2.435,2.435,0,0,0-.339-1.493A1.015,1.015,0,0,0,593,211.508Zm0,10.6,5.984-11.516h1.1l-5.966,11.516Zm4.732-2.964a3.342,3.342,0,0,1,.577-1.988,2.009,2.009,0,0,1,1.731-.815,2.222,2.222,0,0,1,1.71.736,3.019,3.019,0,0,1,.675,2.147,3.058,3.058,0,0,1-.7,2.149,2.2,2.2,0,0,1-1.689.736,2.159,2.159,0,0,1-1.651-.736A3.268,3.268,0,0,1,597.731,219.144Zm2.348-1.89a1.036,1.036,0,0,0-.855.439,2.841,2.841,0,0,0-.32,1.591,2.463,2.463,0,0,0,.339,1.472,1.017,1.017,0,0,0,1.67,0,2.711,2.711,0,0,0,.339-1.591,2.39,2.39,0,0,0-.339-1.472A1.017,1.017,0,0,0,600.079,217.254Z" transform="translate(195.403 -186.072)" fill="#8c8d8d"/>
  <path id="Path_31877" data-name="Path 31877" d="M799.8,213.069H620.342l-198.3-7.919" transform="translate(-0.625 -193.342)" fill="none" stroke="#636363" stroke-miterlimit="10" stroke-width="1"/>
  <path id="Path_31878" data-name="Path 31878" d="M426.042,206.606a2.546,2.546,0,1,0-2.546,2.546,2.546,2.546,0,0,0,2.546-2.546" transform="translate(-2.081 -194.798)" fill="#8c8d8d"/>
  <path id="Path_31879" data-name="Path 31879" d="M567.345,229.234V218.3H568.8v9.645h5.391v1.292Zm8.314-3.957a4.1,4.1,0,0,1,1.212-3.261,3.668,3.668,0,0,1,2.485-.876,3.539,3.539,0,0,1,2.665,1.074,3.978,3.978,0,0,1,1.053,2.943,5.231,5.231,0,0,1-.458,2.406,3.275,3.275,0,0,1-1.352,1.374,3.921,3.921,0,0,1-1.908.476,3.591,3.591,0,0,1-2.684-1.053A4.316,4.316,0,0,1,575.659,225.277Zm1.371,0a3.384,3.384,0,0,0,.656,2.268,2.156,2.156,0,0,0,1.67.754,2.115,2.115,0,0,0,1.67-.754,3.441,3.441,0,0,0,.656-2.308,3.235,3.235,0,0,0-.675-2.226,2.1,2.1,0,0,0-1.651-.757,2.151,2.151,0,0,0-1.67.757A3.332,3.332,0,0,0,577.03,225.277Zm7.776,4.613,1.313.2a1.227,1.227,0,0,0,.458.874,2.183,2.183,0,0,0,1.352.378,2.334,2.334,0,0,0,1.432-.378,1.837,1.837,0,0,0,.694-1.035,7.2,7.2,0,0,0,.1-1.729,2.749,2.749,0,0,1-2.186,1.033,2.994,2.994,0,0,1-2.528-1.173,4.575,4.575,0,0,1-.895-2.824,5.408,5.408,0,0,1,.4-2.088,3.3,3.3,0,0,1,1.194-1.49,3.222,3.222,0,0,1,1.831-.519,2.86,2.86,0,0,1,2.326,1.135v-.955h1.233v6.842a6.5,6.5,0,0,1-.378,2.626A2.709,2.709,0,0,1,589.957,232a4.069,4.069,0,0,1-2.009.458,3.792,3.792,0,0,1-2.287-.638A2.179,2.179,0,0,1,584.806,229.89Zm1.114-4.751a3.429,3.429,0,0,0,.617,2.266,2.036,2.036,0,0,0,3.1,0,3.29,3.29,0,0,0,.635-2.226,3.2,3.2,0,0,0-.656-2.189,1.975,1.975,0,0,0-1.551-.736,1.954,1.954,0,0,0-1.53.736A3.223,3.223,0,0,0,585.92,225.139Zm8.054-5.291V218.3h1.352v1.551Zm0,9.386V221.32h1.352v7.914Zm3.817,0V221.32h1.194v1.114a2.864,2.864,0,0,1,2.525-1.294,3.252,3.252,0,0,1,1.313.259,2.063,2.063,0,0,1,.916.677,2.585,2.585,0,0,1,.418.974,9.809,9.809,0,0,1,.058,1.313v4.87h-1.331v-4.812a3.578,3.578,0,0,0-.159-1.233,1.3,1.3,0,0,0-.558-.635,1.67,1.67,0,0,0-.934-.259,2.188,2.188,0,0,0-1.49.558,2.657,2.657,0,0,0-.617,2.049v4.333Z" transform="translate(193.492 -175.778)" fill="#141414"/>
  <path id="Path_31880" data-name="Path 31880" d="M575.769,230.347l-1.332.1a2.6,2.6,0,0,0-.5-1.154,1.807,1.807,0,0,0-1.352-.577,1.885,1.885,0,0,0-1.133.357,3.317,3.317,0,0,0-1,1.374,7.115,7.115,0,0,0-.378,2.5,3.075,3.075,0,0,1,1.173-1.093,3.31,3.31,0,0,1,1.492-.357,2.991,2.991,0,0,1,2.266,1,3.516,3.516,0,0,1,.956,2.544,4.162,4.162,0,0,1-.458,1.929,3.252,3.252,0,0,1-1.212,1.353,3.366,3.366,0,0,1-1.75.458,3.438,3.438,0,0,1-2.745-1.233,6.229,6.229,0,0,1-1.053-4.057,7.27,7.27,0,0,1,1.173-4.613,3.346,3.346,0,0,1,2.745-1.252,3.02,3.02,0,0,1,2.107.736A2.984,2.984,0,0,1,575.769,230.347Zm-5.468,4.714a3.257,3.257,0,0,0,.278,1.331,2.309,2.309,0,0,0,.815.955,2.1,2.1,0,0,0,1.133.339,1.907,1.907,0,0,0,1.453-.677,2.712,2.712,0,0,0,.617-1.869,2.5,2.5,0,0,0-.617-1.789,1.951,1.951,0,0,0-1.511-.656,2.071,2.071,0,0,0-1.551.656A2.394,2.394,0,0,0,570.3,235.061Zm8.173,3.539v-1.53H580v1.53Zm3.261-2.525,1.292-.119a2.293,2.293,0,0,0,.617,1.331,1.8,1.8,0,0,0,1.194.4,2.018,2.018,0,0,0,1.074-.28,2.47,2.47,0,0,0,.776-.754,4.492,4.492,0,0,0,.5-1.273,6.919,6.919,0,0,0,.2-1.651v-.278a3.219,3.219,0,0,1-1.093,1.054,2.99,2.99,0,0,1-1.511.4,3.071,3.071,0,0,1-2.308-.974,3.65,3.65,0,0,1-.935-2.607,3.713,3.713,0,0,1,.974-2.684,3.321,3.321,0,0,1,2.467-1.014,3.427,3.427,0,0,1,1.929.577,3.571,3.571,0,0,1,1.352,1.649,8.028,8.028,0,0,1,.456,3.062,10.034,10.034,0,0,1-.456,3.343,3.808,3.808,0,0,1-1.352,1.887,3.512,3.512,0,0,1-2.088.638,3.133,3.133,0,0,1-2.109-.7A3.068,3.068,0,0,1,581.736,236.075Zm5.489-4.833a2.611,2.611,0,0,0-.617-1.829,1.883,1.883,0,0,0-1.472-.675,2.079,2.079,0,0,0-1.572.736,2.684,2.684,0,0,0-.656,1.887,2.325,2.325,0,0,0,.638,1.691,2.079,2.079,0,0,0,1.551.656,1.975,1.975,0,0,0,1.53-.656A2.585,2.585,0,0,0,587.225,231.242Zm3.48-.953a3.356,3.356,0,0,1,.577-1.99,1.993,1.993,0,0,1,1.71-.815,2.222,2.222,0,0,1,1.71.736,3.708,3.708,0,0,1-.021,4.3,2.177,2.177,0,0,1-1.67.736,2.117,2.117,0,0,1-1.649-.736A3.253,3.253,0,0,1,590.705,230.288Zm2.327-1.89a1.022,1.022,0,0,0-.836.437,2.854,2.854,0,0,0-.318,1.591,2.621,2.621,0,0,0,.318,1.493,1.041,1.041,0,0,0,.836.418.984.984,0,0,0,.834-.439,2.663,2.663,0,0,0,.339-1.57,2.435,2.435,0,0,0-.339-1.493A1.015,1.015,0,0,0,593.032,228.4Zm0,10.6,5.984-11.516h1.1L594.146,239Zm4.732-2.964a3.342,3.342,0,0,1,.577-1.988,2.009,2.009,0,0,1,1.731-.815,2.222,2.222,0,0,1,1.71.736,3.018,3.018,0,0,1,.675,2.147,3.058,3.058,0,0,1-.7,2.149,2.2,2.2,0,0,1-1.689.736,2.159,2.159,0,0,1-1.651-.736A3.268,3.268,0,0,1,597.765,236.035Zm2.348-1.89a1.036,1.036,0,0,0-.855.439,2.841,2.841,0,0,0-.32,1.591,2.463,2.463,0,0,0,.339,1.472,1.017,1.017,0,0,0,1.67,0,2.711,2.711,0,0,0,.339-1.591,2.39,2.39,0,0,0-.339-1.472A1.017,1.017,0,0,0,600.112,234.145Z" transform="translate(195.369 -163.507)" fill="#8c8d8d"/>
  <path id="Path_31881" data-name="Path 31881" d="M763.81,242.532H584.348l-135.365-29.9" transform="translate(35.369 -183.349)" fill="none" stroke="#636363" stroke-miterlimit="10" stroke-width="1"/>
  <path id="Path_31882" data-name="Path 31882" d="M452.983,214.085a2.545,2.545,0,1,0-2.544,2.546,2.542,2.542,0,0,0,2.544-2.546" transform="translate(33.913 -184.804)" fill="#8c8d8d"/>
  <path id="Path_31883" data-name="Path 31883" d="M509.1,254.385l4.2-10.937h1.551l4.473,10.937h-1.63l-1.292-3.319h-4.555l-1.212,3.319Zm3.163-4.494h3.7l-1.133-3.023a22.209,22.209,0,0,1-.776-2.266,14.867,14.867,0,0,1-.6,2.088Zm13.184,4.494v-.993a2.459,2.459,0,0,1-2.207,1.173,3.156,3.156,0,0,1-1.75-.516,3.57,3.57,0,0,1-1.233-1.472,5.051,5.051,0,0,1-.437-2.149,5.648,5.648,0,0,1,.4-2.147,3.027,3.027,0,0,1,1.194-1.472,3.175,3.175,0,0,1,1.771-.519,2.661,2.661,0,0,1,1.273.3,2.736,2.736,0,0,1,.913.776v-3.917H526.7v10.937Zm-4.235-3.957a3.493,3.493,0,0,0,.635,2.287,1.943,1.943,0,0,0,1.514.736,1.9,1.9,0,0,0,1.49-.715,3.3,3.3,0,0,0,.617-2.189,3.673,3.673,0,0,0-.635-2.385,1.9,1.9,0,0,0-1.532-.757,1.851,1.851,0,0,0-1.493.736A3.556,3.556,0,0,0,521.215,250.428Zm8-5.41v-1.57h1.35v1.57Zm-1.691,12.451.238-1.154a2.916,2.916,0,0,0,.635.1.7.7,0,0,0,.617-.278,2.721,2.721,0,0,0,.2-1.353v-8.314h1.35v8.353a3.927,3.927,0,0,1-.376,2.028,1.786,1.786,0,0,1-1.612.757A3.865,3.865,0,0,1,527.519,257.468Zm10.72-3.083v-1.173a2.921,2.921,0,0,1-2.527,1.353,3.347,3.347,0,0,1-1.31-.259,2.32,2.32,0,0,1-.9-.675,2.6,2.6,0,0,1-.416-1.014,6.814,6.814,0,0,1-.079-1.254v-4.891h1.353v4.394a8.089,8.089,0,0,0,.079,1.413,1.443,1.443,0,0,0,.516.834,1.72,1.72,0,0,0,1.035.3,2.164,2.164,0,0,0,1.112-.3,1.72,1.72,0,0,0,.757-.855,3.955,3.955,0,0,0,.238-1.551v-4.235h1.334v7.914Zm3.182-2.366,1.313-.2a1.876,1.876,0,0,0,.617,1.212,2.236,2.236,0,0,0,1.451.418,2.118,2.118,0,0,0,1.352-.357,1.13,1.13,0,0,0,.458-.895.813.813,0,0,0-.4-.717,5.966,5.966,0,0,0-1.374-.455,14.534,14.534,0,0,1-2.049-.638,2.063,2.063,0,0,1-.855-.755,1.994,1.994,0,0,1-.3-1.075,2.071,2.071,0,0,1,.238-.974,2.1,2.1,0,0,1,.656-.757,3.067,3.067,0,0,1,.855-.378,4.138,4.138,0,0,1,1.173-.159,4.3,4.3,0,0,1,1.612.28,2.175,2.175,0,0,1,1.054.715,2.755,2.755,0,0,1,.458,1.212l-1.313.18a1.357,1.357,0,0,0-.519-.934,1.814,1.814,0,0,0-1.212-.357,2.12,2.12,0,0,0-1.313.318.876.876,0,0,0-.4.715.717.717,0,0,0,.159.458,1.255,1.255,0,0,0,.516.357q.2.081,1.194.339a18.5,18.5,0,0,1,1.99.635,2.028,2.028,0,0,1,.874.7,1.977,1.977,0,0,1,.318,1.154,2.245,2.245,0,0,1-.4,1.273,2.577,2.577,0,0,1-1.114.916,4.159,4.159,0,0,1-1.67.318,3.793,3.793,0,0,1-2.366-.635A3.051,3.051,0,0,1,541.421,252.019Zm11.1,1.175.2,1.173a5.112,5.112,0,0,1-1.016.119,2.371,2.371,0,0,1-1.133-.22,1.434,1.434,0,0,1-.577-.617,5.012,5.012,0,0,1-.159-1.591v-4.553h-.974v-1.035h.974V244.5l1.334-.794v2.763h1.35v1.035h-1.35v4.632a2.72,2.72,0,0,0,.058.736.636.636,0,0,0,.238.259.882.882,0,0,0,.458.1A5.786,5.786,0,0,0,552.516,253.194Zm4.913,1.191V243.448h7.9v1.292h-6.443v3.343h6.045v1.292h-6.045v3.719h6.7v1.292Zm9.925,3.044-.159-1.252a2.975,2.975,0,0,0,.776.119,1.335,1.335,0,0,0,.7-.159,1.208,1.208,0,0,0,.456-.4,10.041,10.041,0,0,0,.418-1.014,1.829,1.829,0,0,1,.119-.318l-3.023-7.935h1.453l1.649,4.574q.319.876.577,1.85.238-.935.558-1.81l1.689-4.613H573.9l-3,8.054q-.5,1.293-.755,1.789a2.491,2.491,0,0,1-.836.974,1.869,1.869,0,0,1-1.093.32A2.475,2.475,0,0,1,567.354,257.429Zm13.1-5.588,1.392.159a3.354,3.354,0,0,1-1.212,1.89,4.115,4.115,0,0,1-5.032-.4,4.192,4.192,0,0,1-1.014-3,4.313,4.313,0,0,1,1.032-3.083,3.474,3.474,0,0,1,2.665-1.114,3.368,3.368,0,0,1,2.586,1.075,4.269,4.269,0,0,1,1.014,3.044v.357h-5.905a3.1,3.1,0,0,0,.736,2.009,2.2,2.2,0,0,0,1.649.675,2.07,2.07,0,0,0,1.254-.378A2.537,2.537,0,0,0,580.459,251.841Zm-4.394-2.168h4.415a2.643,2.643,0,0,0-.5-1.511,2.091,2.091,0,0,0-1.67-.776,2.181,2.181,0,0,0-1.572.614A2.469,2.469,0,0,0,576.065,249.673Zm7.358,2.345,1.313-.2a1.883,1.883,0,0,0,.614,1.212,2.247,2.247,0,0,0,1.453.418,2.118,2.118,0,0,0,1.352-.357,1.136,1.136,0,0,0,.458-.895.811.811,0,0,0-.4-.717,5.884,5.884,0,0,0-1.371-.455,14.545,14.545,0,0,1-2.049-.638,2.062,2.062,0,0,1-.855-.755,2,2,0,0,1-.3-1.075,2.071,2.071,0,0,1,.238-.974,2.139,2.139,0,0,1,.656-.757,3.128,3.128,0,0,1,.855-.378,4.165,4.165,0,0,1,1.175-.159,4.277,4.277,0,0,1,1.609.28,2.172,2.172,0,0,1,1.056.715,2.756,2.756,0,0,1,.455,1.212l-1.31.18a1.358,1.358,0,0,0-.519-.934,1.815,1.815,0,0,0-1.212-.357,2.115,2.115,0,0,0-1.313.318.87.87,0,0,0-.4.715.705.705,0,0,0,.159.458,1.256,1.256,0,0,0,.516.357q.2.081,1.194.339a18.386,18.386,0,0,1,1.988.635,2.022,2.022,0,0,1,.876.7,1.977,1.977,0,0,1,.318,1.154,2.261,2.261,0,0,1-.4,1.273,2.576,2.576,0,0,1-1.114.916,4.16,4.16,0,0,1-1.67.318,3.792,3.792,0,0,1-2.366-.635A3.05,3.05,0,0,1,583.423,252.019Zm14.915,1.175.2,1.173a5.089,5.089,0,0,1-1.014.119,2.366,2.366,0,0,1-1.133-.22,1.418,1.418,0,0,1-.577-.617,4.934,4.934,0,0,1-.159-1.591v-4.553h-.977v-1.035h.977V244.5l1.331-.794v2.763h1.353v1.035h-1.353v4.632a2.724,2.724,0,0,0,.058.736.626.626,0,0,0,.241.259.866.866,0,0,0,.455.1A5.788,5.788,0,0,0,598.338,253.194Zm.4-2.766a4.1,4.1,0,0,1,1.212-3.261,3.678,3.678,0,0,1,2.488-.876,3.537,3.537,0,0,1,2.663,1.075,3.978,3.978,0,0,1,1.056,2.943,5.267,5.267,0,0,1-.458,2.406,3.3,3.3,0,0,1-1.352,1.374,3.928,3.928,0,0,1-1.909.477,3.6,3.6,0,0,1-2.686-1.054A4.33,4.33,0,0,1,598.735,250.428Zm1.374,0a3.371,3.371,0,0,0,.656,2.268,2.156,2.156,0,0,0,1.67.754,2.119,2.119,0,0,0,1.67-.754,3.454,3.454,0,0,0,.656-2.308,3.237,3.237,0,0,0-.677-2.226,2.091,2.091,0,0,0-1.649-.757,2.15,2.15,0,0,0-1.67.757A3.319,3.319,0,0,0,600.108,250.428Zm14.775,2.766.2,1.173a5.069,5.069,0,0,1-1.014.119,2.366,2.366,0,0,1-1.133-.22,1.418,1.418,0,0,1-.577-.617,5,5,0,0,1-.159-1.591v-4.553h-.974v-1.035h.974V244.5l1.331-.794v2.763h1.353v1.035h-1.353v4.632a2.687,2.687,0,0,0,.061.736.636.636,0,0,0,.238.259.876.876,0,0,0,.458.1A5.788,5.788,0,0,0,614.883,253.194Zm.895,1.191V243.448h1.334v3.917a3,3,0,0,1,2.366-1.075,3.05,3.05,0,0,1,1.53.36,1.971,1.971,0,0,1,.937.953,4.374,4.374,0,0,1,.278,1.771v5.011h-1.334v-5.011a2.072,2.072,0,0,0-.437-1.472,1.623,1.623,0,0,0-1.233-.458,2.205,2.205,0,0,0-1.133.318,1.774,1.774,0,0,0-.757.836,3.858,3.858,0,0,0-.217,1.451v4.335Zm14.319-2.544,1.392.159a3.352,3.352,0,0,1-1.212,1.89,4.115,4.115,0,0,1-5.032-.4,4.193,4.193,0,0,1-1.014-3,4.313,4.313,0,0,1,1.033-3.083,3.473,3.473,0,0,1,2.665-1.114,3.367,3.367,0,0,1,2.586,1.075,4.268,4.268,0,0,1,1.014,3.044v.357h-5.905a3.1,3.1,0,0,0,.736,2.009,2.2,2.2,0,0,0,1.649.675,2.07,2.07,0,0,0,1.255-.378A2.538,2.538,0,0,0,630.1,251.841Zm-4.394-2.168h4.415a2.644,2.644,0,0,0-.5-1.511,2.091,2.091,0,0,0-1.67-.776,2.181,2.181,0,0,0-1.572.614A2.469,2.469,0,0,0,625.7,249.673Zm11.813,4.712V243.448h1.451v9.645h5.389v1.292Zm13.981-.974a4.962,4.962,0,0,1-1.453.895,4.077,4.077,0,0,1-1.472.259,2.887,2.887,0,0,1-2.009-.635,2.12,2.12,0,0,1-.7-1.633,2.171,2.171,0,0,1,.259-1.053,1.985,1.985,0,0,1,.7-.776,3.119,3.119,0,0,1,.974-.437,7.414,7.414,0,0,1,1.194-.22,11.222,11.222,0,0,0,2.387-.458v-.336a1.522,1.522,0,0,0-.378-1.175,2.964,2.964,0,0,0-2.925-.1,1.944,1.944,0,0,0-.675,1.154l-1.313-.18a3.193,3.193,0,0,1,.6-1.352,2.628,2.628,0,0,1,1.194-.794,5.265,5.265,0,0,1,1.792-.28,4.776,4.776,0,0,1,1.649.238,2.206,2.206,0,0,1,.934.6,2.089,2.089,0,0,1,.418.916,8.294,8.294,0,0,1,.061,1.231v1.792a20.356,20.356,0,0,0,.079,2.366,3.156,3.156,0,0,0,.357.953h-1.413A3.035,3.035,0,0,1,651.5,253.411Zm-.119-3a10.189,10.189,0,0,1-2.189.516,4.6,4.6,0,0,0-1.173.278,1.219,1.219,0,0,0-.537.418,1.209,1.209,0,0,0,.22,1.532,1.778,1.778,0,0,0,1.191.357,2.722,2.722,0,0,0,1.373-.339,2.023,2.023,0,0,0,.895-.934,3.175,3.175,0,0,0,.22-1.334Zm3.8,7.02-.159-1.252a2.99,2.99,0,0,0,.776.119,1.329,1.329,0,0,0,.7-.159,1.233,1.233,0,0,0,.458-.4,10.278,10.278,0,0,0,.416-1.014,1.815,1.815,0,0,1,.119-.318l-3.023-7.935h1.453l1.649,4.574c.213.584.406,1.2.577,1.85q.238-.935.558-1.81l1.689-4.613h1.334l-3,8.054c-.332.862-.582,1.458-.755,1.789a2.47,2.47,0,0,1-.836.974,1.857,1.857,0,0,1-1.093.32A2.474,2.474,0,0,1,655.176,257.429Zm7.2-7a4.1,4.1,0,0,1,1.212-3.261,3.672,3.672,0,0,1,2.485-.876,3.539,3.539,0,0,1,2.665,1.075,3.978,3.978,0,0,1,1.053,2.943,5.27,5.27,0,0,1-.456,2.406,3.3,3.3,0,0,1-1.352,1.374,3.936,3.936,0,0,1-1.911.477,3.592,3.592,0,0,1-2.684-1.054A4.32,4.32,0,0,1,662.375,250.428Zm1.371,0a3.383,3.383,0,0,0,.656,2.268,2.156,2.156,0,0,0,1.67.754,2.115,2.115,0,0,0,1.67-.754,3.441,3.441,0,0,0,.656-2.308,3.236,3.236,0,0,0-.675-2.226,2.093,2.093,0,0,0-1.651-.757,2.15,2.15,0,0,0-1.67.757A3.331,3.331,0,0,0,663.746,250.428Zm13.226,3.957v-1.173a2.919,2.919,0,0,1-2.525,1.353,3.349,3.349,0,0,1-1.313-.259,2.32,2.32,0,0,1-.9-.675,2.6,2.6,0,0,1-.416-1.014,6.815,6.815,0,0,1-.079-1.254v-4.891h1.352v4.394a8.085,8.085,0,0,0,.079,1.413,1.443,1.443,0,0,0,.516.834,1.721,1.721,0,0,0,1.035.3,2.164,2.164,0,0,0,1.112-.3,1.72,1.72,0,0,0,.757-.855,3.958,3.958,0,0,0,.238-1.551v-4.235h1.334v7.914Zm6.641-1.191.2,1.173a5.07,5.07,0,0,1-1.014.119,2.365,2.365,0,0,1-1.133-.22,1.42,1.42,0,0,1-.577-.617,5.01,5.01,0,0,1-.159-1.591v-4.553h-.974v-1.035h.974V244.5l1.331-.794v2.763h1.352v1.035h-1.352v4.632a2.682,2.682,0,0,0,.061.736.637.637,0,0,0,.238.259.875.875,0,0,0,.458.1A5.785,5.785,0,0,0,683.613,253.194Z" transform="translate(115.685 -142.179)" fill="#141414"/>
  <path id="Path_31884" data-name="Path 31884" d="M569.422,263.751h-1.334V255.2a7.889,7.889,0,0,1-1.292.934,8.3,8.3,0,0,1-1.392.677v-1.292a8.56,8.56,0,0,0,1.948-1.273,5.091,5.091,0,0,0,1.212-1.472h.857Zm3.857-2.883,1.352-.18a2.972,2.972,0,0,0,.775,1.652,1.959,1.959,0,0,0,1.353.5,2.2,2.2,0,0,0,1.612-.656,2.221,2.221,0,0,0,.656-1.633,2.016,2.016,0,0,0-.617-1.511,2.048,2.048,0,0,0-1.532-.614,3.654,3.654,0,0,0-.953.159l.159-1.194a1.9,1.9,0,0,0,.217.019,2.758,2.758,0,0,0,1.532-.437,1.55,1.55,0,0,0,.7-1.392,1.606,1.606,0,0,0-.5-1.212,1.747,1.747,0,0,0-1.292-.5,1.857,1.857,0,0,0-1.313.5,2.442,2.442,0,0,0-.656,1.472l-1.352-.238a3.366,3.366,0,0,1,1.114-2.07,3.191,3.191,0,0,1,2.168-.755,3.468,3.468,0,0,1,1.649.4,2.74,2.74,0,0,1,1.154,1.035,2.658,2.658,0,0,1,.4,1.411,2.377,2.377,0,0,1-.376,1.292,2.561,2.561,0,0,1-1.114.916,2.5,2.5,0,0,1,1.49.934,2.8,2.8,0,0,1,.537,1.771,3.208,3.208,0,0,1-1.054,2.427,3.641,3.641,0,0,1-2.625.993,3.448,3.448,0,0,1-2.387-.855A3.389,3.389,0,0,1,573.278,260.868Zm9.666,2.883v-1.53h1.53v1.53Zm5.13-5.926a2.745,2.745,0,0,1-1.252-.874,2.336,2.336,0,0,1-.4-1.353,2.663,2.663,0,0,1,.855-2.009,3.609,3.609,0,0,1,4.592.019,2.7,2.7,0,0,1,.876,2.03,2.212,2.212,0,0,1-.4,1.313,2.622,2.622,0,0,1-1.215.874,2.837,2.837,0,0,1,1.532,1.054,2.962,2.962,0,0,1,.516,1.752,3.127,3.127,0,0,1-.993,2.345,3.559,3.559,0,0,1-2.607.955,3.6,3.6,0,0,1-2.6-.955,3.168,3.168,0,0,1-1-2.385,2.909,2.909,0,0,1,.537-1.792A2.793,2.793,0,0,1,588.074,257.824Zm-.278-2.287a1.725,1.725,0,0,0,.5,1.273,1.819,1.819,0,0,0,1.313.5,1.758,1.758,0,0,0,1.273-.479,1.726,1.726,0,0,0-.021-2.446,1.732,1.732,0,0,0-1.273-.516,1.791,1.791,0,0,0-1.292.5A1.6,1.6,0,0,0,587.8,255.538Zm-.418,5.053a2.527,2.527,0,0,0,.259,1.112,1.981,1.981,0,0,0,.815.836,2.341,2.341,0,0,0,1.154.3,2.123,2.123,0,0,0,1.57-.617,2.1,2.1,0,0,0,.638-1.572,2.177,2.177,0,0,0-2.247-2.247,2.14,2.14,0,0,0-2.189,2.189Zm7.8-5.153a3.353,3.353,0,0,1,.577-1.988,1.987,1.987,0,0,1,1.71-.815,2.222,2.222,0,0,1,1.71.736,3.708,3.708,0,0,1-.021,4.3,2.177,2.177,0,0,1-1.67.736,2.117,2.117,0,0,1-1.649-.736A3.256,3.256,0,0,1,595.175,255.437Zm2.327-1.887a1.022,1.022,0,0,0-.836.437,2.854,2.854,0,0,0-.318,1.591,2.62,2.62,0,0,0,.318,1.493,1.038,1.038,0,0,0,.836.416.982.982,0,0,0,.834-.437,2.663,2.663,0,0,0,.339-1.57,2.435,2.435,0,0,0-.339-1.493A1.015,1.015,0,0,0,597.5,253.55Zm0,10.6,5.984-11.514h1.1l-5.966,11.514Zm4.732-2.962a3.342,3.342,0,0,1,.577-1.988,2.008,2.008,0,0,1,1.731-.815,2.222,2.222,0,0,1,1.71.736,3.7,3.7,0,0,1-.021,4.293,2.2,2.2,0,0,1-1.689.736,2.159,2.159,0,0,1-1.651-.736A3.261,3.261,0,0,1,602.234,261.186Zm2.348-1.89a1.04,1.04,0,0,0-.855.437,2.856,2.856,0,0,0-.32,1.593,2.462,2.462,0,0,0,.339,1.472,1.017,1.017,0,0,0,1.67,0,2.715,2.715,0,0,0,.339-1.593,2.4,2.4,0,0,0-.339-1.472A1.021,1.021,0,0,0,604.582,259.3Z" transform="translate(190.899 -129.907)" fill="#8c8d8d"/>
  <path id="Path_31885" data-name="Path 31885" d="M710.286,250.582H489.048" transform="translate(88.893 -132.648)" fill="none" stroke="#636363" stroke-miterlimit="10" stroke-width="1"/>
  <path id="Path_31886" data-name="Path 31886" d="M493.05,252.037a2.546,2.546,0,1,0-2.546,2.546,2.544,2.544,0,0,0,2.546-2.546" transform="translate(87.437 -134.103)" fill="#8c8d8d"/>
  <path id="Path_31887" data-name="Path 31887" d="M518.214,314.248l1.432.378a4.9,4.9,0,0,1-1.63,2.7,4.484,4.484,0,0,1-2.885.934,5.255,5.255,0,0,1-2.883-.715,4.475,4.475,0,0,1-1.691-2.07,7.492,7.492,0,0,1-.577-2.943,6.433,6.433,0,0,1,.656-2.983,4.491,4.491,0,0,1,1.85-1.929,5.514,5.514,0,0,1,2.665-.656,4.454,4.454,0,0,1,2.745.836,4.293,4.293,0,0,1,1.57,2.348l-1.432.336a3.285,3.285,0,0,0-1.114-1.729,2.853,2.853,0,0,0-1.808-.558,3.511,3.511,0,0,0-2.109.617,3.28,3.28,0,0,0-1.194,1.612,6.642,6.642,0,0,0-.336,2.107,6.715,6.715,0,0,0,.4,2.427,3.106,3.106,0,0,0,1.273,1.551,3.536,3.536,0,0,0,1.869.516,3.088,3.088,0,0,0,2.049-.7A3.529,3.529,0,0,0,518.214,314.248Zm3.441,3.84V307.149h1.352v10.939Zm3.857-9.388v-1.551h1.352V308.7Zm0,9.388v-7.917h1.352v7.917Zm8.989-2.9,1.313.178a3.427,3.427,0,0,1-1.112,2.128,3.221,3.221,0,0,1-2.189.776,3.442,3.442,0,0,1-2.626-1.053,4.406,4.406,0,0,1-.974-3.062,5.54,5.54,0,0,1,.418-2.228,3.017,3.017,0,0,1,1.292-1.451,3.93,3.93,0,0,1,1.911-.477,3.231,3.231,0,0,1,2.088.654,2.94,2.94,0,0,1,1.072,1.85l-1.313.2a2.073,2.073,0,0,0-.656-1.191,1.677,1.677,0,0,0-1.152-.418,2.082,2.082,0,0,0-1.651.736,3.382,3.382,0,0,0-.635,2.287,3.553,3.553,0,0,0,.614,2.327,2.005,2.005,0,0,0,1.593.715,1.854,1.854,0,0,0,1.311-.477A2.411,2.411,0,0,0,534.5,315.184Zm2.467,2.9V307.149h1.352v6.244l3.163-3.221h1.75l-3.044,2.925,3.343,4.992h-1.652l-2.626-4.058-.934.913v3.144Zm11.773,0v-6.882h-1.194v-1.035h1.194v-.855a3.619,3.619,0,0,1,.14-1.173,1.721,1.721,0,0,1,.675-.855,2.533,2.533,0,0,1,1.374-.32,6.206,6.206,0,0,1,1.252.14l-.2,1.154a5.659,5.659,0,0,0-.8-.061,1.205,1.205,0,0,0-.874.259,1.471,1.471,0,0,0-.238.974v.736h1.551v1.035h-1.551v6.882Zm3-3.959a4.1,4.1,0,0,1,1.212-3.261,3.67,3.67,0,0,1,2.485-.874,3.537,3.537,0,0,1,2.665,1.072,3.978,3.978,0,0,1,1.054,2.943,5.263,5.263,0,0,1-.456,2.406,3.3,3.3,0,0,1-1.352,1.374,3.937,3.937,0,0,1-1.911.476,3.591,3.591,0,0,1-2.684-1.053A4.316,4.316,0,0,1,551.744,314.129Zm1.371,0a3.383,3.383,0,0,0,.656,2.268,2.151,2.151,0,0,0,1.67.754,2.108,2.108,0,0,0,1.67-.754,3.442,3.442,0,0,0,.656-2.308,3.236,3.236,0,0,0-.675-2.226,2.093,2.093,0,0,0-1.651-.757,2.154,2.154,0,0,0-1.67.757A3.331,3.331,0,0,0,553.115,314.129Zm8.015,3.959v-7.917h1.215v1.194a3.219,3.219,0,0,1,.834-1.093,1.484,1.484,0,0,1,.876-.278,2.656,2.656,0,0,1,1.371.416l-.458,1.254a1.894,1.894,0,0,0-.974-.3,1.3,1.3,0,0,0-.815.278,1.378,1.378,0,0,0-.477.736,4.885,4.885,0,0,0-.238,1.551v4.158ZM570,321.129l-.159-1.252a3,3,0,0,0,.775.119,1.329,1.329,0,0,0,.7-.159,1.214,1.214,0,0,0,.458-.4,10.512,10.512,0,0,0,.418-1.016,1.552,1.552,0,0,1,.119-.318l-3.023-7.935h1.451l1.652,4.574q.319.876.577,1.85.238-.935.556-1.81l1.691-4.613h1.331l-3,8.054c-.332.862-.584,1.46-.757,1.789a2.493,2.493,0,0,1-.834.976,1.886,1.886,0,0,1-1.1.318A2.485,2.485,0,0,1,570,321.129Zm7.2-7a4.088,4.088,0,0,1,1.215-3.261,3.666,3.666,0,0,1,2.485-.874,3.544,3.544,0,0,1,2.665,1.072,3.987,3.987,0,0,1,1.053,2.943,5.232,5.232,0,0,1-.458,2.406,3.3,3.3,0,0,1-1.353,1.374,3.928,3.928,0,0,1-1.908.476,3.6,3.6,0,0,1-2.686-1.053A4.326,4.326,0,0,1,577.2,314.129Zm1.373,0a3.371,3.371,0,0,0,.656,2.268,2.148,2.148,0,0,0,1.67.754,2.111,2.111,0,0,0,1.67-.754,3.454,3.454,0,0,0,.656-2.308,3.237,3.237,0,0,0-.677-2.226,2.088,2.088,0,0,0-1.649-.757,2.15,2.15,0,0,0-1.67.757A3.318,3.318,0,0,0,578.572,314.129Zm13.224,3.959v-1.175a2.92,2.92,0,0,1-2.525,1.352,3.39,3.39,0,0,1-1.313-.257,2.315,2.315,0,0,1-.895-.677,2.6,2.6,0,0,1-.418-1.014,6.792,6.792,0,0,1-.079-1.252v-4.894h1.352v4.4a8.065,8.065,0,0,0,.08,1.411,1.461,1.461,0,0,0,.516.836,1.741,1.741,0,0,0,1.035.3,2.2,2.2,0,0,0,1.114-.3,1.745,1.745,0,0,0,.754-.855,3.922,3.922,0,0,0,.241-1.551v-4.237h1.331v7.917Zm3.7,0v-7.917h1.212v1.194a3.248,3.248,0,0,1,.836-1.093,1.477,1.477,0,0,1,.874-.278,2.663,2.663,0,0,1,1.373.416l-.458,1.254a1.894,1.894,0,0,0-.974-.3,1.3,1.3,0,0,0-.815.278,1.382,1.382,0,0,0-.479.736,4.887,4.887,0,0,0-.238,1.551v4.158Zm9.087,0V307.149h3.779a9.112,9.112,0,0,1,1.948.159,3.731,3.731,0,0,1,1.591.776,4.346,4.346,0,0,1,1.294,1.89,7.138,7.138,0,0,1,.437,2.586,7.356,7.356,0,0,1-.3,2.207,5.172,5.172,0,0,1-.736,1.591,3.778,3.778,0,0,1-1.014,1,4.281,4.281,0,0,1-1.292.556,7.664,7.664,0,0,1-1.75.18Zm1.453-1.294h2.327a5.779,5.779,0,0,0,1.71-.2,2.27,2.27,0,0,0,.974-.577,3.223,3.223,0,0,0,.8-1.371,6.586,6.586,0,0,0,.3-2.109,4.963,4.963,0,0,0-.577-2.626,2.841,2.841,0,0,0-1.353-1.252,5.869,5.869,0,0,0-1.869-.22h-2.308Zm15.253-1.252,1.392.159a3.354,3.354,0,0,1-1.212,1.89,4.116,4.116,0,0,1-5.032-.4,4.193,4.193,0,0,1-1.016-3,4.314,4.314,0,0,1,1.035-3.083,3.472,3.472,0,0,1,2.665-1.112,3.366,3.366,0,0,1,2.586,1.072,4.269,4.269,0,0,1,1.014,3.044v.357h-5.908a3.115,3.115,0,0,0,.736,2.009,2.206,2.206,0,0,0,1.651.675,2.056,2.056,0,0,0,1.252-.376A2.542,2.542,0,0,0,621.289,315.542Zm-4.4-2.168h4.415a2.633,2.633,0,0,0-.5-1.511,2.092,2.092,0,0,0-1.672-.776,2.168,2.168,0,0,0-1.57.617A2.463,2.463,0,0,0,616.893,313.374Zm7.358,2.345,1.313-.2a1.886,1.886,0,0,0,.617,1.215,2.26,2.26,0,0,0,1.453.416,2.118,2.118,0,0,0,1.352-.357,1.13,1.13,0,0,0,.455-.895.8.8,0,0,0-.4-.715,5.845,5.845,0,0,0-1.371-.458,14.435,14.435,0,0,1-2.049-.638,2.064,2.064,0,0,1-.855-.754,1.991,1.991,0,0,1-.3-1.075,2.077,2.077,0,0,1,.238-.974,2.137,2.137,0,0,1,.656-.757,3.065,3.065,0,0,1,.855-.376,4.084,4.084,0,0,1,1.175-.159,4.278,4.278,0,0,1,1.609.278,2.185,2.185,0,0,1,1.053.715,2.729,2.729,0,0,1,.458,1.215l-1.313.177a1.35,1.35,0,0,0-.516-.934,1.814,1.814,0,0,0-1.212-.357,2.116,2.116,0,0,0-1.313.318.873.873,0,0,0-.4.715.7.7,0,0,0,.161.458,1.263,1.263,0,0,0,.516.36c.133.051.53.164,1.194.336a18.43,18.43,0,0,1,1.988.638,1.988,1.988,0,0,1,.876.7,1.964,1.964,0,0,1,.318,1.152,2.263,2.263,0,0,1-.4,1.273,2.562,2.562,0,0,1-1.114.916,4.161,4.161,0,0,1-1.67.318,3.788,3.788,0,0,1-2.366-.635A3.064,3.064,0,0,1,624.251,315.719Zm11.1,1.175.2,1.173a5.074,5.074,0,0,1-1.014.119,2.4,2.4,0,0,1-1.133-.217,1.445,1.445,0,0,1-.577-.617,4.954,4.954,0,0,1-.159-1.593v-4.553h-.974v-1.035h.974V308.2l1.331-.794v2.763h1.352v1.035H634v4.634a2.719,2.719,0,0,0,.061.736.615.615,0,0,0,.238.257.848.848,0,0,0,.458.1A5.769,5.769,0,0,0,635.349,316.894Zm.895-8.194v-1.551H637.6V308.7Zm0,9.388v-7.917H637.6v7.917Zm3.819,0v-7.917h1.194v1.114a2.859,2.859,0,0,1,2.525-1.292,3.266,3.266,0,0,1,1.313.257,2.055,2.055,0,0,1,.913.677,2.589,2.589,0,0,1,.418.974,9.7,9.7,0,0,1,.061,1.313v4.873h-1.334v-4.814a3.517,3.517,0,0,0-.159-1.233,1.293,1.293,0,0,0-.556-.635,1.676,1.676,0,0,0-.934-.259,2.2,2.2,0,0,0-1.493.558,2.657,2.657,0,0,0-.617,2.049v4.336Zm14.079-.976a4.982,4.982,0,0,1-1.451.9,4.126,4.126,0,0,1-1.472.257,2.884,2.884,0,0,1-2.009-.635,2.111,2.111,0,0,1-.7-1.63,2.182,2.182,0,0,1,.259-1.056,2.006,2.006,0,0,1,.7-.776,3.12,3.12,0,0,1,.974-.437,7.415,7.415,0,0,1,1.194-.22,11.377,11.377,0,0,0,2.385-.455v-.339a1.524,1.524,0,0,0-.376-1.173,2.323,2.323,0,0,0-1.532-.439,2.35,2.35,0,0,0-1.392.339,1.942,1.942,0,0,0-.675,1.154l-1.313-.18a3.2,3.2,0,0,1,.6-1.353,2.635,2.635,0,0,1,1.194-.794,5.253,5.253,0,0,1,1.789-.278,4.791,4.791,0,0,1,1.652.238,2.2,2.2,0,0,1,.934.6,2.09,2.09,0,0,1,.418.916,8.429,8.429,0,0,1,.058,1.233v1.789a20.913,20.913,0,0,0,.079,2.366,3.253,3.253,0,0,0,.36.955H654.4A3.007,3.007,0,0,1,654.142,317.112Zm-.119-3a10.2,10.2,0,0,1-2.186.516,4.582,4.582,0,0,0-1.173.278,1.207,1.207,0,0,0-.537.418,1.211,1.211,0,0,0,.217,1.532,1.785,1.785,0,0,0,1.194.357,2.735,2.735,0,0,0,1.374-.339,2.034,2.034,0,0,0,.895-.934,3.208,3.208,0,0,0,.217-1.331Zm6.781,2.784.2,1.173a5.114,5.114,0,0,1-1.016.119,2.4,2.4,0,0,1-1.133-.217,1.459,1.459,0,0,1-.577-.617,5.028,5.028,0,0,1-.159-1.593v-4.553h-.974v-1.035h.974V308.2l1.334-.794v2.763h1.35v1.035h-1.35v4.634a2.737,2.737,0,0,0,.059.736.644.644,0,0,0,.238.257.858.858,0,0,0,.458.1A5.77,5.77,0,0,0,660.8,316.894Zm.9-8.194v-1.551h1.352V308.7Zm0,9.388v-7.917h1.352v7.917Zm3.319-3.959a4.088,4.088,0,0,1,1.215-3.261,3.666,3.666,0,0,1,2.485-.874,3.541,3.541,0,0,1,2.665,1.072,3.978,3.978,0,0,1,1.053,2.943,5.228,5.228,0,0,1-.458,2.406,3.273,3.273,0,0,1-1.352,1.374,3.927,3.927,0,0,1-1.909.476,3.591,3.591,0,0,1-2.684-1.053A4.317,4.317,0,0,1,665.02,314.129Zm1.374,0a3.372,3.372,0,0,0,.656,2.268,2.148,2.148,0,0,0,1.67.754,2.111,2.111,0,0,0,1.67-.754,3.453,3.453,0,0,0,.656-2.308,3.237,3.237,0,0,0-.675-2.226,2.1,2.1,0,0,0-1.652-.757,2.15,2.15,0,0,0-1.67.757A3.319,3.319,0,0,0,666.394,314.129Zm8.033,3.959v-7.917h1.194v1.114a2.862,2.862,0,0,1,2.525-1.292,3.25,3.25,0,0,1,1.313.257,2.062,2.062,0,0,1,.916.677,2.585,2.585,0,0,1,.418.974,9.81,9.81,0,0,1,.058,1.313v4.873h-1.331v-4.814a3.577,3.577,0,0,0-.159-1.233,1.3,1.3,0,0,0-.558-.635,1.67,1.67,0,0,0-.934-.259,2.188,2.188,0,0,0-1.49.558,2.657,2.657,0,0,0-.617,2.049v4.336Z" transform="translate(116.857 -57.319)" fill="#141414"/>
  <path id="Path_31888" data-name="Path 31888" d="M569.422,327.349h-1.334V318.8a8.171,8.171,0,0,1-1.292.934,8.269,8.269,0,0,1-1.392.675v-1.292a8.486,8.486,0,0,0,1.948-1.273,5.091,5.091,0,0,0,1.212-1.472h.857Zm3.857-5.389a10.005,10.005,0,0,1,.4-3.121,3.886,3.886,0,0,1,1.175-1.831,3.09,3.09,0,0,1,1.988-.635,3.16,3.16,0,0,1,1.532.357,2.947,2.947,0,0,1,1.112,1.035,5.11,5.11,0,0,1,.677,1.609,11.136,11.136,0,0,1,.238,2.586,9.941,9.941,0,0,1-.4,3.1,3.83,3.83,0,0,1-1.173,1.831,3.352,3.352,0,0,1-4.476-.5A7.184,7.184,0,0,1,573.278,321.96Zm1.373,0a6.8,6.8,0,0,0,.635,3.581,1.866,1.866,0,0,0,1.551.895,1.832,1.832,0,0,0,1.551-.895,6.8,6.8,0,0,0,.638-3.581,6.715,6.715,0,0,0-.638-3.579,1.842,1.842,0,0,0-1.57-.895,1.725,1.725,0,0,0-1.472.776A6.9,6.9,0,0,0,574.652,321.96Zm8.293,5.389v-1.53h1.53v1.53Zm3.062-2.883,1.353-.18a2.957,2.957,0,0,0,.776,1.651,1.959,1.959,0,0,0,1.352.5,2.242,2.242,0,0,0,2.266-2.287,2.013,2.013,0,0,0-.617-1.511,2.033,2.033,0,0,0-1.53-.617,3.679,3.679,0,0,0-.955.159l.159-1.194a1.562,1.562,0,0,0,.22.021,2.761,2.761,0,0,0,1.532-.439,1.553,1.553,0,0,0,.7-1.392,1.606,1.606,0,0,0-.5-1.212,1.752,1.752,0,0,0-1.294-.5,1.865,1.865,0,0,0-1.313.5,2.468,2.468,0,0,0-.656,1.472l-1.35-.238a3.381,3.381,0,0,1,1.112-2.07,3.207,3.207,0,0,1,2.168-.754,3.506,3.506,0,0,1,1.652.4,2.754,2.754,0,0,1,1.154,1.035,2.686,2.686,0,0,1,.4,1.411,2.374,2.374,0,0,1-.379,1.294,2.573,2.573,0,0,1-1.114.913,2.494,2.494,0,0,1,1.493.934,2.823,2.823,0,0,1,.537,1.771,3.216,3.216,0,0,1-1.053,2.427,3.633,3.633,0,0,1-2.626,1,3.438,3.438,0,0,1-2.387-.857A3.385,3.385,0,0,1,586.007,324.466Zm9.169-5.429a3.356,3.356,0,0,1,.577-1.99,1.993,1.993,0,0,1,1.71-.815,2.223,2.223,0,0,1,1.71.736,3.708,3.708,0,0,1-.021,4.3,2.177,2.177,0,0,1-1.67.736,2.117,2.117,0,0,1-1.649-.736A3.253,3.253,0,0,1,595.175,319.037Zm2.327-1.89a1.022,1.022,0,0,0-.836.437,2.854,2.854,0,0,0-.318,1.591,2.621,2.621,0,0,0,.318,1.493,1.041,1.041,0,0,0,.836.418.984.984,0,0,0,.834-.439,2.663,2.663,0,0,0,.339-1.57,2.435,2.435,0,0,0-.339-1.493A1.015,1.015,0,0,0,597.5,317.148Zm0,10.6,5.984-11.516h1.1l-5.966,11.516Zm4.732-2.964a3.342,3.342,0,0,1,.577-1.988,2.008,2.008,0,0,1,1.731-.815,2.222,2.222,0,0,1,1.71.736,3.023,3.023,0,0,1,.675,2.147,3.054,3.054,0,0,1-.7,2.149,2.2,2.2,0,0,1-1.689.736,2.159,2.159,0,0,1-1.651-.736A3.268,3.268,0,0,1,602.234,324.784Zm2.348-1.89a1.036,1.036,0,0,0-.855.439,2.852,2.852,0,0,0-.32,1.591,2.463,2.463,0,0,0,.339,1.472,1.017,1.017,0,0,0,1.67,0,2.711,2.711,0,0,0,.339-1.591,2.39,2.39,0,0,0-.339-1.472A1.017,1.017,0,0,0,604.582,322.894Z" transform="translate(190.899 -44.944)" fill="#8c8d8d"/>
  <path id="Path_31889" data-name="Path 31889" d="M701.045,314.181H495.965" transform="translate(98.134 -47.684)" fill="none" stroke="#636363" stroke-miterlimit="10" stroke-width="1"/>
  <path id="Path_31890" data-name="Path 31890" d="M499.967,315.637a2.546,2.546,0,1,0-2.546,2.544,2.546,2.546,0,0,0,2.546-2.544" transform="translate(96.678 -49.141)" fill="#8c8d8d"/>
  <path id="Path_31891" data-name="Path 31891" d="M520,377.488l4.2-10.937h1.551l4.476,10.937h-1.63l-1.294-3.322h-4.553l-1.215,3.322Zm3.161-4.494h3.7l-1.133-3.023a21.712,21.712,0,0,1-.776-2.268,15.011,15.011,0,0,1-.6,2.088Zm8.054,4.494v-7.914h1.194v1.114a2.7,2.7,0,0,1,1-.937,2.76,2.76,0,0,1,1.411-.357,2.608,2.608,0,0,1,1.432.357,1.85,1.85,0,0,1,.8,1.016,2.871,2.871,0,0,1,2.446-1.374,2.368,2.368,0,0,1,1.81.656,2.752,2.752,0,0,1,.635,2.009v5.429H540.6V372.5a3.439,3.439,0,0,0-.14-1.154,1.071,1.071,0,0,0-.458-.575,1.451,1.451,0,0,0-.815-.22,1.889,1.889,0,0,0-1.392.556,2.52,2.52,0,0,0-.537,1.792v4.592h-1.35v-5.151a2.173,2.173,0,0,0-.339-1.331,1.189,1.189,0,0,0-1.053-.458,1.941,1.941,0,0,0-1.056.3,1.721,1.721,0,0,0-.7.874,4.888,4.888,0,0,0-.217,1.652v4.116Zm18.138-2.546,1.392.161a3.34,3.34,0,0,1-1.215,1.887,4.11,4.11,0,0,1-5.032-.4,4.2,4.2,0,0,1-1.014-3,4.311,4.311,0,0,1,1.035-3.081,3.47,3.47,0,0,1,2.665-1.114,3.36,3.36,0,0,1,2.586,1.074,4.263,4.263,0,0,1,1.014,3.041v.36h-5.908a3.121,3.121,0,0,0,.736,2.009,2.207,2.207,0,0,0,1.651.675,2.058,2.058,0,0,0,1.252-.378A2.536,2.536,0,0,0,549.354,374.942Zm-4.4-2.168h4.415a2.624,2.624,0,0,0-.5-1.511,2.091,2.091,0,0,0-1.67-.776,2.168,2.168,0,0,0-1.57.617A2.469,2.469,0,0,0,544.958,372.774Zm7.9,4.714v-7.914h1.194v1.114a2.864,2.864,0,0,1,2.525-1.294,3.252,3.252,0,0,1,1.313.259,2.077,2.077,0,0,1,.916.675,2.64,2.64,0,0,1,.418.974,9.8,9.8,0,0,1,.058,1.313v4.873h-1.331v-4.812a3.57,3.57,0,0,0-.159-1.233,1.3,1.3,0,0,0-.558-.635,1.67,1.67,0,0,0-.934-.259,2.186,2.186,0,0,0-1.49.556,2.663,2.663,0,0,0-.617,2.049v4.336Zm14.041,0v-1a2.466,2.466,0,0,1-2.208,1.175,3.133,3.133,0,0,1-1.749-.519,3.54,3.54,0,0,1-1.233-1.472,5,5,0,0,1-.439-2.147,5.626,5.626,0,0,1,.4-2.149,3.014,3.014,0,0,1,1.194-1.472,3.184,3.184,0,0,1,1.768-.516,2.655,2.655,0,0,1,1.273.3,2.745,2.745,0,0,1,.916.776v-3.917h1.331v10.937Zm-4.237-3.957a3.484,3.484,0,0,0,.638,2.287,1.936,1.936,0,0,0,1.511.736,1.9,1.9,0,0,0,1.49-.715,3.3,3.3,0,0,0,.617-2.189,3.67,3.67,0,0,0-.635-2.387,1.907,1.907,0,0,0-1.532-.754,1.844,1.844,0,0,0-1.49.736A3.557,3.557,0,0,0,562.657,373.531Zm11.992,3.957V366.551h3.78a8.964,8.964,0,0,1,1.948.159,3.708,3.708,0,0,1,1.591.776,4.352,4.352,0,0,1,1.294,1.89,7.177,7.177,0,0,1,.437,2.583,7.418,7.418,0,0,1-.3,2.208,5.133,5.133,0,0,1-.736,1.591,3.747,3.747,0,0,1-1.014,1,4.306,4.306,0,0,1-1.292.558,7.674,7.674,0,0,1-1.752.178ZM576.1,376.2h2.326a5.86,5.86,0,0,0,1.71-.2,2.271,2.271,0,0,0,.974-.577,3.22,3.22,0,0,0,.8-1.373,6.566,6.566,0,0,0,.3-2.107,4.935,4.935,0,0,0-.577-2.626,2.82,2.82,0,0,0-1.352-1.252,5.805,5.805,0,0,0-1.869-.22H576.1Zm15.013.318a4.976,4.976,0,0,1-1.451.895,4.076,4.076,0,0,1-1.472.259,2.872,2.872,0,0,1-2.009-.638,2.1,2.1,0,0,1-.7-1.63,2.173,2.173,0,0,1,.259-1.053,1.971,1.971,0,0,1,.7-.776,3.065,3.065,0,0,1,.974-.437,7.157,7.157,0,0,1,1.194-.22,11.2,11.2,0,0,0,2.385-.458v-.339a1.527,1.527,0,0,0-.376-1.173,2.964,2.964,0,0,0-2.924-.1,1.937,1.937,0,0,0-.675,1.152l-1.313-.178a3.168,3.168,0,0,1,.6-1.353,2.638,2.638,0,0,1,1.194-.8,5.311,5.311,0,0,1,1.789-.278,4.79,4.79,0,0,1,1.651.238,2.2,2.2,0,0,1,.934.6,2.076,2.076,0,0,1,.418.913,8.445,8.445,0,0,1,.058,1.233v1.789a20.872,20.872,0,0,0,.08,2.369,3.232,3.232,0,0,0,.36.953h-1.413A2.973,2.973,0,0,1,591.116,376.514Zm-.119-3a10.166,10.166,0,0,1-2.186.519,4.577,4.577,0,0,0-1.173.278,1.189,1.189,0,0,0-.537.418,1.209,1.209,0,0,0,.217,1.53,1.786,1.786,0,0,0,1.194.36,2.758,2.758,0,0,0,1.374-.339,2.045,2.045,0,0,0,.895-.934,3.222,3.222,0,0,0,.217-1.334Zm6.781,2.784.2,1.175a5.111,5.111,0,0,1-1.016.119,2.371,2.371,0,0,1-1.133-.22,1.433,1.433,0,0,1-.577-.617,5.02,5.02,0,0,1-.159-1.591v-4.555h-.974v-1.033h.974V367.6l1.334-.8v2.766h1.35v1.033h-1.35v4.634a2.719,2.719,0,0,0,.058.736.653.653,0,0,0,.238.259.883.883,0,0,0,.458.1A5.17,5.17,0,0,0,597.778,376.294Zm6.066.22a5.036,5.036,0,0,1-1.451.895,4.077,4.077,0,0,1-1.472.259,2.868,2.868,0,0,1-2.009-.638,2.1,2.1,0,0,1-.7-1.63,2.2,2.2,0,0,1,.257-1.053,1.988,1.988,0,0,1,.7-.776,3.055,3.055,0,0,1,.976-.437,7.124,7.124,0,0,1,1.191-.22,11.2,11.2,0,0,0,2.387-.458v-.339a1.519,1.519,0,0,0-.378-1.173,2.96,2.96,0,0,0-2.922-.1,1.938,1.938,0,0,0-.677,1.152l-1.313-.178a3.171,3.171,0,0,1,.6-1.353,2.626,2.626,0,0,1,1.194-.8,5.3,5.3,0,0,1,1.789-.278,4.776,4.776,0,0,1,1.649.238,2.209,2.209,0,0,1,.937.6,2.078,2.078,0,0,1,.416.913,8.344,8.344,0,0,1,.061,1.233v1.789a20.348,20.348,0,0,0,.079,2.369,3.167,3.167,0,0,0,.357.953H604.1A2.98,2.98,0,0,1,603.844,376.514Zm-.119-3a10.17,10.17,0,0,1-2.187.519,4.63,4.63,0,0,0-1.175.278,1.215,1.215,0,0,0-.537.418,1.214,1.214,0,0,0,.22,1.53,1.781,1.781,0,0,0,1.194.36,2.743,2.743,0,0,0,1.371-.339,2.034,2.034,0,0,0,.895-.934,3.175,3.175,0,0,0,.22-1.334Zm6.662,4.158,3.163-11.3h1.072l-3.16,11.3Zm16.625-4.018,1.432.378a4.886,4.886,0,0,1-1.63,2.705,4.489,4.489,0,0,1-2.883.934,5.243,5.243,0,0,1-2.885-.717,4.45,4.45,0,0,1-1.689-2.067,7.509,7.509,0,0,1-.577-2.943,6.4,6.4,0,0,1,.656-2.983,4.478,4.478,0,0,1,1.85-1.93,5.511,5.511,0,0,1,2.663-.656,4.434,4.434,0,0,1,2.745.836,4.286,4.286,0,0,1,1.572,2.345l-1.432.339a3.293,3.293,0,0,0-1.114-1.731,2.855,2.855,0,0,0-1.81-.556,3.509,3.509,0,0,0-2.107.617,3.26,3.26,0,0,0-1.194,1.609,7.162,7.162,0,0,0,.061,4.536,3.1,3.1,0,0,0,1.273,1.551,3.551,3.551,0,0,0,1.869.516,3.092,3.092,0,0,0,2.048-.7A3.543,3.543,0,0,0,627.012,373.65Zm3.462,3.838v-7.914h1.212v1.194a3.236,3.236,0,0,1,.836-1.1,1.494,1.494,0,0,1,.873-.278,2.667,2.667,0,0,1,1.374.418l-.458,1.252a1.89,1.89,0,0,0-.974-.3,1.281,1.281,0,0,0-.815.278,1.38,1.38,0,0,0-.479.736,4.872,4.872,0,0,0-.238,1.551v4.156Zm5.111-9.386v-1.551h1.352V368.1Zm0,9.386v-7.914h1.352v7.914Zm6.741-1.194.2,1.175a5.072,5.072,0,0,1-1.014.119,2.365,2.365,0,0,1-1.133-.22,1.42,1.42,0,0,1-.577-.617,4.953,4.953,0,0,1-.159-1.591v-4.555h-.976v-1.033h.976V367.6l1.332-.8v2.766h1.352v1.033h-1.352v4.634a2.687,2.687,0,0,0,.061.736.62.62,0,0,0,.238.259.872.872,0,0,0,.458.1A5.169,5.169,0,0,0,642.326,376.294Zm6.3-1.352,1.392.161a3.339,3.339,0,0,1-1.215,1.887,4.11,4.11,0,0,1-5.032-.4,4.2,4.2,0,0,1-1.014-3,4.311,4.311,0,0,1,1.035-3.081,3.47,3.47,0,0,1,2.665-1.114,3.36,3.36,0,0,1,2.586,1.074,4.263,4.263,0,0,1,1.014,3.041v.36h-5.908a3.122,3.122,0,0,0,.736,2.009,2.207,2.207,0,0,0,1.651.675,2.058,2.058,0,0,0,1.252-.378A2.537,2.537,0,0,0,648.631,374.942Zm-4.4-2.168h4.415a2.625,2.625,0,0,0-.5-1.511,2.091,2.091,0,0,0-1.67-.776,2.168,2.168,0,0,0-1.57.617A2.469,2.469,0,0,0,644.235,372.774Zm7.877,4.714v-7.914h1.212v1.194a3.238,3.238,0,0,1,.836-1.1,1.494,1.494,0,0,1,.874-.278,2.667,2.667,0,0,1,1.373.418l-.458,1.252a1.89,1.89,0,0,0-.974-.3,1.281,1.281,0,0,0-.815.278,1.38,1.38,0,0,0-.479.736,4.872,4.872,0,0,0-.238,1.551v4.156Zm5.111-9.386v-1.551h1.352V368.1Zm0,9.386v-7.914h1.352v7.914Zm8.989-.974a5.015,5.015,0,0,1-1.453.895,4.077,4.077,0,0,1-1.472.259,2.876,2.876,0,0,1-2.009-.638,2.112,2.112,0,0,1-.7-1.63,2.172,2.172,0,0,1,.259-1.053,1.97,1.97,0,0,1,.7-.776,3.066,3.066,0,0,1,.974-.437,7.163,7.163,0,0,1,1.194-.22,11.228,11.228,0,0,0,2.387-.458v-.339a1.519,1.519,0,0,0-.378-1.173,2.964,2.964,0,0,0-2.925-.1,1.937,1.937,0,0,0-.675,1.152l-1.313-.178a3.142,3.142,0,0,1,.6-1.353,2.63,2.63,0,0,1,1.191-.8,5.325,5.325,0,0,1,1.792-.278,4.776,4.776,0,0,1,1.649.238,2.185,2.185,0,0,1,.935.6,2.08,2.08,0,0,1,.418.913,8.353,8.353,0,0,1,.061,1.233v1.789a20.316,20.316,0,0,0,.08,2.369,3.166,3.166,0,0,0,.357.953h-1.411A2.977,2.977,0,0,1,666.211,376.514Zm-.119-3a10.16,10.16,0,0,1-2.189.519,4.6,4.6,0,0,0-1.173.278,1.2,1.2,0,0,0-.537.418,1.206,1.206,0,0,0,.22,1.53,1.781,1.781,0,0,0,1.194.36,2.743,2.743,0,0,0,1.371-.339,2.033,2.033,0,0,0,.895-.934,3.175,3.175,0,0,0,.22-1.334Z" transform="translate(130.244 22.038)" fill="#141414"/>
  <path id="Path_31892" data-name="Path 31892" d="M572.123,385.459v1.292h-7.239a2.787,2.787,0,0,1,.161-.934,5.112,5.112,0,0,1,.874-1.453,14.016,14.016,0,0,1,1.771-1.649,14.532,14.532,0,0,0,2.406-2.327,2.744,2.744,0,0,0,.638-1.612,1.749,1.749,0,0,0-.577-1.331,2.063,2.063,0,0,0-1.493-.558,2.1,2.1,0,0,0-1.551.577,2.235,2.235,0,0,0-.6,1.612l-1.374-.14a3.363,3.363,0,0,1,1.054-2.345,3.679,3.679,0,0,1,2.506-.818,3.441,3.441,0,0,1,2.485.876,2.881,2.881,0,0,1,.916,2.168,3.209,3.209,0,0,1-.278,1.292,5.019,5.019,0,0,1-.895,1.334,21.494,21.494,0,0,1-2.049,1.909q-1.212,1.016-1.572,1.392a4.291,4.291,0,0,0-.556.717Zm1.93-8.215v-1.292h7.08v1.054a15.448,15.448,0,0,0-2.067,2.964,17.878,17.878,0,0,0-1.572,3.777,13.022,13.022,0,0,0-.516,3h-1.392a13.494,13.494,0,0,1,.5-3.123,17.05,17.05,0,0,1,1.392-3.52,15.458,15.458,0,0,1,1.948-2.864Zm9.587,9.507v-1.532h1.53v1.532Zm10.023-8.253-1.334.1a2.593,2.593,0,0,0-.5-1.152,1.8,1.8,0,0,0-1.35-.577,1.9,1.9,0,0,0-1.135.357,3.3,3.3,0,0,0-.993,1.371,7.084,7.084,0,0,0-.379,2.506,3.06,3.06,0,0,1,1.173-1.093,3.3,3.3,0,0,1,1.493-.357,3,3,0,0,1,2.266.993,3.521,3.521,0,0,1,.955,2.546,4.173,4.173,0,0,1-.458,1.93,3.254,3.254,0,0,1-1.212,1.352,3.394,3.394,0,0,1-1.75.458A3.435,3.435,0,0,1,587.7,385.7a6.227,6.227,0,0,1-1.056-4.057,7.271,7.271,0,0,1,1.175-4.613,3.342,3.342,0,0,1,2.745-1.254,2.963,2.963,0,0,1,3.1,2.726Zm-5.471,4.714a3.273,3.273,0,0,0,.28,1.332,2.31,2.31,0,0,0,.815.955,2.1,2.1,0,0,0,1.133.336,1.9,1.9,0,0,0,1.451-.675,2.72,2.72,0,0,0,.617-1.869,2.515,2.515,0,0,0-.617-1.792,1.952,1.952,0,0,0-1.511-.656,2.083,2.083,0,0,0-1.551.656A2.4,2.4,0,0,0,588.192,383.212Zm7.678-4.775a3.349,3.349,0,0,1,.577-1.988,1.987,1.987,0,0,1,1.71-.815,2.222,2.222,0,0,1,1.71.736,3.708,3.708,0,0,1-.021,4.3,2.177,2.177,0,0,1-1.67.736,2.117,2.117,0,0,1-1.649-.736A3.256,3.256,0,0,1,595.87,378.437Zm2.327-1.887a1.022,1.022,0,0,0-.836.437,2.854,2.854,0,0,0-.318,1.591,2.607,2.607,0,0,0,.318,1.49,1.034,1.034,0,0,0,.836.418.982.982,0,0,0,.834-.437,2.667,2.667,0,0,0,.339-1.572,2.431,2.431,0,0,0-.339-1.49A1.015,1.015,0,0,0,598.2,376.55Zm0,10.6,5.985-11.514h1.1l-5.966,11.514Zm4.733-2.962a3.354,3.354,0,0,1,.577-1.99,2.014,2.014,0,0,1,1.731-.815,2.222,2.222,0,0,1,1.71.736,3.708,3.708,0,0,1-.021,4.3,2.2,2.2,0,0,1-1.689.736,2.159,2.159,0,0,1-1.651-.736A3.266,3.266,0,0,1,602.929,384.186Zm2.348-1.89a1.034,1.034,0,0,0-.855.437,2.852,2.852,0,0,0-.32,1.591,2.462,2.462,0,0,0,.339,1.472,1.014,1.014,0,0,0,1.67,0,2.711,2.711,0,0,0,.339-1.591,2.39,2.39,0,0,0-.339-1.472A1.015,1.015,0,0,0,605.277,382.3Z" transform="translate(190.205 34.412)" fill="#8c8d8d"/>
  <path id="Path_31893" data-name="Path 31893" d="M799.8,373.582H620.342L422.04,381.5" transform="translate(-0.625 31.671)" fill="none" stroke="#636363" stroke-miterlimit="10" stroke-width="1"/>
  <path id="Path_31894" data-name="Path 31894" d="M426.042,378.429a2.546,2.546,0,1,0-2.546,2.544,2.546,2.546,0,0,0,2.546-2.544" transform="translate(-2.081 34.745)" fill="#8c8d8d"/>
  <text id="Humans_Avg._29_Minutes_per_Application" data-name="Humans Avg. 
29 Minutes 
per 
Application" transform="translate(392.818 163.038)" fill="#040505" font-size="27" font-family="Helvetica-Bold, Helvetica" font-weight="700"><tspan x="-89.029" y="0">Humans Avg. </tspan><tspan x="-73.518" y="32">29 Minutes </tspan><tspan x="-24.759" y="64">per </tspan><tspan x="-73.499" y="96">Application</tspan></text>
</svg>
