<svg xmlns="http://www.w3.org/2000/svg" width="29" height="12" viewBox="0 0 29 12">
  <g id="Group_1721" data-name="Group 1721" transform="translate(0.3 -0.409)">
    <line id="Line_2" data-name="Line 2" x2="16.439" transform="translate(6.331 6.657)" fill="none" stroke="#fff" stroke-width="3"/>
    <path id="Polygon_1" data-name="Polygon 1" d="M4.285,2.858a2,2,0,0,1,3.43,0l2.468,4.113A2,2,0,0,1,8.468,10H3.532A2,2,0,0,1,1.817,6.971Z" transform="translate(28.7 0.409) rotate(90)" fill="#fff"/>
    <path id="Polygon_2" data-name="Polygon 2" d="M4.244,3.219a2,2,0,0,1,3.512,0l2.631,4.823A2,2,0,0,1,8.631,11H3.369A2,2,0,0,1,1.613,8.042Z" transform="translate(-0.3 12.409) rotate(-90)" fill="#fff"/>
  </g>
</svg>
