<svg id="Group_51" data-name="Group 51" xmlns="http://www.w3.org/2000/svg" width="36.017" height="36.018" viewBox="0 0 36.017 36.018">
  <path id="Path_310" data-name="Path 310" d="M24.762,0H11.255A11.257,11.257,0,0,0,0,11.255V24.762A11.257,11.257,0,0,0,11.255,36.017H24.762A11.257,11.257,0,0,0,36.017,24.762V11.255A11.257,11.257,0,0,0,24.762,0Zm7.879,24.762a7.887,7.887,0,0,1-7.879,7.879H11.255a7.887,7.887,0,0,1-7.879-7.879V11.255a7.887,7.887,0,0,1,7.879-7.879H24.762a7.887,7.887,0,0,1,7.879,7.879Z" fill="#fff"/>
  <path id="Path_311" data-name="Path 311" d="M137.607,128a9.607,9.607,0,1,0,9.607,9.607A9.607,9.607,0,0,0,137.607,128Zm0,15.611a6,6,0,1,1,6-6A6.013,6.013,0,0,1,137.607,143.611Z" transform="translate(-119.598 -119.598)" fill="#fff"/>
  <circle id="Ellipse_1" data-name="Ellipse 1" cx="1.28" cy="1.28" r="1.28" transform="translate(26.362 7.095)" fill="#fff"/>
</svg>
