<svg xmlns="http://www.w3.org/2000/svg" width="238.92" height="58.789" viewBox="0 0 238.92 58.789">
  <g id="LOGO-SKAEL-blue-bg" transform="translate(-4 -4)">
    <path id="Fill-5" d="M248.272,8h-11.4L212,63.5h11.325L242.57,19.655,261.736,63.5h11.4L248.272,8" transform="translate(-110.175 -2.119)" fill="#0b0b09" fill-rule="evenodd"/>
    <path id="Fill-6" d="M405.1,53.825V8H394.648V18.148H364V30.912h30.648v9.752H364V53.191h30.648V63.5h38.958V53.825H405.1" transform="translate(-190.687 -2.119)" fill="#0b0b09" fill-rule="evenodd"/>
    <path id="Fill-7" d="M118.342,34.876l24.58-26.559V8H129.96L105,34.863,132.094,63.5h12.882v-.634L118.342,34.876" transform="translate(-53.498 -2.119)" fill="#0b0b09" fill-rule="evenodd"/>
    <path id="Fill-8" d="M28.3,98.891c-6.727,0-13.137-2.723-15.59-8.891L4,94.566c4.115,10.252,12.82,13.777,24.137,13.777a33.351,33.351,0,0,0,12.077-2.069V93.908c-1.881,3.546-6.771,4.983-11.919,4.983" transform="translate(0 -45.553)" fill="#0b0b09" fill-rule="evenodd"/>
    <path id="Fill-9" d="M31.7,27.5c-6.668-.794-12.383-2.144-12.383-6.988,0-4.129,3.731-7.384,11.51-7.384a17.059,17.059,0,0,1,12.034,4.722V6.211A31.8,31.8,0,0,0,30.511,4C20.271,4.079,9,8.764,9,20.2,9,32.666,19.478,35.683,30.829,37.033c5.7.613,10.248,2.037,12.034,5.062V29.858A53.457,53.457,0,0,0,31.7,27.5" transform="translate(-2.648)" fill="#27b3b6" fill-rule="evenodd"/>
  </g>
</svg>
