<svg id="LOGO_SKAEL_transparent-bg" xmlns="http://www.w3.org/2000/svg" width="229.378" height="56.441" viewBox="0 0 229.378 56.441">
  <path id="Fill-5" d="M242.823,4H231.875L208,57.281h10.872L237.35,15.189l18.4,42.092H266.7L242.823,4" transform="translate(-114.081 -2.194)" fill="#fff"/>
  <path id="Fill-6" d="M399.459,47.995V4H389.424v9.743H360V26h29.424v9.362H360V47.386h29.424v9.895h37.4V47.995H399.459" transform="translate(-197.449 -2.194)" fill="#fff"/>
  <path id="Fill-7" d="M113.809,29.8l23.6-25.5V4H124.963L101,29.79l26.012,27.491H139.38v-.609L113.809,29.8" transform="translate(-55.395 -2.194)" fill="#fff"/>
  <path id="Fill-8" d="M23.325,94.536c-6.459,0-12.612-2.614-14.968-8.536L0,90.383c3.95,9.843,12.308,13.226,23.173,13.226a32.019,32.019,0,0,0,11.595-1.987V89.752c-1.806,3.4-6.5,4.784-11.443,4.784" transform="translate(0 -47.168)" fill="#fff"/>
  <path id="Fill-9" d="M26.8,22.565c-6.4-.762-11.889-2.058-11.889-6.709,0-3.964,3.582-7.089,11.051-7.089A16.378,16.378,0,0,1,37.51,13.3V2.123A30.529,30.529,0,0,0,25.652,0C15.821.076,5,4.574,5,15.552,5,27.521,15.06,30.418,25.957,31.714c5.47.588,9.839,1.956,11.553,4.86V24.825A51.322,51.322,0,0,0,26.8,22.565" transform="translate(-2.742)" fill="#27b3b6"/>
</svg>
