<svg xmlns="http://www.w3.org/2000/svg" width="93.781" height="84.92" viewBox="0 0 93.781 84.92">
  <g id="Group_1765" data-name="Group 1765" transform="translate(-913 -246)">
    <g id="Group_1764" data-name="Group 1764">
      <path id="Path_31761" data-name="Path 31761" d="M5,0H88.781a5,5,0,0,1,5,5V79.92a5,5,0,0,1-5,5H5a5,5,0,0,1-5-5V5A5,5,0,0,1,5,0Z" transform="translate(913 246)" fill="#3bbabc"/>
    </g>
    <g id="Group_587" data-name="Group 587" transform="translate(928 257)">
      <path id="Path_29353" data-name="Path 29353" d="M31.875,8A23.875,23.875,0,1,0,55.75,31.875,23.875,23.875,0,0,0,31.875,8Zm0,46.21A22.335,22.335,0,1,1,54.21,31.875,22.335,22.335,0,0,1,31.875,54.21Z" fill="#fff"/>
      <path id="Path_29354" data-name="Path 29354" d="M162.4,88a10.012,10.012,0,0,0-10.393,9.616Q152,97.81,152,98a.77.77,0,1,0,1.54,0,8.472,8.472,0,0,1,8.472-8.472q.165,0,.331.006a8.607,8.607,0,0,1,8.135,8.135,8.452,8.452,0,0,1-4.975,8.052,7.016,7.016,0,0,0-4.261,6.4v2.056a.77.77,0,1,0,1.54,0v-2.056a5.494,5.494,0,0,1,3.356-4.992A10.012,10.012,0,0,0,162.4,88Z" transform="translate(-130.137 -72.291)" fill="#fff"/>
      <path id="Path_29355" data-name="Path 29355" d="M227.081,384a3.081,3.081,0,1,0,3.081,3.081A3.081,3.081,0,0,0,227.081,384Zm0,4.621a1.54,1.54,0,1,1,1.54-1.54A1.54,1.54,0,0,1,227.081,388.621Z" transform="translate(-195.206 -339.802)" fill="#fff"/>
    </g>
  </g>
</svg>
