<svg id="slack-new-logo" xmlns="http://www.w3.org/2000/svg" width="36.128" height="36.2" viewBox="0 0 36.128 36.2">
  <path id="Path_29415" data-name="Path 29415" d="M13.246,0a3.619,3.619,0,0,0,0,7.238h3.613V3.621A3.619,3.619,0,0,0,13.246,0h0m0,9.653H3.613a3.62,3.62,0,0,0,0,7.24h9.634a3.62,3.62,0,0,0,0-7.24Z" transform="translate(0 0)" fill="#1448a6" fill-rule="evenodd"/>
  <path id="Path_29416" data-name="Path 29416" d="M1322.259,13.273a3.613,3.613,0,1,0-7.227,0v3.621h3.613A3.617,3.617,0,0,0,1322.259,13.273Zm-9.634,0V3.619a3.613,3.613,0,1,0-7.225,0v9.653a3.613,3.613,0,1,0,7.225,0Z" transform="translate(-1286.132 0)" fill="#1448a6" fill-rule="evenodd"/>
  <path id="Path_29417" data-name="Path 29417" d="M1308.913,1324.795a3.619,3.619,0,0,0,0-7.238H1305.3v3.619A3.618,3.618,0,0,0,1308.913,1324.795Zm0-9.655h9.634a3.62,3.62,0,0,0,0-7.24h-9.634a3.62,3.62,0,0,0,0,7.24Z" transform="translate(-1286.033 -1288.595)" fill="#1448a6" fill-rule="evenodd"/>
  <path id="Path_29418" data-name="Path 29418" d="M0,1311.619a3.613,3.613,0,1,0,7.227,0V1308H3.613A3.616,3.616,0,0,0,0,1311.619Zm9.634,0v9.653a3.613,3.613,0,1,0,7.225,0v-9.652a3.613,3.613,0,1,0-7.225,0h0" transform="translate(0 -1288.693)" fill="#1448a6" fill-rule="evenodd"/>
</svg>
