<svg id="Group_49" data-name="Group 49" xmlns="http://www.w3.org/2000/svg" width="40.845" height="28.598" viewBox="0 0 40.845 28.598">
  <path id="Path_308" data-name="Path 308" d="M709,383.475a5.117,5.117,0,0,0-3.6-3.6c-3.2-.874-15.981-.874-15.981-.874s-12.785,0-15.981.841a5.221,5.221,0,0,0-3.6,3.634C669,386.671,669,393.3,669,393.3s0,6.661.841,9.824a5.118,5.118,0,0,0,3.6,3.6c3.23.875,15.981.875,15.981.875s12.785,0,15.981-.841a5.118,5.118,0,0,0,3.6-3.6c.841-3.2.841-9.824.841-9.824s.034-6.662-.841-9.858Zm-23.652,15.947V387.175l10.631,6.124Zm0,0" transform="translate(-669 -379)" fill="#fff"/>
</svg>
