<svg xmlns="http://www.w3.org/2000/svg" width="99.975" height="143.594" viewBox="0 0 99.975 143.594"><defs><style>.a{fill:#534cd8;}.b{fill:#96e2b9;}.c{fill:#fff;}.d{fill:#12122f;}.e{fill:#ff8718;}.f{fill:#e07012;}.g{fill:#3bbabc;}</style></defs><g transform="translate(0)"><ellipse class="a" cx="31.162" cy="6.037" rx="31.162" ry="6.037" transform="translate(14.043 131.52)"/><path class="b" d="M52.75,277.243a1.988,1.988,0,0,1-.153-3.967l4.182-.319a34.581,34.581,0,0,1,1.907-16.823,1.988,1.988,0,1,1,3.71,1.431,30.489,30.489,0,0,0-1.349,16.823,2,2,0,0,1-.362,1.6,1.965,1.965,0,0,1-1.431.787l-6.352.477Z" transform="translate(-31.092 -137.841)"/><path class="b" d="M137.74,275.578a1.993,1.993,0,0,1-1.974-1.75l-2.022-16.647a1.988,1.988,0,0,1,3.943-.477l1.807,14.863,4.568-.086a1.965,1.965,0,0,1,2.022,1.946,1.988,1.988,0,0,1-1.946,2.027l-6.361.124Z" transform="translate(-74.482 -137.94)"/><path class="b" d="M66.643,139.578c-7.7.358-20.466-.477-26.279-8.106s-8.33-17.643-9.327-27.495c-1.149-11.339-.777-17.872-.119-29.254.291-5.021.257-4.425,1.035-17.863.191-3.285.892-7.315,3.786-8.278,3.147-1.04,5.851.267,6.2,3.815s1.1,6.8,1.473,10.352,3.281,7.334,6.423,6.309c2.928-.954,4.249-5.021,4.4-8.345.172-3.791-.591-16.69-.42-20.5a20.081,20.081,0,0,1,1.3-7.482c1.049-2.289,3.266-4.153,5.6-3.815,3.6.477,5.016,5.245,5.636,9.155,1.187,7.472.319,16.918,1.507,24.386.415,2.618,1.588,5.908,4.5,5.57,1.431-.162,5.164-.553,5.422-7.372.377-10.119-2.26-22.245-1.2-32.3.41-3.877,1.717-8.583,5.245-9.289,2.341-.477,4.687,1.211,5.927,3.414a20.578,20.578,0,0,1,1.946,7.4c2.732,20.471,4.335,38.043,7.067,58.509,1.1,8.33,2.222,16.852.625,25.091a36.609,36.609,0,0,1-11.83,20.657C79.575,139.254,74.34,139.216,66.643,139.578Z" transform="translate(-20.366 -14.438)"/><path class="b" d="M127.6,9.458c-1.669.181-11.654,16.947-9.494,18.854s18.068-.477,20.118-.882S129.755,9.238,127.6,9.458Z" transform="translate(-66.144 -9.456)"/><path class="b" d="M81.23,33.418c-1.683.181-11.668,16.937-9.513,18.873s18.072-.477,20.123-.877S83.371,33.184,81.23,33.418Z" transform="translate(-41.876 -21.99)"/><path class="b" d="M33.471,68.928c-1.664.181-11.649,16.933-9.494,18.869s18.072-.477,20.123-.877S35.631,68.694,33.471,68.928Z" transform="translate(-16.901 -40.568)"/><path class="c" d="M59.181,150.63s-6.1,9.384-13.628,9.384S31.92,150.63,31.92,150.63s6.1-9.38,13.633-9.38S59.181,150.63,59.181,150.63Z" transform="translate(-21.215 -78.405)"/><ellipse class="d" cx="4.377" cy="6.58" rx="4.377" ry="6.58" transform="translate(22.054 62.74)"/><path class="c" d="M143.891,150.574s-5.245,9.384-11.726,9.384-11.726-9.384-11.726-9.384,5.245-9.384,11.726-9.384S143.891,150.574,143.891,150.574Z" transform="translate(-67.525 -78.373)"/><ellipse class="d" cx="4.377" cy="6.58" rx="4.377" ry="6.58" transform="translate(61.475 62.74)"/><path class="e" d="M24.453,188.644c-6.108-4.6-4.849,9.6-2.985,11.034s4.892-1.006,4.892-1.006-.515,15.8,10.643,24.3,34.571,4.969,41.2,1.431,12.875-11,14.563-18.3.358-7.563.868-8.965c3.905,1.636,3.624-3.228,3.481-6.042s-2.675-5.431-3.767-4.768S65.69,189.373,24.453,188.644Z" transform="translate(-14.944 -101.932)"/><path class="f" d="M65.934,239.148a70.251,70.251,0,0,1-27.814-5.5,25.763,25.763,0,0,0,8.4,11.759c11.158,8.5,34.571,4.969,41.2,1.431,6.452-3.438,12.536-10.615,14.41-17.724C92.9,235.314,80.077,239.148,65.934,239.148Z" transform="translate(-24.458 -124.369)"/><path class="e" d="M26.848,231.708a1.984,1.984,0,0,1-1.984-1.907c-.439-9.06,2.713-25.411,2.861-26.1a1.984,1.984,0,1,1,3.9.758c-.033.167-3.195,16.561-2.78,25.153a1.988,1.988,0,0,1-1.907,2.079Z" transform="translate(-17.502 -110.235)"/><path class="d" d="M69.046,235.754a.954.954,0,0,1-.477-1.74,2.905,2.905,0,0,0,1.178-2.918,3.338,3.338,0,0,0-.954-1.678,6.5,6.5,0,0,1-1.092-1.769c-.792-2.05.176-3.815,1.035-5.331a2.384,2.384,0,0,0-.277-2.637,6.489,6.489,0,0,1-1.864-4.4,3.39,3.39,0,0,1,1.144-2.418.954.954,0,0,1,1.235,1.4,1.521,1.521,0,0,0-.52,1.121,4.634,4.634,0,0,0,1.359,3.033,4.253,4.253,0,0,1,.548,4.811c-.753,1.359-1.431,2.527-.925,3.762a4.864,4.864,0,0,0,.83,1.249,5.064,5.064,0,0,1,1.335,2.627,4.59,4.59,0,0,1-2.1,4.768A.953.953,0,0,1,69.046,235.754Z" transform="translate(-39.353 -115.807)"/><path class="d" d="M90.708,237.48a.954.954,0,0,1-.477-1.741,3.147,3.147,0,0,0,1.3-2.747,4.292,4.292,0,0,0-.954-1.979,8.9,8.9,0,0,1-.658-1.006,3.838,3.838,0,0,1,0-4.449,4.279,4.279,0,0,0,.706-2.732,8.144,8.144,0,0,0-.9-2.06,9.06,9.06,0,0,1-1.1-2.689c-.243-1.359-.424-3.843,1.135-5.217a.954.954,0,0,1,1.23,1.4c-.625.553-.825,1.855-.529,3.486a7.463,7.463,0,0,0,.9,2.132,9.841,9.841,0,0,1,1.092,2.527,5.966,5.966,0,0,1-.954,4.11,2.012,2.012,0,0,0,.024,2.556c.162.281.358.563.567.863a5.848,5.848,0,0,1,1.283,2.909,4.975,4.975,0,0,1-2.232,4.492A.906.906,0,0,1,90.708,237.48Z" transform="translate(-50.801 -115.807)"/><path class="d" d="M110.914,237.259a.939.939,0,0,1-.463-1.75,3.128,3.128,0,0,0,1.292-2.341c.033-.477-.477-1.144-.954-1.726a9.8,9.8,0,0,1-.7-.954c-1.187-1.907-.415-3.934.043-5.155l.21-.534a5.617,5.617,0,0,0,.539-1.907A5.238,5.238,0,0,0,109.8,220.4a9.507,9.507,0,0,1-1.149-2.232,5.3,5.3,0,0,1,1.326-5.722.954.954,0,0,1,1.24,1.392,3.625,3.625,0,0,0-.787,3.815,8.217,8.217,0,0,0,.954,1.793,6.847,6.847,0,0,1,1.364,3.467,6.962,6.962,0,0,1-.672,2.618c-.067.172-.134.334-.2.477-.587,1.555-.792,2.58-.21,3.51a8.788,8.788,0,0,0,.572.753,4.542,4.542,0,0,1,1.383,3.037,4.967,4.967,0,0,1-2.222,3.815A.953.953,0,0,1,110.914,237.259Z" transform="translate(-61.199 -115.586)"/><path class="d" d="M130.272,235.039a.954.954,0,0,1-.477-1.741,3.142,3.142,0,0,0,1.287-2.861c-.067-.52-.405-.873-.954-1.431a4.454,4.454,0,0,1-1.383-2.041,4.86,4.86,0,0,1,.634-3.538,8.657,8.657,0,0,0,.477-1.173,4.659,4.659,0,0,0-.2-3.023,8.582,8.582,0,0,0-.563-1.049,6.28,6.28,0,0,1-.987-2.432,4.336,4.336,0,0,1,1.187-3.986.954.954,0,1,1,1.235,1.4,2.692,2.692,0,0,0-.577,2.322,4.592,4.592,0,0,0,.739,1.74,10.893,10.893,0,0,1,.682,1.273,6.514,6.514,0,0,1,.267,4.292,9.66,9.66,0,0,1-.6,1.431,3.163,3.163,0,0,0-.505,2.265,2.913,2.913,0,0,0,.882,1.178,4.249,4.249,0,0,1,1.5,2.5,4.964,4.964,0,0,1-2.208,4.735A.954.954,0,0,1,130.272,235.039Z" transform="translate(-71.501 -115.092)"/><path class="d" d="M62.207,212.015c-10.967,0-20.027-.362-20.79-.391a.923.923,0,1,1,.057-1.845c.386,0,38.81,1.55,54.479-1.7a.954.954,0,1,1,.377,1.822C88.076,211.6,74.018,212.015,62.207,212.015Z" transform="translate(-25.714 -113.321)"/><path class="b" d="M27.244,262.806a1.984,1.984,0,0,1-1.936-1.555,19.374,19.374,0,0,1-.4-3.295,1.986,1.986,0,1,1,3.967-.191,16.237,16.237,0,0,0,.305,2.623,1.979,1.979,0,0,1-1.5,2.384,1.95,1.95,0,0,1-.434.033Z" transform="translate(-17.545 -138.372)"/><path class="g" d="M137.92,210.2c2.2-3.638,12.951-7.444,13.876-7.63s2.289,2.756,2.289,2.756,12.689-8.268,13.385-7.892,9.008,15.7,9.136,16.732-26.036,14.391-27.862,14.782S136.9,211.923,137.92,210.2Z" transform="translate(-76.631 -107.793)"/><path class="e" d="M181.224,222.187a1.85,1.85,0,0,1-.534-.072,1.984,1.984,0,0,1-1.383-2.446c.677-2.437-4.711-12.107-14.6-23.484a1.984,1.984,0,1,1,2.995-2.6c.176.2,4.292,4.94,8.264,10.524,7.629,10.672,7.734,14.6,7.153,16.628A1.979,1.979,0,0,1,181.224,222.187Z" transform="translate(-90.428 -105.425)"/><path class="b" d="M195.27,251.53a1.988,1.988,0,0,1-.916-3.753c.086-.043.119-.067.157-.205a1.984,1.984,0,0,1,3.815,1.063,4.182,4.182,0,0,1-2.155,2.67A1.95,1.95,0,0,1,195.27,251.53Z" transform="translate(-105.633 -133.328)"/><path class="d" d="M29.75,160.961a20.275,20.275,0,1,1,20.271-20.274A20.276,20.276,0,0,1,29.75,160.961Zm0-38.686a18.411,18.411,0,1,0,18.406,18.409A18.411,18.411,0,0,0,29.75,122.274Z" transform="translate(-9.47 -67.502)"/><path class="d" d="M129.345,160.961a20.275,20.275,0,1,1,20.275-20.275A20.275,20.275,0,0,1,129.345,160.961Zm0-38.686a18.411,18.411,0,1,0,18.411,18.411A18.411,18.411,0,0,0,129.345,122.274Z" transform="translate(-61.576 -67.502)"/><path class="d" d="M100.421,160.748a.954.954,0,0,1-.663-.272c-3.548-3.572-7.372-.124-7.534.024a.954.954,0,0,1-1.273-1.364c1.817-1.693,6.266-3.867,10.133.024a.93.93,0,0,1-.663,1.588Z" transform="translate(-52.007 -86.635)"/></g></svg>